<?xml version="1.0" encoding="iso-8859-1"?>
<!-- Generator: Adobe Illustrator 24.3.0, SVG Export Plug-In . SVG Version: 6.00 Build 0)  -->
<svg version="1.1" xmlns="http://www.w3.org/2000/svg" xmlns:xlink="http://www.w3.org/1999/xlink" x="0px" y="0px"
	 viewBox="0 0 64 64" style="enable-background:new 0 0 64 64;" xml:space="preserve">
<g id="Layer_2" style="display:none;">
</g>
<g id="Layer_1" style="display:none;">
	<g id="XMLID_1_" style="display:inline;">
		<path id="XMLID_126_" style="fill-rule:evenodd;clip-rule:evenodd;" d="M36.549,58.613c-2.209,0.72-16.206,2.903-26.601-5.215
			S0.009,34.147,0.001,33.425S-0.112,19.74,11.898,10.47s23.445-8.163,26.545-8.048c3.1,0.115,15.689,2.393,21.761,12.52
			c4.648,7.752,3.876,12.773,3.251,18.178c-0.262,2.268-1.401,4.81-1.979,6.118c-2.82,6.393-11.671,13.836-11.671,13.836
			c1.329,4.901,9.926,6.216,9.926,6.216C48.337,66.665,37.218,58.395,36.549,58.613z M6.667,32.642l16.059,16.127
			c0.327,0.327,0.654,0.689,1.091,0.84c0.735,0.254,1.949,0.27,2.786-0.65c1.374-1.512,28.165-28.165,28.165-28.165
			s1.322-1.163,0.044-2.441c-1.768-1.768-4.379-4.379-4.379-4.379s-1.142-1.448-2.389-0.201
			c-1.855,1.855-23.157,23.157-23.157,23.157l-11.15-11.15c0,0-0.883-1.231-2.116,0.002c-1.977,1.977-4.724,4.724-4.724,4.724
			S5.657,31.632,6.667,32.642z"/>
		<path id="XMLID_120_" style="fill-rule:evenodd;clip-rule:evenodd;" d="M36.549,58.613c-2.209,0.72-16.206,2.903-26.601-5.215
			S0.009,34.147,0.001,33.425S-0.112,19.74,11.898,10.47s23.445-8.163,26.545-8.048c3.1,0.115,15.689,2.393,21.761,12.52
			c4.648,7.752,3.876,12.773,3.251,18.178c-0.262,2.268-1.401,4.81-1.979,6.118c-2.82,6.393-11.671,13.836-11.671,13.836
			c1.329,4.901,9.926,6.216,9.926,6.216C48.337,66.665,37.218,58.395,36.549,58.613z M6.667,32.642l16.059,16.127
			c0.327,0.327,0.654,0.689,1.091,0.84c0.735,0.254,1.949,0.27,2.786-0.65c1.374-1.512,28.165-28.165,28.165-28.165
			s1.322-1.163,0.044-2.441c-1.768-1.768-4.379-4.379-4.379-4.379s-1.142-1.448-2.389-0.201
			c-1.855,1.855-23.157,23.157-23.157,23.157l-11.15-11.15c0,0-0.883-1.231-2.116,0.002c-1.977,1.977-4.724,4.724-4.724,4.724
			S5.657,31.632,6.667,32.642z"/>
	</g>
</g>
<g id="Layer_3" style="display:none;">
	<polygon id="XMLID_16_" style="display:inline;" points="0,57 3,46 0,8 16,29 32,8 48,29 64,8 61,46 64,57 	"/>
</g>
<g id="Layer_4" style="display:none;">
	<g id="XMLID_27_" style="display:inline;">
		<path id="XMLID_39_" style="fill:#FFFFFF;" d="M32.803,55.833h-1.607c-11.379,0-20.688-9.31-20.688-20.688V24.688
			C10.508,13.31,19.818,4,31.197,4h1.607c11.379,0,20.688,9.31,20.688,20.688v10.457C53.492,46.524,44.182,55.833,32.803,55.833z"/>
	</g>
</g>
<g id="Layer_5" style="display:none;">
	<g id="XMLID_35_" style="display:inline;">
		<path id="XMLID_41_" d="M30.376,0.135c1.082,0,2.165,0,3.247,0c0.688,0.1,1.38,0.184,2.065,0.303
			c10.56,1.843,18.198,10.896,18.229,21.609c0.011,3.653,0.027,7.307-0.012,10.96c-0.013,1.235-0.092,2.485-0.303,3.7
			c-1.969,11.358-12.231,19.187-23.694,18.116c-11.097-1.037-19.685-10.327-19.817-21.477c-0.045-3.856-0.024-7.712,0.004-11.568
			c0.007-0.988,0.071-1.989,0.247-2.959c1.646-9.116,6.928-15.064,15.74-17.848C27.463,0.534,28.942,0.406,30.376,0.135z"/>
		<path id="XMLID_40_" d="M3.992,53.311c3.301-0.867,6.605-1.724,9.901-2.613c0.441-0.119,0.693-0.005,0.99,0.298
			c2.921,2.977,6.381,5.06,10.454,6.001c1.56,0.361,3.181,0.55,4.782,0.615c1.907,0.078,3.831,0.035,5.733-0.125
			c3.805-0.32,7.236-1.724,10.315-3.959c0.962-0.698,1.857-1.498,2.716-2.321c0.435-0.417,0.818-0.576,1.408-0.422
			c3.152,0.825,6.312,1.622,9.47,2.426c0.17,0.043,0.346,0.066,0.519,0.099c0,3.402-0.011,6.805,0.012,10.207
			c0.003,0.49-0.083,0.633-0.611,0.632c-17.146-0.017-34.293-0.014-51.439-0.014c-1.284,0-2.569-0.017-3.853,0.011
			c-0.363,0.008-0.404-0.111-0.403-0.426C3.996,60.251,3.992,56.781,3.992,53.311z"/>
	</g>
</g>
<g id="Layer_6" style="display:none;">
	<g id="XMLID_36_" style="display:inline;">
		<path id="XMLID_48_" style="fill:#030303;" d="M34.03,0.135c0.364,0.27,0.808,0.174,1.209,0.234
			c8.645,1.302,15.75,7.645,17.96,16.076c0.464,1.771,0.721,3.575,0.721,5.41c0.001,3.788,0.021,7.576-0.004,11.364
			c-0.064,9.837-6.788,18.484-16.301,20.996c-11.294,2.982-22.948-3.416-26.503-14.552c-0.655-2.051-1.019-4.153-1.025-6.307
			c-0.011-3.878-0.039-7.757,0.004-11.635c0.11-9.785,6.826-18.369,16.292-20.86c1.088-0.286,2.193-0.507,3.318-0.601
			c0.101-0.008,0.232,0.029,0.27-0.125C31.323,0.135,32.677,0.135,34.03,0.135z M12.381,27.516c0,0.316-0.005,0.631,0.001,0.947
			c0.043,2.208-0.085,4.418,0.105,6.625c0.31,3.603,1.634,6.826,3.8,9.671c3.234,4.246,7.497,6.872,12.814,7.673
			c2.476,0.373,4.958,0.297,7.39-0.283c3.205-0.764,6.075-2.234,8.522-4.462c4.323-3.937,6.596-8.809,6.605-14.689
			c0.006-3.788,0.008-7.576-0.007-11.365c-0.006-1.399-0.148-2.791-0.492-4.151c-1.017-4.02-3.065-7.416-6.175-10.172
			c-2.497-2.212-5.373-3.738-8.614-4.425c-4.294-0.909-8.51-0.565-12.539,1.329c-3.43,1.613-6.198,3.998-8.262,7.165
			c-2.145,3.29-3.214,6.912-3.151,10.858C12.405,23.998,12.381,25.758,12.381,27.516z"/>
		<path id="XMLID_47_" style="fill:#030303;" d="M3.992,53.311c3.066-1.051,6.196-1.864,9.372-2.506
			c0.176-0.036,0.354-0.066,0.531-0.096c0.441-0.076,0.447-0.071,0.331,0.383c-0.122,0.478-0.271,0.951-0.37,1.434
			c-0.084,0.407-0.31,0.57-0.712,0.645c-2.147,0.397-4.25,0.974-6.338,1.609c-0.371,0.113-0.531,0.255-0.525,0.683
			c0.029,1.961,0.014,3.923,0.012,5.885c-0.001,0.502-0.037,0.496,0.46,0.488c0.113-0.002,0.225,0,0.338,0
			c16.707,0,33.415,0,50.122,0c0.766,0,0.766,0,0.766-0.79c0-1.804,0.001-3.608,0-5.411c0-0.581,0-0.587-0.518-0.741
			c-2.264-0.672-4.546-1.278-6.868-1.718c-0.303-0.057-0.453-0.149-0.515-0.48c-0.103-0.55-0.292-1.083-0.434-1.626
			c-0.096-0.368-0.077-0.405,0.312-0.327c1.168,0.235,2.336,0.477,3.496,0.747c2.146,0.5,4.268,1.091,6.37,1.751
			c0.15,0.047,0.326,0.112,0.466,0.156c0,3.495-0.013,6.906,0,10.401c0.001,0.291-0.056,0.349-0.347,0.347
			c-2.548-0.015-5.096-0.009-7.645-0.009c-15.899,0-31.797,0-47.696,0c-0.09,0-0.183-0.015-0.27,0.003
			c-0.292,0.058-0.348-0.05-0.347-0.341C3.996,60.302,3.992,56.806,3.992,53.311z"/>
	</g>
</g>
<g id="Layer_7" style="display:none;">
	<path id="XMLID_22_" style="display:inline;" d="M61.837,37.583c-2.7,2.7-7.1,2.7-9.8,0s-2.7-7.1,0-9.8s7.1-2.7,9.8,0
		S64.537,34.883,61.837,37.583z M24.837,40.583c-4.5,4.5-11.9,4.5-16.4,0s-4.5-11.9,0-16.4s11.9-4.5,16.4,0c0.5,0.5,0.9,1,1.3,1.6
		h5.5c-0.8-1.8-1.9-3.5-3.4-5c-6.4-6.4-16.9-6.4-23.3,0s-6.4,16.9,0,23.3s16.9,6.4,23.3,0c1.6-1.6,2.8-3.5,3.6-5.5h-5.4
		C25.938,39.283,25.438,39.983,24.837,40.583z M35.537,24.283v4.3l-19.2-0.1v7.4l19.2,0.1v4.3c0,2,2.4,3,3.8,1.6l8-8
		c0.9-0.9,0.9-2.3,0-3.2l-8-8C37.938,21.283,35.537,22.283,35.537,24.283L35.537,24.283z"/>
</g>
<g id="Layer_9" style="display:none;">
	<g id="XMLID_38_" style="display:inline;">
		<path id="XMLID_53_" style="fill:#231F20;" d="M12,36c9.341,1.618,9.292,2.467,18.999,2.467C41.333,38.467,41.324,37.672,52,36
			c0,0,0,14.749-21,14.749C12,50.749,12,36,12,36z"/>
	</g>
	<g id="XMLID_24_" style="display:inline;">
		<path id="XMLID_145_" style="fill:#231F20;" d="M31,12c-0.293,8-28.984,10.034-29,7c0,0,0.045,11.788,10,14
			c11.835,2.63,11.835,2.63,19,2.665c7.844,0.039,7.844,0.039,21-2.665c9.917-2.038,10-14,10-14C62,21.902,31.291,20,31,12z
			 M35,28.333c0,0,0,3-4,3s-4-3-4-3v-5.729c0-0.702,0.569-1.271,1.271-1.271h5.458c0.702,0,1.271,0.569,1.271,1.271V28.333z"/>
		<path id="XMLID_139_" style="fill:#231F20;" d="M31,12c-0.293,8-28.984,10.034-29,7c0,0,0.045,11.788,10,14
			c11.835,2.63,11.835,2.63,19,2.665c7.844,0.039,7.844,0.039,21-2.665c9.917-2.038,10-14,10-14C62,21.902,31.291,20,31,12z
			 M35,28.333c0,0,0,3-4,3s-4-3-4-3v-5.729c0-0.702,0.569-1.271,1.271-1.271h5.458c0.702,0,1.271,0.569,1.271,1.271V28.333z"/>
		<path id="XMLID_136_" style="fill:#231F20;" d="M31,12c-0.293,8-28.984,10.034-29,7c0,0,0.045,11.788,10,14
			c11.835,2.63,11.835,2.63,19,2.665c7.844,0.039,7.844,0.039,21-2.665c9.917-2.038,10-14,10-14C62,21.902,31.291,20,31,12z
			 M35,28.333c0,0,0,3-4,3s-4-3-4-3v-5.729c0-0.702,0.569-1.271,1.271-1.271h5.458c0.702,0,1.271,0.569,1.271,1.271V28.333z"/>
	</g>
</g>
<g id="Layer_10" style="display:none;">
	<path style="display:inline;fill-rule:evenodd;clip-rule:evenodd;" d="M57.093,60.625c0,0-5.278,0-12.315,0
		c0.034,0,0.097-7.565,0.075-7.587c0.013,0.013,0.309-2.095-1.051-3.456c-2.18-2.181-7.486-7.504-8.224-8.24
		c-0.966-0.965-1.71-1.967-2.964-0.715c-0.008,0.008-19.99,20.012-19.975,19.998c-1.44,0-2.442,0-2.853,0c-3.417,0-8.41,0-8.41,0
		l6.314-6.307c0.134-0.173,0.281-0.349,0.445-0.529c0.013-0.014,16.269-16.185,32.317-32.198l13.264-13.25
		c1.765-1.765,6.758-6.986,6.758-6.986c0,0.021,0,8.564,0,8.564s0,0.104,0,0.3h-2.28c0,0-0.799,0.029-0.799,0.773
		s0.813,0.729,0.813,0.729h2.265c0,0.615,0,1.374,0,2.254h-2.28c0,0-0.799,0.029-0.799,0.773c0,0.744,0.813,0.729,0.813,0.729h2.265
		c0,0.7,0,1.455,0,2.254h-2.28c0,0-0.799,0.029-0.799,0.773c0,0.744,0.813,0.729,0.813,0.729h2.265c0,0.723,0,1.476,0,2.254h-2.28
		c0,0-0.799,0.029-0.799,0.773c0,0.744,0.813,0.729,0.813,0.729h2.265c0,0.734,0,1.487,0,2.254h-2.28c0,0-0.799,0.029-0.799,0.773
		c0,0.744,0.813,0.729,0.813,0.729h2.265c0,0.741,0,1.493,0,2.254h-2.28c0,0-0.799,0.029-0.799,0.773
		c0,0.744,0.813,0.729,0.813,0.729h2.265c0,0.746,0,1.498,0,2.254h-2.28c0,0-0.799,0.029-0.799,0.773
		c0,0.744,0.813,0.729,0.813,0.729h2.265c0,0.776,0,1.553,0,2.329h-2.28c0,0-0.799,0.029-0.799,0.773
		c0,0.744,0.813,0.729,0.813,0.729h2.265c0,0.755,0,1.507,0,2.254h-2.28c0,0-0.799,0.029-0.799,0.773s0.813,0.729,0.813,0.729h2.265
		c0,0.761,0,1.513,0,2.254h-2.28c0,0-0.799,0.029-0.799,0.773c0,0.744,0.813,0.729,0.813,0.729h2.265c0,0.767,0,1.52,0,2.254h-2.28
		c0,0-0.799,0.029-0.799,0.773s0.813,0.729,0.813,0.729h2.265c0,0.778,0,1.531,0,2.254h-2.28c0,0-0.799,0.029-0.799,0.773
		c0,0.744,0.813,0.729,0.813,0.729h2.265c0,0.8,0,1.554,0,2.254h-2.28c0,0-0.799,0.029-0.799,0.773c0,0.744,0.813,0.729,0.813,0.729
		h2.265c0,0.127,0,0.254,0,0.376c0,1.742,0,2.938,0,3.38H57.093z M50.448,23.44c0,0-0.699,0.016-1.463,0.782
		c-8.116,8.136-8.345,8.301-8.353,8.309c-1.251,1.254-0.249,1.998,0.715,2.965c0.736,0.738,6.598,6.549,8.776,8.732
		c1.207,1.21,1.788,0.949,1.788-0.456c0-1.466,0-18.865,0-18.865S51.986,23.491,50.448,23.44z"/>
</g>
<g id="Layer_7_copy" style="display:none;">
	<path id="XMLID_23_" style="display:inline;" d="M62.459,13.431c0,6.05-4.93,10.98-10.98,10.98s-10.98-4.93-10.98-10.98
		c0-6.05,4.93-10.98,10.98-10.98S62.459,7.381,62.459,13.431z M18.09,27.997l4.818,4.818l-21.624,21.4l8.291,8.291l21.624-21.4
		l4.818,4.818c2.241,2.241,6.05,0.672,6.05-2.465V25.532c0-2.017-1.569-3.585-3.585-3.585H20.555
		C17.417,21.947,15.849,25.756,18.09,27.997L18.09,27.997z"/>
</g>
<g id="Layer_11" style="display:none;opacity:0.37;">
	<path id="XMLID_52_" style="display:inline;" d="M21.856,29.464h20.287v-7.608c0-2.8-0.991-5.191-2.972-7.172
		S34.8,11.713,32,11.713s-5.191,0.991-7.172,2.972s-2.972,4.372-2.972,7.172V29.464z M54.823,33.268v22.823
		c0,1.057-0.37,1.955-1.109,2.694c-0.74,0.74-1.638,1.109-2.694,1.109H12.981c-1.057,0-1.955-0.37-2.694-1.109
		c-0.74-0.74-1.109-1.638-1.109-2.694V33.268c0-1.057,0.37-1.955,1.109-2.694c0.74-0.74,1.638-1.109,2.694-1.109h1.268v-7.608
		c0-4.86,1.743-9.034,5.23-12.521S27.14,4.105,32,4.105s9.034,1.743,12.521,5.23s5.23,7.66,5.23,12.521v7.608h1.268
		c1.057,0,1.955,0.37,2.694,1.109C54.453,31.313,54.823,32.211,54.823,33.268z"/>
</g>
<g id="Layer_12" style="display:none;">
	<g id="Layer_13" style="display:inline;">
		<path id="XMLID_61_" style="fill-rule:evenodd;clip-rule:evenodd;" d="M3.707,41.656l16.996,0c0.797,0,1.274,0.886,0.834,1.55
			l-8.618,13.002c-0.399,0.601-1.284,0.596-1.675-0.011L2.866,43.195C2.437,42.531,2.915,41.656,3.707,41.656z"/>
		<path id="XMLID_60_" style="fill-rule:evenodd;clip-rule:evenodd;" d="M61.77,23.677l-16.886,0c-0.815,0-1.323-0.838-0.91-1.504
			l8.053-13.003c0.398-0.643,1.372-0.662,1.798-0.035l8.833,13.003C63.109,22.803,62.605,23.677,61.77,23.677z"/>
		<g id="Layer_25">
			<g id="XMLID_57_">
				<path id="XMLID_108_" style="fill-rule:evenodd;clip-rule:evenodd;" d="M10.978,48.993l0-32.898c0,0,0.356-10.762,11.863-10.762
					c11.507,0,11.625,9.784,11.625,9.784l0,17.611l-2.373-0.122l0-17.18c0,0-0.093-7.646-9.101-7.646
					c-9.008,0-9.524,8.683-9.524,8.683l0,33.143L10.978,48.993z"/>
				<path id="XMLID_131_" d="M14.219,50.563l-3.991-0.981V16.096c0.004-0.14,0.52-11.512,12.613-11.512
					c12.107,0,12.374,10.419,12.375,10.524v18.41l-3.872-0.2V15.425c-0.005-0.271-0.218-6.896-8.351-6.896
					c-8.207,0-8.756,7.652-8.775,7.978L14.219,50.563z M11.728,48.405l0.991,0.243V16.462c0.007-0.138,0.67-9.433,10.274-9.433
					c9.637,0,9.85,8.303,9.851,8.387v16.477l0.872,0.045V15.117c-0.006-0.358-0.272-9.034-10.875-9.034
					c-10.659,0-11.1,9.627-11.113,10.037L11.728,48.405z"/>
				<path id="XMLID_98_" d="M14.439,50.872l-4.431-1.089V16.096c0.004-0.151,0.53-11.762,12.832-11.762
					c12.322,0,12.594,10.664,12.595,10.771v18.675l-4.312-0.223V15.425c-0.005-0.255-0.226-6.646-8.131-6.646
					c-7.961,0-8.535,7.431-8.556,7.747L14.439,50.872z M11.948,48.203l0.551,0.136V16.462c0.008-0.157,0.687-9.683,10.494-9.683
					c9.852,0,10.07,8.547,10.071,8.633v16.242l0.432,0.022v-16.56c-0.007-0.344-0.281-8.784-10.655-8.784
					c-10.449,0-10.88,9.396-10.893,9.796L11.948,48.203z"/>
				<path id="XMLID_124_" d="M15.189,51.829l-5.931-1.458V16.096C9.262,15.949,9.772,3.583,22.841,3.583
					c13.089,0,13.344,11.399,13.345,11.514v19.472l-5.812-0.301V15.425c-0.005-0.226-0.207-5.896-7.381-5.896
					c-7.267,0-7.789,6.758-7.807,7.045L15.189,51.829z M10.758,49.195l2.931,0.72l-0.002-33.389
					c0.024-0.394,0.649-8.497,9.306-8.497c8.626,0,8.875,7.079,8.881,7.38v17.435l2.812,0.146V15.104
					C34.677,14.707,34.34,5.083,22.841,5.083c-11.532,0-12.066,10.586-12.083,11.037L10.758,49.195z M13.249,49.296l-2.051-0.505
					l0-32.661c0.015-0.454,0.476-10.546,11.643-10.546c11.088,0,11.397,9.13,11.405,9.519v17.365l-1.933-0.101V15.413
					c-0.007-0.309-0.287-7.883-9.321-7.883c-9.09,0-9.722,8.608-9.745,8.974L13.249,49.296z"/>
				<path id="XMLID_104_" style="fill-rule:evenodd;clip-rule:evenodd;" d="M54.612,16.218l0,32.898c0,0,0.614,10.762-10.893,10.762
					s-11.625-9.784-11.625-9.784l0-17.611l2.373,0.122l0,17.18c0,0,0.093,7.646,9.101,7.646c9.008,0,8.554-8.683,8.554-8.683
					l0-33.143L54.612,16.218z"/>
				<path id="XMLID_115_" d="M43.719,60.628c-12.107,0-12.374-10.42-12.375-10.525V31.694l3.872,0.199v17.893
					c0.005,0.271,0.219,6.896,8.352,6.896c2.492,0,4.43-0.707,5.758-2.101c2.189-2.298,2.049-5.76,2.047-5.794L51.371,14.65
					l3.991,0.979v33.487c0.01,0.157,0.241,4.894-2.952,8.273C50.381,59.538,47.457,60.628,43.719,60.628z M32.844,33.273v16.82
					c0.006,0.358,0.272,9.034,10.875,9.034c3.309,0,5.866-0.932,7.602-2.768c2.754-2.916,2.546-7.159,2.543-7.201l-0.001-32.353
					l-0.991-0.243v32.186c0.008,0.128,0.183,4.082-2.449,6.855c-1.623,1.71-3.929,2.577-6.854,2.577
					c-9.637,0-9.851-8.303-9.852-8.387V33.317L32.844,33.273z"/>
				<path id="XMLID_54_" d="M43.719,60.878c-12.322,0-12.594-10.664-12.595-10.771V31.432l4.312,0.222v18.132
					c0.006,0.255,0.226,6.646,8.131,6.646c7.961,0,7.565-7.431,7.586-7.747L51.151,14.34l4.431,1.087v33.688
					C55.577,49.268,56.021,60.878,43.719,60.878z M33.064,33.534v16.56c0.007,0.344,0.282,8.784,10.655,8.784
					c10.404,0,9.909-9.398,9.924-9.798l-0.001-32.072l-0.551-0.135v31.876c-0.008,0.157,0.282,9.683-9.524,9.683
					c-9.852,0-10.07-8.547-10.071-8.633V33.557L33.064,33.534z"/>
				<path id="XMLID_111_" d="M43.719,61.628c-13.038,0-13.344-11.396-13.345-11.512V30.643l5.812,0.299v18.844
					c0.014,0.588,0.339,5.896,7.382,5.896c6.163,0,6.832-4.828,6.834-6.904V13.384l5.931,1.456v34.277
					c0.013,0.953-0.096,5.787-3.433,9.169C50.71,60.503,47.621,61.628,43.719,61.628z M31.874,32.222v17.885
					c0.009,0.396,0.354,10.021,11.845,10.021c3.486,0,6.216-0.975,8.112-2.896c2.919-2.957,3.012-7.247,3.001-8.077V16.016
					l-2.931-0.719l0.001,33.388c-0.003,2.065-0.607,8.497-8.335,8.497c-8.613,0-8.875-7.077-8.882-7.378V32.367L31.874,32.222z
					 M43.719,59.628c-11.088,0-11.397-9.131-11.405-9.52V32.744l1.933,0.101v16.954c0.008,0.309,0.287,7.883,9.321,7.883
					c2.682,0,4.796-0.755,6.284-2.245c2.373-2.376,2.49-5.958,2.489-6.652V15.917l2.052,0.503l0.001,32.661
					c0.009,1.527-0.247,5.159-2.814,7.743C49.729,58.685,47.085,59.628,43.719,59.628z"/>
			</g>
		</g>
	</g>
</g>
<g id="case_thicc" style="display:none;">
	<g id="Layer_13_copy" style="display:inline;">
		<path style="fill-rule:evenodd;clip-rule:evenodd;" d="M61.77,23.68h-5.44v25.44c0.01,0.95-0.09,5.78-3.43,9.17
			c-2.19,2.21-5.28,3.34-9.18,3.34c-13.04,0-13.34-11.4-13.35-11.51V15.43c0-0.23-0.2-5.9-7.38-5.9c-7.26,0-7.79,6.76-7.8,7.04
			v25.09h5.51c0.8,0,1.28,0.88,0.84,1.55l-8.62,13c-0.4,0.6-1.29,0.59-1.68-0.01l-8.37-13c-0.43-0.67,0.05-1.54,0.84-1.54h5.55V16.1
			c0-0.15,0.51-12.52,13.58-12.52c13.09,0,13.34,11.4,13.35,11.52v34.69c0.01,0.58,0.33,5.89,7.38,5.89c6.16,0,6.83-4.83,6.83-6.9
			v-25.1h-5.52c-0.81,0-1.32-0.84-0.91-1.51l8.06-13c0.4-0.64,1.37-0.66,1.79-0.03l8.84,13C63.11,22.8,62.61,23.68,61.77,23.68z"/>
		<g id="Layer_25_copy">
		</g>
	</g>
</g>
<g id="Layer_14" style="display:none;">
	<path id="XMLID_65_" style="display:inline;fill-rule:evenodd;clip-rule:evenodd;" d="M24.393,48.048c0,0-1.975-3.023-4.334-16.243
		c-0.006-0.032-8.944-16.052-8.944-16.052s-1.621-1.904,0.275-3.89s3.682,1.857,3.682,1.857l7.915,11.832L20.59,5.709
		c0,0-1.011-3.2,2.01-3.465c3.021-0.265,2.944,3.03,2.944,3.03l3.099,18.207l3.427-19.86c0,0,0.294-3.041,2.97-2.738
		s2.142,3.47,2.142,3.47l-2.468,19.353l7.878-16.2c0,0,1.146-2.939,3.483-1.536c2.337,1.403,0.687,3.504,0.687,3.504l-7.407,16.993
		c0,0-0.779,1.497,1.578,3.398c1.805,1.456,4.854-0.485,4.854-0.485l2.791-1.82c0,0,2.573-2.37,4.733-0.364
		c2.016,1.872-1.82,4.126-1.82,4.126s-4.842,2.501-6.432,5.583c-0.725,1.406-4.227,4.93-5.212,11.245
		c-0.135,0.865-1.925,1.937-4.832,2.125C27.386,50.767,24.393,48.048,24.393,48.048z"/>
	<path id="XMLID_64_" style="display:inline;fill-rule:evenodd;clip-rule:evenodd;" d="M24.207,47.478l-1.94,13.354
		c0,0,8.096,4.317,18.792,0c0.051-0.02-1.334-14.568-1.334-14.568l-14.913,1.214H24.207z"/>
</g>
<g id="Layer_15" style="display:none;">
	<path id="XMLID_75_" style="display:inline;fill-rule:evenodd;clip-rule:evenodd;" d="M32.743,32.382L3.242,5.435V59.01
		L32.743,32.382z"/>
	<path id="XMLID_68_" style="display:inline;fill-rule:evenodd;clip-rule:evenodd;" d="M61.826,32.382L32.325,5.435V59.01
		L61.826,32.382z"/>
</g>
<g id="Layer_16" style="display:none;">
	<g id="XMLID_69_" style="display:inline;">
		<path id="XMLID_97_" d="M7,47H1V17h6V47z"/>
	</g>
	<g id="XMLID_76_" style="display:inline;">
		<path id="XMLID_91_" d="M24,47H11V17h13V47z"/>
	</g>
	<g id="XMLID_78_" style="display:inline;">
		<path d="M61.94,32.99L42.62,54.87c-0.29,0.33-0.69,0.51-1.11,0.51c-0.18,0-0.37-0.03-0.54-0.1c-0.59-0.22-0.97-0.77-0.97-1.4V47
			H28V17h12v-6.88c0-0.63,0.38-1.18,0.97-1.4c0.59-0.22,1.24-0.06,1.65,0.41l19.32,21.88C62.44,31.57,62.44,32.43,61.94,32.99z"/>
	</g>
</g>
<g id="Layer_26" style="display:none;">
	<g id="XMLID_148_" style="display:inline;">
		<path id="XMLID_150_" d="M42.25,17.5H52.5l-13-13v10.533C39.5,16.28,40.997,17.5,42.25,17.5z"/>
		<path d="M52.5,21v34.13c0,2.44-2.29,4.37-4.73,4.37h-32.2c-2.44,0-4.07-2.03-4.07-4.47V9.25c0-2.43,1.73-4.75,4.17-4.75H36v10.53
			c0,3.42,3.3,5.97,6.25,5.97H52.5z"/>
	</g>
</g>
<g id="Layer_26_copy_2">
	<g id="XMLID_80_">
		<path id="XMLID_81_" d="M42.25,17.5H52.5l-13-13v10.533C39.5,16.28,40.997,17.5,42.25,17.5z"/>
		<path d="M42.25,21C39.3,21,36,18.45,36,15.03V4.5H15.67c-2.44,0-4.17,2.32-4.17,4.75v45.78c0,2.44,1.63,4.47,4.07,4.47h32.2
			c2.44,0,4.73-1.93,4.73-4.37V21H42.25z M43.08,47.23l-3.85,3.85L32,43.85l-7.23,7.23l-3.85-3.85l7.23-7.22l-7.23-7.23l3.85-3.86
			L32,36.16l7.23-7.24l3.85,3.86l-7.23,7.23L43.08,47.23z"/>
	</g>
</g>
<g id="Layer_17" style="display:none;">
	<polygon id="XMLID_71_" style="display:inline;" points="4.849,1.945 1.519,5.249 58.952,62.465 62.282,59.162 	"/>
</g>
<g id="Layer_18" style="display:none;">
	<path style="display:inline;" d="M39.5,4.5h-28v55h41v-41L39.5,4.5z M39.5,9.55l8.61,8.95H39.5V9.55z M48.5,55.5h-33v-47h20v14h13
		V55.5z"/>
	<g id="Layer_20" style="display:inline;">
		<polygon points="36.16,40.005 43.99,47.835 39.83,51.995 32,44.165 24.17,51.995 20.01,47.835 27.84,40.005 20.01,32.175 
			24.17,28.005 32,35.835 39.83,28.005 43.99,32.175 		"/>
	</g>
	<g id="Layer_20_copy">
	</g>
</g>
<g id="Layer_18_copy_2" style="display:none;">
	<path style="display:inline;" d="M39.5,4.5h-28v55h41v-41L39.5,4.5z M39.5,9.55l8.61,8.95H39.5V9.55z M48.5,55.5h-33v-47h20v14h13
		V55.5z"/>
</g>
<g id="Layer_24" style="display:none;">
	<path id="XMLID_105_" style="display:inline;" d="M53.379,39.408C53.89,40.829,54,42.358,54,43.961v0.624
		c3,1.129,3.83,1.501,3.83,2.982c0,3.858-11.525,6.985-25.855,6.985S6.19,51.425,6.19,47.567c0-1.482,0.81-1.853,3.81-2.983v-0.623
		c0-1.603,0.178-3.133,0.689-4.554C3.706,41.6,0.19,43.883,0.19,47.567c0,6.614,14.269,11.975,31.905,11.975
		s31.828-5.361,31.828-11.975C63.923,43.883,60.36,41.601,53.379,39.408z"/>
	<path id="XMLID_99_" style="display:inline;" d="M31.984,28.125c6.018,0,10.896-4.878,10.896-10.896S38.003,6.333,31.984,6.333
		s-10.896,4.878-10.896,10.896S25.966,28.125,31.984,28.125z M39.611,30.849H38.19c-1.89,0.868-3.992,1.362-6.206,1.362
		s-4.307-0.494-6.206-1.362h-1.422c-6.316,0-11.441,5.124-11.441,11.441v3.541c0,2.256,1.83,4.086,4.086,4.086h29.964
		c2.256,0,4.086-1.83,4.086-4.086V42.29C51.052,35.973,45.928,30.849,39.611,30.849z"/>
</g>
<g id="Layer_19" style="display:none;">
	<g style="display:inline;">
		<path d="M16.358,44.197H4.44c-1.457,0-2.648,1.192-2.648,2.648v11.918c0,1.457,1.192,2.648,2.648,2.648h11.918
			c1.457,0,2.648-1.192,2.648-2.648V46.846C19.006,45.389,17.814,44.197,16.358,44.197z"/>
		<path d="M59.129,44.197H47.212c-1.457,0-2.648,1.192-2.648,2.648v11.918c0,1.457,1.192,2.648,2.648,2.648h11.918
			c1.457,0,2.648-1.192,2.648-2.648V46.846C61.778,45.389,60.586,44.197,59.129,44.197z"/>
		<path style="display:none;" d="M37.74,44.2H25.83c-1.46,0-2.65,1.19-2.65,2.65v11.91c0,0.49,0.13,0.95,0.37,1.34
			c-0.2-0.37-0.31-0.79-0.31-1.24V46.94c0-1.45,1.19-2.64,2.65-2.64h11.92c0.91,0,1.71,0.46,2.18,1.17
			C39.53,44.71,38.69,44.2,37.74,44.2z"/>
	</g>
	<path style="display:inline;" d="M40.08,45.61c0.2,0.37,0.31,0.79,0.31,1.24v11.91c0,1.46-1.19,2.65-2.65,2.65H25.83
		c-0.91,0-1.72-0.46-2.19-1.17c0.46,0.76,1.3,1.27,2.25,1.27h11.92c1.45,0,2.64-1.19,2.64-2.65V46.94
		C40.45,46.46,40.32,46,40.08,45.61z"/>
	<path style="display:inline;" d="M40.08,45.61c-0.02-0.05-0.05-0.1-0.09-0.14c-0.47-0.71-1.27-1.17-2.18-1.17H25.89
		c-1.46,0-2.65,1.19-2.65,2.64v11.92c0,0.45,0.11,0.87,0.31,1.24c0.03,0.05,0.05,0.1,0.09,0.14c0.47,0.71,1.28,1.17,2.19,1.17h11.91
		c1.46,0,2.65-1.19,2.65-2.65V46.85C40.39,46.4,40.28,45.98,40.08,45.61z M37.35,57.15c0,0.69-0.57,1.25-1.26,1.25H27.6
		c-0.69,0-1.25-0.56-1.25-1.25v-8.49c0-0.69,0.56-1.26,1.25-1.26h8.49c0.69,0,1.26,0.57,1.26,1.26V57.15z"/>
	<g style="display:inline;">
		<g>
			<path d="M62.95,31.11l-8.31,7.99c-0.82,0.79-2.12,0.79-2.94,0l-8.31-7.99c-1.38-1.32-0.44-3.65,1.47-3.65h4.68V16.55
				c0-3.3-2.7-6-6-6H20.3c-3.31,0-6,2.69-6,6v22.31c0,0.62-0.5,1.12-1.12,1.12h-5.3c-0.61,0-1.12-0.5-1.12-1.12V15.24
				c0-6.75,5.47-12.22,12.22-12.22h25.87c6.75,0,12.22,5.47,12.22,12.22v12.22h4.42C63.39,27.46,64.33,29.79,62.95,31.11z"/>
		</g>
	</g>
</g>
</svg>
