<?xml version="1.0" encoding="utf-8"?>
<!-- Generator: Adobe Illustrator 19.0.0, SVG Export Plug-In . SVG Version: 6.00 Build 0)  -->
<svg version="1.1" id="Layer_1" xmlns="http://www.w3.org/2000/svg" xmlns:xlink="http://www.w3.org/1999/xlink" x="0px" y="0px"
	 viewBox="0 0 64 64" style="enable-background:new 0 0 64 64;" xml:space="preserve">
<style type="text/css">
	.st0{display:none;}
	.st1{display:inline;}
</style>
<g id="Layer_13">
	<g id="icons">
		<g id="Layer_3_1_">
			<path id="XMLID_83_" class="st0" d="M18.6,13.9v15h6V14.3c0-4.1,3.3-7.4,7.4-7.4l0,0c4.1,0,7.4,3.3,7.4,7.4v14.6h6v-15
				c0-7.4-6-13.4-13.4-13.4l0,0C24.6,0.5,18.6,6.5,18.6,13.9z"/>
			<g id="XMLID_82_">
				<path id="XMLID_107_" d="M16.8,15.5v15h6V15.8c0-4.1,5.2-7.4,9.3-7.4l0,0c4.1,0,9.3,3.3,9.3,7.4v14.6h6v-15
					C47.4,8,39.5,2,32.1,2l0,0C24.6,2.1,16.8,8.1,16.8,15.5z"/>
				<path id="XMLID_99_" d="M16.8,15.5v15h6V15.8c0-4.1,5.2-7.4,9.3-7.4l0,0c4.1,0,9.3,3.3,9.3,7.4v14.6h6v-15C47.4,8,39.5,2,32.1,2
					l0,0C24.6,2.1,16.8,8.1,16.8,15.5z"/>
			</g>
			<g id="XMLID_80_">
				<path id="XMLID_98_" d="M14.9,25.7H49c3.6,0,6.6,3,6.6,6.6v23.1c0,3.6-3,6.6-6.6,6.6H14.9c-3.6,0-6.6-3-6.6-6.6V32.3
					C8.3,28.7,11.3,25.7,14.9,25.7z"/>
				<path id="XMLID_95_" d="M14.9,25.7H49c3.6,0,6.6,3,6.6,6.6v23.1c0,3.6-3,6.6-6.6,6.6H14.9c-3.6,0-6.6-3-6.6-6.6V32.3
					C8.3,28.7,11.3,25.7,14.9,25.7z"/>
			</g>
			<path id="XMLID_75_" class="st0" d="M16.3,28.9h31.4c3.3,0,6,2.7,6,6V56c0,3.3-2.7,6-6,6H16.3c-3.3,0-6-2.7-6-6V34.9
				C10.3,31.6,13,28.9,16.3,28.9z"/>
			<path id="XMLID_74_" class="st0" d="M21.8,38.3h18.9c1.3,0,2.4,1.1,2.4,2.4l0,0c0,1.3-1.1,2.4-2.4,2.4H21.8
				c-1.3,0-2.4-1.1-2.4-2.4l0,0C19.4,39.4,20.4,38.3,21.8,38.3z"/>
			<path id="XMLID_72_" class="st0" d="M21.8,36.8h18.9c1.3,0,2.4,1.1,2.4,2.4l0,0c0,1.3-1.1,2.4-2.4,2.4H21.8
				c-1.3,0-2.4-1.1-2.4-2.4l0,0C19.4,37.8,20.4,36.8,21.8,36.8z"/>
			<g id="XMLID_64_" class="st0">
				<path id="XMLID_94_" class="st1" d="M21.8,49.4h18.9c1.3,0,2.4,1.1,2.4,2.4l0,0c0,1.3-1.1,2.4-2.4,2.4H21.8
					c-1.3,0-2.4-1.1-2.4-2.4l0,0C19.4,50.4,20.4,49.4,21.8,49.4z"/>
				<path id="XMLID_92_" class="st1" d="M21.8,49.4h18.9c1.3,0,2.4,1.1,2.4,2.4l0,0c0,1.3-1.1,2.4-2.4,2.4H21.8
					c-1.3,0-2.4-1.1-2.4-2.4l0,0C19.4,50.4,20.4,49.4,21.8,49.4z"/>
			</g>
			<path id="XMLID_53_" class="st0" d="M21.8,47.8h18.9c1.3,0,2.4,1.1,2.4,2.4l0,0c0,1.3-1.1,2.4-2.4,2.4H21.8
				c-1.3,0-2.4-1.1-2.4-2.4l0,0C19.4,48.9,20.4,47.8,21.8,47.8z"/>
		</g>
	</g>
</g>
</svg>
