<?xml version="1.0" encoding="utf-8"?>
<!-- Generator: Adobe Illustrator 19.0.0, SVG Export Plug-In . SVG Version: 6.00 Build 0)  -->
<svg version="1.1" id="Layer_1" xmlns="http://www.w3.org/2000/svg" xmlns:xlink="http://www.w3.org/1999/xlink" x="0px" y="0px"
	 viewBox="0 0 64 64" style="enable-background:new 0 0 64 64;" xml:space="preserve">
<g id="Layer_14">
	<g id="Page-1">
		<g id="icon-95-document-file-odt">
			<path id="document-file-odt" d="M53,52.5v4.4c0,2.4-1.9,4.3-4.3,4.3H16c-2.4,0-4.3-2-4.3-4.4v-50c0-2.4,2-4.4,4.4-4.4h21.7v13.1
				c0,2.4,2,4.3,4.4,4.3H53v4.4H33.4c-3.6,0,19.6-3.6,19.6,0V52.5c0,3.6-23.2,0-19.6,0H53L53,52.5z M40,2.5v13c0,1.2,1,2.2,2.2,2.2
				H53L40,2.5L40,2.5z"/>
		</g>
	</g>
</g>
</svg>
