<?xml version="1.0" encoding="utf-8"?>
<!-- Generator: Adobe Illustrator 19.0.0, SVG Export Plug-In . SVG Version: 6.00 Build 0)  -->
<svg version="1.1" xmlns="http://www.w3.org/2000/svg" xmlns:xlink="http://www.w3.org/1999/xlink" x="0px" y="0px"
	 viewBox="0 0 64 64" style="enable-background:new 0 0 64 64;" xml:space="preserve">
<style type="text/css">
	.st0{display:none;}
	.st1{display:inline;}
	.st2{fill-rule:evenodd;clip-rule:evenodd;}
	.st3{fill:#FFFFFF;}
	.st4{fill:#030303;}
	.st5{fill:#231F20;}
	.st6{display:inline;fill-rule:evenodd;clip-rule:evenodd;}
	.st7{display:none;opacity:0.37;}
</style>
<g id="Layer_2" class="st0">
</g>
<g id="Layer_1" class="st0">
	<g id="XMLID_1_" class="st1">
		<path id="XMLID_126_" class="st2" d="M36.5,58.6c-2.2,0.7-16.2,2.9-26.6-5.2S0,34.1,0,33.4s-0.1-13.7,11.9-23s23.4-8.2,26.5-8
			c3.1,0.1,15.7,2.4,21.8,12.5c4.6,7.8,3.9,12.8,3.3,18.2c-0.3,2.3-1.4,4.8-2,6.1c-2.8,6.4-11.7,13.8-11.7,13.8
			c1.3,4.9,9.9,6.2,9.9,6.2C48.3,66.7,37.2,58.4,36.5,58.6z M6.7,32.6l16.1,16.1c0.3,0.3,0.7,0.7,1.1,0.8c0.7,0.3,1.9,0.3,2.8-0.7
			c1.4-1.5,28.2-28.2,28.2-28.2s1.3-1.2,0-2.4C53,16.6,50.4,14,50.4,14s-1.1-1.4-2.4-0.2c-1.9,1.9-23.2,23.2-23.2,23.2L13.7,25.8
			c0,0-0.9-1.2-2.1,0c-2,2-4.7,4.7-4.7,4.7S5.7,31.6,6.7,32.6z"/>
		<path id="XMLID_120_" class="st2" d="M36.5,58.6c-2.2,0.7-16.2,2.9-26.6-5.2S0,34.1,0,33.4s-0.1-13.7,11.9-23s23.4-8.2,26.5-8
			c3.1,0.1,15.7,2.4,21.8,12.5c4.6,7.8,3.9,12.8,3.3,18.2c-0.3,2.3-1.4,4.8-2,6.1c-2.8,6.4-11.7,13.8-11.7,13.8
			c1.3,4.9,9.9,6.2,9.9,6.2C48.3,66.7,37.2,58.4,36.5,58.6z M6.7,32.6l16.1,16.1c0.3,0.3,0.7,0.7,1.1,0.8c0.7,0.3,1.9,0.3,2.8-0.7
			c1.4-1.5,28.2-28.2,28.2-28.2s1.3-1.2,0-2.4C53,16.6,50.4,14,50.4,14s-1.1-1.4-2.4-0.2c-1.9,1.9-23.2,23.2-23.2,23.2L13.7,25.8
			c0,0-0.9-1.2-2.1,0c-2,2-4.7,4.7-4.7,4.7S5.7,31.6,6.7,32.6z"/>
	</g>
</g>
<g id="Layer_3" class="st0">
	<polygon id="XMLID_16_" class="st1" points="0,57 3,46 0,8 16,29 32,8 48,29 64,8 61,46 64,57 	"/>
</g>
<g id="Layer_4" class="st0">
	<g id="XMLID_27_" class="st1">
		<path id="XMLID_39_" class="st3" d="M32.8,55.8h-1.6c-11.4,0-20.7-9.3-20.7-20.7V24.7C10.5,13.3,19.8,4,31.2,4h1.6
			c11.4,0,20.7,9.3,20.7,20.7v10.5C53.5,46.5,44.2,55.8,32.8,55.8z"/>
	</g>
</g>
<g id="Layer_5" class="st0">
	<g id="XMLID_35_" class="st1">
		<path id="XMLID_41_" d="M30.4,0.1c1.1,0,2.2,0,3.2,0c0.7,0.1,1.4,0.2,2.1,0.3C46.2,2.3,53.9,11.3,53.9,22c0,3.7,0,7.3,0,11
			c0,1.2-0.1,2.5-0.3,3.7c-2,11.4-12.2,19.2-23.7,18.1c-11.1-1-19.7-10.3-19.8-21.5c0-3.9,0-7.7,0-11.6c0-1,0.1-2,0.2-3
			C12,9.7,17.3,3.8,26.1,1C27.5,0.5,28.9,0.4,30.4,0.1z"/>
		<path id="XMLID_40_" d="M4,53.3c3.3-0.9,6.6-1.7,9.9-2.6c0.4-0.1,0.7,0,1,0.3c2.9,3,6.4,5.1,10.5,6c1.6,0.4,3.2,0.5,4.8,0.6
			c1.9,0.1,3.8,0,5.7-0.1c3.8-0.3,7.2-1.7,10.3-4c1-0.7,1.9-1.5,2.7-2.3c0.4-0.4,0.8-0.6,1.4-0.4c3.2,0.8,6.3,1.6,9.5,2.4
			c0.2,0,0.3,0.1,0.5,0.1c0,3.4,0,6.8,0,10.2c0,0.5-0.1,0.6-0.6,0.6c-17.1,0-34.3,0-51.4,0c-1.3,0-2.6,0-3.9,0C4,64.2,4,64,4,63.7
			C4,60.3,4,56.8,4,53.3z"/>
	</g>
</g>
<g id="Layer_6" class="st0">
	<g id="XMLID_36_" class="st1">
		<path id="XMLID_48_" class="st4" d="M34,0.1c0.4,0.3,0.8,0.2,1.2,0.2C43.9,1.7,51,8,53.2,16.4c0.5,1.8,0.7,3.6,0.7,5.4
			c0,3.8,0,7.6,0,11.4c-0.1,9.8-6.8,18.5-16.3,21c-11.3,3-22.9-3.4-26.5-14.6c-0.7-2.1-1-4.2-1-6.3c0-3.9,0-7.8,0-11.6
			c0.1-9.8,6.8-18.4,16.3-20.9c1.1-0.3,2.2-0.5,3.3-0.6c0.1,0,0.2,0,0.3-0.1C31.3,0.1,32.7,0.1,34,0.1z M12.4,27.5
			c0,0.3,0,0.6,0,0.9c0,2.2-0.1,4.4,0.1,6.6c0.3,3.6,1.6,6.8,3.8,9.7c3.2,4.2,7.5,6.9,12.8,7.7c2.5,0.4,5,0.3,7.4-0.3
			c3.2-0.8,6.1-2.2,8.5-4.5c4.3-3.9,6.6-8.8,6.6-14.7c0-3.8,0-7.6,0-11.4c0-1.4-0.1-2.8-0.5-4.2c-1-4-3.1-7.4-6.2-10.2
			c-2.5-2.2-5.4-3.7-8.6-4.4C32,2,27.8,2.3,23.8,4.2c-3.4,1.6-6.2,4-8.3,7.2c-2.1,3.3-3.2,6.9-3.2,10.9C12.4,24,12.4,25.8,12.4,27.5
			z"/>
		<path id="XMLID_47_" class="st4" d="M4,53.3c3.1-1.1,6.2-1.9,9.4-2.5c0.2,0,0.4-0.1,0.5-0.1c0.4-0.1,0.4-0.1,0.3,0.4
			c-0.1,0.5-0.3,1-0.4,1.4c-0.1,0.4-0.3,0.6-0.7,0.6c-2.1,0.4-4.3,1-6.3,1.6c-0.4,0.1-0.5,0.3-0.5,0.7c0,2,0,3.9,0,5.9
			c0,0.5,0,0.5,0.5,0.5c0.1,0,0.2,0,0.3,0c16.7,0,33.4,0,50.1,0c0.8,0,0.8,0,0.8-0.8c0-1.8,0-3.6,0-5.4c0-0.6,0-0.6-0.5-0.7
			c-2.3-0.7-4.5-1.3-6.9-1.7c-0.3-0.1-0.5-0.1-0.5-0.5c-0.1-0.5-0.3-1.1-0.4-1.6c-0.1-0.4-0.1-0.4,0.3-0.3c1.2,0.2,2.3,0.5,3.5,0.7
			c2.1,0.5,4.3,1.1,6.4,1.8c0.1,0,0.3,0.1,0.5,0.2c0,3.5,0,6.9,0,10.4c0,0.3-0.1,0.3-0.3,0.3c-2.5,0-5.1,0-7.6,0
			c-15.9,0-31.8,0-47.7,0c-0.1,0-0.2,0-0.3,0C4,64.2,4,64.1,4,63.8C4,60.3,4,56.8,4,53.3z"/>
	</g>
</g>
<g id="Layer_7" class="st0">
	<path id="XMLID_22_" class="st1" d="M61.8,37.6c-2.7,2.7-7.1,2.7-9.8,0s-2.7-7.1,0-9.8s7.1-2.7,9.8,0S64.5,34.9,61.8,37.6z
		 M24.8,40.6c-4.5,4.5-11.9,4.5-16.4,0s-4.5-11.9,0-16.4s11.9-4.5,16.4,0c0.5,0.5,0.9,1,1.3,1.6h5.5c-0.8-1.8-1.9-3.5-3.4-5
		c-6.4-6.4-16.9-6.4-23.3,0s-6.4,16.9,0,23.3s16.9,6.4,23.3,0c1.6-1.6,2.8-3.5,3.6-5.5h-5.4C25.9,39.3,25.4,40,24.8,40.6z
		 M35.5,24.3v4.3l-19.2-0.1v7.4L35.5,36v4.3c0,2,2.4,3,3.8,1.6l8-8c0.9-0.9,0.9-2.3,0-3.2l-8-8C37.9,21.3,35.5,22.3,35.5,24.3
		L35.5,24.3z"/>
</g>
<g id="Layer_9" class="st0">
	<g id="XMLID_38_" class="st1">
		<path id="XMLID_53_" class="st5" d="M12,36c9.3,1.6,9.3,2.5,19,2.5c10.3,0,10.3-0.8,21-2.5c0,0,0,14.7-21,14.7
			C12,50.7,12,36,12,36z"/>
	</g>
	<g id="XMLID_24_" class="st1">
		<path id="XMLID_145_" class="st5" d="M31,12c-0.3,8-29,10-29,7c0,0,0,11.8,10,14c11.8,2.6,11.8,2.6,19,2.7c7.8,0,7.8,0,21-2.7
			c9.9-2,10-14,10-14C62,21.9,31.3,20,31,12z M35,28.3c0,0,0,3-4,3s-4-3-4-3v-5.7c0-0.7,0.6-1.3,1.3-1.3h5.5c0.7,0,1.3,0.6,1.3,1.3
			V28.3z"/>
		<path id="XMLID_139_" class="st5" d="M31,12c-0.3,8-29,10-29,7c0,0,0,11.8,10,14c11.8,2.6,11.8,2.6,19,2.7c7.8,0,7.8,0,21-2.7
			c9.9-2,10-14,10-14C62,21.9,31.3,20,31,12z M35,28.3c0,0,0,3-4,3s-4-3-4-3v-5.7c0-0.7,0.6-1.3,1.3-1.3h5.5c0.7,0,1.3,0.6,1.3,1.3
			V28.3z"/>
		<path id="XMLID_136_" class="st5" d="M31,12c-0.3,8-29,10-29,7c0,0,0,11.8,10,14c11.8,2.6,11.8,2.6,19,2.7c7.8,0,7.8,0,21-2.7
			c9.9-2,10-14,10-14C62,21.9,31.3,20,31,12z M35,28.3c0,0,0,3-4,3s-4-3-4-3v-5.7c0-0.7,0.6-1.3,1.3-1.3h5.5c0.7,0,1.3,0.6,1.3,1.3
			V28.3z"/>
	</g>
</g>
<g id="Layer_10" class="st0">
	<path class="st6" d="M57.1,60.6c0,0-5.3,0-12.3,0c0,0,0.1-7.6,0.1-7.6c0,0,0.3-2.1-1.1-3.5c-2.2-2.2-7.5-7.5-8.2-8.2
		c-1-1-1.7-2-3-0.7c0,0-20,20-20,20c-1.4,0-2.4,0-2.9,0c-3.4,0-8.4,0-8.4,0l6.3-6.3C7.8,54.1,8,54,8.1,53.8c0,0,16.3-16.2,32.3-32.2
		L53.7,8.3c1.8-1.8,6.8-7,6.8-7c0,0,0,8.6,0,8.6s0,0.1,0,0.3h-2.3c0,0-0.8,0-0.8,0.8s0.8,0.7,0.8,0.7h2.3c0,0.6,0,1.4,0,2.3h-2.3
		c0,0-0.8,0-0.8,0.8c0,0.7,0.8,0.7,0.8,0.7h2.3c0,0.7,0,1.5,0,2.3h-2.3c0,0-0.8,0-0.8,0.8c0,0.7,0.8,0.7,0.8,0.7h2.3
		c0,0.7,0,1.5,0,2.3h-2.3c0,0-0.8,0-0.8,0.8c0,0.7,0.8,0.7,0.8,0.7h2.3c0,0.7,0,1.5,0,2.3h-2.3c0,0-0.8,0-0.8,0.8
		c0,0.7,0.8,0.7,0.8,0.7h2.3c0,0.7,0,1.5,0,2.3h-2.3c0,0-0.8,0-0.8,0.8c0,0.7,0.8,0.7,0.8,0.7h2.3c0,0.7,0,1.5,0,2.3h-2.3
		c0,0-0.8,0-0.8,0.8c0,0.7,0.8,0.7,0.8,0.7h2.3c0,0.8,0,1.6,0,2.3h-2.3c0,0-0.8,0-0.8,0.8c0,0.7,0.8,0.7,0.8,0.7h2.3
		c0,0.8,0,1.5,0,2.3h-2.3c0,0-0.8,0-0.8,0.8s0.8,0.7,0.8,0.7h2.3c0,0.8,0,1.5,0,2.3h-2.3c0,0-0.8,0-0.8,0.8c0,0.7,0.8,0.7,0.8,0.7
		h2.3c0,0.8,0,1.5,0,2.3h-2.3c0,0-0.8,0-0.8,0.8s0.8,0.7,0.8,0.7h2.3c0,0.8,0,1.5,0,2.3h-2.3c0,0-0.8,0-0.8,0.8
		c0,0.7,0.8,0.7,0.8,0.7h2.3c0,0.8,0,1.6,0,2.3h-2.3c0,0-0.8,0-0.8,0.8c0,0.7,0.8,0.7,0.8,0.7h2.3c0,0.1,0,0.3,0,0.4
		c0,1.7,0,2.9,0,3.4H57.1z M50.4,23.4c0,0-0.7,0-1.5,0.8c-8.1,8.1-8.3,8.3-8.4,8.3c-1.3,1.3-0.2,2,0.7,3c0.7,0.7,6.6,6.5,8.8,8.7
		c1.2,1.2,1.8,0.9,1.8-0.5c0-1.5,0-18.9,0-18.9S52,23.5,50.4,23.4z"/>
</g>
<g id="Layer_7_copy" class="st0">
	<path id="XMLID_23_" class="st1" d="M62.5,13.4c0,6.1-4.9,11-11,11s-11-4.9-11-11c0-6.1,4.9-11,11-11S62.5,7.4,62.5,13.4z M18.1,28
		l4.8,4.8L1.3,54.2l8.3,8.3l21.6-21.4l4.8,4.8c2.2,2.2,6.1,0.7,6.1-2.5V25.5c0-2-1.6-3.6-3.6-3.6H20.6C17.4,21.9,15.8,25.8,18.1,28
		L18.1,28z"/>
</g>
<g id="Layer_11" class="st7">
	<path id="XMLID_52_" class="st1" d="M21.9,29.5h20.3v-7.6c0-2.8-1-5.2-3-7.2s-4.4-3-7.2-3s-5.2,1-7.2,3s-3,4.4-3,7.2V29.5z
		 M54.8,33.3v22.8c0,1.1-0.4,2-1.1,2.7c-0.7,0.7-1.6,1.1-2.7,1.1H13c-1.1,0-2-0.4-2.7-1.1c-0.7-0.7-1.1-1.6-1.1-2.7V33.3
		c0-1.1,0.4-2,1.1-2.7c0.7-0.7,1.6-1.1,2.7-1.1h1.3v-7.6c0-4.9,1.7-9,5.2-12.5S27.1,4.1,32,4.1s9,1.7,12.5,5.2s5.2,7.7,5.2,12.5v7.6
		H51c1.1,0,2,0.4,2.7,1.1C54.5,31.3,54.8,32.2,54.8,33.3z"/>
</g>
<g id="Layer_12" class="st0">
	<g id="Layer_13" class="st1">
		<path id="XMLID_61_" class="st2" d="M3.7,41.7l17,0c0.8,0,1.3,0.9,0.8,1.6l-8.6,13c-0.4,0.6-1.3,0.6-1.7,0l-8.4-13
			C2.4,42.5,2.9,41.7,3.7,41.7z"/>
		<path id="XMLID_60_" class="st2" d="M61.8,23.7l-16.9,0c-0.8,0-1.3-0.8-0.9-1.5l8.1-13c0.4-0.6,1.4-0.7,1.8,0l8.8,13
			C63.1,22.8,62.6,23.7,61.8,23.7z"/>
		<g id="Layer_25">
			<g id="XMLID_57_">
				<path id="XMLID_108_" class="st2" d="M11,49l0-32.9c0,0,0.4-10.8,11.9-10.8c11.5,0,11.6,9.8,11.6,9.8l0,17.6l-2.4-0.1l0-17.2
					c0,0-0.1-7.6-9.1-7.6c-9,0-9.5,8.7-9.5,8.7l0,33.1L11,49z"/>
				<path id="XMLID_131_" d="M14.2,50.6l-4-1V16.1c0-0.1,0.5-11.5,12.6-11.5c12.1,0,12.4,10.4,12.4,10.5v18.4l-3.9-0.2V15.4
					c0-0.3-0.2-6.9-8.4-6.9c-8.2,0-8.8,7.7-8.8,8L14.2,50.6z M11.7,48.4l1,0.2V16.5C12.7,16.3,13.4,7,23,7c9.6,0,9.8,8.3,9.9,8.4
					v16.5l0.9,0V15.1c0-0.4-0.3-9-10.9-9c-10.7,0-11.1,9.6-11.1,10L11.7,48.4z"/>
				<path id="XMLID_98_" d="M14.4,50.9L10,49.8V16.1c0-0.2,0.5-11.8,12.8-11.8c12.3,0,12.6,10.7,12.6,10.8v18.7l-4.3-0.2V15.4
					c0-0.3-0.2-6.6-8.1-6.6c-8,0-8.5,7.4-8.6,7.7L14.4,50.9z M11.9,48.2l0.6,0.1V16.5c0-0.2,0.7-9.7,10.5-9.7
					c9.9,0,10.1,8.5,10.1,8.6v16.2l0.4,0V15.1c0-0.3-0.3-8.8-10.7-8.8c-10.4,0-10.9,9.4-10.9,9.8L11.9,48.2z"/>
				<path id="XMLID_124_" d="M15.2,51.8l-5.9-1.5V16.1c0-0.1,0.5-12.5,13.6-12.5c13.1,0,13.3,11.4,13.3,11.5v19.5l-5.8-0.3V15.4
					c0-0.2-0.2-5.9-7.4-5.9c-7.3,0-7.8,6.8-7.8,7L15.2,51.8z M10.8,49.2l2.9,0.7l0-33.4c0-0.4,0.6-8.5,9.3-8.5
					c8.6,0,8.9,7.1,8.9,7.4v17.4l2.8,0.1V15.1c0-0.4-0.3-10-11.8-10c-11.5,0-12.1,10.6-12.1,11L10.8,49.2z M13.2,49.3l-2.1-0.5
					l0-32.7c0-0.5,0.5-10.5,11.6-10.5c11.1,0,11.4,9.1,11.4,9.5v17.4l-1.9-0.1v-17c0-0.3-0.3-7.9-9.3-7.9c-9.1,0-9.7,8.6-9.7,9
					L13.2,49.3z"/>
				<path id="XMLID_104_" class="st2" d="M54.6,16.2l0,32.9c0,0,0.6,10.8-10.9,10.8s-11.6-9.8-11.6-9.8l0-17.6l2.4,0.1l0,17.2
					c0,0,0.1,7.6,9.1,7.6c9,0,8.6-8.7,8.6-8.7l0-33.1L54.6,16.2z"/>
				<path id="XMLID_115_" d="M43.7,60.6c-12.1,0-12.4-10.4-12.4-10.5V31.7l3.9,0.2v17.9c0,0.3,0.2,6.9,8.4,6.9
					c2.5,0,4.4-0.7,5.8-2.1c2.2-2.3,2-5.8,2-5.8l0-34.1l4,1v33.5c0,0.2,0.2,4.9-3,8.3C50.4,59.5,47.5,60.6,43.7,60.6z M32.8,33.3
					v16.8c0,0.4,0.3,9,10.9,9c3.3,0,5.9-0.9,7.6-2.8c2.8-2.9,2.5-7.2,2.5-7.2l0-32.4l-1-0.2v32.2c0,0.1,0.2,4.1-2.4,6.9
					c-1.6,1.7-3.9,2.6-6.9,2.6c-9.6,0-9.9-8.3-9.9-8.4V33.3L32.8,33.3z"/>
				<path id="XMLID_54_" d="M43.7,60.9c-12.3,0-12.6-10.7-12.6-10.8V31.4l4.3,0.2v18.1c0,0.3,0.2,6.6,8.1,6.6c8,0,7.6-7.4,7.6-7.7
					l0-34.3l4.4,1.1v33.7C55.6,49.3,56,60.9,43.7,60.9z M33.1,33.5v16.6c0,0.3,0.3,8.8,10.7,8.8c10.4,0,9.9-9.4,9.9-9.8l0-32.1
					l-0.6-0.1v31.9c0,0.2,0.3,9.7-9.5,9.7c-9.9,0-10.1-8.5-10.1-8.6V33.6L33.1,33.5z"/>
				<path id="XMLID_111_" d="M43.7,61.6c-13,0-13.3-11.4-13.3-11.5V30.6l5.8,0.3v18.8c0,0.6,0.3,5.9,7.4,5.9c6.2,0,6.8-4.8,6.8-6.9
					V13.4l5.9,1.5v34.3c0,1-0.1,5.8-3.4,9.2C50.7,60.5,47.6,61.6,43.7,61.6z M31.9,32.2v17.9c0,0.4,0.4,10,11.8,10
					c3.5,0,6.2-1,8.1-2.9c2.9-3,3-7.2,3-8.1V16l-2.9-0.7l0,33.4c0,2.1-0.6,8.5-8.3,8.5c-8.6,0-8.9-7.1-8.9-7.4V32.4L31.9,32.2z
					 M43.7,59.6c-11.1,0-11.4-9.1-11.4-9.5V32.7l1.9,0.1v17c0,0.3,0.3,7.9,9.3,7.9c2.7,0,4.8-0.8,6.3-2.2c2.4-2.4,2.5-6,2.5-6.7
					V15.9l2.1,0.5l0,32.7c0,1.5-0.2,5.2-2.8,7.7C49.7,58.7,47.1,59.6,43.7,59.6z"/>
			</g>
		</g>
	</g>
</g>
<g id="Layer_14" class="st0">
	<path id="XMLID_65_" class="st6" d="M24.4,48c0,0-2-3-4.3-16.2c0,0-8.9-16.1-8.9-16.1s-1.6-1.9,0.3-3.9s3.7,1.9,3.7,1.9L23,25.6
		L20.6,5.7c0,0-1-3.2,2-3.5c3-0.3,2.9,3,2.9,3l3.1,18.2l3.4-19.9c0,0,0.3-3,3-2.7s2.1,3.5,2.1,3.5l-2.5,19.4l7.9-16.2
		c0,0,1.1-2.9,3.5-1.5c2.3,1.4,0.7,3.5,0.7,3.5l-7.4,17c0,0-0.8,1.5,1.6,3.4c1.8,1.5,4.9-0.5,4.9-0.5l2.8-1.8c0,0,2.6-2.4,4.7-0.4
		c2,1.9-1.8,4.1-1.8,4.1s-4.8,2.5-6.4,5.6c-0.7,1.4-4.2,4.9-5.2,11.2c-0.1,0.9-1.9,1.9-4.8,2.1C27.4,50.8,24.4,48,24.4,48z"/>
	<path id="XMLID_64_" class="st6" d="M24.2,47.5l-1.9,13.4c0,0,8.1,4.3,18.8,0c0.1,0-1.3-14.6-1.3-14.6l-14.9,1.2H24.2z"/>
</g>
<g id="Layer_15" class="st0">
	<path id="XMLID_75_" class="st6" d="M32.7,32.4L3.2,5.4V59L32.7,32.4z"/>
	<path id="XMLID_68_" class="st6" d="M61.8,32.4L32.3,5.4V59L61.8,32.4z"/>
</g>
<g id="Layer_16" class="st0">
	<g id="XMLID_69_" class="st1">
		<rect id="XMLID_96_" x="1" y="18" width="5" height="29"/>
		<path id="XMLID_97_" d="M7,47H1V17h6V47z M2,46h4V18H2V46z"/>
	</g>
	<g id="XMLID_76_" class="st1">
		<rect id="XMLID_89_" x="11" y="18" width="12" height="29"/>
		<path id="XMLID_91_" d="M24,47H11V17h13V47z M12,46h11V18H12V46z"/>
	</g>
	<g id="XMLID_78_" class="st1">
		<path id="XMLID_58_" d="M61.6,31.3L42.2,9.5c-0.6-0.7-1.7-0.3-1.7,0.7v7.4h-12v29h12v7.4c0,0.9,1.1,1.4,1.7,0.7l19.3-21.9
			C61.9,32.3,61.9,31.7,61.6,31.3z"/>
		<path id="XMLID_81_" d="M41.5,55.4c-0.2,0-0.4,0-0.5-0.1c-0.6-0.2-1-0.8-1-1.4V47H28V17h12v-6.9c0-0.6,0.4-1.2,1-1.4
			c0.6-0.2,1.2-0.1,1.7,0.4L61.9,31c0.5,0.6,0.5,1.4,0,2L42.6,54.9C42.3,55.2,41.9,55.4,41.5,55.4z M29,46h12v7.9
			c0,0.3,0.2,0.4,0.3,0.5s0.3,0.1,0.6-0.1l19.3-21.9c0.2-0.2,0.2-0.5,0-0.7L41.9,9.8c-0.2-0.2-0.5-0.2-0.6-0.1
			c-0.1,0-0.3,0.1-0.3,0.5V18H29V46z"/>
	</g>
</g>
<g id="Layer_26">
	<title></title>
	<g id="icomoon-ignore" class="st0">
	</g>
	<g id="XMLID_148_">
		<path id="XMLID_150_" d="M42.7,18h11L40,2.4v13.2C40,16.8,41.5,18,42.7,18z"/>
		<path id="XMLID_154_" d="M54,53V24 M54,24v-4H42.7c-2.4,0-4.7-2-4.7-4.4V2H16.2C13.7,2,12,4.3,12,6.8v50.8c0,2.4,1.6,4.5,4.1,4.5
			h33.2c2.4,0,4.7-1.9,4.7-4.4V53 M40.2,30.3l3.8,3.8l-7.2,7.2l7.2,7.2l-3.8,3.8L33,45.2l-7.2,7.2l-3.8-3.8l7.2-7.2l-7.2-7.2
			l3.8-3.8l7.2,7.2L40.2,30.3z"/>
	</g>
</g>
<g id="Layer_17" class="st0">
	<polygon id="XMLID_71_" class="st1" points="4.8,1.9 1.5,5.2 59,62.5 62.3,59.2 	"/>
</g>
<g id="Layer_18" class="st0">
	<g id="XMLID_31_" class="st1">
		<polygon id="XMLID_79_" points="39,5 39,9.2 48,19 51.9,19 		"/>
		<path id="XMLID_83_" d="M35,9v9.8V23h4.5H48v33H15V9H35 M39,5H11v55h41V19H39V5L39,5z"/>
		<rect id="XMLID_86_" x="43" y="6.6" transform="matrix(0.7204 -0.6935 0.6935 0.7204 2.701 34.2837)" width="1.8" height="14.3"/>
	</g>
	<g id="Layer_20" class="st1">
		
			<rect id="XMLID_84_" x="17.5" y="36.2" transform="matrix(0.7071 0.7071 -0.7071 0.7071 36.8706 -10.7973)" width="28" height="5.9"/>
	</g>
	<g id="Layer_20_copy" class="st1">
		
			<rect id="XMLID_85_" x="17.5" y="36.2" transform="matrix(-0.7071 0.7071 -0.7071 -0.7071 81.3741 44.5099)" width="28" height="5.9"/>
	</g>
</g>
<g id="Layer_18_copy" class="st0">
	<g id="XMLID_87_" class="st1">
		<polygon id="XMLID_90_" points="40,5 40,9.2 49,19 52.9,19 		"/>
		<path id="XMLID_102_" d="M36,9v9.8V23h4.5H49v33H16V9H36 M40,5H12v55h41V19H40V5L40,5z"/>
		
			<rect id="XMLID_103_" x="44" y="6.6" transform="matrix(0.7204 -0.6935 0.6935 0.7204 2.9805 34.9772)" width="1.8" height="14.3"/>
	</g>
</g>
<g id="Layer_24" class="st0">
	<path id="XMLID_105_" class="st1" d="M53.4,39.4c0.5,1.4,0.6,3,0.6,4.6v0.6c3,1.1,3.8,1.5,3.8,3c0,3.9-11.5,7-25.9,7
		s-25.8-3.1-25.8-7c0-1.5,0.8-1.9,3.8-3V44c0-1.6,0.2-3.1,0.7-4.6c-7,2.2-10.5,4.5-10.5,8.2c0,6.6,14.3,12,31.9,12s31.8-5.4,31.8-12
		C63.9,43.9,60.4,41.6,53.4,39.4z"/>
	<path id="XMLID_99_" class="st1" d="M32,28.1c6,0,10.9-4.9,10.9-10.9S38,6.3,32,6.3s-10.9,4.9-10.9,10.9S26,28.1,32,28.1z
		 M39.6,30.8h-1.4c-1.9,0.9-4,1.4-6.2,1.4s-4.3-0.5-6.2-1.4h-1.4c-6.3,0-11.4,5.1-11.4,11.4v3.5c0,2.3,1.8,4.1,4.1,4.1h30
		c2.3,0,4.1-1.8,4.1-4.1v-3.5C51.1,36,45.9,30.8,39.6,30.8z"/>
</g>
<g id="Layer_19" class="st0">
</g>
</svg>
