<?xml version="1.0" encoding="utf-8"?>
<!-- Generator: Adobe Illustrator 19.0.0, SVG Export Plug-In . SVG Version: 6.00 Build 0)  -->
<svg version="1.1" xmlns="http://www.w3.org/2000/svg" xmlns:xlink="http://www.w3.org/1999/xlink" x="0px" y="0px"
	 viewBox="0 0 64 64" style="enable-background:new 0 0 64 64;" xml:space="preserve">
<style type="text/css">
	.st0{fill-rule:evenodd;clip-rule:evenodd;}
</style>
<g id="Layer_2">
</g>
<g id="Layer_1">
	<g id="XMLID_1_">
		<path id="XMLID_28_" class="st0" d="M36.5,58.6c-2.2,0.7-16.2,2.9-26.6-5.2S0,34.1,0,33.4s-0.1-13.7,11.9-23s23.4-8.2,26.5-8
			c3.1,0.1,15.7,2.4,21.8,12.5c4.6,7.8,3.9,12.8,3.3,18.2c-0.3,2.3-1.4,4.8-2,6.1c-2.8,6.4-11.7,13.8-11.7,13.8
			c1.3,4.9,9.9,6.2,9.9,6.2C48.3,66.7,37.2,58.4,36.5,58.6z M6.7,32.6l16.1,16.1c0.3,0.3,0.7,0.7,1.1,0.8c0.7,0.3,1.9,0.3,2.8-0.7
			c1.4-1.5,28.2-28.2,28.2-28.2s1.3-1.2,0-2.4C53,16.6,50.4,14,50.4,14s-1.1-1.4-2.4-0.2c-1.9,1.9-23.2,23.2-23.2,23.2L13.7,25.8
			c0,0-0.9-1.2-2.1,0c-2,2-4.7,4.7-4.7,4.7S5.7,31.6,6.7,32.6z"/>
		<path id="XMLID_22_" class="st0" d="M36.5,58.6c-2.2,0.7-16.2,2.9-26.6-5.2S0,34.1,0,33.4s-0.1-13.7,11.9-23s23.4-8.2,26.5-8
			c3.1,0.1,15.7,2.4,21.8,12.5c4.6,7.8,3.9,12.8,3.3,18.2c-0.3,2.3-1.4,4.8-2,6.1c-2.8,6.4-11.7,13.8-11.7,13.8
			c1.3,4.9,9.9,6.2,9.9,6.2C48.3,66.7,37.2,58.4,36.5,58.6z M6.7,32.6l16.1,16.1c0.3,0.3,0.7,0.7,1.1,0.8c0.7,0.3,1.9,0.3,2.8-0.7
			c1.4-1.5,28.2-28.2,28.2-28.2s1.3-1.2,0-2.4C53,16.6,50.4,14,50.4,14s-1.1-1.4-2.4-0.2c-1.9,1.9-23.2,23.2-23.2,23.2L13.7,25.8
			c0,0-0.9-1.2-2.1,0c-2,2-4.7,4.7-4.7,4.7S5.7,31.6,6.7,32.6z"/>
	</g>
</g>
</svg>
