<!-- Generated by IcoMoon.io -->
<svg version="1.1" xmlns="http://www.w3.org/2000/svg" width="32" height="32" viewBox="0 0 32 32">
<title>archetype_smooth</title>
<path d="M28.7 3.5h1.3v-0.050c0 0-0.050-1.75-1.85-1.8 0 0-0.9 0-1.8 0.95-9.95 9.95-24.15 24.1-24.15 24.1-0.9 1-0.9 1.9-0.9 1.9s-0.050 1.9 1.75 1.9c0.25 0 1 0 2 0l10.6-10.75c0.65-0.65 1.050-0.15 1.55 0.4 0.4 0.4 5.3 5.4 6.5 6.55 0.45 0.45 0.45 0.65 0.45 1.6v2.25c3.45 0 4 0 4 0s1.9-0.2 1.9-1.95v-0.1h-1.25c0 0-0.45 0.050-0.45-0.5s0.45-0.5 0.45-0.5h1.2c0-0.5 0-1.2 0-2h-1.25c0 0-0.45 0.050-0.45-0.5s0.45-0.5 0.45-0.5h1.25c0-0.6 0-1.3 0-2h-1.25c0 0-0.45 0.050-0.45-0.5s0.45-0.5 0.45-0.5h1.25c0-0.65 0-1.3 0-2h-1.25c0 0-0.45 0.050-0.45-0.5s0.45-0.5 0.45-0.5h1.25c0-0.65 0-1.35 0-2h-1.25c0 0-0.45 0.050-0.45-0.5s0.45-0.5 0.45-0.5h1.25c0-0.65 0-1.35 0-2h-1.25c0 0-0.45 0.050-0.45-0.5s0.45-0.5 0.45-0.5h1.25c0-0.7 0-1.35 0-2h-1.25c0 0-0.45 0.050-0.45-0.5s0.45-0.5 0.45-0.5h1.25c0-0.7 0-1.4 0-2h-1.25c0 0-0.45 0.050-0.45-0.5s0.45-0.5 0.45-0.5h1.25c0-0.8 0-1.5 0-2h-1.25c0 0-0.45 0.050-0.45-0.5-0.050-0.55 0.4-0.5 0.4-0.5zM25.5 21.4c0 0.75-0.35 0.9-1 0.25-1.15-1.15-4.3-4.25-4.7-4.6-0.5-0.5-1.050-0.9-0.4-1.55 0 0 0.1-0.1 4.4-4.4 0.4-0.4 0.85-0.4 0.85-0.4 0.8 0.050 0.85 0.8 0.85 0.8s0 9.1 0 9.9z"></path>
</svg>
