<?xml version="1.0" encoding="utf-8"?>
<!-- Generator: Adobe Illustrator 19.0.0, SVG Export Plug-In . SVG Version: 6.00 Build 0)  -->
<svg version="1.1" xmlns="http://www.w3.org/2000/svg" xmlns:xlink="http://www.w3.org/1999/xlink" x="0px" y="0px"
	 viewBox="0 0 64 64" style="enable-background:new 0 0 64 64;" xml:space="preserve">
<style type="text/css">
	.st0{display:none;}
	.st1{display:inline;}
	.st2{fill-rule:evenodd;clip-rule:evenodd;}
	.st3{fill:#FFFFFF;}
	.st4{fill:#030303;}
	.st5{fill:#231F20;}
	.st6{display:inline;fill:none;}
</style>
<g id="Layer_2" class="st0">
</g>
<g id="Layer_1" class="st0">
	<g id="XMLID_1_" class="st1">
		<path id="XMLID_112_" class="st2" d="M36.5,58.6c-2.2,0.7-16.2,2.9-26.6-5.2S0,34.1,0,33.4s-0.1-13.7,11.9-23s23.4-8.2,26.5-8
			c3.1,0.1,15.7,2.4,21.8,12.5c4.6,7.8,3.9,12.8,3.3,18.2c-0.3,2.3-1.4,4.8-2,6.1c-2.8,6.4-11.7,13.8-11.7,13.8
			c1.3,4.9,9.9,6.2,9.9,6.2C48.3,66.7,37.2,58.4,36.5,58.6z M6.7,32.6l16.1,16.1c0.3,0.3,0.7,0.7,1.1,0.8c0.7,0.3,1.9,0.3,2.8-0.7
			c1.4-1.5,28.2-28.2,28.2-28.2s1.3-1.2,0-2.4C53,16.6,50.4,14,50.4,14s-1.1-1.4-2.4-0.2c-1.9,1.9-23.2,23.2-23.2,23.2L13.7,25.8
			c0,0-0.9-1.2-2.1,0c-2,2-4.7,4.7-4.7,4.7S5.7,31.6,6.7,32.6z"/>
		<path id="XMLID_105_" class="st2" d="M36.5,58.6c-2.2,0.7-16.2,2.9-26.6-5.2S0,34.1,0,33.4s-0.1-13.7,11.9-23s23.4-8.2,26.5-8
			c3.1,0.1,15.7,2.4,21.8,12.5c4.6,7.8,3.9,12.8,3.3,18.2c-0.3,2.3-1.4,4.8-2,6.1c-2.8,6.4-11.7,13.8-11.7,13.8
			c1.3,4.9,9.9,6.2,9.9,6.2C48.3,66.7,37.2,58.4,36.5,58.6z M6.7,32.6l16.1,16.1c0.3,0.3,0.7,0.7,1.1,0.8c0.7,0.3,1.9,0.3,2.8-0.7
			c1.4-1.5,28.2-28.2,28.2-28.2s1.3-1.2,0-2.4C53,16.6,50.4,14,50.4,14s-1.1-1.4-2.4-0.2c-1.9,1.9-23.2,23.2-23.2,23.2L13.7,25.8
			c0,0-0.9-1.2-2.1,0c-2,2-4.7,4.7-4.7,4.7S5.7,31.6,6.7,32.6z"/>
	</g>
</g>
<g id="Layer_3" class="st0">
	<polygon id="XMLID_16_" class="st1" points="0,57 3,46 0,8 16,29 32,8 48,29 64,8 61,46 64,57 	"/>
</g>
<g id="Layer_4" class="st0">
	<g id="XMLID_27_" class="st1">
		<path id="XMLID_39_" class="st3" d="M32.8,55.8h-1.6c-11.4,0-20.7-9.3-20.7-20.7V24.7C10.5,13.3,19.8,4,31.2,4h1.6
			c11.4,0,20.7,9.3,20.7,20.7v10.5C53.5,46.5,44.2,55.8,32.8,55.8z"/>
	</g>
</g>
<g id="Layer_5" class="st0">
	<g id="XMLID_35_" class="st1">
		<path id="XMLID_41_" d="M30.4,0.1c1.1,0,2.2,0,3.2,0c0.7,0.1,1.4,0.2,2.1,0.3C46.2,2.3,53.9,11.3,53.9,22c0,3.7,0,7.3,0,11
			c0,1.2-0.1,2.5-0.3,3.7c-2,11.4-12.2,19.2-23.7,18.1c-11.1-1-19.7-10.3-19.8-21.5c0-3.9,0-7.7,0-11.6c0-1,0.1-2,0.2-3
			C12,9.7,17.3,3.8,26.1,1C27.5,0.5,28.9,0.4,30.4,0.1z"/>
		<path id="XMLID_40_" d="M4,53.3c3.3-0.9,6.6-1.7,9.9-2.6c0.4-0.1,0.7,0,1,0.3c2.9,3,6.4,5.1,10.5,6c1.6,0.4,3.2,0.5,4.8,0.6
			c1.9,0.1,3.8,0,5.7-0.1c3.8-0.3,7.2-1.7,10.3-4c1-0.7,1.9-1.5,2.7-2.3c0.4-0.4,0.8-0.6,1.4-0.4c3.2,0.8,6.3,1.6,9.5,2.4
			c0.2,0,0.3,0.1,0.5,0.1c0,3.4,0,6.8,0,10.2c0,0.5-0.1,0.6-0.6,0.6c-17.1,0-34.3,0-51.4,0c-1.3,0-2.6,0-3.9,0C4,64.2,4,64,4,63.7
			C4,60.3,4,56.8,4,53.3z"/>
	</g>
</g>
<g id="Layer_6" class="st0">
	<g id="XMLID_36_" class="st1">
		<path id="XMLID_48_" class="st4" d="M34,0.1c0.4,0.3,0.8,0.2,1.2,0.2C43.9,1.7,51,8,53.2,16.4c0.5,1.8,0.7,3.6,0.7,5.4
			c0,3.8,0,7.6,0,11.4c-0.1,9.8-6.8,18.5-16.3,21c-11.3,3-22.9-3.4-26.5-14.6c-0.7-2.1-1-4.2-1-6.3c0-3.9,0-7.8,0-11.6
			c0.1-9.8,6.8-18.4,16.3-20.9c1.1-0.3,2.2-0.5,3.3-0.6c0.1,0,0.2,0,0.3-0.1C31.3,0.1,32.7,0.1,34,0.1z M12.4,27.5
			c0,0.3,0,0.6,0,0.9c0,2.2-0.1,4.4,0.1,6.6c0.3,3.6,1.6,6.8,3.8,9.7c3.2,4.2,7.5,6.9,12.8,7.7c2.5,0.4,5,0.3,7.4-0.3
			c3.2-0.8,6.1-2.2,8.5-4.5c4.3-3.9,6.6-8.8,6.6-14.7c0-3.8,0-7.6,0-11.4c0-1.4-0.1-2.8-0.5-4.2c-1-4-3.1-7.4-6.2-10.2
			c-2.5-2.2-5.4-3.7-8.6-4.4C32,2,27.8,2.3,23.8,4.2c-3.4,1.6-6.2,4-8.3,7.2c-2.1,3.3-3.2,6.9-3.2,10.9C12.4,24,12.4,25.8,12.4,27.5
			z"/>
		<path id="XMLID_47_" class="st4" d="M4,53.3c3.1-1.1,6.2-1.9,9.4-2.5c0.2,0,0.4-0.1,0.5-0.1c0.4-0.1,0.4-0.1,0.3,0.4
			c-0.1,0.5-0.3,1-0.4,1.4c-0.1,0.4-0.3,0.6-0.7,0.6c-2.1,0.4-4.3,1-6.3,1.6c-0.4,0.1-0.5,0.3-0.5,0.7c0,2,0,3.9,0,5.9
			c0,0.5,0,0.5,0.5,0.5c0.1,0,0.2,0,0.3,0c16.7,0,33.4,0,50.1,0c0.8,0,0.8,0,0.8-0.8c0-1.8,0-3.6,0-5.4c0-0.6,0-0.6-0.5-0.7
			c-2.3-0.7-4.5-1.3-6.9-1.7c-0.3-0.1-0.5-0.1-0.5-0.5c-0.1-0.5-0.3-1.1-0.4-1.6c-0.1-0.4-0.1-0.4,0.3-0.3c1.2,0.2,2.3,0.5,3.5,0.7
			c2.1,0.5,4.3,1.1,6.4,1.8c0.1,0,0.3,0.1,0.5,0.2c0,3.5,0,6.9,0,10.4c0,0.3-0.1,0.3-0.3,0.3c-2.5,0-5.1,0-7.6,0
			c-15.9,0-31.8,0-47.7,0c-0.1,0-0.2,0-0.3,0C4,64.2,4,64.1,4,63.8C4,60.3,4,56.8,4,53.3z"/>
	</g>
</g>
<g id="Layer_7" class="st0">
	<path id="XMLID_22_" d="M61.8,37.6c-2.7,2.7-7.1,2.7-9.8,0s-2.7-7.1,0-9.8s7.1-2.7,9.8,0S64.5,34.9,61.8,37.6z M24.8,40.6
		c-4.5,4.5-11.9,4.5-16.4,0s-4.5-11.9,0-16.4s11.9-4.5,16.4,0c0.5,0.5,0.9,1,1.3,1.6h5.5c-0.8-1.8-1.9-3.5-3.4-5
		c-6.4-6.4-16.9-6.4-23.3,0s-6.4,16.9,0,23.3s16.9,6.4,23.3,0c1.6-1.6,2.8-3.5,3.6-5.5h-5.4C25.9,39.3,25.4,40,24.8,40.6z
		 M32.2,28.6l-15.8-0.1v7.4L35.5,36v4.3c0,2,2.4,3,3.8,1.6l8-8c0.9-0.9,0.9-2.3,0-3.2l-8-8c-1.4-1.4-3.8-0.4-3.8,1.6l0,0v4.3
		L32.2,28.6"/>
	<g id="Layer_10" class="st1">
		<g id="XMLID_37_">
			<polygon id="XMLID_42_" class="st0" points="24.5,27.2 4,27.1 4,35.2 26,35.3 26,27.2 			"/>
			<path id="XMLID_51_" class="st0" d="M12.8,40c-4.7,4.7-12.4,4.6-17.1-0.1s-4.7-12.4,0-17.1s12.4-4.9,17.1-0.3
				c0.5,0.5,0.9,0.4,1.4,1.4h5.7c-0.8-2-2-3.4-3.5-5c-6.7-6.6-17.6-6.5-24.3,0.1c-6.7,6.6-6.7,17.6,0,24.3
				c6.7,6.6,17.6,6.8,24.3,0.1c1.7-1.7,2.9-3.6,3.7-5.6h-5.6C14,39,13.5,39.3,12.8,40z"/>
			<path id="XMLID_52_" d="M18,16.5c-2.4-2.4-6-0.7-6,2.7l0,7.2l-8,0V39h8v7.3c0,3.4,3.6,5.1,6,2.7l13.4-13.5
				c1.5-1.5,1.6-3.9,0.1-5.4L18,16.5z"/>
			<path id="XMLID_54_" d="M55.7,24.1c-4.6-4.6-12.1-4.6-16.6,0c-4.6,4.6-4.6,12,0,16.6c4.6,4.6,12.1,4.6,16.6,0
				C60.3,36.1,60.3,28.7,55.7,24.1z"/>
		</g>
		<g id="XMLID_25_" class="st0">
			<polygon id="XMLID_57_" class="st1" points="16.7,26.3 -15,26.2 -15,38.8 19,38.9 19,26.4 			"/>
			<path id="XMLID_56_" class="st1" d="M-1.9,46.1c-7.3,7.3-19.3,7.2-26.5,0s-7.3-19.3,0-26.6s19.3-7.3,26.5-0.1
				c0.8,0.8,1.5,0.5,2.1,2.5h8.9c-1.3-3-3.1-5.6-5.5-8C-6.7,3.6-23.7,3.6-34.1,14c-10.4,10.4-10.4,27.4,0,37.7
				c10.4,10.4,27.4,10.5,37.7,0.1C6.2,49.2,8.2,46,9.4,43H0.7C-0.1,45-0.9,45.2-1.9,46.1z"/>
			<path id="XMLID_55_" d="M21.9,17.1c-2.3-2.3-5.9-0.6-5.9,2.6v7l-5,0v12l5,0v7c0,3.2,3.6,4.9,5.9,2.6l12.8-12.9
				c1.5-1.5,1.5-3.7,0.1-5.2L21.9,17.1z"/>
			<path id="XMLID_29_" d="M58,25.3c-4.4-4.4-11.5-4.4-15.9,0c-4.4,4.4-4.4,11.5,0,15.9c4.4,4.4,11.5,4.4,15.9,0
				C62.4,36.8,62.4,29.7,58,25.3z"/>
		</g>
	</g>
</g>
<g id="Layer_9" class="st0">
	<g id="XMLID_38_" class="st1">
		<path id="XMLID_84_" class="st5" d="M12,36c9.3,1.6,9.3,2.5,19,2.5c10.3,0,10.3-0.8,21-2.5c0,0,0,14.7-21,14.7
			C12,50.7,12,36,12,36z"/>
	</g>
	<g id="XMLID_24_" class="st1">
		<path id="XMLID_131_" class="st5" d="M31,12c-0.3,8-29,10-29,7c0,0,0,11.8,10,14c11.8,2.6,11.8,2.6,19,2.7c7.8,0,7.8,0,21-2.7
			c9.9-2,10-14,10-14C62,21.9,31.3,20,31,12z M35,28.3c0,0,0,3-4,3s-4-3-4-3v-5.7c0-0.7,0.6-1.3,1.3-1.3h5.5c0.7,0,1.3,0.6,1.3,1.3
			V28.3z"/>
		<path id="XMLID_125_" class="st5" d="M31,12c-0.3,8-29,10-29,7c0,0,0,11.8,10,14c11.8,2.6,11.8,2.6,19,2.7c7.8,0,7.8,0,21-2.7
			c9.9-2,10-14,10-14C62,21.9,31.3,20,31,12z M35,28.3c0,0,0,3-4,3s-4-3-4-3v-5.7c0-0.7,0.6-1.3,1.3-1.3h5.5c0.7,0,1.3,0.6,1.3,1.3
			V28.3z"/>
		<path id="XMLID_122_" class="st5" d="M31,12c-0.3,8-29,10-29,7c0,0,0,11.8,10,14c11.8,2.6,11.8,2.6,19,2.7c7.8,0,7.8,0,21-2.7
			c9.9-2,10-14,10-14C62,21.9,31.3,20,31,12z M35,28.3c0,0,0,3-4,3s-4-3-4-3v-5.7c0-0.7,0.6-1.3,1.3-1.3h5.5c0.7,0,1.3,0.6,1.3,1.3
			V28.3z"/>
	</g>
</g>
<g id="Layer_13" class="st0">
	<g id="icons" class="st1">
		<g id="Layer_3_1_">
			<path id="XMLID_83_" class="st0" d="M18.6,13.9v15h6V14.3c0-4.1,3.3-7.4,7.4-7.4l0,0c4.1,0,7.4,3.3,7.4,7.4v14.6h6v-15
				c0-7.4-6-13.4-13.4-13.4l0,0C24.6,0.5,18.6,6.5,18.6,13.9z"/>
			<g id="XMLID_82_">
				<path id="XMLID_107_" d="M16.8,15.5v15h6V15.8c0-4.1,5.2-7.4,9.3-7.4l0,0c4.1,0,9.3,3.3,9.3,7.4v14.6h6v-15
					c0-7.4-7.9-13.4-15.3-13.4l0,0C24.6,2.1,16.8,8.1,16.8,15.5z"/>
				<path id="XMLID_99_" d="M16.8,15.5v15h6V15.8c0-4.1,5.2-7.4,9.3-7.4l0,0c4.1,0,9.3,3.3,9.3,7.4v14.6h6v-15
					c0-7.4-7.9-13.4-15.3-13.4l0,0C24.6,2.1,16.8,8.1,16.8,15.5z"/>
			</g>
			<g id="XMLID_80_">
				<path id="XMLID_98_" d="M14.9,25.7h34.1c3.6,0,6.6,3,6.6,6.6v23.1c0,3.6-3,6.6-6.6,6.6H14.9c-3.6,0-6.6-3-6.6-6.6V32.3
					C8.3,28.7,11.3,25.7,14.9,25.7z"/>
				<path id="XMLID_95_" d="M14.9,25.7h34.1c3.6,0,6.6,3,6.6,6.6v23.1c0,3.6-3,6.6-6.6,6.6H14.9c-3.6,0-6.6-3-6.6-6.6V32.3
					C8.3,28.7,11.3,25.7,14.9,25.7z"/>
			</g>
			<path id="XMLID_75_" class="st0" d="M16.3,28.9h31.4c3.3,0,6,2.7,6,6V56c0,3.3-2.7,6-6,6H16.3c-3.3,0-6-2.7-6-6V34.9
				C10.3,31.6,13,28.9,16.3,28.9z"/>
			<path id="XMLID_74_" class="st0" d="M21.8,38.3h18.9c1.3,0,2.4,1.1,2.4,2.4l0,0c0,1.3-1.1,2.4-2.4,2.4H21.8
				c-1.3,0-2.4-1.1-2.4-2.4l0,0C19.4,39.4,20.4,38.3,21.8,38.3z"/>
			<path id="XMLID_72_" class="st0" d="M21.8,36.8h18.9c1.3,0,2.4,1.1,2.4,2.4l0,0c0,1.3-1.1,2.4-2.4,2.4H21.8
				c-1.3,0-2.4-1.1-2.4-2.4l0,0C19.4,37.8,20.4,36.8,21.8,36.8z"/>
			<g id="XMLID_64_" class="st0">
				<path id="XMLID_94_" class="st1" d="M21.8,49.4h18.9c1.3,0,2.4,1.1,2.4,2.4l0,0c0,1.3-1.1,2.4-2.4,2.4H21.8
					c-1.3,0-2.4-1.1-2.4-2.4l0,0C19.4,50.4,20.4,49.4,21.8,49.4z"/>
				<path id="XMLID_92_" class="st1" d="M21.8,49.4h18.9c1.3,0,2.4,1.1,2.4,2.4l0,0c0,1.3-1.1,2.4-2.4,2.4H21.8
					c-1.3,0-2.4-1.1-2.4-2.4l0,0C19.4,50.4,20.4,49.4,21.8,49.4z"/>
			</g>
			<path id="XMLID_53_" class="st0" d="M21.8,47.8h18.9c1.3,0,2.4,1.1,2.4,2.4l0,0c0,1.3-1.1,2.4-2.4,2.4H21.8
				c-1.3,0-2.4-1.1-2.4-2.4l0,0C19.4,48.9,20.4,47.8,21.8,47.8z"/>
		</g>
	</g>
</g>
<g id="Layer_11" class="st0">
	<g id="XMLID_23_" class="st1">
		<polyline id="XMLID_65_" points="31.5,21.7 1.6,51.7 12.6,62.7 45.1,30.2 56.4,41.6 56.4,41.6 62,2.2 22.5,7.8 22.5,7.8 22.5,7.8 
			33.9,19.2 31.5,21.7 		"/>
		<polyline id="XMLID_63_" points="31.5,21.7 1.6,51.7 12.6,62.7 45.1,30.2 56.4,41.6 56.4,41.6 62,2.2 22.5,7.8 22.5,7.8 22.5,7.8 
			33.9,19.2 31.5,21.7 		"/>
		<polyline id="XMLID_62_" points="31.5,21.7 1.6,51.7 12.6,62.7 45.1,30.2 56.4,41.6 56.4,41.6 62,2.2 22.5,7.8 22.5,7.8 22.5,7.8 
			33.9,19.2 31.5,21.7 		"/>
	</g>
	<path id="XMLID_31_" class="st6" d="M45.4,28.9"/>
	<path id="XMLID_30_" class="st6" d="M35.4,28.9"/>
</g>
<g id="Layer_14" class="st0">
	<g id="Page-1" class="st1">
		<g id="icon-95-document-file-odt">
			<path id="document-file-odt" d="M53,52.5v4.4c0,2.4-1.9,4.3-4.3,4.3H16c-2.4,0-4.3-2-4.3-4.4v-50c0-2.4,2-4.4,4.4-4.4h21.7v13.1
				c0,2.4,2,4.3,4.4,4.3H53v4.4H33.4c-3.6,0,19.6-3.6,19.6,0V52.5c0,3.6-23.2,0-19.6,0H53L53,52.5z M40,2.5v13c0,1.2,1,2.2,2.2,2.2
				H53L40,2.5L40,2.5z"/>
		</g>
	</g>
</g>
<g id="Layer_12" class="st0">
	<g id="miu" class="st1">
		<g id="slice" transform="translate(215.000000, 119.000000)">
		</g>
		<g id="XMLID_59_">
			<path id="XMLID_66_" d="M44.2,7.1c1.8-2.3,1-4.1-2-4.1H23.2c-2.9,0-3.9,1.8-2,4.1l6.9,8.6l9.3,0L44.2,7.1z"/>
			<polygon id="XMLID_67_" points="37.3,16.7 28.1,16.7 28.1,16.7 17.8,53.7 32.7,63.2 47.5,53.7 37.3,16.7 			"/>
		</g>
	</g>
</g>
<g id="Layer_15">
	<g id="Layer_16">
		<g id="XMLID_43_">
			<path id="XMLID_71_" class="st2" d="M57.4,7H60V6.9c0,0-0.1-3.5-3.7-3.6c0,0-1.8,0-3.6,1.9C32.8,25.1,4.4,53.4,4.4,53.4
				c-1.8,2-1.8,3.8-1.8,3.8S2.5,61,6.1,61c0.5,0,2,0,4,0l21.2-21.5c1.3-1.3,2.1-0.3,3.1,0.8c0.8,0.8,10.6,10.8,13,13.1
				c0.9,0.9,0.9,1.3,0.9,3.2l0,4.5c6.9,0,8,0,8,0s3.8-0.4,3.8-3.9V57h-2.5c0,0-0.9,0.1-0.9-1c0-1.1,0.9-1,0.9-1H60c0-1,0-2.4,0-4
				h-2.5c0,0-0.9,0.1-0.9-1c0-1.1,0.9-1,0.9-1H60c0-1.2,0-2.6,0-4h-2.5c0,0-0.9,0.1-0.9-1c0-1.1,0.9-1,0.9-1H60c0-1.3,0-2.6,0-4
				h-2.5c0,0-0.9,0.1-0.9-1c0-1.1,0.9-1,0.9-1H60c0-1.3,0-2.7,0-4h-2.5c0,0-0.9,0.1-0.9-1c0-1.1,0.9-1,0.9-1H60c0-1.3,0-2.7,0-4
				h-2.5c0,0-0.9,0.1-0.9-1c0-1.1,0.9-1,0.9-1H60c0-1.4,0-2.7,0-4h-2.5c0,0-0.9,0.1-0.9-1c0-1.1,0.9-1,0.9-1H60c0-1.4,0-2.8,0-4
				h-2.5c0,0-0.9,0.1-0.9-1c0-1.1,0.9-1,0.9-1H60c0-1.6,0-3,0-4h-2.5c0,0-0.9,0.1-0.9-1C56.5,6.9,57.4,7,57.4,7z M51,42.8
				c0,1.5-0.7,1.8-2,0.5c-2.3-2.3-8.6-8.5-9.4-9.2c-1-1-2.1-1.8-0.8-3.1c0,0,0.2-0.2,8.8-8.8c0.8-0.8,1.7-0.8,1.7-0.8
				c1.6,0.1,1.7,1.6,1.7,1.6S51,41.2,51,42.8z"/>
		</g>
	</g>
</g>
</svg>
