<?xml version="1.0" encoding="utf-8"?>
<!-- Generator: Adobe Illustrator 19.0.0, SVG Export Plug-In . SVG Version: 6.00 Build 0)  -->
<svg version="1.1" id="Layer_1" xmlns="http://www.w3.org/2000/svg" xmlns:xlink="http://www.w3.org/1999/xlink" x="0px" y="0px"
	 viewBox="0 0 64 64" style="enable-background:new 0 0 64 64;" xml:space="preserve">
<style type="text/css">
	.st0{fill:none;}
</style>
<g id="Layer_11">
	<g id="XMLID_23_">
		<polyline id="XMLID_65_" points="31.5,21.7 1.6,51.7 12.6,62.7 45.1,30.2 56.4,41.6 56.4,41.6 62,2.2 22.5,7.8 22.5,7.8 22.5,7.8 
			33.9,19.2 31.5,21.7 		"/>
		<polyline id="XMLID_63_" points="31.5,21.7 1.6,51.7 12.6,62.7 45.1,30.2 56.4,41.6 56.4,41.6 62,2.2 22.5,7.8 22.5,7.8 22.5,7.8 
			33.9,19.2 31.5,21.7 		"/>
		<polyline id="XMLID_62_" points="31.5,21.7 1.6,51.7 12.6,62.7 45.1,30.2 56.4,41.6 56.4,41.6 62,2.2 22.5,7.8 22.5,7.8 22.5,7.8 
			33.9,19.2 31.5,21.7 		"/>
	</g>
	<path id="XMLID_31_" class="st0" d="M45.4,28.9"/>
	<path id="XMLID_30_" class="st0" d="M35.4,28.9"/>
</g>
</svg>
