<!-- Generated by IcoMoon.io -->
<svg version="1.1" xmlns="http://www.w3.org/2000/svg" width="32" height="32" viewBox="0 0 32 32">
<title>assignment-horizontal-thick</title>
<path d="M30.9 18.8c-1.35 1.35-3.55 1.35-4.9 0s-1.35-3.55 0-4.9 3.55-1.35 4.9 0 1.35 3.55 0 4.9zM12.4 20.3c-2.25 2.25-5.95 2.25-8.2 0s-2.25-5.95 0-8.2 5.95-2.25 8.2 0c0.25 0.25 0.45 0.5 0.65 0.8h2.75c-0.4-0.9-0.95-1.75-1.7-2.5-3.2-3.2-8.45-3.2-11.65 0s-3.2 8.45 0 11.65 8.45 3.2 11.65 0c0.8-0.8 1.4-1.75 1.8-2.75h-2.7c-0.25 0.35-0.5 0.7-0.8 1zM17.75 12.15v2.15l-9.6-0.050v3.7l9.6 0.050v2.15c0 1 1.2 1.5 1.9 0.8l4-4c0.45-0.45 0.45-1.15 0-1.6l-4-4c-0.7-0.7-1.9-0.2-1.9 0.8v0z"></path>
</svg>
