<?xml version="1.0" encoding="utf-8"?>
<!-- Generator: Adobe Illustrator 16.0.0, SVG Export Plug-In . SVG Version: 6.00 Build 0)  -->
<!DOCTYPE svg PUBLIC "-//W3C//DTD SVG 1.1//EN" "http://www.w3.org/Graphics/SVG/1.1/DTD/svg11.dtd">
<svg version="1.1" id="Layer_1" xmlns="http://www.w3.org/2000/svg" xmlns:xlink="http://www.w3.org/1999/xlink" x="0px" y="0px"
	 width="256px" height="253.689px" viewBox="0 0 256 253.689" enable-background="new 0 0 256 253.689" xml:space="preserve">
<g>
	<path fill="#212221" d="M256,34.134c0,18.857-15.279,34.145-34.138,34.145c-18.859,0-34.155-15.288-34.155-34.145
		C187.707,15.279,203.003,0,221.862,0C240.721,0,256,15.279,256,34.134z"/>
	<path fill="#212221" d="M137.813,173.093c0,31.444-25.578,57.025-57.009,57.025c-31.457,0-57.013-25.581-57.013-57.025
		s25.556-57.022,57.013-57.022c3.439,0,6.768,0.346,10.052,0.938l19.214-19.212c-9.094-3.541-18.946-5.507-29.267-5.507
		C36.233,92.289,0,128.536,0,173.093c0,44.559,36.233,80.806,80.803,80.806c44.546,0,80.805-36.247,80.805-80.806
		c0-11.167-2.303-21.825-6.413-31.511l-18.834,18.856C137.276,164.513,137.813,168.737,137.813,173.093z"/>
	<path fill="#212221" d="M118.342,79.053L133.2,93.898l-67.312,66.3l25.781,25.789l67.31-66.299l14.836,14.846
		c6.902,6.903,18.697,2.012,18.697-7.729V71.322c0-6.044-4.914-10.943-10.95-10.943h-55.49
		C116.333,60.379,111.439,72.173,118.342,79.053L118.342,79.053z"/>
</g>
</svg>
