<?xml version="1.0" encoding="utf-8"?>
<!-- Generator: Adobe Illustrator 16.0.0, SVG Export Plug-In . SVG Version: 6.00 Build 0)  -->
<!DOCTYPE svg PUBLIC "-//W3C//DTD SVG 1.1//EN" "http://www.w3.org/Graphics/SVG/1.1/DTD/svg11.dtd">
<svg version="1.1" id="Layer_1" xmlns="http://www.w3.org/2000/svg" xmlns:xlink="http://www.w3.org/1999/xlink" x="0px" y="0px"
	 width="256px" height="253.689px" viewBox="22 23 256 253.689" enable-background="new 22 23 256 253.689" xml:space="preserve">
<g>
	<path fill="#212221" d="M278,56.438c0,18.467-14.969,33.443-33.435,33.443c-18.474,0-33.459-14.976-33.459-33.443
		c0-18.471,14.985-33.438,33.459-33.438C263.034,23,278,37.967,278,56.438z"/>
	<path fill="#212221" d="M143.169,100.434l14.555,14.538l-65.93,64.938l25.25,25.264l65.929-64.939l14.529,14.541
		c6.764,6.765,18.315,1.972,18.315-7.567V92.862c0-5.921-4.813-10.723-10.724-10.723h-54.352
		C141.201,82.139,136.409,93.695,143.169,100.434L143.169,100.434z"/>
	<path fill="#212221" d="M101.56,276.689c-43.73,0-79.305-35.577-79.305-79.312c0-43.727,35.577-79.306,79.305-79.306
		c43.732,0,79.312,35.58,79.312,79.306C180.872,241.112,145.292,276.689,101.56,276.689z M101.56,132.584
		c-35.727,0-64.794,29.066-64.794,64.795c0,35.729,29.067,64.794,64.794,64.794c35.73,0,64.799-29.065,64.799-64.796
		C166.359,161.652,137.29,132.584,101.56,132.584z"/>
</g>
</svg>
