<?xml version="1.0" encoding="utf-8"?>
<!-- Generator: Adobe Illustrator 19.0.0, SVG Export Plug-In . SVG Version: 6.00 Build 0)  -->
<svg version="1.1" id="Layer_1" xmlns="http://www.w3.org/2000/svg" xmlns:xlink="http://www.w3.org/1999/xlink" x="0px" y="0px"
	 viewBox="0 0 64 64" style="enable-background:new 0 0 64 64;" xml:space="preserve">
<style type="text/css">
	.st0{display:none;}
	.st1{display:inline;}
</style>
<g id="Layer_7">
	<path id="XMLID_22_" class="st0" d="M61.8,37.6c-2.7,2.7-7.1,2.7-9.8,0s-2.7-7.1,0-9.8s7.1-2.7,9.8,0S64.5,34.9,61.8,37.6z
		 M24.8,40.6c-4.5,4.5-11.9,4.5-16.4,0s-4.5-11.9,0-16.4s11.9-4.5,16.4,0c0.5,0.5,0.9,1,1.3,1.6h5.5c-0.8-1.8-1.9-3.5-3.4-5
		c-6.4-6.4-16.9-6.4-23.3,0s-6.4,16.9,0,23.3s16.9,6.4,23.3,0c1.6-1.6,2.8-3.5,3.6-5.5h-5.4C25.9,39.3,25.4,40,24.8,40.6z
		 M32.2,28.6l-15.8-0.1v7.4L35.5,36v4.3c0,2,2.4,3,3.8,1.6l8-8c0.9-0.9,0.9-2.3,0-3.2l-8-8c-1.4-1.4-3.8-0.4-3.8,1.6l0,0v4.3
		L32.2,28.6"/>
	<g id="Layer_10">
		<g id="XMLID_37_" class="st0">
			<polygon id="XMLID_42_" class="st1" points="36.6,28.7 17,28.6 17,36.3 38,36.4 38,28.7 			"/>
			<path id="XMLID_51_" class="st1" d="M24.8,40.9c-4.5,4.5-11.9,4.5-16.4,0S3.9,29,8.4,24.5s11.9-4.5,16.4,0
				c0.5,0.5,0.9,0.6,1.3,1.6h5.5c-0.8-2-1.9-3.5-3.4-5c-6.4-6.4-16.9-6.4-23.3,0s-6.4,16.9,0,23.3s16.9,6.5,23.3,0.1
				c1.6-1.6,2.8-3.4,3.6-5.4h-5.4C25.9,40,25.4,40.3,24.8,40.9z"/>
			<path id="XMLID_52_" class="st1" d="M39.6,22.9c-1.4-1.4-3.6-0.4-3.6,1.6v4.3h-3v7.4h3v4.3c0,2,2.2,3,3.6,1.6l7.9-8
				c0.9-0.9,1-2.3,0.1-3.2L39.6,22.9z"/>
			<path id="XMLID_54_" class="st1" d="M61.8,28c-2.7-2.7-7.1-2.7-9.8,0s-2.7,7.1,0,9.8s7.1,2.7,9.8,0S64.5,30.7,61.8,28z"/>
		</g>
		<g id="XMLID_25_">
			<polygon id="XMLID_57_" points="59.7,26.3 28,26.2 28,38.8 62,38.9 62,26.4 			"/>
			<path id="XMLID_56_" d="M41.1,46.1c-7.3,7.3-19.3,7.2-26.5,0s-7.3-19.3,0-26.6s19.3-7.3,26.5-0.1c0.8,0.8,1.5,0.5,2.1,2.5h8.9
				c-1.3-3-3.1-5.6-5.5-8C36.3,3.6,19.3,3.6,8.9,14s-10.4,27.4,0,37.7c10.4,10.4,27.4,10.5,37.7,0.1c2.6-2.6,4.5-5.8,5.8-8.8h-8.7
				C42.9,45,42.1,45.2,41.1,46.1z"/>
			<path id="XMLID_55_" class="st0" d="M64.9,17.1c-2.3-2.3-5.9-0.6-5.9,2.6v7h-5v12h5v7c0,3.2,3.6,4.9,5.9,2.6l12.8-12.9
				c1.5-1.5,1.5-3.7,0.1-5.2L64.9,17.1z"/>
			<path id="XMLID_29_" class="st0" d="M101,25.3c-4.4-4.4-11.5-4.4-15.9,0s-4.4,11.5,0,15.9s11.5,4.4,15.9,0S105.4,29.7,101,25.3z"
				/>
		</g>
	</g>
</g>
</svg>
