<!-- Generated by IcoMoon.io -->
<svg version="1.1" xmlns="http://www.w3.org/2000/svg" width="32" height="32" viewBox="0 0 32 32">
<title>assign-horizontal-A</title>
<path d="M29.85 13.15l-15.85-0.050v6.3l17 0.050v-6.25z"></path>
<path d="M20.55 23.050c-3.65 3.65-9.65 3.6-13.25 0s-3.65-9.65 0-13.3 9.65-3.65 13.25-0.050c0.4 0.4 0.75 0.25 1.050 1.25h4.45c-0.65-1.5-1.55-2.8-2.75-4-5.15-5.15-13.65-5.15-18.85 0.050s-5.2 13.7 0 18.85c5.2 5.2 13.7 5.25 18.85 0.050 1.3-1.3 2.25-2.9 2.9-4.4h-4.35c-0.4 1-0.8 1.1-1.3 1.55z"></path>
</svg>
