<!-- Generated by IcoMoon.io -->
<svg version="1.1" xmlns="http://www.w3.org/2000/svg" width="32" height="32" viewBox="0 0 32 32">
<title>assignment-thicker</title>
<path d="M32.323 3.809c0 2.381-1.929 4.311-4.31 4.311s-4.313-1.93-4.313-4.311c0-2.381 1.931-4.31 4.313-4.31s4.31 1.929 4.31 4.31zM17.401 21.355c0 3.97-3.23 7.2-7.198 7.2-3.972 0-7.199-3.23-7.199-7.2s3.227-7.2 7.199-7.2c0.434 0 0.855 0.044 1.269 0.118l2.426-2.426c-1.148-0.447-2.392-0.695-3.695-0.695-5.628-0-10.202 4.576-10.202 10.202s4.575 10.203 10.202 10.203c5.624 0 10.203-4.577 10.203-10.203 0-1.41-0.291-2.756-0.81-3.979l-2.378 2.381c0.116 0.514 0.183 1.048 0.183 1.598zM14.942 9.481l1.876 1.874-8.499 8.371 3.255 3.256 8.499-8.371 1.873 1.875c0.871 0.872 2.361 0.254 2.361-0.976v-7.005c0-0.763-0.62-1.382-1.383-1.382h-7.006c-1.23 0-1.848 1.489-0.976 2.358v0z"></path>
</svg>
