<?xml version="1.0" encoding="utf-8"?>
<!-- Generator: Adobe Illustrator 19.0.0, SVG Export Plug-In . SVG Version: 6.00 Build 0)  -->
<svg version="1.1" id="Layer_1" xmlns="http://www.w3.org/2000/svg" xmlns:xlink="http://www.w3.org/1999/xlink" x="0px" y="0px"
	 viewBox="0 0 64 64" style="enable-background:new 0 0 64 64;" xml:space="preserve">
<style type="text/css">
	.st0{display:none;}
	.st1{display:inline;}
</style>
<g id="Layer_7">
	<path id="XMLID_22_" class="st0" d="M61.8,37.6c-2.7,2.7-7.1,2.7-9.8,0s-2.7-7.1,0-9.8s7.1-2.7,9.8,0S64.5,34.9,61.8,37.6z
		 M24.8,40.6c-4.5,4.5-11.9,4.5-16.4,0s-4.5-11.9,0-16.4s11.9-4.5,16.4,0c0.5,0.5,0.9,1,1.3,1.6h5.5c-0.8-1.8-1.9-3.5-3.4-5
		c-6.4-6.4-16.9-6.4-23.3,0s-6.4,16.9,0,23.3s16.9,6.4,23.3,0c1.6-1.6,2.8-3.5,3.6-5.5h-5.4C25.9,39.3,25.4,40,24.8,40.6z
		 M32.2,28.6l-15.8-0.1v7.4L35.5,36v4.3c0,2,2.4,3,3.8,1.6l8-8c0.9-0.9,0.9-2.3,0-3.2l-8-8c-1.4-1.4-3.8-0.4-3.8,1.6l0,0v4.3
		L32.2,28.6"/>
	<g id="Layer_10">
		<g id="XMLID_37_">
			<polygon id="XMLID_42_" class="st0" points="24.5,27.2 4,27.1 4,35.2 26,35.3 26,27.2 			"/>
			<path id="XMLID_51_" class="st0" d="M12.8,40c-4.7,4.7-12.4,4.6-17.1-0.1s-4.7-12.4,0-17.1s12.4-4.9,17.1-0.3
				c0.5,0.5,0.9,0.4,1.4,1.4h5.7c-0.8-2-2-3.4-3.5-5C9.7,12.3-1.2,12.4-7.9,19s-6.7,17.6,0,24.3c6.7,6.6,17.6,6.8,24.3,0.1
				c1.7-1.7,2.9-3.6,3.7-5.6h-5.6C14,39,13.5,39.3,12.8,40z"/>
			<path id="XMLID_52_" d="M18,16.5c-2.4-2.4-6-0.7-6,2.7v7.2H4V39h8v7.3c0,3.4,3.6,5.1,6,2.7l13.4-13.5c1.5-1.5,1.6-3.9,0.1-5.4
				L18,16.5z"/>
			<path id="XMLID_54_" d="M55.7,24.1c-4.6-4.6-12.1-4.6-16.6,0c-4.6,4.6-4.6,12,0,16.6s12.1,4.6,16.6,0
				C60.3,36.1,60.3,28.7,55.7,24.1z"/>
		</g>
		<g id="XMLID_25_" class="st0">
			<polygon id="XMLID_57_" class="st1" points="16.7,26.3 -15,26.2 -15,38.8 19,38.9 19,26.4 			"/>
			<path id="XMLID_56_" class="st1" d="M-1.9,46.1c-7.3,7.3-19.3,7.2-26.5,0s-7.3-19.3,0-26.6s19.3-7.3,26.5-0.1
				c0.8,0.8,1.5,0.5,2.1,2.5h8.9c-1.3-3-3.1-5.6-5.5-8C-6.7,3.6-23.7,3.6-34.1,14s-10.4,27.4,0,37.7c10.4,10.4,27.4,10.5,37.7,0.1
				C6.2,49.2,8.2,46,9.4,43H0.7C-0.1,45-0.9,45.2-1.9,46.1z"/>
			<path id="XMLID_55_" class="st1" d="M21.9,17.1c-2.3-2.3-5.9-0.6-5.9,2.6v7h-5v12h5v7c0,3.2,3.6,4.9,5.9,2.6l12.8-12.9
				c1.5-1.5,1.5-3.7,0.1-5.2L21.9,17.1z"/>
			<path id="XMLID_29_" class="st1" d="M58,25.3c-4.4-4.4-11.5-4.4-15.9,0s-4.4,11.5,0,15.9s11.5,4.4,15.9,0S62.4,29.7,58,25.3z"/>
		</g>
	</g>
</g>
</svg>
