<!-- Generated by IcoMoon.io -->
<svg version="1.1" xmlns="http://www.w3.org/2000/svg" width="32" height="32" viewBox="0 0 32 32">
<title>assignment</title>
<path d="M28.098-0.5c-2.335 0-4.229 1.892-4.229 4.226s1.894 4.227 4.229 4.227c2.334 0 4.225-1.893 4.225-4.227s-1.892-4.226-4.225-4.226zM23.109 6.974h-6.869c-1.206 0-1.812 1.461-0.957 2.312l1.84 1.837-1.886 1.857c-1.52-0.929-3.305-1.465-5.213-1.465-5.527 0-10.023 4.497-10.023 10.023s4.496 10.024 10.023 10.024c5.527 0 10.024-4.496 10.024-10.024 0-1.987-0.584-3.84-1.585-5.399l1.851-1.823 1.836 1.838c0.855 0.854 2.315 0.249 2.315-0.957v-6.869c0-0.748-0.608-1.355-1.355-1.355zM18.213 21.539c0 4.516-3.674 8.189-8.19 8.189s-8.189-3.674-8.189-8.189c0-4.516 3.674-8.189 8.189-8.189 1.394 0 2.706 0.351 3.856 0.967l-5.091 5.014 3.191 3.193 5.141-5.064c0.693 1.202 1.092 2.594 1.092 4.078z"></path>
</svg>
