<?xml version="1.0" encoding="utf-8"?>
<!-- Generator: Adobe Illustrator 16.0.0, SVG Export Plug-In . SVG Version: 6.00 Build 0)  -->
<!DOCTYPE svg PUBLIC "-//W3C//DTD SVG 1.1//EN" "http://www.w3.org/Graphics/SVG/1.1/DTD/svg11.dtd">
<svg version="1.1" id="Layer_1" xmlns="http://www.w3.org/2000/svg" xmlns:xlink="http://www.w3.org/1999/xlink" x="0px" y="0px"
	 width="256px" height="253.689px" viewBox="0 0 256 253.689" enable-background="new 0 0 256 253.689" xml:space="preserve">
<g>
	<path fill="#212221" d="M222.534,0c-18.493,0-33.494,14.982-33.494,33.471c0,18.487,15.001,33.477,33.494,33.477
		c18.482,0,33.466-14.99,33.466-33.477C256,14.982,241.017,0,222.534,0z"/>
	<path fill="#212221" d="M183.021,59.198h-54.404c-9.55,0-14.348,11.568-7.581,18.312l14.569,14.552l-14.936,14.709
		c-12.036-7.359-26.173-11.605-41.284-11.605C35.612,95.166,0,130.78,0,174.552c0,43.777,35.612,79.389,79.384,79.389
		c43.776,0,79.392-35.611,79.392-79.389c0-15.738-4.624-30.41-12.555-42.764l14.657-14.437l14.543,14.558
		c6.771,6.764,18.333,1.971,18.333-7.579V69.931C193.755,64.004,188.936,59.198,183.021,59.198z M144.247,174.552
		c0,35.766-29.096,64.861-64.862,64.861c-35.762,0-64.858-29.096-64.858-64.861c0-35.764,29.096-64.859,64.858-64.859
		c11.037,0,21.435,2.779,30.543,7.66l-40.32,39.715l25.276,25.289l40.714-40.104C141.089,151.77,144.247,162.798,144.247,174.552z"
		/>
</g>
</svg>
