<!-- Generated by IcoMoon.io -->
<svg version="1.1" xmlns="http://www.w3.org/2000/svg" width="32" height="32" viewBox="0 0 32 32">
<title>assignment-horizontal-slim</title>
<path d="M30.95 14.35c-1.35-1.35-3.5-1.35-4.8 0-1.35 1.35-1.35 3.5 0 4.8 1.35 1.35 3.5 1.35 4.8 0s1.3-3.5 0-4.8z"></path>
<path d="M23.85 15.75l-3.9-3.9c-0.7-0.7-1.85-0.2-1.85 0.75v2.1h-2.15c-0.35-1.4-1.050-2.7-2.15-3.8-3.15-3.15-8.25-3.15-11.4 0s-3.15 8.25 0 11.4c3.15 3.15 8.25 3.15 11.4 0 1.15-1.15 1.85-2.5 2.15-3.95h2.1v2.1c0 0.95 1.15 1.45 1.85 0.75l3.9-3.9c0.5-0.45 0.5-1.15 0.050-1.55zM12.8 21.25c-2.55 2.55-6.75 2.55-9.3 0-2.6-2.6-2.6-6.75 0-9.3 2.55-2.55 6.75-2.55 9.3 0 0.8 0.8 1.35 1.75 1.65 2.75l-5.75-0.050v3.65h5.8c-0.3 1.1-0.85 2.1-1.7 2.95z"></path>
</svg>
