<!-- Generated by IcoMoon.io -->
<svg version="1.1" xmlns="http://www.w3.org/2000/svg" width="32" height="32" viewBox="0 0 32 32">
<title>case</title>
<path stroke-linejoin="miter" stroke-linecap="butt" stroke-miterlimit="10" stroke-width="0.5" stroke="#000" fill="#000" d="M0.85 20.75h8.7l-4.45 6.75-4.25-6.75z"></path>
<path stroke-linejoin="miter" stroke-linecap="butt" stroke-miterlimit="10" stroke-width="0.5" stroke="#000" fill="#000" d="M31.15 11.85h-8.7l4.4-6.75 4.3 6.75z"></path>
<path stroke-linejoin="miter" stroke-linecap="butt" stroke-miterlimit="10" stroke-width="1" stroke="#000" fill="#000" d="M4.5 24.5v-16.45c0 0 0.2-5.4 6.1-5.4 5.95 0 6 4.9 6 4.9v8.8l-1.2-0.050v-8.6c0 0-0.050-3.8-4.7-3.8s-4.9 4.35-4.9 4.35v16.55l-1.3-0.3z"></path>
<path stroke-linejoin="miter" stroke-linecap="butt" stroke-miterlimit="10" stroke-width="1" stroke="#000" fill="#000" d="M27.5 8.1v16.45c0 0-0.2 5.4-6.1 5.4s-6-4.9-6-4.9v-8.8l1.2 0.050v8.6c0 0 0.050 3.8 4.7 3.8s4.9-4.35 4.9-4.35v-16.55l1.3 0.3z"></path>
</svg>
