<?xml version="1.0" encoding="utf-8"?>
<!-- Generator: Adobe Illustrator 19.0.0, SVG Export Plug-In . SVG Version: 6.00 Build 0)  -->
<svg version="1.1" xmlns="http://www.w3.org/2000/svg" xmlns:xlink="http://www.w3.org/1999/xlink" x="0px" y="0px"
	 viewBox="0 0 64 64" style="enable-background:new 0 0 64 64;" xml:space="preserve">
<style type="text/css">
	.st0{display:none;}
	.st1{display:inline;}
	.st2{fill-rule:evenodd;clip-rule:evenodd;}
	.st3{fill:#212221;}
</style>
<g id="Layer_2" class="st0">
</g>
<g id="Layer_1" class="st0">
	<g id="XMLID_1_" class="st1">
		<path id="XMLID_28_" class="st2" d="M36.5,58.6c-2.2,0.7-16.2,2.9-26.6-5.2S0,34.1,0,33.4s-0.1-13.7,11.9-23s23.4-8.2,26.5-8
			c3.1,0.1,15.7,2.4,21.8,12.5c4.6,7.8,3.9,12.8,3.3,18.2c-0.3,2.3-1.4,4.8-2,6.1c-2.8,6.4-11.7,13.8-11.7,13.8
			c1.3,4.9,9.9,6.2,9.9,6.2C48.3,66.7,37.2,58.4,36.5,58.6z M6.7,32.6l16.1,16.1c0.3,0.3,0.7,0.7,1.1,0.8c0.7,0.3,1.9,0.3,2.8-0.7
			c1.4-1.5,28.2-28.2,28.2-28.2s1.3-1.2,0-2.4C53,16.6,50.4,14,50.4,14s-1.1-1.4-2.4-0.2c-1.9,1.9-23.2,23.2-23.2,23.2L13.7,25.8
			c0,0-0.9-1.2-2.1,0c-2,2-4.7,4.7-4.7,4.7S5.7,31.6,6.7,32.6z"/>
		<path id="XMLID_22_" class="st2" d="M36.5,58.6c-2.2,0.7-16.2,2.9-26.6-5.2S0,34.1,0,33.4s-0.1-13.7,11.9-23s23.4-8.2,26.5-8
			c3.1,0.1,15.7,2.4,21.8,12.5c4.6,7.8,3.9,12.8,3.3,18.2c-0.3,2.3-1.4,4.8-2,6.1c-2.8,6.4-11.7,13.8-11.7,13.8
			c1.3,4.9,9.9,6.2,9.9,6.2C48.3,66.7,37.2,58.4,36.5,58.6z M6.7,32.6l16.1,16.1c0.3,0.3,0.7,0.7,1.1,0.8c0.7,0.3,1.9,0.3,2.8-0.7
			c1.4-1.5,28.2-28.2,28.2-28.2s1.3-1.2,0-2.4C53,16.6,50.4,14,50.4,14s-1.1-1.4-2.4-0.2c-1.9,1.9-23.2,23.2-23.2,23.2L13.7,25.8
			c0,0-0.9-1.2-2.1,0c-2,2-4.7,4.7-4.7,4.7S5.7,31.6,6.7,32.6z"/>
	</g>
</g>
<g id="Layer_3" class="st0">
	<polygon id="XMLID_16_" class="st1" points="0,57 3,46 0,8 16,29 32,8 48,29 64,8 61,46 64,57 	"/>
</g>
<g id="Layer_4">
	<g id="XMLID_8_">
		<g id="XMLID_43_">
			<path id="XMLID_46_" class="st3" d="M61.8,37c-2.7,2.7-7.1,2.7-9.8,0s-2.7-7.1,0-9.8c2.7-2.7,7.1-2.7,9.8,0S64.5,34.3,61.8,37z"
				/>
			<path id="XMLID_45_" class="st3" d="M24.8,40c-4.5,4.5-11.9,4.5-16.4,0c-4.5-4.5-4.5-11.9,0-16.4s11.9-4.5,16.4,0
				c0.5,0.5,0.9,1,1.3,1.6l5.5,0c-0.8-1.8-1.9-3.5-3.4-5c-6.4-6.4-16.9-6.4-23.3,0c-6.4,6.4-6.4,16.9,0,23.3
				c6.4,6.4,16.9,6.4,23.3,0c1.6-1.6,2.8-3.5,3.6-5.5l-5.4,0C25.9,38.7,25.4,39.4,24.8,40z"/>
			<path id="XMLID_44_" class="st3" d="M35.5,23.7l0,4.3l-19.2-0.1l0,7.4l19.2,0.1l0,4.3c0,2,2.4,3,3.8,1.6l8-8
				c0.9-0.9,0.9-2.3,0-3.2l-8-8C37.9,20.7,35.5,21.7,35.5,23.7L35.5,23.7z"/>
		</g>
		<g id="XMLID_39_">
			<path id="XMLID_42_" d="M61.8,37c-2.7,2.7-7.1,2.7-9.8,0s-2.7-7.1,0-9.8c2.7-2.7,7.1-2.7,9.8,0S64.5,34.3,61.8,37z"/>
			<path id="XMLID_41_" d="M24.8,40c-4.5,4.5-11.9,4.5-16.4,0c-4.5-4.5-4.5-11.9,0-16.4s11.9-4.5,16.4,0c0.5,0.5,0.9,1,1.3,1.6
				l5.5,0c-0.8-1.8-1.9-3.5-3.4-5c-6.4-6.4-16.9-6.4-23.3,0c-6.4,6.4-6.4,16.9,0,23.3c6.4,6.4,16.9,6.4,23.3,0
				c1.6-1.6,2.8-3.5,3.6-5.5l-5.4,0C25.9,38.7,25.4,39.4,24.8,40z"/>
			<path id="XMLID_40_" d="M35.5,23.7l0,4.3l-19.2-0.1l0,7.4l19.2,0.1l0,4.3c0,2,2.4,3,3.8,1.6l8-8c0.9-0.9,0.9-2.3,0-3.2l-8-8
				C37.9,20.7,35.5,21.7,35.5,23.7L35.5,23.7z"/>
		</g>
	</g>
</g>
</svg>
