<!-- Generated by IcoMoon.io -->
<svg version="1.1" xmlns="http://www.w3.org/2000/svg" width="32" height="32" viewBox="0 0 32 32">
<title>employee-object</title>
<path fill="#000" d="M16 26.7c-0.3 0-0.65 0-1-0.050-5.2-0.5-9.15-4.8-9.25-10 0-1.9 0-3.8 0-5.75 0-0.5 0.050-0.95 0.1-1.35 0.8-4.3 3.2-7 7.35-8.35 0.4-0.15 0.85-0.2 1.35-0.3 0.2-0.050 0.45-0.050 0.65-0.1h1.5l0.25 0.050c0.25 0.050 0.45 0.050 0.7 0.1 4.9 0.85 8.5 5.1 8.5 10.050v0.45c0 1.65 0 3.35 0 5 0 0.65-0.050 1.2-0.15 1.75-0.8 4.95-5 8.5-10 8.5z"></path>
<path fill="#000" d="M16.7 1.55c0.1 0 0.15 0 0.25 0.050 0.2 0.050 0.45 0.050 0.65 0.1 4.55 0.8 7.85 4.7 7.85 9.35v0.45c0 1.65 0 3.35 0 5 0 0.6-0.050 1.15-0.15 1.6-0.8 4.55-4.7 7.85-9.3 7.85-0.3 0-0.6 0-0.9-0.050-4.8-0.45-8.5-4.45-8.55-9.25 0-1.9 0-3.8 0-5.75 0-0.45 0.050-0.85 0.1-1.2 0.7-4 2.95-6.55 6.85-7.75 0.35-0.1 0.8-0.2 1.25-0.25 0.2-0.050 0.4-0.050 0.6-0.1h1.35zM16.8 0.050c-0.55 0-1.1 0-1.6 0-0.7 0.15-1.45 0.2-2.15 0.4-4.4 1.45-7.050 4.4-7.9 8.95-0.1 0.5-0.1 1-0.1 1.5 0 1.95 0 3.85 0 5.8 0.050 5.6 4.35 10.2 9.9 10.75 0.35 0.050 0.7 0.050 1.050 0.050 5.3 0 9.9-3.8 10.8-9.1 0.1-0.6 0.15-1.25 0.15-1.85 0-1.85 0-3.65 0-5.5 0-5.35-3.85-9.9-9.1-10.8-0.35-0.1-0.7-0.15-1.050-0.2v0z"></path>
<path fill="#000" d="M29.4 31.3c-5.8 0-11.55 0-17.35 0 0 0-9.2 0-9.3 0 0-1.2 0-2.4 0-3.55v-0.5l0.65-0.15c1.2-0.3 2.4-0.65 3.6-0.95 1.6 1.6 3.45 2.65 5.5 3.1 0.8 0.2 1.65 0.3 2.55 0.35 0.3 0 0.65 0 0.95 0 0.65 0 1.35-0.050 2-0.1 1.95-0.15 3.8-0.9 5.55-2.1 0.45-0.3 0.9-0.7 1.45-1.25 0 0 0 0 0 0 1.25 0.3 2.45 0.65 3.7 0.95l0.7 0.2v0.7c0 1.050 0 2.2 0 3.3z"></path>
<path fill="#000" d="M6.8 26.95c1.6 1.5 3.5 2.55 5.55 3 0.8 0.2 1.7 0.3 2.65 0.35 0.35 0 0.65 0 1 0 0.7 0 1.4-0.050 2.050-0.1 2.1-0.2 4.1-0.95 5.9-2.25 0.4-0.3 0.8-0.6 1.25-1 1.1 0.3 2.2 0.55 3.3 0.85l0.1 0.050v0.050c0 0.9 0 1.8 0 2.7-5.95 0-11.9 0-17.85 0h-7.3c0-0.9 0-1.85 0-2.75h0.050c1.15-0.35 2.2-0.6 3.3-0.9zM7.1 25.35c-0.050 0-0.1 0-0.15 0-1.65 0.45-3.3 0.85-4.95 1.3 0 1.75 0 3.45 0 5.2 0 0.15 0 0.2 0.2 0.2 0 0 0 0 0 0 0.3 0 0.6 0 0.85 0 0.35 0 0.7 0 1.050 0 2.2 0 4.45 0 6.65 0 6.35 0 12.7 0 19.050 0 0 0 0 0 0 0 0.25 0 0.3-0.050 0.3-0.3 0-1.7 0-3.4 0-5.1-0.1 0-0.15-0.050-0.25-0.050-1.6-0.4-3.15-0.8-4.75-1.2-0.050 0-0.15-0.050-0.2-0.050-0.2 0-0.35 0.1-0.5 0.25-0.45 0.4-0.9 0.8-1.35 1.15-1.55 1.1-3.25 1.8-5.15 2-0.65 0.050-1.3 0.1-1.95 0.1-0.3 0-0.6 0-0.95 0-0.8-0.050-1.6-0.15-2.4-0.3-2.050-0.45-3.75-1.5-5.25-3 0-0.15-0.1-0.2-0.25-0.2v0z"></path>
</svg>
