<!-- Generated by IcoMoon.io -->
<svg version="1.1" xmlns="http://www.w3.org/2000/svg" width="32" height="32" viewBox="0 0 32 32">
<title>handy</title>
<path d="M26.65 14.1c-1.050-1-2.35 0.2-2.35 0.2l-1.4 0.9c0 0-1.55 1-2.45 0.25-1.2-0.95-0.8-1.7-0.8-1.7l3.7-8.5c0 0 0.8-1.050-0.35-1.75-1.2-0.7-1.75 0.75-1.75 0.75l-3.95 8.1 1.25-9.7c0 0 0.3-1.6-1.050-1.75s-1.5 1.35-1.5 1.35l-1.7 9.95-1.55-9.1c0 0 0.050-1.65-1.45-1.5s-1 1.75-1 1.75l1.2 9.95-3.9-5.95c0 0-0.9-1.95-1.85-0.95s-0.15 1.95-0.15 1.95l4.45 8.050c0.787 4.528 1.506 6.656 1.881 7.544l-0.781 5.506c0 0 4.050 2.15 9.4 0 0.034 0-0.278-3.363-0.481-5.522 0.613-2.759 2.156-4.325 2.481-4.978 0.8-1.55 3.2-2.8 3.2-2.8s1.9-1.1 0.9-2.050z"></path>
</svg>
