<!-- Generated by IcoMoon.io -->
<svg version="1.1" xmlns="http://www.w3.org/2000/svg" width="32" height="32" viewBox="0 0 32 32">
<title>lock-object</title>
<path d="M10.95 14.75h10.15v-3.8c0-1.4-0.5-2.6-1.5-3.6s-2.2-1.5-3.6-1.5-2.6 0.5-3.6 1.5-1.5 2.2-1.5 3.6v3.8zM27.4 16.65v11.4c0 0.55-0.2 1-0.55 1.35s-0.8 0.55-1.35 0.55h-19c-0.55 0-1-0.2-1.35-0.55s-0.55-0.8-0.55-1.35v-11.4c0-0.55 0.2-1 0.55-1.35s0.8-0.55 1.35-0.55h0.65v-3.8c0-2.45 0.85-4.5 2.6-6.25s3.8-2.65 6.25-2.65 4.5 0.85 6.25 2.6 2.6 3.85 2.6 6.25v3.8h0.65c0.55 0 1 0.2 1.35 0.55 0.4 0.4 0.55 0.85 0.55 1.4z"></path>
</svg>
