<!-- Generated by IcoMoon.io -->
<svg version="1.1" xmlns="http://www.w3.org/2000/svg" width="32" height="32" viewBox="0 0 32 32">
<title>midpoint-wheel</title>
<path d="M17.97-0.344c-0.002 0.014-0.020 0.019-0.044 0.019-0.036 0-0.089-0.009-0.148-0.009-0.101 0-0.218 0.031-0.261 0.229-0.135 0.237-0.298 0.512-0.284 0.512h0.002c0 0.018 0.007 0.026 0.009 0.026 0.028 0 0.122-0.273 0.152-0.273 0.002 0 0.007 0.003 0.007 0.013-0.225 0.45-0.119 0.509-0.408 0.944 0.028-0.082 0.018-0.106 0-0.106-0.029 0-0.092 0.058-0.113 0.058-0.012 0-0.013-0.005-0.012-0.025-0.138 0.194 0.039 0.107-0.154 0.378l-0.021-0.047c-0.153 0.284-0.109 0.228-0.244 0.241-0.067-0.009-0.17-0.013-0.284-0.013-0.266 0-0.589 0.019-0.634 0.033-0.007 0.010-0.018 0.017-0.027 0.017-0.135 0-0.525-0.782-0.822-1.107 0-0.078-0.103-0.302-0.242-0.592-0.049-0.062-0.064-0.188-0.137-0.209l-0.259 0.025-0.625 0.057c0.045-0.004 0.085-0.007 0.112-0.007 0.188 0-0.142 0.087-0.245 0.114l-0.315-0.027c-0.195 0.005-0.399 0.072-0.605 0.134l-0.739 0.262c-0.019 0-0.037 0-0.053 0-0.059 0-0.097-0.007-0.133-0.012-0.234 0.372-0.050 0.541-0.082 0.7-0.030 0.122-0.058 0.158-0.083 0.239l0.053 0.047c-0.002 0.31-0.053 0.706-0.139 0.706-0.007 0-0.009-0.003-0.014-0.006 0.002 0.088 0.004 0.171 0.018 0.171 0.007 0 0.019-0.018 0.032-0.064 0-0.001 0-0.005 0.002-0.008-0.002 0.002-0.002 0.007-0.002 0.008-0.023 0.079-0.046 0.201-0.066 0.314-0.024 0.047 0 0.125-0.051 0.159-0.023 0.012-0.474 0.171-0.728 0.313 0.121-0.040 0.183-0.058 0.222-0.058 0.048 0 0.057 0.025 0.080 0.049-0.036 0.124-0.13 0.039-0.32 0.188-0.008-0.007-0.033-0.013-0.053-0.013-0.012 0-0.021 0-0.031 0-0.057 0-0.098-0.003 0.050-0.087-0.121 0.029-0.185 0.047-0.235 0.047-0.095 0-0.129-0.082-0.476-0.35l-0.596-0.455-0.387-0.305-0.231-0.186c-0.039-0.029-0.078-0.069-0.115-0.090l-0.117 0.071c-0.25 0.162-0.169 0.134-0.281 0.237-0.846 0.387-1.086 0.673-2.036 1.347 0.039-0.018 0.066-0.028 0.082-0.028 0.036 0 0.036 0.029 0.002 0.084 0.067 0.12 0.161 0.315 0.227 0.548 0.203 0.404-0.066 0.197-0.004 0.572 0.086 0.16 0.194 0.486 0.226 0.627l-0.013-0.007 0.133 0.286 0.034 0.121c-0.030 0.029-0.067 0.049-0.101 0.070l0.009-0.019c-0.048 0.034-0.293 0.193-0.456 0.367-0.007 0.060-0.128 0.202-0.229 0.317-0.054 0.069-0.115 0.138-0.13 0.203-0.019-0.013 0.002-0.013-0.032-0.041l0.005 0.072-0.3-0.125c0.012 0 0.021 0 0.032 0 0.083 0 0.101-0.024 0.154-0.025-0.091-0.040-0.137-0.053-0.167-0.053-0.055 0-0.034 0.054-0.135 0.054-0.017 0-0.030 0-0.048-0.002-0.336-0.052-0.3-0.108-0.451-0.177 0.147 0.003 0.233 0.084 0.32 0.093 0.005 0 0.012 0 0.016 0 0.158 0-0.204-0.074-0.201-0.115-0.014-0.008-0.021-0.008-0.030-0.008-0.030 0-0.062 0.017-0.115 0.017-0.048 0-0.114-0.012-0.209-0.046l-0.444-0.137c-0.199-0.065-0.355-0.123-0.319-0.149-0.050-0.028-0.094-0.041-0.135-0.041-0.211 0-0.293 0.312-0.392 0.428l0.271-0.306c0.021-0.014 0.046-0.022 0.068-0.022 0.053 0 0.112 0.035 0.153 0.063 0.016 0.008 0.027 0.015 0.046 0.029-0.004 0-0.021-0.016-0.046-0.029s-0.050-0.019-0.070-0.019c-0.186 0-0.298 0.34-0.36 0.34-0.004 0-0.007 0-0.007 0l0.090-0.149c-0.087 0.13-0.338 0.444-0.291 0.444 0.007 0 0.030-0.014 0.071-0.042l-0.273 0.221c-0.029 0.133-0.219 0.41-0.352 0.642-0.041-0.003-0.039-0.092-0.078-0.092-0.034 0-0.1 0.067-0.261 0.309l-0.234 0.541c0.080 0.224 0.186 0.306 0.142 0.306-0.007 0-0.018 0-0.030-0.004l0.247 0.313 0.142 0.147c0.090 0.089 0.167 0.147 0.243 0.197 0.152 0.115 0.284 0.206 0.449 0.467-0.061-0.039-0.094-0.056-0.112-0.056-0.053 0 0.058 0.149 0.151 0.29 0.003 0 0.007 0 0.016 0 0.016 0 0.041 0.006 0.074 0.040-0.002-0.068-0.083-0.003-0.179-0.221 0.002-0.013 0.002-0.016 0.009-0.016 0.041 0 0.188 0.193 0.223 0.218 0 0.040 0.027 0.083 0.018 0.124l-0.103 0.143c-0.050 0.093-0.201 0.381-0.272 0.598-0.131 0.28-0.085 0.375-0.211 0.417l-0.566 0.030c0.074 0.098-0.387 0.080-0.563 0.132 0.012-0.025-0.009-0.034-0.057-0.034s-0.124 0.011-0.206 0.026c-0.147 0.025-0.433 0.073-0.623 0.073-0.021 0-0.042 0-0.058-0.003l0.252 0.081-0.27 0.021c-0.044 0.047-0.042 0.141-0.067 0.21l-0.055 0.411c-0.034 0.254-0.032 0.391-0.137 0.553-0.025 0.074-0.041 0.105-0.050 0.105-0.027 0-0.003-0.261 0.005-0.358-0.22 0.411-0.112 1.068-0.319 1.628 0.003 0.002 0.009 0.002 0.009 0.002 0.021 0 0.037-0.016 0.059-0.016 0 0 0.005 0 0.008 0.003 0.020 0.011 0.032 0.025 0.036 0.072l0.005 0.088 0.151 0.060c0.342 0.248 0.797 0.557 0.747 0.557v0c0.223 0.094 0.298 0.094 0.51 0.259-0.007 0.002-0.009 0.002-0.018 0.002-0.041 0-0.13-0.045-0.204-0.071 0.165 0.1 0.383 0.217 0.483 0.26 0.075 0.037 0.238 0.037 0.211 0.162-0.028 0.033-0.046 0.087-0.053 0.142l-0.030 0.391 0.009 0.444c0 0.059-0.002 0.134-0.013 0.18 0.021 0.073-0.089 0.104-0.183 0.152-0.146 0.071-0.263 0.135-0.256 0.202 0.004 0.002 0.004 0.002 0.004 0.004 0 0 0-0.003-0.004-0.004 0-0.003-0.007-0.003-0.017-0.003-0.020 0-0.050 0.004-0.070 0.007-0.143 0.12-0.224 0.264-0.423 0.379l0.022-0.109c0-0.018-0.012-0.023-0.030-0.023-0.048 0-0.153 0.055-0.272 0.122-0.128 0.073-0.361 0.211-0.458 0.245 0.025-0.004 0.034-0.010 0.041-0.010 0.055 0-0.437 0.2-0.211 0.32l0.076 0.358c0.101 0.542 0.053 0.097 0.16 0.636 0.022 0.123 0.018 0.166-0.003 0.166-0.032 0-0.085-0.086-0.087-0.146 0.007 0.285 0.076 0.484 0.163 0.762-0.017-0.059-0.023-0.091-0.017-0.091 0.002 0 0.009 0.013 0.030 0.049-0.014 0-0.009 0.038-0.007 0.075 0.035 0.103 0.066 0.223 0.101 0.356v-0.002c-0.002 0 0 0.011-0.002 0.011v0c-0.039-0.143-0.076-0.271-0.098-0.355 0.012 0.090 0.050 0.238 0.092 0.398 0.003 0.008 0.003 0.016 0.005 0.028 0.029 0.126 0.062 0.254 0.071 0.337l-0.080-0.045c-0.040 0.169 0.16 0.194 0.361 0.194 0.053 0 0.099 0 0.147-0.004 0.037 0.004 0.073 0.004 0.108 0.004 0.179 0 0.268-0.012 0.254-0.024 0.362 0.071 1.033 0.146 1.351 0.164 0.016-0.001 0.033-0.004 0.049-0.004 0.131 0 0.123 0.157 0.194 0.256 0.043 0.097 0.083 0.189 0.12 0.261 0.016 0.034 0.041 0.078 0.066 0.137-0.018-0.032-0.039-0.083-0.066-0.137-0.023-0.038-0.042-0.062-0.046-0.062-0.005 0 0.002 0.024 0.032 0.062 0.103 0.227 0.291 0.483 0.248 0.489 0.044 0.075 0.045 0.107 0.048 0.15 0.018 0.046-0.004 0.087-0.091 0.163v0c-0.009 0 0.013 0.028 0.036 0.028 0.003 0 0.003 0 0.003 0 0.014-0.012 0.028-0.021 0.037-0.028-0.009 0.021-0.023 0.024-0.037 0.028-0.131 0.109-0.364 0.411-0.533 0.657-0.195 0.27-0.41 0.577-0.756 0.98l0.094 0.163c0.011 0.018 0.021 0.036 0.023 0.046l-0.023-0.046c-0.035-0.045-0.094-0.113-0.153-0.169 0.006-0.029 0.018-0.053 0.025-0.071l-0.048 0.071c0.456 0.712 0.719 1.081 1.092 1.46-0.057-0.029-0.070 0-0.165-0.103 0.156 0.184 0.404 0.594 0.609 0.751-0.046-0.084-0.055-0.121-0.032-0.121 0.016 0 0.054 0.029 0.096 0.073 0.022 0.030 0.053 0.045 0.084 0.045 0.11 0 0.272-0.116 0.373-0.116 0.004 0 0.009 0 0.013 0l0.007 0.007 0.795-0.27c0.023-0.004 0.044-0.006 0.057-0.006 0.1 0-0.245 0.087-0.151 0.097 0.016 0.010 0.043 0.013 0.080 0.013 0.229 0 0.795-0.194 0.82-0.194 0.004 0 0.004 0.003 0.004 0.003 0.039-0.042 0.078-0.051 0.108-0.051 0.016 0 0.027 0.003 0.034 0.003s0.013-0.003 0.013-0.006c0.197 0.164 0.037 0.135 0.162 0.254 0.245 0.172 0.493 0.32 0.753 0.466 0.005 0.013 0.014 0.019 0.021 0.023-0.003 0-0.003 0-0.003 0-0.028 0 0.044 0.124-0.011 0.124-0.005 0-0.017-0.003-0.030-0.010 0.222 0.152 0.108 0.358 0.101 0.565l-0.013 0.176-0.401 1.373c-0.004-0.012-0.011-0.015-0.018-0.015-0.027 0-0.080 0.089-0.107 0.089-0.012 0-0.016-0.018-0.016-0.065l-0.037 0.166 0.174 0.129 0.403 0.306 0.746 0.551c-0.055-0.062-0.062-0.087-0.037-0.087 0.089 0 0.55 0.302 0.662 0.302 0.016 0 0.021-0.004 0.022-0.006 0.055 0.030 0.102 0.064 0.154 0.093l0.144-0.112c0.023-0.013 0.046-0.019 0.060-0.019h0.004c0.021 0.004 0.026 0.025 0.048 0.025 0.016 0 0.041-0.012 0.087-0.037 0.483-0.443 1.005-0.824 1.389-1.15 0 0 0.008 0.015-0.011 0.044 0.009-0.003 0.019-0.003 0.023-0.003 0.187 0 0.483 0.188 0.803 0.293l0.479 0.162c0.068 0.025 0.156 0.036 0.217 0.066l0.041 0.158 0.007 0.034c-0.004 0-0.007 0-0.007 0-0.004 0-0.009 0-0.013 0-0.012 0-0.025-0.007-0.048-0.079 0.009 0.284 0.052 0.284 0.089 0.327l0.038 0.341-0.042-0.088c0.096 0.396 0.042 0.782 0.169 1.229l0.003 0.025c-0.003 0.006-0.005 0.006-0.007 0.006-0.024 0-0.042-0.087-0.064-0.149l0.050 0.35c0.015 0.112 0.204 0.071 0.295 0.122 0.138 0.030 0.252 0.037 0.376 0.055 0.080 0.014 0.157 0.038 0.243 0.056-0.008 0.018-0.033 0.032-0.102 0.032-0.022 0-0.047-0.003-0.080-0.004 0.174 0.057 0.286 0.063 0.385 0.063 0.048 0 0.092 0 0.142 0 0.087 0 0.181 0.008 0.316 0.046 0.102 0.022 0.268 0.087 0.254 0.093 0.025-0.003 0.057-0.003 0.090-0.003 0.107 0 0.251 0.011 0.393 0.031 0.007 0 0.012-0.011 0.018-0.011 0.023 0.004 0.044 0.011 0.064 0.014l0.078-0.141c0.008-0.016 0.020-0.030 0.027-0.046l0.131-0.236c0.055-0.053 0.131-0.149 0.247-0.306l0.384-0.7c0.13-0.164 0.161-0.456 0.36-0.456 0.029 0 0.064 0.005 0.103 0.019 0.161 0.011 0.364 0.022 0.561 0.022 0.078 0 0.158-0.002 0.233-0.007l0.38-0.017 0.183-0.012 0.090 0.154 0.772 1.373 0.208 0.365c0.014 0 0.028 0 0.039 0 0.112 0 0.245-0.034 0.366-0.056 0.213-0.033 0.417-0.081 0.619-0.13 0.064-0.010 0.128-0.018 0.185-0.025 0.296 0.043-0.485 0.155-0.259 0.183-0.029-0.089 0.342-0.081 0.98-0.27l0.036 0.011c0.247-0.12 0.605 0.009 0.531-0.429l-0.023 0.003c-0.028-0.366 0.199-0.695 0.091-0.882l0.096-0.231c-0.066-0.325 0.069-0.468 0.044-0.78-0.002-0.014-0.011-0.028-0.002-0.030 0.002 0.012 0.002 0.020 0.002 0.030 0.003 0.007 0.003 0.008 0.005 0.014 0.339-0.126 0.893-0.481 1.078-0.495 0.097-0.1 0.193-0.135 0.284-0.135 0.186 0 0.357 0.151 0.469 0.212l0.096 0.076c-0.015 0.011-0.032 0.018-0.056 0.018-0.012 0-0.028-0.005-0.040-0.007 0.355 0.224 0.738 0.648 1.138 0.826l0.197 0.156c0.046-0.028 0.090-0.059 0.135-0.082 0.206-0.003 0.412-0.094 0.623-0.348 0.312-0.202 0.605-0.426 0.886-0.65 0.112-0.087 0.229-0.165 0.344-0.252l-0.621-2.114c0.037-0.050 0.078-0.096 0.118-0.142 0.364-0.331 0.721-0.673 1.049-1.049l2.13 0.624c0.497-0.627 0.941-1.287 1.332-1.985l-0.048-0.062-0.497-0.657-0.525-0.666-0.249-0.307c-0.078-0.101 0.062-0.228 0.086-0.343 0.098-0.236 0.203-0.473 0.265-0.7l0.016-0.046c0.065-0.163 0.144-0.316 0.202-0.481l0.431-0.048c0.007 0.013 0.018 0.025 0.050 0.025 0.014 0 0.030-0.003 0.044-0.007 0.254-0.050 0.526-0.081 0.793-0.115l0.885-0.097c0.14-0.494 0.248-1.009 0.339-1.525 0.030-0.162 0.060-0.315 0.073-0.462 0.016-0.122 0.041-0.237 0.055-0.362l-1.949-1.067c0.014-0.276 0.037-0.545 0.037-0.825 0-0.283-0.023-0.553-0.037-0.83l0.658-0.362-0.087 0.069c0.103-0.069 0.229-0.122 0.284-0.122 0.028 0 0.032 0.010 0.020 0.034l0.31-0.209 0.016 0.066c0.249-0.152 0.492-0.275 0.785-0.427 0.099-0.025 0.115-0.084 0.087-0.168l-0.035-0.233c-0.022-0.156-0.047-0.332-0.091-0.478l-0.028 0.251c-0.062-0.374-0.22-0.719-0.22-1.070 0.021 0.059 0.039 0.077 0.050 0.077 0.019 0 0.026-0.046 0.049-0.058-0.030-0.082-0.073-0.162-0.087-0.275l0.117 0.112c-0.079-0.091-0.149-0.334-0.213-0.582 0.012-0.185-0.174-0.163-0.296-0.183-0.116-0.018-0.219-0.029-0.272-0.029l0.073-0.016c-0.14-0.025-0.203-0.034-0.233-0.034-0.075 0 0.152 0.078 0.014 0.078-0.018 0-0.042-0.003-0.080-0.006-0.318-0.053-0.108-0.134-0.394-0.214l-0.941-0.067c-0.158-0.105-0.236-0.557-0.351-0.859l-0.153-0.293c-0.032-0.076-0.126-0.158-0.039-0.229l0.352-0.545c0.092-0.119 0.133-0.147 0.15-0.147s0.021 0.023 0.033 0.023c0.013 0 0.041-0.029 0.131-0.169 0 0.038 0.020 0.044 0.050 0.044 0.022 0 0.053-0.005 0.078-0.010-0.005-0.029 0.091-0.143 0.174-0.258 0.089-0.118 0.21-0.277 0.181-0.277-0.012 0-0.044 0.023-0.11 0.082l0.21-0.258c0.083-0.088 0.174-0.169 0.069-0.268l-0.33-0.576c-0.181-0.293-0.378-0.586-0.584-0.851-0.009-0.009-0.012-0.014-0.018-0.023 0.007 0.008 0.009 0.014 0.018 0.023 0.064 0.079 0.117 0.119 0.144 0.119s0.030-0.043-0.007-0.133c-0.103-0.091-0.307-0.31-0.517-0.563l-0.161-0.19-0.272 0.081-0.501 0.142c0.027 0.068 0.208 0.018 0.169 0.102-0.078 0.037-0.204 0.107-0.337 0.141-0.069-0.032-0.096-0.094-0.245-0.094-0.080 0-0.193 0.018-0.367 0.068 0.099-0.156 0.852-0.238 0.591-0.282 0.046-0.037 0.142-0.085 0.255-0.133l0.63-0.208c0.037-0.005 0.092-0.039 0.133-0.039 0.013 0 0.020 0.003 0.029 0.007l0.099 0.136 0.178 0.247c0.111 0.152 0.19 0.277 0.223 0.348 0.078 0.069 0.113 0.096 0.126 0.096 0.014 0-0.027-0.058-0.075-0.13-0.121-0.166-0.293-0.395-0.231-0.395h0.001l-0.279-0.346c-0.021-0.011-0.039-0.016-0.067-0.016-0.1 0-0.237 0.091-0.349 0.117l-0.84 0.28c0.007 0.056 0.215 0-0.055 0.125-0.265 0.137-0.46 0.169-0.593 0.169-0.117 0-0.186-0.024-0.204-0.024v0c-0.007-0.011 0.144-0.058 0.211-0.090-0.227 0.045-0.229 0.060-0.268 0.083-0.014 0.018-0.033 0.028-0.049 0.028-0.032 0-0.059-0.019-0.087-0.058 0.014-0.029 0.028-0.039 0.046-0.039 0.016 0 0.037 0.013 0.053 0.034 0.069-0.016 0.050-0.003 0.165-0.083-0.012 0-0.018 0-0.028 0-0.103 0-0.061-0.044-0.089-0.070-0.020 0.009-0.025 0.014-0.043 0.044-0.009 0.003-0.016 0.013-0.027 0.013h-0.002c0 0 0 0-0.005 0 0 0-0.023-0.022-0.137-0.153l0.087 0.023c-0.106-0.091-0.201-0.186-0.309-0.272-0.037 0.034-0.030 0.139 0.221 0.396-0.232-0.055-0.289-0.282-0.607-0.537-0.008-0.001-0.017-0.001-0.021-0.001-0.076 0 0.103 0.073 0.103 0.169-0.004 0.008-0.013 0.009-0.021 0.009-0.070 0-0.258-0.146-0.311-0.24 0.078-0.27 0.112-0.112 0.199-0.216-0.009 0.081-0.029 0.179-0.073 0.182 0.037 0.031 0.064 0.043 0.090 0.043 0.054 0 0.066-0.084 0.116-0.084 0.007 0 0.018 0.004 0.030 0.013 0.053-0.076-0.053 0.004-0.023-0.196-0.013 0.021-0.018 0.026-0.028 0.026-0.020 0-0.029-0.056-0.054-0.056-0.007 0-0.014 0.008-0.024 0.022 0.008-0.757 0.273-0.411 0.438-1.084-0.009 0.003-0.018 0.004-0.023 0.004-0.028 0-0.039-0.039-0.043-0.11l0.051-0.417c0.015-0.16 0.015-0.274-0.021-0.274-0.027 0-0.066 0.058-0.137 0.195 0-0.046 0.034-0.105 0.016-0.148l-0.158-0.095c-0.098-0.067-0.19-0.129-0.268-0.192 0.028 0.006 0.044 0.011 0.055 0.011 0.081 0-0.128-0.167-0.068-0.167 0.018 0 0.062 0.020 0.149 0.062l-0.264-0.195c0.127 0.038 0.321 0.147 0.5 0.236-0.357-0.351-0.664-0.629-0.777-0.762-0.085-0.044-0.121-0.057-0.142-0.057-0.034 0 0.011 0.051-0.017 0.051-0.018 0-0.064-0.019-0.173-0.079 0.016 0.004 0.032 0.006 0.039 0.006 0.075 0-0.108-0.153-0.256-0.248 0.119 0.096 0.142 0.139 0.092 0.139-0.062 0-0.256-0.080-0.472-0.188-0.167-0.181-0.323-0.236-0.454-0.236-0.208 0-0.35 0.132-0.37 0.132-0.008 0-0.005-0.003 0-0.018 0.119-0.075 0.235-0.296 0.365-0.327-0.082 0.002-0.114 0.075-0.151 0.075-0.002 0-0.002-0.001-0.005-0.003-0.047 0.025-0.098 0.044-0.3 0.219l-0.19 0.271c-0.041 0.074-0.060 0.137-0.081 0.195-0.172 0.168-0.346 0.221-0.405 0.277l0.264-0.275c-0.145 0.129-0.204 0.151-0.243 0.151-0.023 0-0.037-0.006-0.055-0.006-0.037 0-0.099 0.022-0.252 0.162l-0.057 0.134c-0.042 0.028-0.074 0.042-0.096 0.042-0.009 0-0.016-0.007-0.012-0.019-0.028 0.036-0.076 0.083-0.128 0.134-0.037 0.033-0.034 0.036-0.046 0.058l-0.020-0.040c-0.005 0.031-0.021 0.060-0.055 0.067 0 0.002-0.005 0.002-0.007 0.002-0.024 0-0.083-0.033-0.195-0.124 0.186 0.205 0.165 0.085 0.261 0.167 0.041 0.051 0.016 0.067-0.032 0.067-0.042 0-0.101-0.012-0.122-0.029 0.078-0.095-0.509-0.244-0.761-0.333-0.054-0.062-0.066-0.087-0.072-0.114-0.030 0.015-0.065 0.031-0.085 0.038 0.069-0.073 0.055-0.091 0.030-0.138-0.030-0.081-0.091-0.304-0.082-0.436 0.028 0.060 0.053 0.089 0.073 0.089 0.030 0 0.049-0.062 0.049-0.178-0.014 0.048-0.030 0.069-0.041 0.069-0.071 0-0.149-0.417-0.207-0.417-0.002 0-0.007 0-0.009 0.005-0.004-0.159 0.007-0.214 0.028-0.214 0.041 0 0.114 0.186 0.165 0.186 0.007 0 0.018-0.012 0.025-0.030-0.057-0.121-0.057-0.271-0.062-0.406-0.011-0.217-0.034-0.471-0.103-0.583 0.009 0.204 0.008 0.277-0.004 0.277-0.025 0-0.092-0.375-0.133-0.42-0.312-0.092-0.297-0.1-0.238-0.1 0.011 0 0.029 0 0.044 0 0.054 0 0.092-0.008-0.106-0.079-0.142-0.028-0.291-0.047-0.382-0.047-0.126 0-0.147 0.033 0.087 0.113-0.412-0.137-0.641-0.071-0.968-0.209-0.028-0.018-0.009-0.028 0.020-0.028 0.095 0 0.337 0.055 0.404 0.055 0.025 0 0.028-0.006-0.009-0.028-0.158-0.037-0.258-0.047-0.335-0.047-0.188 0-0.188 0.084-0.419 0.084-0.062 0-0.14-0.006-0.24-0.022 0.293 0.090-0.023 0.156-0.304 0.168-0.708-0.137 0.29-0.006 0.011-0.137l-0.307-0.024c-0.105-0.012-0.096 0.013-0.089-0.093 0.037-0.044 0.162-0.034 0.289-0.045 0.254-0.012 0.568-0.012 0.302-0.101l-0.421-0.018c0.090-0.027 0.228-0.078 0.029-0.137v0zM16.198 24.212c-4.575 0-8.293-3.719-8.293-8.287 0-4.574 3.718-8.296 8.293-8.296 4.573 0 8.294 3.722 8.294 8.296 0 4.568-3.721 8.287-8.294 8.287v0zM31.057 11.581l-0.12-0.013c0.012-0.003 0.019-0.004 0.028-0.007 0.044 0.003 0.059 0.014 0.092 0.020v0zM31.587 13.995c-0.043 0.094-0.545 0.384-0.67 0.396-0.005 0-0.009 0-0.009 0-0.016 0-0.005-0.012-0.012-0.018l0.366-0.202c0.004 0.009-0.005 0.024 0.009 0.030 0.081-0.065 0.126-0.094 0.176-0.131l0.139-0.075zM0.812 20.344c-0.033 0-0.067-0.005-0.106-0.014 0.020 0 0.041 0.003 0.057 0.006 0.024 0.003 0.030 0.006 0.049 0.008v0zM22.175 2.608c-0.013 0.017-0.023 0.030-0.023 0.039 0.010-0.015 0.019-0.025 0.023-0.039v0zM25.82 5.004c-0.027 0.084-0.043 0.143-0.048 0.193 0.011-0.035 0.028-0.093 0.048-0.193v0zM3.197 6.148l-0.009 0.007c0.005-0.001 0.009-0.005 0.009-0.007v0zM31.555 12.225c0.009 0.014 0.018 0.025 0.030 0.031l-0.030-0.031zM30.296 14.723c-0.036 0.025-0.073 0.051-0.101 0.079l0.101-0.079zM0.23 17.417c-0.012 0.002-0.027 0.008-0.041 0.012v0c0.008-0.002 0.023-0.004 0.041-0.012v0zM6.567 25.975c0.030 0.018 0.048 0.027 0.065 0.036-0.017-0.009-0.037-0.025-0.065-0.036v0zM13.554 31.482c0 0-0.009 0-0.013 0 0.004 0 0.004 0 0.004 0 0.008 0 0.009 0 0.009 0v0z"></path>
</svg>
