<!-- Generated by IcoMoon.io -->
<svg version="1.1" xmlns="http://www.w3.org/2000/svg" width="30" height="32" viewBox="0 0 30 32">
<title>midpoint-with-lines</title>
<path d="M23.803 15.152c-0.005 0.011-0.015 0.007-0.024 0.019l0.112 0.227c0.058-0.106-0.124-0.177-0.088-0.246zM23.751 15.542c-0.065-0.019-0.119-0.116-0.171 0.034l0.048 0.030c-0.050 0.049-0.025 0.039-0.062 0.056-0.013 0.193-0.075 0.218-0.118 0.352 0.001-0.001 0.001-0.001 0.005 0 0.050 0.099 0.008 0.226-0.006 0.3l-0.032 0.027c-0.059 0.037 0.079 0.229-0.007 0.157-0.027 0.39-0.118 0.834-0.245 1.25 0.014 0.067-0.112 0.314-0.013 0.246-0.105 0.081-0.246 0.373-0.29 0.485-0.005-0.008-0.013-0.015 0-0.033-0.19 0.169-0.025 0.297-0.24 0.435 0.067 0.073-0.209 0.333-0.184 0.493-0.028 0.013-0.049 0.012-0.058-0.007-0.207 0.336-0.491 0.666-0.705 0.913-0.123 0.27-0.488 0.478-0.592 0.72-0.169 0.122-0.441 0.297-0.644 0.498l0.015-0.027c-0.254 0.193-0.585 0.408-0.747 0.575-0.128-0.040-0.242 0.036-0.379 0.069-0.167 0.143-0.565 0.302-0.861 0.443-0.063-0.027-0.248 0.106-0.284 0.040-0.829 0.403-2.016 0.467-2.96 0.246-0.127 0.021-0.278 0.087-0.411 0.106-0.011-0.008-0.006-0.018 0.019-0.013-0.183-0.016-0.33-0.118-0.509-0.149 0.008-0.009 0.008-0.009 0.034-0.013-0.17-0.004-0.319-0.14-0.521-0.145l-0.008-0.023-0.125-0.014c0.011-0.019 0.026-0.051 0.089-0.022-1.434-0.48-2.853-1.348-3.768-2.655l0.051 0.038-0.21-0.229c0.011-0.008 0.024 0.004 0.036 0.013-0.183-0.345-0.439-0.664-0.597-1.014 0.014-0.004 0.057 0.042 0.047-0.014-0.176-0.231-0.104-0.442-0.276-0.526 0.002-0.015 0.025-0.033 0.044-0.009-0.316-0.716-0.478-1.521-0.489-2.309-0.145-0.66 0.022-1.396 0.098-2.081l0.022 0.010c0.127-0.894 0.596-1.752 1.107-2.516 0.226-0.313 0.37-0.529 0.624-0.823l0.029 0.014c0.366-0.563 1.049-0.871 1.551-1.326l-0.017 0.061c0.053-0.11 0.361-0.19 0.275-0.262l0.12-0.034c0.348-0.342 0.779-0.322 1.282-0.58l-0.028 0.032c0.135-0.069 0.303-0.126 0.418-0.135-0.016 0.007-0.007 0.014-0.039 0.029 0.475-0.029 0.968-0.225 1.47-0.258l-0.053 0.052c0.225-0.078 0.633-0.037 0.941-0.043-0.005-0.040-0.012-0.078-0.012-0.12v-0.020c-0.666-0.031-1.335 0.013-1.985 0.137-1.671 0.345-3.118 1.117-4.123 2.468-0.005-0.008-0.020-0.004 0.006-0.038-0.299 0.374-0.596 0.703-0.813 1.106l-0.010-0.007c-0.509 0.995-0.994 2.14-1 3.233-0.151 1.297 0.089 2.815 0.722 4.046l-0.021 0.007c0.514 0.969 1.094 1.903 1.969 2.601 0.854 0.779 2.027 1.178 3.107 1.505 0.676 0.285 1.626 0.128 2.28 0.189 1.38 0.090 2.703-0.485 3.751-1.325 1.081-0.665 1.807-1.718 2.471-2.72 0.191-0.54 0.598-1.064 0.726-1.707l-0.031 0.017c0.139-0.209-0.011-0.526 0.136-0.647l0.003 0.026c0.082-0.114-0.112-0.302-0.028-0.363l-0.026-0.024c0.007-0.148 0.035-0.014 0.059-0.124 0-0.044-0.057-0.024-0.030-0.108 0.132-0.011-0.004-0.363 0.135-0.366-0.003 0.083 0.061-0.126 0.085 0.059 0.020-0.051 0.018-0.303-0.045-0.283zM18.91 11.663c-0.005-0.002-0.010-0.003-0.015-0.005 0.001 0.002 0 0.002 0 0.002 0.009 0.007 0.013 0.006 0.015 0.003zM13.864 19.742c0.012-0.004 0.016-0.012 0.041-0.004-0.014-0.021-0.043-0.014-0.066-0.026 0.004 0.010 0.019 0.034 0.025 0.030zM12.034 17.929c0.013 0.009 0.014 0.017 0.021 0.029l0.013-0.023c-0.013-0.019-0.042-0.037-0.035-0.007zM10.061 20.225c0.007-0.029-0.015 0.035 0.065 0.008-0.028 0.018-0.060 0.002-0.096-0.025 0 0.002 0 0 0 0.002 0.031 0.044 0.031 0.026 0.031 0.015zM22.447 12.306c0.050-0.056 0.115-0.086 0.157-0.175 0.056-0.052-0.041 0.105 0.075-0.033 0.072-0.132-0.129 0.053-0.218 0.146-0.009 0.005-0.012 0.004-0.016 0.005 0.018-0.001 0.020 0.018 0.002 0.056zM8.569 17.266c0.001 0.008 0.001 0.010 0.004 0.019 0-0.003 0-0.003 0-0.005-0.001-0.004-0.003-0.008-0.004-0.013zM22.287 12.48c0.038-0.027 0.053-0.081 0.086-0.123-0.013 0.009-0.059 0.042-0.058 0.052-0.009 0.026 0.006 0.028-0.028 0.071zM20.928 9.675c0.006 0.038 0.024-0.039 0.049-0.134 0.006-0.089-0.152-0.129-0.166-0.171 0.025 0.034 0.080 0.075 0.138 0.119 0.037 0.052-0.021 0.143-0.021 0.186zM19.937 8.82l-0.038-0.055c-0.076-0.043-0.171-0.079-0.085-0.017 0.056 0.027 0.078 0.042 0.124 0.072zM23.491 15.302c-0.005 0.010-0.015 0.008-0.023 0.019l0.107 0.217c0.055-0.101-0.119-0.169-0.085-0.236zM26.214 15.299c-0.008 0.016-0.022 0.011-0.033 0.026l0.15 0.305c0.075-0.142-0.169-0.238-0.117-0.331zM26.144 15.826c-0.087-0.029-0.163-0.157-0.23 0.042l0.061 0.041c-0.065 0.067-0.034 0.048-0.081 0.076-0.017 0.258 0.103 0.29 0.046 0.469h-0.145c0.064 0.135-0.012 0.246-0.035 0.346l-0.067 0.095c-0.082 0.051 0.105 0.309-0.012 0.213-0.033 0.524-0.157 1.117-0.33 1.677 0.020 0.093-0.147 0.425-0.019 0.334-0.141 0.109-0.328 0.5-0.39 0.65-0.006-0.009-0.012-0.020 0-0.042-0.254 0.225-0.029 0.396-0.319 0.58 0.092 0.101-0.281 0.449-0.247 0.66-0.040 0.021-0.068 0.018-0.078-0.004-0.276 0.451-0.659 0.892-0.948 1.225-0.166 0.365-0.656 0.642-0.795 0.971-0.225 0.163-0.595 0.396-0.866 0.666l0.018-0.035c-0.338 0.263-0.785 0.553-0.999 0.771-0.176-0.054-0.329 0.051-0.511 0.097-0.229 0.186-0.762 0.403-1.161 0.592-0.082-0.038-0.334 0.139-0.382 0.053-1.116 0.539-2.71 0.625-3.981 0.328-0.168 0.030-0.37 0.117-0.548 0.145-0.014-0.010-0.012-0.025 0.024-0.018-0.242-0.022-0.445-0.156-0.682-0.195 0.006-0.017 0.006-0.017 0.047-0.021-0.23-0.007-0.428-0.191-0.704-0.194l-0.005-0.029-0.174-0.022c0.017-0.026 0.036-0.067 0.118-0.028-1.921-0.651-3.831-1.812-5.059-3.57l0.067 0.046-0.279-0.307c0.012-0.006 0.029 0.006 0.046 0.016-0.248-0.458-0.59-0.888-0.799-1.363 0.014-0.003 0.073 0.056 0.061-0.017-0.238-0.31-0.142-0.594-0.37-0.706 0.002-0.021 0.034-0.045 0.059-0.014-0.426-0.959-0.642-2.044-0.66-3.103-0.194-0.887 0.032-1.875 0.132-2.796l0.028 0.014c0.174-1.201 0.803-2.354 1.489-3.382 0.303-0.418 0.498-0.71 0.84-1.104l0.040 0.019c0.491-0.759 1.409-1.173 2.087-1.781l-0.026 0.079c0.072-0.152 0.488-0.257 0.369-0.353l0.161-0.042c0.467-0.464 1.048-0.431 1.722-0.784l-0.034 0.048c0.18-0.096 0.406-0.174 0.557-0.184-0.019 0.010-0.008 0.015-0.050 0.038 0.64-0.040 1.301-0.304 1.974-0.346l-0.069 0.068c0.301-0.104 0.847-0.049 1.263-0.056-0.006-0.054-0.017-0.106-0.017-0.164v-0.027c-0.892-0.043-1.793 0.018-2.666 0.186-2.245 0.462-4.19 1.501-5.537 3.317-0.011-0.013-0.028-0.005 0.004-0.052-0.405 0.502-0.799 0.946-1.091 1.484l-0.014-0.009c-0.682 1.34-1.337 2.878-1.343 4.346-0.202 1.745 0.119 3.784 0.971 5.437l-0.029 0.009c0.69 1.303 1.469 2.56 2.649 3.494 1.145 1.050 2.724 1.588 4.172 2.024 0.906 0.383 2.186 0.169 3.064 0.254 1.857 0.122 3.631-0.65 5.046-1.777 1.448-0.892 2.424-2.309 3.317-3.655 0.255-0.724 0.804-1.43 0.975-2.294l-0.043 0.020c0.188-0.279-0.012-0.706 0.184-0.865l0.004 0.034c0.111-0.153-0.008-0.345 0.106-0.429l-0.179-0.091c0.008-0.199 0.149 0.020 0.179-0.131 0-0.058 0.029-0.068 0.063-0.184 0.178-0.014-0.209-0.484-0.022-0.489-0.002 0.11 0.081-0.172 0.114 0.076 0.023-0.070 0.023-0.409-0.061-0.377zM23.17 22.357l-0.032-0.277c-0.237 0.155-0.165-0.057-0.337 0.372 0.033 0.152 0.108 0.486 0.199 0.445-0.007-0.11-0.093-0.271-0.062-0.432 0.068 0.071 0.053 0.242 0.143 0.326 0.076-0.258-0.055-0.166-0.018-0.45l0.107 0.016zM22.92 21.862c0.014-0.174 0.087 0.005 0.099-0.013l-0.147-0.202 0.048 0.215zM22.931 20.779c-0.053 0.072-0.024 0.16 0 0.275l0.008-0.013c0.048-0.097 0.153-0.004 0.122 0.162 0.022 0.166-0.084 0.149-0.016 0.299l0.091-0.202c-0.012-0.264-0.163-0.415-0.205-0.521zM22.935 20.186c0.143 0.043-0.025 0.424 0.086 0.473 0-0.233 0.111-0.419 0.189-0.369l-0.040-0.258c-0.056-0.088-0.168 0.022-0.236 0.155zM23.083 18.369l0.136 0.608c-0.048-0.056-0.094-0.035-0.108-0.173-0.023 0.267 0.069 0.305 0.050 0.527-0.137 0.063-0-0.393-0.125-0.267 0 0.156 0.002 0.391 0.117 0.517l-0.097 0.247 0.15-0.082c0.043-0.1-0.114-0.202-0.008-0.265 0.064-0.030 0.074 0.070 0.087 0.142-0.026-0.16 0.123-0.435 0.11-0.761-0.010-0.342-0.244-0.266-0.312-0.493zM23.064 17.684l0.086 0.319c-0.011 0.033-0.043 0.050-0.071 0.074 0.034-0.013 0.092 0.073 0.121 0.060 0.14-0.142-0.034-0.386-0.056-0.554 0.067-0.447 0.071 0.021 0.2-0.15-0.005 0.123-0.037 0.126-0.048 0.301 0.154-0.272 0.022-0.619-0.012-0.792-0.016 0.050-0.058 0.063-0.047 0.159l-0.041-0.183c-0.112 0.186-0.144 0.346-0.132 0.766zM23.116 17.022l0.020-0.222-0.068 0.085c0.010 0.033 0.015 0.14 0.048 0.137zM15.95 8.246l-0.243 0.022 0.157 0.032c-0.002-0.033 0.055-0.049 0.086-0.054zM14.258 8.614c0.335-0.010 0.476-0.078 0.853 0.005 0.185-0.097-0.084-0.189-0.004-0.276-0.187-0.026-0.165 0.144-0.361 0.171-0.070-0.086-0.284 0.015-0.468-0.007 0.022 0.035 0.022 0.075-0.020 0.108zM13.112 8.265c-0.15-0.003-0.306 0.060-0.426 0.017 0.017-0.053 0.108-0.070 0.2-0.056-0.056-0.122-0.167 0.016-0.331-0.068 0.013 0.014 0.074 0.035 0.026 0.062-0.409-0.036-0.233 0.096-0.764 0.016-0.075 0.032-0.151 0.032-0.143 0.112-0.298-0.108-0.149-0.106-0.509-0.199 0.012 0.046 0.131 0.156 0.126 0.258-0.512-0.149-0.527 0.011-0.853-0.101 0.039-0.005 0.082-0.029 0.173-0.015-0.042-0.142-0.276 0.020-0.457-0.008l0.019-0.122c-0.167 0.016-0.462 0.090-0.671-0.003l0.050-0.059c-0.078 0.020-0.23 0.032-0.364 0.038l-0.395 0.014c0.003 0.372-0.006 0.744 0.017 0.923l-0.076 0.199c0.082 0.52 0.049-0.512 0.218-0.13-0.217 0.054 0.067 0.268-0.025 0.563-0.090 0.136-0.041-0.302-0.141-0.147 0.109 0.065 0.030 0.158 0.057 0.316-0.102-0.038-0.021 0.328-0.135 0.228l0.185 0.556c-0.063 0.088-0.054 0.246-0.042 0.366 0.006-0.3 0.154 0.087 0.211-0.25-0.044-0.488-0.065-1.301 0.002-1.907-0.074-0.037-0.071-0.125-0.066-0.218 0.005-0.097 0.013-0.178-0.045-0.283 0.026 0.014 0.047 0.021 0.070 0.033 0.033 0.021 0.064 0.040 0.086 0.063 0.283-0.028-0.134-0.083-0.115-0.136 0.167-0.018 0.337 0.073 0.33 0.128 0.218 0.011 0.012-0.042 0.136-0.118l0.176 0.166c0.855-0.037 1.99-0.126 2.959-0.017l-0.071-0.105c0.442 0.066 0.742-0.211 1.128 0.014l0.135-0.087c-0.074 0.050 0.074 0.156-0.040 0.222 0.117-0.032 0.245 0.009 0.371-0.019l-0.221-0.055c0.157-0.082 0.324-0.026 0.378 0.050 0.33-0.096-0.195-0.178-0.265-0.267-0.468 0.181-0.464-0.192-0.912-0.12-0.274 0.055 0.031 0.096 0.011 0.149zM10.432 23.026c0.23-0.029 0.535-0.055 0.707-0.139l-0.019 0.055c0.125-0.026 0.524-0.105 0.27-0.203l-0.064 0.044c-0.293 0.074-0.209-0.092-0.438-0.129-0.274 0.022-0.434 0.219-0.676 0.166-0.109 0.004-0.091-0.050-0.059-0.088-0.243-0.021-0.343 0.133-0.51 0.149-0.026-0.172-0.164-0.181-0.34-0.151-0.099 0.013-0.161 0.035-0.247 0.050-0.087 0.017-0.184 0.026-0.248 0.013 0.010-0.067 0.031-0.137 0.072-0.201-0.030-0.114 0.010-0.45-0.061-0.752 0.095 0.161 0.012-0.281 0.122-0.213-0.228-0.089 0.118-0.854-0.17-0.914 0.086-0.404-0.019-0.016 0.057-0.482 0.032 0 0.029 0.077 0.034 0.111 0.063-0.184-0.118-0.284 0.018-0.437 0.027-0.374-0.078-0.066-0.152-0.289 0.040-0.389 0.079-0.281 0.202-0.493-0.138-0.035-0.068-0.267-0.135-0.458-0.009 0.048-0.041 0.312-0.089 0.139 0.029-0.455-0.086-0.365-0.117-0.788 0.157-0.212 0 0.419 0.125 0.052 0.064 0.267 0.057 0.472 0.164 0.618 0.013-0.36-0.001-0.799-0.060-1.193 0.023-0.218 0.068 0.113 0.086-0.056 0.074-0.392-0.144-0.603-0.073-0.913l0.078 0.065c-0.1-0.191 0.036-0.687-0.016-1.048-0.040 0.047-0.067 0.076-0.093 0.028 0.197 0.011-0.094-0.504 0.052-0.859-0.124 0.027-0.188-0.321-0.2-0.538 0.036-0.077 0.090-0.060 0.12-0.059-0.079 0.358 0.133 0.351 0.184 0.634-0.061-0.237 0.012-0.626-0.075-0.833l0.097 0.083c0.021-0.328-0.217-0.291-0.118-0.631l0.072 0.035c0.002-0.687 0.145-1.495-0.006-2.050-0.061-0.050-0.206 0.228-0.25 0.239 0.044 0.332 0.146 0.524 0.194 0.776l-0.112-0.004c0.075 0.056 0.116 0.359 0.179 0.193 0.052 0.206-0.1 0.155-0.041 0.39-0.119-0.021-0.127-0.162-0.227-0.165l0.056 0.203c-0.046-0.064-0.043 0.124-0.089 0.060 0.133 0.382-0.064 0.528-0.007 0.922l0.024-0.217c0.066 0.003 0.057 0.128 0.075 0.222-0.093 0.105-0.084 0.171-0.125 0.371 0.048 0.175 0.164 0.275 0.158 0.508-0.123-0.053-0.072 0.388-0.179 0.43 0.122 0.052 0.036 0.453 0.106 0.489 0.024 0.124 0.009 0.297-0.056 0.297-0.006-0.018-0.018-0.059-0.022-0.098l-0.006 0.126c-0.016-0.014-0.025-0.007-0.028-0.022-0.006 0.11 0.085 0.114 0.020 0.256-0.032-0.001-0.030-0.080-0.040-0.143-0.026 0.299 0.18 0.523 0.062 0.769 0.056 0.053 0.056 0.394 0.189 0.321-0.048 0.093-0.154 0.058-0.138 0.307 0.108 0.149-0.047 0.281 0.023 0.471-0.113-0.254-0.032-0.001-0.141-0.223-0.048 0.168 0.098 0.425 0.069 0.72-0.025 0.032-0.059 0.029-0.086 0.060 0.039 0.111 0.127 0.24 0.033 0.346l0.079-0.013c-0.045 0.202-0.024 0.484-0.114 0.699l0.146 0.258c-0.165 0.335-0.032 0.796 0.099 1.066-0.008 0.125-0.037 0.313-0.070 0.309l-0.052-0.135c-0.009 0.18-0.098 0.405 0.026 0.513 0.033 0.188-0.089 0.136-0.112 0.275 0.055 0.127 0.059 0.292 0.045 0.468-0.011 0.202-0.041 0.445-0.041 0.63 0.183 0.002 0.339-0.023 0.414-0.112-0.074-0.001-0.171-0.016-0.273-0.028 0.016-0.155 0.033-0.311 0.026-0.468 0.033 0.072 0.087 0.013 0.092 0.097 0.005 0.098-0.015 0.184-0.032 0.286 0.079 0.020 0.185 0.040 0.332 0.021-0.020 0.058-0.042 0.114-0.068 0.173 0.545 0.186 0.969-0.223 1.365 0.035zM8.645 20.815l-0.090 0.215 0.072-0.021c-0.010-0.066-0.010-0.137 0.018-0.194zM8.627 21.009c0.007 0.044 0.019 0.087 0.033 0.126 0.005-0.046 0-0.093-0.015-0.134l-0.018 0.008zM17.681 22.913l0.342-0.101c0.058 0.056 0.441-0.003 0.316 0.089 0.203-0.122 0.64 0.007 0.478-0.177-0.99 0.046-2.356-0.087-3.511 0.058l0.184-0.070c-0.596 0.137-0.812-0.172-1.3 0.107l0.069-0.145c-0.274-0.049-0.527 0.203-0.811 0.042l0.025 0.058c-0.074 0-0.102-0.027-0.178-0.030l0.028 0.027c-0.2 0.058-0.323 0.047-0.519 0.006-0.013-0.048 0.093-0.019 0.154-0.033-0.090-0.049-0.245 0.049-0.401 0.046-0.119-0.042 0.005-0.066 0.023-0.089-0.464 0.060-0.671-0.1-0.997 0.115-0.034 0.039 0.115 0.078-0.050 0.093 0.302 0.072 0.547-0.009 0.826-0.064l-0.075-0.002c0.222-0.209 0.164 0.051 0.518-0.035-0.093 0.086-0.247 0.082-0.31 0.126 0.404 0.171 0.585-0.113 0.85 0.099l-0.029 0.008c0.059 0.021 0.17-0.018 0.26-0.035-0.029-0.029-0.122-0.042-0.183-0.063 0.095-0.022 0.144-0.114 0.177-0.152 0.101 0.096 0.139-0.043 0.304 0.007 0.057 0.087-0.141 0.078-0.203 0.123l0.2-0.056c0.183-0.004 0.179 0.098 0.27 0.146 0.156-0.062-0.090-0.047 0.037-0.138 0.195 0.111 1.031 0.095 1.433 0.018-0.139 0.012-0.053 0.095-0.218 0.075 0.058 0.022 0.277-0.021 0.279-0.087 0.275-0.056 0.627-0.008 0.881 0.058l-0.075-0.070c0.221-0.109 0.546 0.095 0.932 0.036l-0.010-0.004c0.124-0.010 0.235-0.173 0.458-0.136-0.063 0.079-0.184 0.071-0.175 0.151zM19.034 22.782l-0.128 0.092c0.137 0.023 0.31-0.097 0.28-0.156-0.093 0.020-0.213-0.024-0.227 0.029 0.014 0.013 0.011 0.048 0.076 0.035zM21.593 22.81c0.050-0.020 0.038-0.055 0.061-0.080-0.544 0.002-1.215 0.027-1.427-0.051-0.184-0.029-0.221 0.109-0.45 0.141l-0.1-0.097c-0.128 0.058-0.503-0.050-0.371 0.104 0.013 0.015 0.108-0.069 0.213-0.042l-0.019 0.054 0.248-0.013-0.079 0.066c0.333 0.099 0.237-0.198 0.646-0.129l-0.004 0.135c0.273 0.011 0.412-0.032 0.652 0.055 0 0 0.004-0.068-0.043-0.041-0.045-0.008-0.105-0.063-0.071-0.102 0.416-0.099-0.068 0.078 0.219 0.139 0.356-0.087 1.032-0.152 1.223-0.042-0.162-0.084 0.085-0.166 0.282-0.154 0.091 0.050-0.065 0.080-0.097 0.119 0.092 0.016 0.165 0.051 0.259 0.033-0.118-0.076-0.038-0.174 0.175-0.219-0.469-0.093-0.846 0.149-1.318 0.124zM21.735 22.699c-0.048 0.004-0.068 0.014-0.081 0.030h0.187l-0.105-0.030zM0.49 15.94l0.15-0.033c-0.086-0.244 0.030-0.173-0.206-0.346-0.085 0.038-0.268 0.121-0.242 0.215 0.058-0.007 0.146-0.101 0.235-0.070-0.039 0.069-0.135 0.063-0.178 0.152 0.142 0.073 0.091-0.060 0.247-0.026l-0.006 0.108zM0.76 15.675c0.096 0.011-0.001 0.091 0.008 0.101l0.11-0.155-0.117 0.054zM1.355 15.666c-0.039-0.051-0.086-0.020-0.149 0.007l0.004 0.009c0.057 0.045 0.006 0.158-0.084 0.126-0.095 0.026-0.085-0.086-0.164-0.011l0.109 0.088c0.147-0.012 0.229-0.174 0.284-0.218zM1.684 15.659c-0.023 0.15-0.235-0.018-0.261 0.103 0.13-0.008 0.233 0.103 0.205 0.184l0.144-0.045c0.044-0.058-0.013-0.171-0.089-0.242zM2.684 15.781l-0.333 0.153c0.033-0.050 0.019-0.097 0.097-0.115-0.149-0.020-0.167 0.074-0.29 0.063-0.037-0.141 0.216-0.011 0.147-0.139-0.087 0.004-0.215 0.011-0.286 0.13l-0.137-0.096 0.047 0.157c0.056 0.045 0.112-0.121 0.147-0.014 0.016 0.067-0.042 0.081-0.078 0.095 0.089-0.032 0.242 0.12 0.418 0.1 0.189-0.015 0.146-0.26 0.268-0.334zM3.063 15.75l-0.174 0.096c-0.020-0.013-0.030-0.046-0.042-0.073 0.008 0.033-0.042 0.095-0.033 0.124 0.080 0.14 0.214-0.046 0.306-0.068 0.247 0.062-0.012 0.075 0.086 0.208-0.068-0.006-0.072-0.039-0.17-0.049 0.152 0.159 0.341 0.013 0.437-0.026-0.027-0.014-0.034-0.055-0.087-0.045l0.101-0.045c-0.103-0.111-0.193-0.141-0.424-0.122zM3.43 15.792l0.122 0.016-0.048-0.066c-0.016 0.009-0.077 0.020-0.074 0.050zM8.088 16.008c-0.010-0.060-0.055-0.086-0.151-0.074 0.012-0.076 0.134-0.062 0.191-0.105-0.125-0.049 0.002-0.088-0.030-0.163-0.139-0.007-0.2 0.093-0.348 0.071 0.006-0.023 0.005-0.055-0.015-0.080-0.178 0.049-0.481 0.117-0.655 0.052-0.168-0.028-0.292 0.005-0.477 0.042-0.606-0.042-1.239 0.037-1.895-0.033l-0.092 0.148c-0.030-0.075-0.156 0-0.136-0.096 0.036 0.018 0.070 0.004 0.113 0-0.14-0.13-0.372 0.014-0.538-0.036 0.019 0.028 0.047 0.156-0.004 0.179 0.013-0.163-0.199 0.002-0.249-0.187-0.166-0.045-0.006 0.145-0.179 0.118-0.018 0.098 0.167 0.045 0.199 0.121-0.055 0.077-0.16-0.034-0.15 0.069 0.279 0.047 0.799-0.153 1.226-0.209l-0.045 0.089c0.22-0.064 0.576-0.067 0.747 0.081-0.039-0.087 0.325 0.048 0.293-0.149 0.055 0.045 0.072 0.037 0.15 0.055l0.022-0.062c0.112 0.001 0.094 0.096 0.222 0.091-0.084-0.084 0.010-0.11 0.047-0.179 0.146 0.095 0.32 0.177 0.451 0.255-0.012-0.027-0.024-0.059-0.068-0.094 0.089 0.028 0.075-0.052 0.099-0.080 0.085-0.004 0.075 0.105 0.072 0.159 0.156 0.035 0.23-0.175 0.347-0.104l-0.043-0.087c0.164-0.020 0.299 0.075 0.479 0.045 0.086 0.119-0.147 0.103-0.222 0.155 0.038 0.023 0.115 0.030 0.138 0.072 0.076-0.063 0.206-0.145 0.301-0.203-0.091 0.137 0.135 0.13 0.198 0.139zM7.59 16.071c-0.022 0.015-0.043 0.032-0.055 0.045 0.020-0.006 0.036-0.017 0.061-0.010 0.002-0.015-0.003-0.026-0.007-0.035zM10.547 15.637c-0.121-0.103-0.294-0.041-0.444-0.060-0.274 0.054-0.035 0.229-0.294 0.239l0.044-0.217c-0.257 0.015-0.622-0.029-0.843 0.16-0.019-0.028-0.063-0.057 0.006-0.091-0.175 0.011-0.091 0.308-0.321 0.237 0.215-0.134-0.070-0.127-0.011-0.259l0.033-0.016c-0.146 0.012-0.337 0.085-0.434 0.076-0.004 0.056 0.079 0.139-0.047 0.146 0.051 0.011 0.032 0.073 0.025 0.129 0.134-0.064 0.206-0.026 0.287-0.096 0.075 0.071-0.048 0.023 0.024 0.095l0.108-0.067c0.078 0.017-0.082 0.071 0.041 0.089 0.013-0.044 0.114-0.089 0.21-0.081l-0.028 0.026c0.075-0.029 0.177 0.007 0.142-0.112l0.088 0.116-0.017-0.078c0.202 0.031 0.277 0.225 0.538 0.123-0.062-0.024-0.006-0.067 0.027-0.083-0.106-0.056-0.132 0.063-0.237 0.071-0.014-0.079 0.16-0.177 0.034-0.226 0.138 0.094 0.258-0.014 0.318 0.189 0.165 0.013 0.228-0.084 0.396-0.038l-0.007 0.029c0.032-0.131 0.136 0.062 0.26-0.075l-0.087-0.030c0.005-0.056 0.045-0.057 0.106-0.068-0.005 0.022-0.005 0.022 0.013 0.047 0.017-0.096 0.206-0.111 0.228-0.139-0.077-0.017-0.175 0.064-0.267 0.090 0.045-0.057 0.034-0.14 0.11-0.124zM11.295 15.807c0.105 0.024-0.027 0.082 0.070 0.127 0.105-0.068-0.123-0.138-0.020-0.237 0.066 0.057 0.171-0.043 0.211-0.046-0.045 0.058-0.020 0.186 0 0.214 0.040-0.037 0.133 0.025 0.201 0.029-0.169-0.080 0.145-0.046-0.010-0.134 0.011-0.075 0.173-0.134 0.237-0.074-0.006 0.055-0.059 0.043-0.101 0.044-0.037 0.105 0.11 0.055 0.131 0.152 0.163-0.145 0.683-0.136 0.535-0.367-0.055-0.044-0.104 0.013-0.163 0.021 0.167 0.045 0.001 0.122-0.014 0.166-0.072-0.039-0.195 0.034-0.166-0.049l0.115-0.085c-0.366-0.046-0.866-0.028-1.288 0.007l0.182 0.004c-0.020 0.062-0.108 0.068-0.175 0.096l0.091 0.155c-0.055-0.013-0.103 0.011-0.098-0.045-0.066 0.067-0.034 0.105 0.003 0.158-0.138 0.028-0.158-0.033-0.262 0.066 0.226 0.127 0.191-0.103 0.447 0.007l0.072-0.209zM12.156 15.887l0.136-0.024-0.087-0.031c0.001 0.034-0.030 0.050-0.048 0.055zM13.109 15.489c-0.188 0.014-0.268 0.087-0.482 0.008-0.105 0.101 0.047 0.19 0.002 0.281 0.108 0.022 0.095-0.148 0.203-0.18 0.042 0.085 0.163-0.018 0.266 0.002-0.013-0.036-0.013-0.078 0.011-0.11zM13.758 15.819c0.087 0.003 0.173-0.065 0.241-0.023-0.010 0.053-0.062 0.073-0.111 0.060 0.032 0.123 0.093-0.019 0.188 0.062-0.010-0.013-0.042-0.033-0.014-0.060 0.23 0.027 0.129-0.1 0.428-0.030 0.045-0.036 0.087-0.036 0.081-0.118 0.169 0.105 0.085 0.105 0.29 0.194-0.008-0.047-0.074-0.159-0.074-0.258 0.291 0.143 0.299-0.021 0.481 0.087-0.020 0.006-0.044 0.033-0.095 0.018 0.023 0.143 0.156-0.024 0.258 0.004l-0.009 0.12c0.094-0.019 0.259-0.099 0.377-0.008l-0.026 0.062c0.243-0.095 0.527-0.054 0.736-0.097l0.111 0.076c0.286-0.095-0.283-0.044-0.074-0.226 0.034 0.226 0.148-0.074 0.311 0.015 0.074 0.088-0.168 0.046-0.079 0.15 0.034-0.117 0.085-0.034 0.171-0.066-0.018 0.107 0.179 0.013 0.128 0.136l0.303-0.203c0.047 0.063 0.14 0.053 0.203 0.038-0.166 0 0.045-0.164-0.14-0.212-0.27 0.052-0.717 0.088-1.051 0.031-0.039 0.149-0.217-0.002-0.27 0.122-0.007-0.050-0.033-0.090-0.040-0.136-0.218 0.029 0.050 0.081-0.002 0.136-0.097 0.018-0.173-0.070-0.163-0.126-0.155-0.006-0.018 0.041-0.096 0.124l-0.101-0.167c-0.484 0.051-1.124 0.164-1.675 0.069l0.042 0.104c-0.248-0.059-0.418 0.228-0.637 0.007l-0.075 0.087c0.041-0.048-0.044-0.154 0.021-0.225-0.068 0.035-0.14-0.002-0.212 0.027l0.126 0.049c-0.086 0.089-0.183 0.033-0.213-0.041-0.185 0.106 0.112 0.178 0.153 0.265 0.261-0.191 0.263 0.187 0.514 0.105 0.155-0.060-0.016-0.096-0.008-0.15zM25.083 15.8c0.129-0.032 0.303-0.066 0.399-0.155l-0.010 0.057c0.068-0.028 0.294-0.115 0.147-0.211l-0.031 0.046c-0.165 0.083-0.122-0.091-0.251-0.124-0.153 0.026-0.243 0.227-0.379 0.18-0.062 0.007-0.054-0.049-0.034-0.090-0.14-0.013-0.193 0.141-0.288 0.162-0.038-0.409-0.422 0.114-0.626-0.148-0.13 0.032-0.305-0.006-0.467 0.077 0.087-0.101-0.156-0.009-0.119-0.123-0.048 0.237-0.474-0.108-0.502 0.193-0.226-0.084-0.010 0.021-0.27-0.049 0.003-0.035 0.044-0.035 0.063-0.042-0.103-0.063-0.158 0.13-0.243-0.008-0.205-0.023-0.034 0.078-0.156 0.161-0.215-0.035-0.153-0.075-0.273-0.2-0.017 0.144-0.147 0.074-0.252 0.148 0.024 0.008 0.171 0.036 0.078 0.091-0.249-0.025-0.201 0.095-0.435 0.13-0.117-0.155 0.234-0.005 0.028-0.127 0.149-0.074 0.26-0.066 0.339-0.182-0.198-0.008-0.44 0.014-0.656 0.083-0.121-0.022 0.061-0.075-0.036-0.091-0.213-0.069-0.326 0.161-0.499 0.092l0.036-0.080c-0.103 0.109-0.378-0.024-0.579 0.034 0.026 0.042 0.042 0.073 0.019 0.098 0.001-0.208-0.28 0.106-0.476-0.039 0.014 0.127-0.176 0.201-0.296 0.215-0.043-0.036-0.035-0.089-0.035-0.123 0.2 0.076 0.194-0.141 0.35-0.202-0.13 0.066-0.346-0.002-0.458 0.093l0.043-0.101c-0.18-0.017-0.159 0.23-0.345 0.133l0.019-0.076c-0.38 0.011-0.826-0.122-1.132 0.045-0.025 0.063 0.129 0.205 0.137 0.255 0.179-0.052 0.285-0.161 0.424-0.215l-0.004 0.118c0.032-0.082 0.199-0.126 0.109-0.192 0.112-0.060 0.084 0.104 0.216 0.038-0.014 0.121-0.091 0.136-0.091 0.236l0.112-0.060c-0.035 0.045 0.068 0.041 0.032 0.089 0.21-0.148 0.294 0.057 0.508-0.009l-0.121-0.022c0.002-0.067 0.069-0.061 0.122-0.080 0.060 0.095 0.096 0.082 0.206 0.123 0.094-0.053 0.15-0.174 0.278-0.174-0.025 0.13 0.216 0.071 0.24 0.177 0.029-0.127 0.251-0.044 0.272-0.12 0.066-0.026 0.16-0.012 0.159 0.056-0.008 0.004-0.029 0.018-0.051 0.022l0.070 0.006c-0.009 0.015-0.006 0.025-0.013 0.028 0.061 0.003 0.061-0.091 0.142-0.028-0.002 0.036-0.044 0.036-0.082 0.049 0.166 0.023 0.289-0.196 0.425-0.079 0.027-0.060 0.216-0.066 0.176-0.202 0.050 0.046 0.030 0.155 0.169 0.136 0.081-0.116 0.155 0.043 0.261-0.032-0.142 0.122-0.002 0.036-0.125 0.15 0.095 0.050 0.234-0.107 0.398-0.085 0.018 0.029 0.016 0.061 0.034 0.090 0.060-0.042 0.131-0.136 0.189-0.039l-0.008-0.084c0.113 0.044 0.27 0.019 0.386 0.108l0.141-0.157c0.191 0.166 0.44 0.018 0.588-0.125 0.067 0.008 0.172 0.036 0.171 0.069l-0.075 0.059c0.104 0.007 0.226 0.094 0.283-0.036 0.105-0.038 0.077 0.091 0.153 0.112 0.212-0.183 0.62 0.134 0.682-0.144-0.087 0-0.247-0.060-0.413-0.046 0.044-0.035 0.009-0.089 0.072-0.094 0.164-0.013 0.246 0.093 0.411 0.046l-0.018 0.175c0.282 0.182 0.539-0.239 0.759 0.015zM22.98 15.796l0.121 0.088-0.014-0.075c-0.036 0.012-0.073 0.012-0.107-0.013zM23.087 15.809c0.025-0.006 0.049-0.020 0.067-0.036-0.023-0.003-0.048 0.001-0.071 0.016l0.004 0.020zM29.179 15.563l0.192-0.109c0.035 0.055 0.251-0.012 0.18 0.084 0.116-0.13 0.362-0.002 0.27-0.189-0.562 0.064-1.335-0.046-1.983 0.121l0.104-0.075c-0.337 0.146-0.465-0.164-0.735 0.129l0.037-0.149c-0.155-0.042-0.296 0.216-0.457 0.056l0.017 0.063c-0.042 0-0.061-0.027-0.103-0.027l0.018 0.027c-0.114 0.061-0.184 0.053-0.296 0.011-0.009-0.048 0.055-0.020 0.088-0.033-0.053-0.050-0.14 0.053-0.226 0.053-0.067-0.042 0.002-0.070 0.011-0.089-0.26 0.064-0.379-0.091-0.561 0.132-0.018 0.041 0.067 0.073-0.029 0.094 0.171 0.070 0.31-0.019 0.467-0.077h-0.043c0.124-0.22 0.095 0.049 0.294-0.045-0.053 0.087-0.139 0.086-0.173 0.133 0.229 0.168 0.327-0.123 0.48 0.088l-0.016 0.007c0.035 0.019 0.095-0.021 0.146-0.041-0.016-0.026-0.067-0.040-0.102-0.062 0.052-0.022 0.079-0.115 0.097-0.157 0.059 0.095 0.077-0.047 0.171 0.003 0.035 0.088-0.078 0.080-0.111 0.129l0.11-0.062c0.105-0.007 0.104 0.096 0.154 0.144 0.088-0.066-0.050-0.047 0.019-0.141 0.113 0.11 0.585 0.078 0.809-0.006-0.077 0.010-0.025 0.094-0.119 0.079 0.031 0.020 0.153-0.026 0.153-0.094 0.157-0.061 0.356-0.019 0.501 0.043l-0.042-0.068c0.123-0.115 0.309 0.086 0.524 0.020l-0.003-0.003c0.071-0.013 0.13-0.18 0.257-0.146-0.036 0.082-0.106 0.074-0.099 0.157zM29.94 15.405l-0.071 0.094c0.077 0.022 0.174-0.1 0.158-0.162-0.052 0.020-0.121-0.021-0.13 0.033 0.009 0.014 0.007 0.047 0.042 0.036zM30.363 15.428l-0.059-0.096c-0.070 0.062-0.287-0.042-0.209 0.115 0.008 0.013 0.061-0.073 0.121-0.045l-0.010 0.052 0.138-0.016-0.045 0.066zM16.429 31.079l-0.035-0.153c-0.243 0.087-0.172-0.033-0.346 0.206 0.038 0.084 0.123 0.265 0.216 0.242-0.007-0.058-0.102-0.147-0.074-0.236 0.072 0.039 0.062 0.134 0.154 0.179 0.075-0.144-0.060-0.091-0.025-0.246l0.11 0.008zM16.161 30.805c0.010-0.095 0.089 0.001 0.102-0.009l-0.157-0.108 0.054 0.116zM16.154 30.208c-0.053 0.041-0.022 0.092 0.005 0.153l0.009-0.006c0.044-0.055 0.157-0.002 0.127 0.087 0.025 0.092-0.085 0.082-0.012 0.163l0.089-0.111c-0.012-0.144-0.173-0.227-0.217-0.286zM16.081 29.901c0.147 0.025 0.048 0.215 0.166 0.241-0.007-0.131 0.104-0.232 0.187-0.206l-0.111-0.125c-0.058-0.045-0.171 0.012-0.241 0.089zM16.203 28.899l0.152 0.333c-0.048-0.030-0.096-0.015-0.113-0.092-0.022 0.145 0.076 0.166 0.061 0.287-0.141 0.036-0.010-0.216-0.137-0.146 0.004 0.086 0.010 0.216 0.131 0.284l-0.096 0.139 0.154-0.048c0.045-0.056-0.123-0.11-0.013-0.146 0.066-0.016 0.079 0.039 0.093 0.076-0.027-0.087 0.124-0.24 0.102-0.42-0.016-0.189-0.26-0.143-0.333-0.267zM16.17 28.522l0.097 0.174c-0.011 0.020-0.045 0.029-0.073 0.041 0.033-0.008 0.095 0.041 0.124 0.033 0.14-0.079-0.043-0.213-0.069-0.306 0.065-0.247 0.077 0.012 0.209-0.084-0.004 0.066-0.038 0.070-0.046 0.167 0.158-0.151 0.014-0.343-0.028-0.438-0.013 0.028-0.055 0.036-0.043 0.090l-0.045-0.1c-0.113 0.103-0.14 0.192-0.126 0.423zM16.215 28.157l0.012-0.123-0.063 0.047c0.006 0.017 0.018 0.077 0.051 0.076zM16.429 23.497c-0.056 0.013-0.085 0.056-0.074 0.149-0.076-0.012-0.059-0.133-0.104-0.191-0.048 0.123-0.090 0-0.162 0.029-0.008 0.14 0.092 0.203 0.070 0.35-0.019-0.008-0.057-0.004-0.079 0.015 0.046 0.179 0.118 0.483 0.052 0.656-0.030 0.169 0.008 0.292 0.040 0.475-0.036 0.609 0.042 1.242-0.032 1.895l0.15 0.094c-0.074 0.029 0 0.153-0.096 0.134 0.017-0.034 0.003-0.068 0.002-0.114-0.132 0.142 0.010 0.371-0.037 0.543 0.026-0.021 0.152-0.049 0.176 0.003-0.164-0.014 0.005 0.199-0.186 0.247-0.047 0.169 0.145 0.007 0.118 0.18 0.098 0.020 0.049-0.168 0.121-0.198 0.079 0.053-0.032 0.157 0.071 0.149 0.048-0.281-0.156-0.798-0.21-1.228l0.092 0.046c-0.067-0.219-0.070-0.575 0.081-0.749-0.088 0.041 0.045-0.322-0.154-0.291 0.044-0.054 0.039-0.071 0.058-0.149l-0.064-0.021c0.003-0.112 0.098-0.093 0.092-0.224-0.086 0.083-0.109-0.010-0.18-0.047 0.093-0.148 0.177-0.32 0.255-0.452-0.026 0.013-0.059 0.023-0.095 0.068 0.031-0.088-0.052-0.075-0.080-0.098-0.003-0.085 0.107-0.074 0.161-0.069 0.033-0.16-0.175-0.23-0.107-0.349l-0.087 0.044c-0.021-0.166 0.076-0.303 0.045-0.482 0.119-0.084 0.103 0.149 0.156 0.223 0.025-0.035 0.032-0.113 0.071-0.137-0.064-0.077-0.145-0.207-0.203-0.301 0.139 0.088 0.131-0.138 0.14-0.2zM16.492 23.998c0.018 0.019 0.034 0.040 0.046 0.049-0.007-0.018-0.014-0.033-0.009-0.059-0.017-0.002-0.026 0-0.037 0.010zM16.059 21.037c-0.104 0.121-0.041 0.295-0.061 0.444 0.053 0.275 0.228 0.035 0.241 0.294l-0.217-0.045c0.015 0.258-0.032 0.624 0.158 0.845-0.025 0.017-0.058 0.062-0.090-0.003 0.008 0.173 0.304 0.089 0.234 0.322-0.133-0.218-0.128 0.069-0.259 0.009l-0.017-0.033c0.014 0.145 0.087 0.339 0.078 0.435 0.055 0.004 0.139-0.078 0.146 0.048 0.010-0.052 0.074-0.032 0.13-0.026-0.062-0.135-0.025-0.206-0.096-0.287 0.070-0.074 0.023 0.049 0.094-0.024l-0.068-0.108c0.018-0.078 0.074 0.082 0.088-0.042-0.042-0.014-0.088-0.114-0.079-0.209l0.025 0.026c-0.027-0.072 0.009-0.176-0.112-0.14l0.118-0.088-0.080 0.016c0.031-0.203 0.225-0.278 0.125-0.535-0.024 0.061-0.067 0.003-0.085-0.030-0.056 0.108 0.063 0.134 0.074 0.237-0.082 0.013-0.179-0.159-0.229-0.036 0.099-0.136-0.011-0.255 0.189-0.317 0.015-0.166-0.083-0.226-0.036-0.391l0.030 0.004c-0.135-0.034 0.061-0.138-0.077-0.262l-0.029 0.088c-0.056-0.004-0.057-0.048-0.067-0.105 0.021 0.006 0.021 0.006 0.044-0.014-0.093-0.017-0.108-0.206-0.138-0.229-0.016 0.078 0.064 0.176 0.088 0.268-0.054-0.047-0.136-0.033-0.119-0.112zM16.227 20.29c0.023-0.106 0.084 0.030 0.128-0.071-0.067-0.105-0.14 0.123-0.238 0.017 0.060-0.063-0.042-0.169-0.044-0.211 0.057 0.047 0.186 0.020 0.214 0.003-0.038-0.041 0.024-0.133 0.031-0.201-0.081 0.169-0.051-0.144-0.136 0.010-0.076-0.012-0.134-0.174-0.075-0.237 0.055 0.004 0.043 0.058 0.047 0.101 0.103 0.034 0.056-0.109 0.149-0.134-0.145-0.159-0.135-0.679-0.366-0.531-0.045 0.055 0.012 0.101 0.021 0.163 0.046-0.171 0.123-0.002 0.166 0.013-0.040 0.073 0.035 0.196-0.046 0.167l-0.088-0.116c-0.045 0.366-0.030 0.866 0.006 1.287l0.004-0.182c0.062 0.022 0.068 0.107 0.096 0.174l0.154-0.089c-0.010 0.052 0.013 0.103-0.040 0.098 0.063 0.066 0.102 0.034 0.154-0.004 0.030 0.136-0.032 0.158 0.070 0.263 0.125-0.226-0.104-0.192 0.002-0.451l-0.208-0.070zM16.31 19.43l-0.028-0.138-0.027 0.089c0.034-0.003 0.048 0.029 0.055 0.049zM15.91 18.477c0.016 0.188 0.088 0.27 0.011 0.482 0.1 0.105 0.188-0.050 0.278-0.004 0.022-0.105-0.149-0.093-0.18-0.202 0.087-0.042-0.019-0.161 0.003-0.266-0.038 0.012-0.079 0.012-0.112-0.010zM16.242 17.827c0.002-0.087-0.068-0.174-0.027-0.242 0.056 0.010 0.076 0.062 0.061 0.111 0.124-0.031-0.019-0.093 0.065-0.186-0.012 0.008-0.034 0.040-0.062 0.014 0.030-0.231-0.101-0.13-0.030-0.432-0.034-0.042-0.034-0.086-0.115-0.079 0.103-0.17 0.103-0.084 0.195-0.289-0.050 0.007-0.161 0.073-0.261 0.073 0.143-0.288-0.020-0.296 0.089-0.483 0.004 0.024 0.030 0.047 0.016 0.099 0.143-0.027-0.025-0.157 0.004-0.261l0.121 0.010c-0.021-0.094-0.098-0.258-0.010-0.38l0.062 0.030c-0.094-0.244-0.050-0.528-0.097-0.734l0.076-0.113c-0.097-0.285-0.041 0.282-0.227 0.075 0.227-0.032-0.074-0.146 0.016-0.31 0.091-0.077 0.048 0.165 0.15 0.080-0.115-0.037-0.035-0.086-0.066-0.173 0.108 0.017 0.014-0.182 0.138-0.127l-0.203-0.306c0.062-0.048 0.053-0.137 0.036-0.202-0.001 0.165-0.161-0.046-0.212 0.139 0.051 0.267 0.089 0.717 0.031 1.052 0.15 0.036-0.002 0.217 0.121 0.269-0.049 0.007-0.089 0.033-0.137 0.040 0.033 0.218 0.085-0.049 0.137 0.002 0.020 0.095-0.069 0.174-0.125 0.163-0.008 0.155 0.042 0.018 0.123 0.095l-0.165 0.102c0.051 0.484 0.161 1.123 0.066 1.674l0.106-0.041c-0.058 0.25 0.228 0.415 0.008 0.637l0.088 0.073c-0.050-0.039-0.154 0.045-0.226-0.020 0.035 0.067-0.003 0.137 0.027 0.209l0.049-0.124c0.089 0.090 0.034 0.184-0.041 0.211 0.105 0.187 0.177-0.109 0.266-0.152-0.192-0.261 0.186-0.261 0.106-0.512-0.061-0.156-0.097 0.017-0.151 0.007zM16.22 6.503c-0.030-0.13-0.064-0.302-0.151-0.399l0.055 0.010c-0.028-0.069-0.113-0.294-0.209-0.15l0.046 0.037c0.082 0.165-0.089 0.119-0.127 0.248 0.029 0.156 0.229 0.245 0.182 0.382 0.007 0.059-0.047 0.051-0.088 0.033-0.015 0.135 0.141 0.193 0.162 0.286-0.412 0.039 0.113 0.422-0.151 0.628 0.036 0.129-0.001 0.302 0.080 0.467-0.1-0.087-0.008 0.153-0.125 0.119 0.239 0.046-0.106 0.472 0.196 0.501-0.084 0.225 0.020 0.010-0.050 0.267-0.033 0-0.033-0.042-0.040-0.062-0.063 0.103 0.127 0.158-0.009 0.243-0.023 0.205 0.081 0.034 0.161 0.156-0.034 0.216-0.076 0.156-0.2 0.273 0.143 0.020 0.076 0.148 0.15 0.253 0.006-0.027 0.035-0.175 0.089-0.077-0.023 0.251 0.094 0.2 0.13 0.434-0.155 0.119-0.001-0.231-0.127-0.027-0.075-0.148-0.067-0.261-0.182-0.339-0.010 0.199 0.017 0.44 0.083 0.655-0.022 0.122-0.075-0.059-0.089 0.035-0.071 0.212 0.161 0.329 0.091 0.501l-0.082-0.037c0.11 0.106-0.022 0.379 0.037 0.578 0.041-0.025 0.070-0.042 0.096-0.015-0.206-0.002 0.107 0.277-0.039 0.473 0.13-0.017 0.203 0.175 0.217 0.296-0.036 0.041-0.092 0.032-0.123 0.032 0.075-0.198-0.141-0.191-0.203-0.348 0.066 0.131-0.004 0.344 0.092 0.461l-0.102-0.047c-0.015 0.181 0.23 0.158 0.134 0.348l-0.076-0.020c0.013 0.381-0.122 0.827 0.045 1.129 0.064 0.029 0.206-0.124 0.254-0.132-0.053-0.182-0.161-0.288-0.216-0.427l0.118 0.002c-0.080-0.032-0.128-0.199-0.192-0.107-0.060-0.113 0.103-0.085 0.038-0.214 0.121 0.011 0.133 0.089 0.238 0.089l-0.062-0.113c0.047 0.036 0.040-0.067 0.090-0.032-0.148-0.209 0.056-0.293-0.010-0.508l-0.021 0.12c-0.069 0-0.063-0.070-0.081-0.122 0.096-0.060 0.084-0.095 0.124-0.206-0.055-0.095-0.175-0.148-0.175-0.277 0.129 0.027 0.069-0.215 0.179-0.241-0.128-0.027-0.045-0.249-0.12-0.266-0.029-0.070-0.014-0.165 0.054-0.165 0.004 0.011 0.018 0.028 0.023 0.054l0.006-0.072c0.014 0.007 0.024 0.006 0.027 0.013 0.005-0.061-0.090-0.061-0.026-0.142 0.035 0 0.035 0.044 0.046 0.077 0.023-0.162-0.193-0.284-0.078-0.422-0.060-0.026-0.066-0.218-0.202-0.175 0.050-0.053 0.156-0.032 0.138-0.17-0.116-0.078 0.043-0.154-0.032-0.259 0.12 0.14 0.034 0 0.149 0.121 0.047-0.094-0.108-0.234-0.085-0.397 0.026-0.018 0.061-0.018 0.087-0.034-0.039-0.061-0.136-0.133-0.039-0.189l-0.080 0.002c0.043-0.11 0.016-0.266 0.105-0.386l-0.155-0.14c0.165-0.186 0.016-0.44-0.125-0.588 0.009-0.069 0.033-0.171 0.068-0.169l0.058 0.072c0.008-0.1 0.094-0.223-0.036-0.281-0.040-0.105 0.090-0.076 0.109-0.154-0.18-0.211 0.137-0.619-0.142-0.683-0.001 0.085-0.056 0.249-0.043 0.415-0.036-0.045-0.089-0.011-0.096-0.072-0.013-0.163 0.093-0.246 0.044-0.411l0.179 0.019c0.179-0.282-0.243-0.538 0.010-0.758zM16.215 8.606l0.091-0.12-0.078 0.014c0.016 0.036 0.016 0.073-0.013 0.106zM16.228 8.5c-0.004-0.025-0.018-0.048-0.033-0.072-0.001 0.026 0.002 0.053 0.017 0.075l0.016-0.003zM15.984 2.407l-0.109-0.192c0.056-0.034-0.011-0.252 0.084-0.18-0.13-0.113-0.003-0.361-0.19-0.271 0.063 0.562-0.046 1.336 0.122 1.986l-0.076-0.104c0.147 0.336-0.16 0.462 0.131 0.734l-0.15-0.038c-0.042 0.156 0.214 0.296 0.058 0.457l0.061-0.016c0 0.042-0.026 0.059-0.026 0.102l0.026-0.015c0.062 0.113 0.054 0.18 0.013 0.292-0.048 0.008-0.020-0.052-0.033-0.085-0.049 0.050 0.053 0.138 0.052 0.224-0.042 0.068-0.067 0-0.091-0.010 0.069 0.261-0.090 0.378 0.134 0.561 0.040 0.019 0.074-0.067 0.094 0.029 0.072-0.173-0.017-0.311-0.078-0.467v0.042c-0.215-0.122 0.051-0.093-0.043-0.294 0.088 0.055 0.087 0.141 0.135 0.175 0.165-0.23-0.127-0.327 0.086-0.48l0.007 0.016c0.023-0.034-0.021-0.095-0.040-0.146-0.027 0.013-0.043 0.066-0.063 0.101-0.020-0.051-0.113-0.080-0.155-0.095 0.095-0.059-0.045-0.081 0-0.174 0.091-0.033 0.080 0.079 0.129 0.115l-0.060-0.115c-0.004-0.103 0.097-0.101 0.146-0.151-0.067-0.090-0.049 0.050-0.144-0.019 0.111-0.112 0.080-0.584-0.006-0.81 0.012 0.076 0.093 0.028 0.082 0.121 0.018-0.035-0.029-0.154-0.097-0.154-0.059-0.158-0.017-0.353 0.045-0.502l-0.067 0.042c-0.116-0.122 0.084-0.308 0.018-0.523l-0.002 0.002c-0.016-0.067-0.181-0.127-0.146-0.255 0.078 0.036 0.071 0.104 0.154 0.099zM15.828 1.646l0.093 0.070c0.021-0.079-0.099-0.175-0.16-0.16 0.018 0.055-0.024 0.123 0.030 0.132 0.014-0.009 0.049-0.009 0.037-0.042zM15.812 0.198c-0.023-0.031 0.005-0.017-0.023-0.031 0.014 0.307-0.012 0.683-0.085 0.804-0.029 0.104 0.114 0.122 0.146 0.253l-0.094 0.058c0.061 0.071-0.042 0.283 0.114 0.208 0.013-0.008-0.074-0.059-0.045-0.12l0.052 0.009-0.019-0.137 0.070 0.043c0.095-0.191-0.206-0.132-0.144-0.365l0.138 0.002c0.009-0.154-0.039-0.232 0.045-0.371 0 0-0.070 0-0.041 0.026-0.008 0.027-0.063 0.060-0.103 0.041-0.108-0.232 0.134 0.026 0.189-0.137-0.094-0.199-0.138-0.566-0.027-0.676-0.083 0.094-0.259-0.047-0.249-0.16 0.047-0.049 0.079 0.036 0.119 0.053 0.017-0.052 0.050-0.095 0.032-0.145-0.077 0.067-0.111 0.023-0.16-0.096-0.083 0.263 0.102 0.474 0.086 0.741zM15.696 0.117c0.005 0.029 0.018 0.042 0.030 0.048l-0.003-0.109-0.027 0.060zM26.713 26.683l-0.128-0.085c-0.116 0.228-0.146 0.093-0.112 0.385 0.088 0.036 0.273 0.113 0.326 0.029-0.048-0.036-0.175-0.038-0.215-0.121 0.078-0.020 0.135 0.053 0.233 0.024-0.043-0.154-0.107-0.024-0.188-0.163l0.084-0.068zM26.334 26.667c-0.060-0.077 0.067-0.060 0.069-0.077l-0.189 0.026 0.12 0.051zM25.92 26.236c-0.014 0.068 0.045 0.079 0.106 0.108l0.004-0.012c-0.006-0.071 0.111-0.108 0.152-0.024 0.082 0.053-0.005 0.121 0.103 0.129l-0.010-0.142c-0.109-0.096-0.283-0.047-0.354-0.059zM25.69 26.007c0.125-0.088 0.148 0.18 0.251 0.117-0.093-0.091-0.082-0.239-0.003-0.276l-0.134-0.072c-0.072 0.005-0.113 0.125-0.114 0.231zM25.093 25.191l0.341 0.136c-0.059 0.014-0.083 0.055-0.151 0.012 0.089 0.123 0.173 0.071 0.245 0.168-0.078 0.123-0.156-0.15-0.199-0.010 0.062 0.058 0.154 0.148 0.289 0.117l0.024 0.165 0.081-0.138c-0.006-0.074-0.166 0-0.109-0.098 0.036-0.058 0.083-0.025 0.121-0.008-0.082-0.043-0.076-0.258-0.214-0.376-0.141-0.127-0.29 0.073-0.428 0.034zM24.813 24.936l0.188 0.061c0.005 0.021-0.013 0.053-0.025 0.079 0.021-0.028 0.099-0.034 0.114-0.063 0.048-0.152-0.177-0.123-0.26-0.173-0.12-0.223 0.063-0.045 0.095-0.204 0.043 0.054 0.021 0.078 0.082 0.154 0.011-0.218-0.224-0.257-0.32-0.301 0.009 0.029-0.018 0.065 0.029 0.094l-0.103-0.039c-0.010 0.152 0.028 0.235 0.201 0.393zM24.594 24.64l-0.071-0.097-0.015 0.079c0.016 0.005 0.062 0.043 0.086 0.018zM21.56 21.096c-0.033 0.047-0.020 0.099 0.050 0.16-0.063 0.044-0.136-0.054-0.208-0.068 0.050 0.125-0.064 0.061-0.097 0.133 0.089 0.107 0.204 0.084 0.291 0.207-0.019 0.008-0.042 0.033-0.047 0.065 0.155 0.098 0.416 0.272 0.487 0.445 0.093 0.14 0.205 0.205 0.358 0.318 0.385 0.468 0.875 0.877 1.273 1.402l0.169-0.034c-0.031 0.072 0.106 0.111 0.025 0.165-0.012-0.039-0.046-0.054-0.076-0.082 0 0.191 0.261 0.263 0.341 0.416 0.006-0.031 0.082-0.139 0.133-0.118-0.131 0.104 0.138 0.144 0.033 0.308 0.080 0.155 0.111-0.095 0.208 0.051 0.086-0.054-0.078-0.157-0.046-0.229 0.094-0.014 0.083 0.14 0.154 0.062-0.157-0.236-0.66-0.477-0.991-0.75l0.097-0.029c-0.199-0.117-0.442-0.375-0.454-0.602-0.036 0.088-0.187-0.266-0.311-0.11-0.003-0.068-0.020-0.076-0.061-0.146l-0.062 0.026c-0.076-0.081 0.010-0.134-0.087-0.222-0.004 0.119-0.085 0.066-0.162 0.087-0.031-0.171-0.089-0.353-0.123-0.503-0.014 0.027-0.027 0.058-0.023 0.114-0.039-0.086-0.088-0.015-0.122-0.014-0.064-0.062 0.021-0.128 0.065-0.166-0.085-0.138-0.284-0.042-0.315-0.179l-0.035 0.090c-0.126-0.103-0.149-0.269-0.293-0.38 0.029-0.145 0.175 0.037 0.264 0.056-0.008-0.045-0.055-0.106-0.041-0.151-0.099-0.014-0.247-0.050-0.353-0.082 0.163-0.027 0-0.191-0.038-0.24zM21.949 21.417c0.029 0.005 0.052 0.006 0.068 0.005-0.016-0.005-0.035-0.013-0.046-0.037-0.012 0.010-0.020 0.020-0.021 0.032zM19.609 19.557c0.008 0.159 0.175 0.242 0.261 0.365 0.224 0.161 0.188-0.131 0.376 0.048l-0.189 0.115c0.185 0.18 0.405 0.477 0.691 0.506-0.006 0.034 0.003 0.088-0.068 0.060 0.124 0.119 0.286-0.145 0.39 0.072-0.245-0.065-0.046 0.137-0.182 0.185l-0.034-0.013c0.112 0.097 0.294 0.188 0.351 0.265 0.043-0.033 0.049-0.155 0.142-0.064-0.028-0.046 0.033-0.073 0.073-0.107-0.131-0.055-0.156-0.133-0.265-0.144 0.003-0.103 0.050 0.020 0.054-0.082l-0.123-0.031c-0.040-0.071 0.11 0.008 0.035-0.092-0.040 0.018-0.141-0.023-0.199-0.1l0.038 0.004c-0.073-0.035-0.116-0.135-0.181-0.027l0.030-0.145-0.053 0.068c-0.112-0.168-0.023-0.358-0.276-0.475 0.027 0.061-0.045 0.049-0.080 0.036 0.035 0.118 0.136 0.055 0.214 0.121-0.047 0.070-0.238 0.007-0.188 0.132-0.024-0.166-0.183-0.182-0.077-0.361-0.102-0.128-0.219-0.106-0.299-0.261l0.024-0.016c-0.118 0.067-0.047-0.141-0.233-0.137l0.038 0.086c-0.040 0.036-0.074 0.003-0.122-0.034 0.020-0.009 0.020-0.009 0.027-0.043-0.082 0.054-0.224-0.074-0.262-0.071 0.042 0.068 0.167 0.088 0.25 0.138-0.077 0.003-0.127 0.071-0.167 0.003zM19.223 18.895c-0.058-0.092 0.078-0.035 0.040-0.138-0.121-0.034-0.012 0.182-0.158 0.176 0-0.087-0.147-0.097-0.179-0.123 0.074-0.006 0.148-0.113 0.156-0.145-0.055-0.005-0.071-0.115-0.113-0.169 0.056 0.179-0.136-0.070-0.093 0.102-0.064 0.043-0.213-0.036-0.215-0.122 0.043-0.033 0.070 0.010 0.102 0.042 0.097-0.046-0.034-0.117 0.017-0.2-0.215-0.018-0.563-0.404-0.633-0.138 0.006 0.073 0.079 0.068 0.128 0.104-0.082-0.155 0.088-0.085 0.129-0.103 0.022 0.078 0.159 0.119 0.081 0.155l-0.142-0.024c0.217 0.296 0.57 0.652 0.882 0.932l-0.12-0.135c0.061-0.029 0.123 0.033 0.19 0.060l0.053-0.17c0.024 0.048 0.077 0.067 0.036 0.101 0.091 0.002 0.097-0.045 0.111-0.11 0.112 0.080 0.087 0.137 0.229 0.145-0.062-0.25-0.205-0.067-0.303-0.33l-0.197 0.091zM18.691 18.21l-0.112-0.080 0.040 0.085c0.022-0.025 0.056-0.011 0.072-0.005zM17.747 17.792c0.139 0.124 0.249 0.133 0.335 0.343 0.145 0.006 0.106-0.164 0.203-0.194-0.055-0.095-0.173 0.033-0.271-0.025 0.036-0.087-0.125-0.103-0.179-0.192-0.016 0.033-0.049 0.062-0.088 0.068zM17.545 17.088c-0.060-0.063-0.17-0.081-0.183-0.157 0.045-0.032 0.093-0.008 0.121 0.040 0.066-0.108-0.079-0.056-0.084-0.181-0.005 0.014 0.003 0.056-0.034 0.055-0.136-0.191-0.162-0.028-0.315-0.293-0.056-0.011-0.085-0.042-0.14 0.020-0.042-0.198 0.017-0.133-0.056-0.343-0.032 0.038-0.065 0.163-0.141 0.23-0.095-0.311-0.219-0.2-0.266-0.412 0.019 0.013 0.055 0.013 0.077 0.058 0.090-0.116-0.123-0.096-0.173-0.19l0.096-0.076c-0.080-0.056-0.25-0.121-0.267-0.269l0.065-0.021c-0.237-0.115-0.399-0.349-0.573-0.47l-0.023-0.134c-0.261-0.143 0.164 0.237-0.112 0.209 0.141-0.178-0.154-0.056-0.2-0.236 0.011-0.116 0.148 0.089 0.161-0.046-0.107 0.055-0.082-0.040-0.164-0.079 0.091-0.060-0.117-0.143 0.013-0.187l-0.358-0.083c0.011-0.078-0.056-0.137-0.111-0.174 0.109 0.122-0.151 0.080-0.062 0.247 0.224 0.16 0.557 0.462 0.744 0.746 0.134-0.076 0.147 0.157 0.27 0.116-0.029 0.038-0.042 0.083-0.069 0.122 0.17 0.134 0.023-0.094 0.1-0.091 0.077 0.055 0.066 0.171 0.020 0.203 0.099 0.117 0.040-0.017 0.155-0.016l-0.052 0.189c0.367 0.317 0.885 0.708 1.196 1.172l0.047-0.101c0.128 0.222 0.451 0.148 0.44 0.46l0.117-0.006c-0.065 0.005-0.082 0.138-0.177 0.139 0.070 0.025 0.093 0.104 0.163 0.134l-0.051-0.124c0.124 0.004 0.151 0.11 0.116 0.184 0.205 0.065 0.054-0.203 0.091-0.294-0.32-0.060-0.047-0.319-0.277-0.448-0.151-0.073-0.056 0.078-0.103 0.107zM14.878 14.349c-0.013-0.014-0.032-0.030-0.055-0.047-0.036-0.002 0.005 0.015 0.055 0.047zM17.835 17.724v0l-0.003-0.002zM18.105 17.643l-0.046-0.055-0.027 0.041zM14.468 13.725l-0.041 0.037c0.018-0.007 0.033-0.018 0.041-0.037zM13.13 12.252l0.029 0.033c-0.001-0.015-0.017-0.026-0.029-0.033zM9.78 8.846c-0.114-0.070-0.255-0.175-0.385-0.184l0.045-0.032c-0.067-0.032-0.284-0.135-0.255 0.035l0.058-0.004c0.172 0.065 0.018 0.147 0.080 0.264 0.123 0.095 0.335 0.023 0.394 0.155 0.044 0.036-0.003 0.070-0.045 0.086 0.084 0.108 0.236 0.042 0.315 0.096-0.274 0.307 0.372 0.234 0.319 0.562 0.115 0.071 0.206 0.22 0.376 0.286-0.134 0.007 0.102 0.119-0.008 0.173 0.206-0.129 0.245 0.418 0.485 0.231 0.091 0.22 0.019-0.008 0.147 0.23-0.028 0.021-0.056-0.010-0.071-0.018 0.023 0.118 0.2 0.026 0.158 0.182 0.123 0.166 0.083-0.032 0.224 0.003 0.122 0.183 0.050 0.164 0.041 0.339 0.117-0.086 0.156 0.055 0.281 0.080-0.011-0.023-0.093-0.148 0.014-0.117 0.155 0.2 0.204 0.082 0.392 0.226-0.032 0.195-0.163-0.166-0.112 0.068-0.154-0.057-0.226-0.144-0.365-0.122 0.13 0.152 0.315 0.311 0.512 0.421 0.065 0.102-0.096 0.007-0.043 0.086 0.096 0.204 0.342 0.129 0.411 0.305l-0.085 0.030c0.149 0.002 0.243 0.292 0.422 0.395 0.013-0.044 0.021-0.079 0.060-0.077-0.151 0.139 0.266 0.13 0.295 0.374 0.084-0.103 0.266-0.013 0.359 0.066 0.005 0.055-0.041 0.086-0.066 0.109-0.081-0.199-0.236-0.042-0.386-0.116 0.137 0.050 0.236 0.254 0.381 0.271l-0.104 0.040c0.112 0.14 0.275-0.044 0.334 0.161l-0.068 0.038c0.266 0.27 0.476 0.686 0.805 0.794 0.065-0.025 0.065-0.235 0.093-0.274-0.163-0.096-0.311-0.097-0.448-0.161l0.088-0.080c-0.080 0.033-0.229-0.058-0.211 0.055-0.122-0.040 0.016-0.133-0.122-0.182 0.096-0.076 0.159-0.029 0.234-0.098l-0.122-0.041c0.059-0.008-0.016-0.079 0.042-0.084-0.252-0.053-0.157-0.253-0.355-0.364l0.068 0.101c-0.048 0.046-0.094-0.008-0.142-0.035 0.029-0.106-0.006-0.122-0.050-0.234-0.104-0.032-0.23 0.014-0.319-0.081 0.114-0.068-0.096-0.206-0.032-0.298-0.113 0.068-0.206-0.15-0.272-0.113-0.068-0.032-0.122-0.11-0.072-0.158 0.012 0.005 0.034 0.011 0.052 0.023l-0.043-0.054c0.014-0.004 0.022-0.013 0.029-0.012-0.040-0.047-0.108 0.019-0.117-0.082 0.025-0.026 0.057 0.007 0.089 0.024-0.097-0.135-0.339-0.077-0.348-0.257-0.064 0.023-0.197-0.111-0.267 0.011 0-0.070 0.093-0.129-0.015-0.216-0.139 0.021-0.077-0.143-0.204-0.169 0.186 0.020 0.027-0.021 0.195-0.014-0.029-0.101-0.239-0.096-0.334-0.232 0.007-0.029 0.035-0.053 0.042-0.082-0.073-0.016-0.188-0.003-0.16-0.114l-0.055 0.063c-0.045-0.11-0.17-0.206-0.187-0.355l-0.21 0.002c-0.007-0.247-0.287-0.329-0.494-0.34-0.041-0.055-0.092-0.151-0.063-0.172l0.089 0.013c-0.064-0.076-0.082-0.227-0.218-0.178-0.099-0.050 0.015-0.119-0.021-0.191-0.279-0.024-0.326-0.541-0.575-0.397 0.060 0.064 0.131 0.22 0.251 0.332-0.055-0.010-0.073 0.053-0.116 0.013-0.123-0.111-0.104-0.243-0.252-0.332l0.143-0.108c-0.060-0.329-0.543-0.226-0.508-0.561zM11.214 10.382l-0.014-0.148-0.047 0.061c0.032 0.018 0.059 0.044 0.061 0.087zM11.153 10.295c-0.023-0.013-0.048-0.021-0.076-0.027 0.019 0.021 0.038 0.038 0.064 0.042l0.011-0.015zM9.433 8.522c-0.013-0.025-0.039-0.072-0.088-0.095 0.010 0.038 0.051 0.094 0.088 0.095zM9.3 8.456l0.019 0.063 0.022-0.007zM6.805 6.022l-0.212-0.065c0.017-0.062-0.178-0.176-0.063-0.189-0.172 0.005-0.248-0.259-0.322-0.067 0.43 0.365 0.88 1.005 1.445 1.364l-0.124-0.024c0.339 0.145 0.199 0.447 0.597 0.446l-0.134 0.074c0.073 0.142 0.36 0.070 0.355 0.295l0.034-0.054c0.029 0.032 0.022 0.063 0.050 0.093l0.009-0.030c0.121 0.041 0.164 0.097 0.208 0.206-0.030 0.039-0.051-0.024-0.083-0.040-0.002 0.070 0.132 0.063 0.193 0.129 0.015 0.076-0.052 0.044-0.074 0.053 0.228 0.145 0.195 0.338 0.483 0.319 0.041-0.016 0.008-0.102 0.086-0.046-0.064-0.174-0.226-0.214-0.376-0.285l0.032 0.030c-0.245 0.060-0.028-0.103-0.236-0.184 0.101-0.021 0.16 0.043 0.217 0.037-0.035-0.283-0.317-0.153-0.266-0.411l0.017 0.007c-0.007-0.039-0.081-0.056-0.13-0.078-0.011 0.032 0.015 0.078 0.026 0.117-0.051-0.023-0.139 0.022-0.182 0.038 0.030-0.11-0.087-0.024-0.118-0.126 0.042-0.085 0.113 0.002 0.174-0.006l-0.122-0.042c-0.076-0.071 0-0.141 0-0.211-0.108-0.017 0 0.070-0.118 0.085 0.005-0.157-0.34-0.481-0.559-0.586 0.064 0.049 0.089-0.045 0.145 0.034-0.009-0.040-0.126-0.096-0.177-0.050-0.149-0.074-0.256-0.246-0.308-0.395l-0.021 0.077c-0.169-0.009-0.151-0.282-0.348-0.394l0.004 0.004c-0.057-0.040-0.222 0.029-0.283-0.087 0.082-0.031 0.125 0.023 0.182-0.038zM6.167 5.576l0.118-0.013c-0.036-0.071-0.192-0.059-0.225-0.005 0.052 0.027 0.066 0.104 0.113 0.072 0.004-0.012 0.029-0.037-0.005-0.053zM5.165 4.53c-0.037-0.005-0.057 0.024-0.085 0.033 0.221 0.215 0.506 0.466 0.536 0.606 0.050 0.095 0.17 0.012 0.281 0.082l-0.030 0.111c0.091 0.009 0.16 0.234 0.225 0.072 0.005-0.015-0.097 0.007-0.12-0.056l0.048-0.031-0.106-0.088 0.079-0.014c-0.059-0.204-0.24 0.044-0.351-0.168l0.1-0.093c-0.1-0.119-0.19-0.144-0.221-0.301 0 0-0.052 0.046-0.014 0.047 0.012 0.024-0.005 0.084-0.046 0.098-0.24-0.095 0.085-0.027 0.013-0.185-0.203-0.082-0.523-0.304-0.517-0.461 0.002 0.125-0.156 0.085-0.228-0.004-0.002-0.069 0.084-0.027 0.127-0.042-0.025-0.050-0.028-0.102-0.079-0.127-0.010 0.101-0.113 0.139-0.23 0.083 0.121 0.25 0.448 0.233 0.619 0.437zM5.027 4.552c0.021 0.016 0.041 0.017 0.054 0.011l-0.074-0.074 0.019 0.063zM16.854 8.081c-0.001 0.006-0.009 0.008-0.019 0.008-0.017 0-0.042-0.004-0.068-0.004-0.046 0-0.1 0.014-0.121 0.106-0.062 0.109-0.137 0.236-0.13 0.236h0.001c0 0.008 0.003 0.011 0.005 0.011 0.012 0 0.055-0.125 0.069-0.125 0.002 0 0.004 0.002 0.004 0.006-0.103 0.206-0.055 0.234-0.188 0.434 0.013-0.037 0.009-0.048 0-0.048-0.013 0-0.042 0.027-0.051 0.027-0.005 0-0.007-0.003-0.005-0.011-0.063 0.089 0.018 0.049-0.071 0.174l-0.010-0.022c-0.070 0.131-0.050 0.105-0.112 0.111-0.030-0.004-0.078-0.006-0.131-0.006-0.122 0-0.271 0.008-0.291 0.015-0.004 0.005-0.008 0.008-0.013 0.008-0.061 0-0.241-0.359-0.378-0.509 0-0.036-0.047-0.139-0.111-0.272-0.022-0.029-0.030-0.087-0.063-0.096l-0.119 0.012-0.288 0.026c0.021-0.002 0.039-0.003 0.052-0.003 0.086 0-0.065 0.040-0.112 0.052l-0.145-0.012c-0.089 0.002-0.184 0.033-0.278 0.062l-0.341 0.12c-0.008 0-0.017 0-0.024 0-0.027 0-0.044-0.003-0.061-0.006-0.107 0.17-0.023 0.249-0.037 0.322-0.014 0.056-0.027 0.073-0.038 0.11l0.024 0.022c-0.001 0.143-0.024 0.325-0.064 0.325-0.004 0-0.005-0.001-0.007-0.003 0.001 0.040 0.002 0.078 0.008 0.078 0.003 0 0.008-0.008 0.015-0.029 0-0 0-0.003 0.001-0.004-0.001 0.001-0.001 0.003-0.001 0.004-0.010 0.037-0.021 0.092-0.030 0.144-0.011 0.021-0.001 0.057-0.023 0.073-0.011 0.005-0.218 0.079-0.335 0.144 0.056-0.018 0.084-0.026 0.102-0.026 0.022 0 0.026 0.011 0.037 0.023-0.017 0.057-0.060 0.018-0.147 0.086-0.003-0.003-0.014-0.006-0.024-0.006-0.005 0-0.009 0-0.014 0-0.026 0-0.045-0.002 0.024-0.040-0.056 0.013-0.086 0.021-0.108 0.021-0.044 0-0.060-0.038-0.22-0.161l-0.274-0.21-0.178-0.14-0.106-0.085c-0.018-0.014-0.036-0.032-0.053-0.041l-0.054 0.032c-0.115 0.075-0.077 0.062-0.13 0.109-0.388 0.178-0.498 0.309-0.936 0.619 0.018-0.008 0.031-0.012 0.038-0.012 0.017 0 0.017 0.014 0.002 0.038 0.030 0.055 0.073 0.145 0.104 0.252 0.094 0.186-0.031 0.090-0.002 0.263 0.040 0.074 0.089 0.224 0.104 0.288l-0.006-0.003 0.061 0.132 0.017 0.055c-0.014 0.014-0.031 0.023-0.046 0.033l0.004-0.009c-0.022 0.016-0.134 0.089-0.21 0.168-0.003 0.028-0.058 0.092-0.105 0.146-0.026 0.032-0.053 0.063-0.061 0.093-0.008-0.006 0.001-0.006-0.014-0.019l0.002 0.033-0.138-0.057c0.005 0 0.009 0 0.015 0 0.038 0 0.047-0.011 0.071-0.012-0.042-0.018-0.063-0.024-0.077-0.024-0.025 0-0.016 0.025-0.062 0.025-0.007 0-0.013 0-0.022-0.001-0.155-0.023-0.138-0.049-0.207-0.081 0.067 0.001 0.107 0.038 0.147 0.043 0.002 0 0.006 0 0.007 0 0.073 0-0.093-0.034-0.093-0.053-0.006-0.003-0.009-0.003-0.014-0.003-0.014 0-0.029 0.007-0.053 0.007-0.022 0-0.053-0.005-0.096-0.021l-0.204-0.063c-0.091-0.030-0.163-0.057-0.146-0.068-0.024-0.013-0.044-0.019-0.063-0.019-0.097 0-0.135 0.144-0.179 0.197l0.124-0.141c0.010-0.006 0.021-0.010 0.032-0.010 0.025 0 0.052 0.016 0.070 0.029 0.007 0.004 0.013 0.006 0.021 0.014-0.002 0-0.010-0.007-0.021-0.014s-0.023-0.009-0.032-0.009c-0.085 0-0.137 0.157-0.165 0.157-0.002 0-0.003 0-0.003 0l0.041-0.068c-0.039 0.059-0.154 0.204-0.134 0.204 0.003 0 0.014-0.006 0.032-0.020l-0.125 0.102c-0.014 0.061-0.101 0.189-0.162 0.295-0.019-0.002-0.018-0.042-0.036-0.042-0.016 0-0.046 0.031-0.12 0.142l-0.107 0.248c0.036 0.104 0.085 0.141 0.065 0.141-0.003 0-0.009 0-0.014-0.002l0.114 0.144 0.065 0.067c0.041 0.041 0.077 0.067 0.112 0.091 0.069 0.052 0.13 0.095 0.206 0.215-0.028-0.018-0.043-0.025-0.052-0.025-0.024 0 0.027 0.068 0.070 0.133 0.001 0 0.003 0 0.007 0 0.008 0 0.019 0.003 0.034 0.018-0.001-0.031-0.037-0.002-0.082-0.102 0.001-0.006 0.001-0.007 0.004-0.007 0.019 0 0.086 0.089 0.102 0.101 0 0.018 0.013 0.038 0.008 0.057l-0.047 0.066c-0.024 0.043-0.093 0.175-0.126 0.275-0.060 0.129-0.039 0.172-0.097 0.192l-0.259 0.014c0.034 0.045-0.179 0.037-0.26 0.061 0.005-0.011-0.004-0.016-0.026-0.016s-0.057 0.005-0.094 0.011c-0.068 0.011-0.2 0.034-0.287 0.034-0.009 0-0.019 0-0.026-0.001l0.116 0.037-0.124 0.009c-0.020 0.022-0.019 0.065-0.030 0.097l-0.026 0.189c-0.015 0.117-0.014 0.18-0.063 0.254-0.011 0.033-0.019 0.048-0.023 0.048-0.013 0-0.001-0.12 0.003-0.164-0.102 0.189-0.052 0.491-0.147 0.748 0.001 0.001 0.004 0.001 0.004 0.001 0.010 0 0.017-0.007 0.027-0.007 0.001 0 0.002 0 0.004 0.001 0.009 0.005 0.014 0.011 0.016 0.034l0.003 0.040 0.069 0.027c0.157 0.113 0.366 0.256 0.343 0.256v0c0.102 0.043 0.137 0.043 0.235 0.12-0.003 0.001-0.004 0.001-0.008 0.001-0.019 0-0.061-0.021-0.094-0.032 0.076 0.046 0.175 0.1 0.222 0.12 0.035 0.017 0.109 0.017 0.097 0.075-0.012 0.016-0.021 0.040-0.024 0.065l-0.014 0.18 0.004 0.204c0 0.027-0.001 0.062-0.006 0.082 0.009 0.034-0.042 0.048-0.085 0.070-0.067 0.032-0.121 0.062-0.117 0.092 0.002 0.001 0.002 0.001 0.002 0.002 0 0 0-0.001-0.002-0.002 0-0.001-0.004-0.001-0.008-0.001-0.010 0-0.024 0.002-0.032 0.003-0.066 0.055-0.104 0.121-0.195 0.174l0.010-0.050c0-0.008-0.005-0.011-0.014-0.011-0.022 0-0.070 0.025-0.125 0.055-0.058 0.034-0.166 0.097-0.211 0.113 0.011-0.002 0.016-0.005 0.019-0.005 0.025 0-0.201 0.092-0.097 0.147l0.035 0.164c0.046 0.25 0.024 0.045 0.074 0.292 0.010 0.057 0.008 0.077-0.002 0.077-0.015 0-0.039-0.040-0.040-0.067 0.004 0.13 0.035 0.223 0.075 0.35-0.007-0.027-0.011-0.042-0.007-0.042 0.001 0 0.005 0.006 0.014 0.023-0.006 0-0.004 0.017-0.003 0.034 0.015 0.047 0.030 0.103 0.046 0.164v-0.001c-0.001 0 0 0.005-0.001 0.005v0c-0.018-0.066-0.035-0.125-0.045-0.163 0.005 0.041 0.023 0.11 0.042 0.183 0.001 0.003 0.001 0.008 0.002 0.013 0.014 0.058 0.028 0.117 0.033 0.155l-0.037-0.021c-0.018 0.078 0.074 0.090 0.167 0.090 0.024 0 0.045 0 0.067-0.003 0.017 0.003 0.034 0.003 0.049 0.003 0.082 0 0.124-0.006 0.117-0.012 0.166 0.033 0.475 0.067 0.621 0.076 0.008-0.001 0.015-0.002 0.022-0.002 0.060 0 0.057 0.073 0.089 0.118 0.021 0.045 0.038 0.087 0.055 0.12 0.008 0.016 0.019 0.036 0.030 0.063-0.008-0.015-0.017-0.038-0.030-0.063-0.010-0.018-0.019-0.028-0.021-0.028s0.002 0.010 0.015 0.028c0.047 0.104 0.134 0.222 0.114 0.225 0.020 0.034 0.021 0.049 0.023 0.069 0.008 0.021-0.003 0.040-0.042 0.075v0c-0.004 0 0.006 0.013 0.017 0.013 0.001 0 0.001 0 0.001 0 0.006-0.005 0.012-0.010 0.016-0.013-0.004 0.010-0.010 0.011-0.016 0.013-0.061 0.050-0.167 0.19-0.246 0.302-0.089 0.124-0.188 0.265-0.347 0.45l0.043 0.075c0.005 0.008 0.009 0.016 0.011 0.021l-0.011-0.021c-0.016-0.021-0.043-0.052-0.071-0.078 0.003-0.013 0.009-0.024 0.012-0.033l-0.023 0.033c0.209 0.327 0.331 0.497 0.502 0.672-0.026-0.014-0.032 0-0.076-0.048 0.072 0.085 0.185 0.272 0.28 0.345-0.021-0.039-0.025-0.056-0.015-0.056 0.007 0 0.025 0.014 0.045 0.033 0.010 0.014 0.024 0.021 0.039 0.021 0.050 0 0.125-0.053 0.171-0.053 0.002 0 0.004 0 0.006 0l0.003 0.003 0.365-0.125c0.011-0.002 0.020-0.002 0.026-0.002 0.046 0-0.113 0.040-0.070 0.044 0.007 0.005 0.020 0.007 0.037 0.007 0.105 0 0.366-0.089 0.378-0.089 0.002 0 0.002 0.001 0.002 0.001 0.018-0.019 0.036-0.023 0.050-0.023 0.007 0 0.013 0.002 0.016 0.002 0.004 0 0.007-0.002 0.007-0.003 0.090 0.076 0.017 0.062 0.075 0.117 0.112 0.079 0.226 0.146 0.346 0.214 0.002 0.006 0.006 0.009 0.009 0.011-0.001 0-0.001 0-0.001 0-0.013 0 0.020 0.058-0.005 0.058-0.002 0-0.007-0.002-0.013-0.005 0.101 0.070 0.049 0.165 0.046 0.26l-0.006 0.081-0.184 0.631c-0.002-0.005-0.005-0.007-0.008-0.007-0.013 0-0.037 0.040-0.050 0.040-0.005 0-0.007-0.007-0.007-0.029l-0.017 0.076 0.080 0.059 0.185 0.141 0.343 0.253c-0.025-0.028-0.028-0.040-0.016-0.040 0.040 0 0.252 0.139 0.304 0.139 0.007 0 0.010-0.002 0.011-0.003 0.025 0.014 0.046 0.030 0.070 0.043l0.066-0.052c0.010-0.006 0.022-0.009 0.027-0.009h0.002c0.009 0.002 0.011 0.012 0.022 0.012 0.007 0 0.019-0.006 0.040-0.017 0.222-0.204 0.462-0.379 0.639-0.529 0 0 0.003 0.007-0.005 0.020 0.004-0.001 0.008-0.001 0.010-0.001 0.086 0 0.222 0.087 0.369 0.134l0.22 0.075c0.032 0.012 0.072 0.017 0.1 0.030l0.019 0.073 0.004 0.016c-0.002 0-0.004 0-0.004 0-0.002 0-0.004 0-0.006 0-0.005 0-0.011-0.003-0.022-0.037 0.004 0.131 0.024 0.131 0.041 0.151l0.018 0.156-0.020-0.040c0.044 0.182 0.020 0.359 0.078 0.565l0.001 0.012c-0.001 0.002-0.002 0.002-0.003 0.002-0.010 0-0.019-0.040-0.029-0.068l0.023 0.161c0.007 0.051 0.093 0.033 0.135 0.056 0.063 0.014 0.116 0.017 0.173 0.024 0.037 0.007 0.073 0.018 0.112 0.026-0.003 0.008-0.014 0.014-0.046 0.014-0.010 0-0.022-0.001-0.036-0.002 0.080 0.027 0.131 0.030 0.176 0.030 0.023 0 0.042 0 0.066 0 0.039 0 0.082 0.004 0.145 0.021 0.046 0.010 0.123 0.040 0.117 0.043 0.012-0.001 0.027-0.001 0.042-0.001 0.049 0 0.115 0.004 0.18 0.014 0.003 0 0.005-0.005 0.008-0.005 0.010 0.002 0.020 0.005 0.030 0.007l0.035-0.065c0.004-0.008 0.009-0.014 0.013-0.021l0.060-0.108c0.026-0.024 0.060-0.069 0.114-0.141l0.177-0.322c0.061-0.075 0.074-0.209 0.166-0.209 0.013 0 0.030 0.002 0.047 0.008 0.074 0.005 0.167 0.010 0.258 0.010 0.036 0 0.072-0.001 0.107-0.003l0.174-0.008 0.085-0.006 0.042 0.071 0.354 0.631 0.096 0.168c0.006 0 0.013 0 0.018 0 0.052 0 0.113-0.016 0.169-0.026 0.098-0.015 0.192-0.037 0.285-0.059 0.029-0.004 0.058-0.009 0.085-0.012 0.135 0.019-0.224 0.071-0.119 0.085-0.014-0.041 0.156-0.038 0.45-0.124l0.017 0.004c0.114-0.055 0.279 0.004 0.244-0.197l-0.010 0.002c-0.012-0.169 0.092-0.32 0.042-0.406l0.045-0.106c-0.031-0.149 0.031-0.215 0.019-0.358-0.001-0.006-0.005-0.013-0.001-0.014 0.001 0.005 0.001 0.009 0.001 0.014 0.001 0.003 0.001 0.003 0.002 0.006 0.156-0.058 0.411-0.221 0.496-0.228 0.045-0.046 0.089-0.063 0.131-0.063 0.085 0 0.164 0.070 0.216 0.097l0.044 0.035c-0.007 0.004-0.014 0.008-0.026 0.008-0.006 0-0.013-0.003-0.018-0.004 0.163 0.103 0.34 0.298 0.523 0.38l0.091 0.072c0.021-0.013 0.041-0.027 0.062-0.039 0.095-0.001 0.189-0.043 0.286-0.16 0.143-0.093 0.278-0.196 0.408-0.299 0.051-0.040 0.105-0.076 0.158-0.116l-0.285-0.972c0.017-0.022 0.036-0.044 0.054-0.065 0.167-0.152 0.331-0.31 0.482-0.482l0.98 0.286c0.228-0.288 0.433-0.592 0.613-0.912l-0.023-0.029-0.228-0.302-0.242-0.306-0.114-0.141c-0.036-0.046 0.028-0.106 0.039-0.158 0.045-0.108 0.094-0.218 0.123-0.322l0.007-0.021c0.029-0.075 0.066-0.145 0.093-0.222l0.198-0.022c0.003 0.006 0.009 0.012 0.024 0.012 0.006 0 0.014-0.002 0.020-0.003 0.117-0.023 0.242-0.037 0.364-0.053l0.408-0.045c0.064-0.227 0.113-0.464 0.156-0.701 0.014-0.075 0.028-0.145 0.034-0.213 0.007-0.055 0.019-0.109 0.025-0.166l-0.896-0.49c0.007-0.127 0.018-0.251 0.018-0.379 0-0.131-0.011-0.254-0.018-0.381l0.302-0.166-0.040 0.032c0.048-0.032 0.106-0.056 0.131-0.056 0.012 0 0.015 0.005 0.010 0.016l0.142-0.096 0.008 0.030c0.114-0.070 0.226-0.126 0.361-0.196 0.045-0.011 0.053-0.039 0.040-0.077l-0.016-0.107c-0.010-0.072-0.022-0.153-0.041-0.22l-0.013 0.116c-0.029-0.172-0.101-0.331-0.101-0.492 0.010 0.027 0.018 0.035 0.023 0.035 0.008 0 0.011-0.021 0.022-0.027-0.014-0.038-0.033-0.075-0.040-0.126l0.054 0.052c-0.036-0.042-0.069-0.154-0.099-0.268 0.006-0.085-0.080-0.075-0.136-0.084-0.053-0.008-0.1-0.013-0.125-0.013l0.034-0.007c-0.065-0.012-0.094-0.016-0.107-0.016-0.035 0 0.069 0.036 0.006 0.036-0.008 0-0.019-0.002-0.037-0.002-0.145-0.024-0.049-0.062-0.181-0.098l-0.432-0.031c-0.073-0.048-0.109-0.256-0.162-0.395l-0.071-0.135c-0.014-0.035-0.058-0.073-0.018-0.105l0.162-0.251c0.042-0.055 0.061-0.068 0.069-0.068s0.010 0.011 0.015 0.011c0.006 0 0.019-0.013 0.060-0.078 0 0.017 0.010 0.021 0.024 0.021 0.010 0 0.024-0.002 0.036-0.005-0.003-0.013 0.042-0.066 0.079-0.118 0.041-0.054 0.097-0.127 0.084-0.127-0.006 0-0.020 0.011-0.051 0.038l0.097-0.118c0.038-0.040 0.080-0.078 0.032-0.123l-0.151-0.265c-0.083-0.135-0.174-0.269-0.268-0.391-0.004-0.004-0.006-0.007-0.008-0.011 0.003 0.003 0.004 0.006 0.008 0.011 0.029 0.036 0.054 0.055 0.066 0.055s0.014-0.020-0.003-0.061c-0.048-0.042-0.141-0.143-0.238-0.259l-0.074-0.087-0.125 0.038-0.231 0.065c0.013 0.031 0.096 0.008 0.078 0.047-0.035 0.017-0.093 0.049-0.155 0.065-0.031-0.015-0.045-0.043-0.113-0.043-0.037 0-0.089 0.008-0.169 0.031 0.045-0.072 0.392-0.109 0.272-0.129 0.021-0.017 0.065-0.039 0.117-0.061l0.289-0.096c0.017-0.003 0.043-0.018 0.062-0.018 0.006 0 0.009 0.001 0.013 0.003l0.045 0.062 0.082 0.114c0.051 0.070 0.087 0.127 0.103 0.16 0.035 0.032 0.051 0.044 0.057 0.044 0.007 0-0.013-0.027-0.034-0.060-0.056-0.076-0.135-0.182-0.107-0.182h0.001l-0.129-0.159c-0.009-0.005-0.018-0.007-0.030-0.007-0.046 0-0.109 0.042-0.161 0.053l-0.387 0.129c0.003 0.026 0.099 0-0.025 0.057-0.122 0.063-0.212 0.078-0.273 0.078-0.054 0-0.085-0.011-0.093-0.011v0c-0.003-0.005 0.066-0.027 0.097-0.042-0.105 0.021-0.106 0.027-0.124 0.038-0.007 0.008-0.015 0.013-0.022 0.013-0.014 0-0.028-0.009-0.040-0.027 0.007-0.014 0.013-0.018 0.021-0.018s0.017 0.006 0.024 0.016c0.032-0.007 0.024-0.002 0.076-0.038-0.005 0-0.008 0-0.013 0-0.047 0-0.028-0.020-0.041-0.033-0.009 0.004-0.012 0.007-0.020 0.021-0.004 0.002-0.007 0.006-0.012 0.006h-0.002c0 0 0 0-0.002 0 0 0-0.011-0.010-0.064-0.070l0.040 0.010c-0.048-0.042-0.093-0.085-0.142-0.125-0.017 0.016-0.014 0.064 0.101 0.182-0.106-0.025-0.132-0.13-0.279-0.247-0.003-0-0.007-0-0.009-0-0.034 0 0.047 0.033 0.047 0.078-0.003 0.003-0.007 0.004-0.010 0.004-0.033 0-0.119-0.067-0.143-0.111 0.036-0.124 0.052-0.052 0.092-0.1-0.004 0.037-0.013 0.083-0.034 0.084 0.016 0.014 0.030 0.019 0.041 0.019 0.025 0 0.031-0.038 0.054-0.038 0.003 0 0.008 0.002 0.014 0.006 0.023-0.035-0.025 0.002-0.011-0.090-0.006 0.009-0.008 0.012-0.012 0.012-0.010 0-0.014-0.026-0.025-0.026-0.004 0-0.007 0.003-0.011 0.010 0.003-0.348 0.125-0.189 0.201-0.498-0.004 0.001-0.008 0.002-0.011 0.002-0.013 0-0.018-0.018-0.020-0.050l0.024-0.192c0.007-0.074 0.007-0.126-0.010-0.126-0.013 0-0.030 0.027-0.063 0.090 0-0.021 0.016-0.048 0.007-0.068l-0.073-0.044c-0.045-0.030-0.087-0.059-0.123-0.088 0.013 0.002 0.020 0.005 0.025 0.005 0.037 0-0.059-0.077-0.032-0.077 0.009 0 0.029 0.009 0.069 0.028l-0.121-0.089c0.058 0.017 0.148 0.067 0.23 0.109-0.165-0.162-0.306-0.29-0.357-0.35-0.039-0.020-0.056-0.026-0.065-0.026-0.016 0 0.005 0.023-0.008 0.023-0.008 0-0.029-0.009-0.079-0.037 0.007 0.002 0.014 0.004 0.018 0.004 0.035 0-0.050-0.071-0.118-0.114 0.055 0.044 0.065 0.063 0.042 0.063-0.029 0-0.118-0.036-0.217-0.086-0.077-0.083-0.148-0.109-0.208-0.109-0.095 0-0.161 0.061-0.171 0.061-0.003 0-0.002-0.002 0.001-0.008 0.054-0.034 0.108-0.137 0.168-0.15-0.038 0.001-0.053 0.034-0.069 0.034-0.001 0-0.001-0.001-0.002-0.002-0.022 0.011-0.045 0.020-0.138 0.101l-0.087 0.124c-0.019 0.034-0.028 0.063-0.038 0.090-0.079 0.077-0.159 0.101-0.186 0.127l0.121-0.127c-0.067 0.060-0.094 0.070-0.112 0.070-0.010 0-0.017-0.003-0.025-0.003-0.017 0-0.045 0.010-0.115 0.075l-0.027 0.062c-0.019 0.013-0.034 0.020-0.044 0.020-0.005 0-0.007-0.004-0.006-0.009-0.013 0.017-0.035 0.038-0.059 0.062-0.017 0.015-0.016 0.017-0.020 0.027l-0.010-0.019c-0.002 0.014-0.010 0.027-0.025 0.031 0 0.001-0.003 0.001-0.004 0.001-0.010 0-0.038-0.015-0.089-0.056 0.085 0.094 0.076 0.039 0.12 0.076 0.019 0.023 0.008 0.031-0.014 0.031-0.019 0-0.046-0.005-0.056-0.013 0.035-0.044-0.235-0.112-0.35-0.153-0.025-0.028-0.030-0.040-0.033-0.052-0.014 0.007-0.030 0.014-0.039 0.017 0.031-0.034 0.025-0.042 0.013-0.064-0.013-0.037-0.041-0.139-0.037-0.201 0.013 0.028 0.024 0.041 0.033 0.041 0.014 0 0.022-0.029 0.022-0.082-0.006 0.022-0.013 0.032-0.018 0.032-0.033 0-0.069-0.192-0.095-0.192-0.002 0-0.003 0-0.005 0.002-0.002-0.073 0.003-0.098 0.013-0.098 0.019 0 0.053 0.085 0.076 0.085 0.003 0 0.008-0.005 0.012-0.014-0.026-0.056-0.026-0.124-0.029-0.187-0.005-0.099-0.016-0.216-0.047-0.268 0.004 0.094 0.003 0.127-0.003 0.127-0.012 0-0.042-0.172-0.061-0.193-0.144-0.043-0.137-0.046-0.109-0.046 0.004 0 0.013 0 0.019 0 0.025 0 0.042-0.004-0.048-0.037-0.065-0.014-0.134-0.022-0.176-0.022-0.058 0-0.067 0.015 0.040 0.052-0.19-0.063-0.295-0.033-0.445-0.096-0.013-0.008-0.004-0.013 0.010-0.013 0.043 0 0.155 0.025 0.186 0.025 0.011 0 0.012-0.003-0.004-0.013-0.073-0.017-0.119-0.021-0.154-0.021-0.086 0-0.086 0.039-0.193 0.039-0.028 0-0.064-0.003-0.111-0.010 0.135 0.042-0.009 0.072-0.14 0.077-0.325-0.063 0.134-0.003 0.005-0.063l-0.141-0.011c-0.049-0.006-0.045 0.006-0.041-0.043 0.017-0.020 0.075-0.016 0.133-0.021 0.117-0.005 0.261-0.005 0.14-0.046l-0.194-0.008c0.038-0.013 0.101-0.036 0.010-0.063v0zM16.039 19.371c-2.103 0-3.813-1.709-3.813-3.811 0-2.103 1.71-3.814 3.813-3.814s3.814 1.712 3.814 3.814c-0 2.101-1.711 3.811-3.814 3.811v0zM22.871 13.564l-0.055-0.006c0.005-0.002 0.008-0.002 0.013-0.003 0.020 0.001 0.028 0.006 0.042 0.009v0zM23.116 14.674c-0.020 0.043-0.251 0.177-0.309 0.182-0.002 0-0.004 0-0.004 0-0.008 0-0.002-0.005-0.006-0.008l0.169-0.093c0.002 0.004-0.003 0.010 0.004 0.014 0.036-0.030 0.058-0.043 0.081-0.060l0.064-0.035zM8.965 17.593c-0.015 0-0.031-0.002-0.049-0.006 0.010 0 0.019 0.002 0.027 0.003 0.010 0.002 0.013 0.003 0.022 0.003v0zM18.787 9.438c-0.006 0.007-0.010 0.014-0.010 0.018 0.005-0.007 0.008-0.011 0.010-0.018v0zM20.463 10.54c-0.013 0.038-0.020 0.066-0.022 0.088 0.005-0.017 0.012-0.043 0.022-0.088v0zM10.061 11.066l-0.004 0.003c0.002-0.001 0.004-0.002 0.004-0.003v0zM23.101 13.86c0.004 0.006 0.008 0.011 0.014 0.014l-0.014-0.014zM22.522 15.009c-0.016 0.011-0.033 0.023-0.046 0.036l0.046-0.036zM8.697 16.247c-0.005 0.002-0.013 0.004-0.019 0.006v0c0.004-0.001 0.011-0.002 0.019-0.006v0zM11.611 20.182c0.014 0.008 0.023 0.013 0.030 0.017-0.008-0.005-0.018-0.012-0.030-0.017v0zM14.823 22.714c0 0-0.003 0-0.006 0 0.002 0 0.003 0 0.003 0 0.003 0 0.003 0 0.003 0v0z"></path>
</svg>
