<!-- Generated by IcoMoon.io -->
<svg version="1.1" xmlns="http://www.w3.org/2000/svg" width="32" height="32" viewBox="0 0 32 32">
<title>midpoint-shorter-lines</title>
<path d="M26.257 15.191l0.019-0.026-0.052-0.080zM26.138 14.686c-0.007 0.014-0.020 0.009-0.031 0.025l0.144 0.294c0.074-0.137-0.161-0.229-0.113-0.319zM26.146 14.596c0.023-0.118-0.044-0.16-0.068-0.183 0.053 0.034 0 0.216 0.068 0.183zM26.070 15.191c-0.083-0.025-0.154-0.151-0.221 0.044l0.061 0.040c-0.065 0.063-0.033 0.051-0.080 0.072-0.017 0.25-0.098 0.281-0.153 0.455 0.001-0.001 0.001-0.001 0.007 0 0.063 0.129 0.009 0.293-0.009 0.389l-0.041 0.034c-0.077 0.048 0.102 0.296-0.009 0.203-0.034 0.505-0.152 1.080-0.317 1.619 0.018 0.087-0.144 0.407-0.017 0.318-0.136 0.105-0.318 0.483-0.376 0.628-0.006-0.010-0.017-0.019 0-0.042-0.246 0.219-0.032 0.384-0.31 0.563 0.086 0.095-0.272 0.431-0.238 0.639-0.036 0.017-0.063 0.015-0.076-0.009-0.268 0.435-0.637 0.862-0.914 1.183-0.159 0.35-0.632 0.619-0.767 0.933-0.217 0.158-0.571 0.384-0.834 0.645l0.019-0.035c-0.328 0.25-0.758 0.528-0.967 0.744-0.166-0.051-0.313 0.047-0.49 0.090-0.217 0.184-0.732 0.392-1.116 0.574-0.081-0.035-0.32 0.137-0.368 0.052-1.075 0.521-2.611 0.605-3.833 0.318-0.165 0.027-0.36 0.112-0.532 0.137-0.015-0.012-0.008-0.024 0.025-0.017-0.238-0.021-0.427-0.152-0.659-0.192 0.010-0.012 0.010-0.012 0.044-0.018-0.221-0.005-0.412-0.182-0.675-0.187l-0.011-0.030-0.162-0.019c0.015-0.025 0.033-0.065 0.115-0.028-1.857-0.621-3.695-1.746-4.881-3.439l0.066 0.048-0.272-0.297c0.015-0.011 0.031 0.004 0.047 0.017-0.237-0.447-0.569-0.86-0.773-1.314 0.018-0.005 0.073 0.054 0.060-0.019-0.228-0.298-0.135-0.573-0.357-0.68 0.003-0.019 0.033-0.042 0.056-0.013-0.41-0.928-0.619-1.97-0.633-2.991-0.187-0.855 0.029-1.808 0.127-2.695l0.028 0.014c0.165-1.158 0.772-2.269 1.435-3.259 0.293-0.405 0.479-0.685 0.808-1.066l0.038 0.018c0.475-0.729 1.358-1.128 2.009-1.718l-0.022 0.080c0.068-0.143 0.467-0.247 0.356-0.34l0.156-0.044c0.451-0.443 1.009-0.417 1.661-0.751l-0.037 0.042c0.174-0.089 0.393-0.163 0.541-0.175-0.021 0.009-0.009 0.019-0.051 0.038 0.616-0.038 1.254-0.292 1.904-0.335l-0.070 0.067c0.291-0.101 0.819-0.048 1.219-0.056-0.007-0.052-0.016-0.101-0.016-0.155v-0.026c-0.863-0.040-1.728 0.017-2.571 0.177-2.164 0.447-4.038 1.447-5.34 3.196-0.006-0.011-0.026-0.005 0.007-0.049-0.387 0.485-0.772 0.91-1.053 1.432l-0.013-0.009c-0.659 1.288-1.288 2.772-1.295 4.188-0.196 1.68 0.115 3.647 0.935 5.24l-0.027 0.009c0.665 1.255 1.417 2.464 2.55 3.369 1.106 1.010 2.625 1.525 4.024 1.95 0.875 0.369 2.106 0.166 2.952 0.245 1.788 0.117 3.501-0.628 4.859-1.717 1.4-0.861 2.34-2.224 3.2-3.522 0.247-0.7 0.775-1.378 0.94-2.211l-0.039 0.022c0.18-0.27-0.014-0.682 0.176-0.838l0.004 0.034c0.106-0.147-0.145-0.391-0.036-0.471l-0.034-0.030c0.009-0.192 0.046-0.018 0.076-0.161 0-0.056-0.074-0.030-0.039-0.14 0.171-0.014-0.006-0.471 0.176-0.474-0.004 0.107 0.078-0.164 0.11 0.076 0.026-0.066 0.024-0.393-0.059-0.367zM25.662 15.866l0.016-0.063c-0.012 0.005-0.014 0.040-0.016 0.063zM19.801 10.167c0.013 0.004 0.029 0.012 0.037 0.014-0.036-0.046-0.031-0.023-0.037-0.014zM19.801 10.167c-0.007-0.002-0.013-0.004-0.020-0.006 0.002 0.002 0 0.002 0 0.002 0.012 0.009 0.016 0.008 0.020 0.004zM13.199 20.543c0.013 0.011 0.033 0.018 0.062 0.011-0.031-0.011-0.048-0.011-0.062-0.011zM13.265 20.63c0.016-0.004 0.021-0.015 0.053-0.004-0.018-0.028-0.056-0.019-0.086-0.034 0.006 0.013 0.025 0.044 0.033 0.038zM12.919 20.36c-0.074-0.043-0.206-0.102-0.229-0.084l0.229 0.084zM12.255 19.816c0.017 0 0.043 0.010 0.047-0.006-0.056-0.046-0.076-0.046-0.047 0.006zM12.141 19.768c-0.004-0.008-0.015-0.015-0.017-0.023-0.005 0.006 0.004 0.014 0.017 0.023zM12.141 19.768c0.006 0.022 0.011 0.042 0.043 0.068 0.028-0.017-0.018-0.047-0.043-0.068zM11.233 18.706c-0.007 0.043 0.053 0.082 0.075 0.106 0.045-0.003-0.074-0.067-0.075-0.106zM10.893 18.283c0.016 0.013 0.018 0.022 0.028 0.038l0.017-0.029c-0.017-0.026-0.054-0.048-0.045-0.009zM14.558 9.218l0.064-0.027h-0.061zM19.511 10.109c-0.005-0.009 0-0.018-0.006-0.033 0.003 0.010-0.031 0.008 0.006 0.033zM19.479 10.053c0.023 0.007 0.023 0.013 0.026 0.021 0-0.003-0.007-0.010-0.026-0.021zM21.501 11.909l-0.050 0.024 0.012 0.022zM20.834 6.259c0.025-0.005 0.052 0.003 0.078 0.031-0.032-0.022-0.059-0.029-0.078-0.031zM20.828 6.261c0.003 0 0.005-0.002 0.006-0.002-0.001 0.002-0.004 0.002-0.006 0.002zM8.339 21.257c0.010-0.037-0.020 0.046 0.085 0.010-0.037 0.023-0.078 0.003-0.124-0.033 0 0.002 0 0 0 0.002 0.041 0.058 0.039 0.033 0.039 0.020zM7.383 19.887l0.032-0.042c-0.011-0.005-0.019 0.015-0.032 0.042zM24.312 11.113c0.041-0.058 0.055-0.085 0.069-0.114-0.028 0.030-0.052 0.067-0.069 0.114zM24.379 10.927c-0.005 0-0.009 0-0.012 0.003 0 0.001 0.007-0.003 0.012-0.003zM24.381 10.999c0.065-0.072 0.149-0.112 0.204-0.227 0.073-0.067-0.054 0.136 0.096-0.042 0.093-0.171-0.166 0.069-0.282 0.19-0.012 0.007-0.015 0.006-0.020 0.007 0.023-0.002 0.026 0.023 0.002 0.072zM6.405 17.423c0.002 0.011 0.002 0.013 0.006 0.025 0-0.003 0-0.003 0-0.007-0.002-0.005-0.004-0.011-0.006-0.017zM24.174 11.225c0.049-0.035 0.069-0.105 0.111-0.16-0.016 0.011-0.076 0.055-0.076 0.067-0.010 0.034 0.007 0.036-0.036 0.092zM24.387 9.687c0.107 0.131 0.218 0.269 0.383 0.524-0.171-0.296-0.344-0.517-0.383-0.524zM23.097 8.989c0.028-0.020 0.075-0.043 0.060-0.053-0.153 0.047-0.181 0.065-0.060 0.053zM22.795 9.111c0.059 0 0.117 0 0.224-0.033 0.025-0.055-0.213 0.056-0.224 0.033zM22.413 7.591c0.007 0.049 0.032-0.050 0.062-0.173 0.009-0.116-0.196-0.167-0.214-0.221 0.032 0.045 0.104 0.097 0.179 0.153 0.048 0.068-0.028 0.186-0.028 0.242zM21.13 6.484l-0.050-0.071c-0.099-0.056-0.221-0.102-0.11-0.022 0.072 0.035 0.1 0.054 0.16 0.093zM6.495 12.416l-0.041 0.212 0.052-0.162zM7.848 20.811c-0.011-0.026 0.051-0.011-0.052-0.13 0.108 0.15-0.028 0.015 0.052 0.13zM25.734 14.88c-0.007 0.013-0.019 0.011-0.029 0.024l0.139 0.281c0.070-0.131-0.154-0.218-0.11-0.305zM25.741 14.797c0.023-0.113-0.039-0.155-0.064-0.176 0.050 0.033 0 0.205 0.064 0.176zM25.28 16.010l0.016-0.061c-0.014 0.005-0.014 0.039-0.016 0.061zM29.419 15.56l0.023-0.042-0.069-0.103zM29.26 14.876c-0.011 0.021-0.028 0.016-0.042 0.034l0.195 0.396c0.096-0.183-0.221-0.309-0.154-0.43zM29.27 14.759c0.029-0.16-0.062-0.218-0.093-0.247 0.072 0.046 0.003 0.286 0.093 0.247zM29.171 15.56c-0.113-0.038-0.211-0.204-0.299 0.054l0.079 0.054c-0.084 0.086-0.043 0.062-0.104 0.098-0.023 0.333 0.134 0.377 0.059 0.608h-0.188c0.083 0.174-0.015 0.319-0.045 0.447l-0.087 0.123c-0.106 0.066 0.136 0.4-0.015 0.276-0.042 0.68-0.203 1.448-0.427 2.173 0.026 0.121-0.191 0.551-0.025 0.433-0.183 0.141-0.425 0.647-0.506 0.841-0.008-0.011-0.017-0.026 0-0.055-0.329 0.291-0.038 0.513-0.413 0.752 0.118 0.13-0.365 0.581-0.321 0.854-0.052 0.027-0.087 0.023-0.101-0.005-0.359 0.583-0.853 1.155-1.228 1.586-0.214 0.473-0.85 0.832-1.031 1.258-0.291 0.211-0.771 0.513-1.121 0.862l0.025-0.045c-0.438 0.339-1.018 0.716-1.296 0.999-0.228-0.069-0.426 0.066-0.661 0.126-0.297 0.241-0.987 0.522-1.503 0.767-0.107-0.049-0.433 0.181-0.495 0.069-1.445 0.698-3.51 0.81-5.156 0.424-0.217 0.040-0.48 0.151-0.71 0.188-0.019-0.013-0.015-0.033 0.031-0.025-0.314-0.029-0.577-0.202-0.884-0.252 0.008-0.022 0.008-0.022 0.061-0.027-0.298-0.009-0.554-0.248-0.911-0.252l-0.006-0.037-0.225-0.028c0.022-0.034 0.046-0.088 0.152-0.037-2.489-0.843-4.962-2.347-6.554-4.624l0.088 0.060-0.362-0.397c0.016-0.008 0.038 0.007 0.060 0.020-0.321-0.594-0.765-1.15-1.034-1.764 0.018-0.004 0.095 0.073 0.078-0.022-0.308-0.402-0.183-0.769-0.478-0.915 0.001-0.027 0.044-0.058 0.076-0.018-0.551-1.242-0.832-2.648-0.854-4.019-0.252-1.149 0.041-2.428 0.171-3.622l0.036 0.017c0.225-1.555 1.040-3.048 1.929-4.38 0.393-0.541 0.645-0.92 1.088-1.43l0.051 0.025c0.636-0.983 1.825-1.519 2.703-2.306l-0.033 0.102c0.094-0.197 0.632-0.333 0.478-0.457l0.209-0.054c0.605-0.601 1.356-0.558 2.231-1.015l-0.044 0.062c0.233-0.125 0.526-0.225 0.722-0.239-0.025 0.013-0.010 0.020-0.066 0.049 0.829-0.051 1.686-0.394 2.557-0.448l-0.090 0.089c0.389-0.135 1.097-0.064 1.637-0.073-0.008-0.070-0.021-0.138-0.021-0.212v-0.035c-1.156-0.056-2.324 0.024-3.454 0.241-2.908 0.598-5.427 1.944-7.172 4.296-0.014-0.017-0.037-0.006 0.005-0.067-0.524 0.65-1.034 1.225-1.414 1.922l-0.018-0.011c-0.884 1.735-1.732 3.727-1.74 5.629-0.262 2.26 0.154 4.901 1.257 7.042l-0.037 0.013c0.894 1.688 1.902 3.315 3.431 4.525 1.483 1.359 3.528 2.056 5.404 2.621 1.173 0.496 2.832 0.219 3.968 0.329 2.405 0.157 4.703-0.842 6.534-2.302 1.877-1.155 3.14-2.99 4.296-4.733 0.331-0.938 1.041-1.852 1.263-2.972l-0.055 0.026c0.243-0.361-0.017-0.914 0.239-1.121l0.004 0.045c0.143-0.198-0.011-0.447 0.138-0.556l-0.232-0.118c0.011-0.257 0.193 0.026 0.232-0.169 0-0.075 0.037-0.088 0.082-0.238 0.231-0.018-0.271-0.627-0.029-0.633-0.003 0.142 0.105-0.223 0.149 0.099 0.029-0.091 0.029-0.53-0.080-0.488zM28.619 16.459l0.022-0.086c-0.015 0.009-0.017 0.063-0.022 0.086zM24.923 25.002l0.041-0.206-0.1-0.068zM25.318 24.019l-0.041-0.359c-0.306 0.2-0.214-0.074-0.437 0.481 0.043 0.197 0.14 0.629 0.259 0.576-0.010-0.142-0.121-0.351-0.081-0.559 0.087 0.092 0.068 0.314 0.186 0.423 0.097-0.335-0.073-0.215-0.023-0.583l0.138 0.021zM25.022 23.592c0.051 0.032 0.102 0.068 0.144 0.064-0.053-0.035-0.111-0.211-0.144-0.064zM24.993 23.376c0.018-0.227 0.114 0.007 0.129-0.017l-0.191-0.261 0.061 0.278zM25.024 22.439l-0.017-0.108c-0.031 0.033-0.007 0.067 0.017 0.108zM25.008 21.974c-0.069 0.093-0.030 0.207 0 0.356l0.011-0.017c0.061-0.126 0.197-0.005 0.156 0.209 0.029 0.216-0.108 0.193-0.019 0.387l0.118-0.261c-0.015-0.342-0.21-0.537-0.265-0.674zM25.024 22.439c0.005 0.037 0.010 0.079 0.008 0.119 0.023-0.054 0.008-0.087-0.008-0.119zM24.998 22.911l0.027 0.115 0.062-0.028zM25.013 21.206c0.185 0.056-0.032 0.55 0.111 0.612 0-0.301 0.144-0.543 0.245-0.477l-0.051-0.335c-0.073-0.114-0.217 0.028-0.305 0.2zM25.499 20.557c-0.013-0.022-0.026-0.049-0.029-0.079 0.006 0.038 0.016 0.069 0.029 0.079zM25.205 18.853l0.177 0.787c-0.063-0.072-0.123-0.045-0.139-0.224-0.030 0.345 0.089 0.395 0.065 0.682-0.177 0.082-0.001-0.509-0.163-0.346 0 0.202 0.003 0.506 0.151 0.67l-0.125 0.319 0.194-0.106c0.056-0.131-0.148-0.262-0.011-0.343 0.082-0.039 0.096 0.090 0.113 0.184-0.034-0.208 0.16-0.564 0.142-0.986-0.014-0.442-0.316-0.344-0.405-0.638zM25.416 18.823l0.075-0.047-0.101 0.036zM25.18 17.965l0.111 0.413c-0.014 0.044-0.056 0.064-0.093 0.096 0.044-0.017 0.12 0.095 0.157 0.078 0.181-0.183-0.045-0.5-0.073-0.718 0.087-0.579 0.093 0.028 0.26-0.193-0.007 0.159-0.049 0.164-0.062 0.39 0.2-0.353 0.029-0.802-0.014-1.025-0.020 0.064-0.076 0.081-0.060 0.206l-0.054-0.238c-0.145 0.241-0.186 0.449-0.172 0.992zM25.168 18.695c-0.011-0.15 0.004-0.208 0.029-0.22-0.049 0.038-0.081 0.091-0.029 0.22zM25.463 16.878c-0.015 0.024-0.012 0.067 0.001 0.125 0.009-0.030 0.009-0.068-0.001-0.125zM25.247 17.108l0.026-0.288-0.087 0.111c0.013 0.042 0.019 0.181 0.061 0.177zM15.966 5.741l-0.315 0.028 0.203 0.042c-0.003-0.043 0.071-0.063 0.112-0.070zM13.774 6.218c0.434-0.013 0.617-0.102 1.105 0.006 0.239-0.125-0.11-0.244-0.006-0.357-0.243-0.033-0.213 0.187-0.467 0.221-0.091-0.111-0.367 0.019-0.607-0.010 0.028 0.045 0.028 0.097-0.026 0.14zM12.291 5.765c-0.195-0.004-0.396 0.078-0.552 0.022 0.022-0.069 0.141-0.091 0.259-0.072-0.072-0.158-0.216 0.021-0.428-0.088 0.017 0.018 0.095 0.045 0.034 0.080-0.529-0.046-0.302 0.125-0.99 0.021-0.097 0.041-0.195 0.041-0.186 0.145-0.386-0.14-0.192-0.137-0.658-0.258 0.016 0.060 0.17 0.202 0.163 0.334-0.662-0.193-0.682 0.015-1.105-0.131 0.051-0.006 0.107-0.038 0.224-0.020-0.055-0.183-0.358 0.027-0.591-0.011l0.024-0.157c-0.217 0.020-0.598 0.117-0.869-0.004l0.064-0.077c-0.101 0.026-0.298 0.041-0.471 0.049l-0.511 0.018c0.004 0.482-0.008 0.964 0.022 1.196l-0.098 0.259c0.106 0.673 0.063-0.664 0.282-0.17-0.281 0.071 0.088 0.348-0.031 0.729-0.116 0.176-0.052-0.392-0.182-0.191 0.14 0.085 0.039 0.204 0.075 0.409-0.133-0.049-0.028 0.424-0.176 0.295l0.239 0.72c-0.081 0.113-0.070 0.319-0.054 0.474 0.008-0.388 0.199 0.113 0.274-0.324-0.058-0.631-0.085-1.685 0.002-2.47-0.095-0.048-0.091-0.162-0.085-0.283 0.006-0.125 0.017-0.231-0.058-0.367 0.034 0.019 0.061 0.028 0.090 0.042 0.043 0.027 0.082 0.052 0.112 0.082 0.366-0.037-0.173-0.107-0.149-0.177 0.217-0.023 0.437 0.094 0.428 0.166 0.283 0.014 0.015-0.054 0.176-0.153l0.228 0.215c1.108-0.048 2.578-0.163 3.833-0.022l-0.092-0.136c0.572 0.085 0.961-0.273 1.461 0.019l0.175-0.113c-0.096 0.065 0.095 0.203-0.052 0.287 0.151-0.042 0.317 0.011 0.48-0.024l-0.287-0.071c0.204-0.106 0.42-0.034 0.489 0.065 0.428-0.125-0.251-0.231-0.343-0.346-0.606 0.234-0.601-0.248-1.181-0.155-0.354 0.071 0.040 0.124 0.014 0.192zM13.029 6.142c0.037-0.012 0.065-0.022 0.089-0.035-0.033 0.008-0.060 0.018-0.089 0.035zM6.777 9.337c-0.002 0.048-0.002 0.1 0.003 0.171 0.033 0.061 0.010-0.032-0.003-0.171zM13.8 6.078v-0.003l-0.007 0.003zM14.092 5.76l-0.158-0.007 0.027 0.059zM6.585 11.061l0.069 0.005c-0.020-0.016-0.045-0.023-0.069-0.005zM6.465 15.737l0.006-0.103c-0.011 0.036-0.011 0.068-0.006 0.103zM8.819 24.884c0.298-0.037 0.693-0.071 0.916-0.18l-0.025 0.071c0.162-0.033 0.679-0.135 0.349-0.263l-0.082 0.057c-0.38 0.095-0.271-0.12-0.567-0.169-0.355 0.029-0.562 0.285-0.875 0.216-0.14 0.007-0.118-0.065-0.076-0.114-0.315-0.027-0.444 0.172-0.661 0.194-0.033-0.224-0.213-0.235-0.441-0.197-0.128 0.017-0.208 0.045-0.32 0.065-0.113 0.022-0.238 0.033-0.321 0.017 0.013-0.087 0.040-0.178 0.092-0.261-0.038-0.147 0.013-0.583-0.079-0.973 0.122 0.207 0.016-0.364 0.158-0.277-0.296-0.114 0.154-1.107-0.22-1.184 0.112-0.524-0.025-0.021 0.074-0.625 0.041 0 0.038 0.1 0.045 0.144 0.081-0.239-0.152-0.368 0.023-0.566 0.036-0.485-0.101-0.086-0.196-0.376 0.052-0.504 0.102-0.363 0.261-0.638-0.178-0.045-0.088-0.346-0.174-0.593-0.012 0.062-0.053 0.405-0.115 0.18 0.038-0.589-0.111-0.473-0.152-1.021 0.204-0.273 0 0.543 0.163 0.067 0.083 0.346 0.074 0.612 0.213 0.799 0.016-0.466-0.001-1.034-0.077-1.545 0.030-0.283 0.088 0.147 0.111-0.072 0.096-0.508-0.187-0.781-0.094-1.183l0.101 0.084c-0.13-0.247 0.047-0.89-0.021-1.358-0.052 0.061-0.086 0.1-0.121 0.036 0.254 0.014-0.121-0.652 0.067-1.112-0.161 0.036-0.244-0.415-0.259-0.697 0.047-0.1 0.116-0.078 0.155-0.076-0.102 0.464 0.172 0.455 0.239 0.821-0.080-0.307 0.016-0.811-0.097-1.079l0.125 0.108c0.027-0.425-0.282-0.377-0.153-0.818l0.093 0.045c0.002-0.891 0.188-1.936-0.007-2.656-0.079-0.065-0.267 0.295-0.324 0.31 0.057 0.43 0.189 0.679 0.252 1.005l-0.146-0.005c0.097 0.072 0.15 0.465 0.232 0.249 0.068 0.267-0.13 0.201-0.053 0.506-0.153-0.027-0.164-0.21-0.294-0.214l0.073 0.263c-0.060-0.083-0.056 0.161-0.115 0.078 0.172 0.495-0.084 0.683-0.009 1.194l0.031-0.282c0.087 0.004 0.074 0.166 0.097 0.288-0.121 0.136-0.109 0.221-0.162 0.48 0.063 0.226 0.213 0.356 0.204 0.658-0.16-0.069-0.092 0.502-0.231 0.556 0.158 0.067 0.046 0.588 0.138 0.634 0.030 0.16 0.012 0.385-0.072 0.385-0.007-0.024-0.024-0.076-0.029-0.126l-0.007 0.164c-0.021-0.019-0.033-0.009-0.037-0.029-0.007 0.142 0.11 0.148 0.026 0.332-0.041-0.002-0.039-0.104-0.052-0.185-0.034 0.386 0.233 0.677 0.080 0.996 0.072 0.069 0.072 0.511 0.245 0.416-0.062 0.121-0.199 0.075-0.179 0.399 0.139 0.192-0.061 0.363 0.029 0.609-0.146-0.329-0.041-0.002-0.183-0.289-0.063 0.218 0.128 0.551 0.089 0.933-0.032 0.041-0.076 0.037-0.111 0.078 0.050 0.144 0.165 0.311 0.042 0.448l0.104-0.016c-0.059 0.261-0.031 0.627-0.148 0.905l0.189 0.334c-0.213 0.435-0.041 1.031 0.128 1.381-0.011 0.162-0.048 0.405-0.091 0.4l-0.067-0.175c-0.011 0.233-0.127 0.523 0.034 0.664 0.042 0.243-0.114 0.176-0.145 0.356 0.072 0.165 0.076 0.379 0.058 0.606-0.015 0.262-0.054 0.576-0.054 0.817 0.237 0.002 0.439-0.030 0.536-0.145-0.095-0.001-0.221-0.020-0.353-0.035 0.021-0.201 0.042-0.403 0.033-0.607 0.043 0.093 0.113 0.017 0.119 0.126 0.007 0.126-0.019 0.238-0.041 0.37 0.103 0.026 0.24 0.052 0.43 0.028-0.026 0.076-0.054 0.148-0.088 0.224 0.707 0.242 1.256-0.288 1.769 0.047zM6.504 22.020l-0.116 0.279 0.093-0.026c-0.012-0.086-0.012-0.178 0.023-0.253zM6.482 22.273c0.010 0.057 0.025 0.113 0.043 0.162 0.006-0.060 0-0.122-0.019-0.173l-0.024 0.010zM9.907 24.864c0.058 0.011 0.179 0.032 0.296 0.009-0.079-0.030-0.236-0.042-0.296-0.009zM10.226 24.802l-0.134-0.037-0.025 0.025zM18.208 24.739l0.443-0.131c0.075 0.073 0.571-0.004 0.41 0.114 0.263-0.157 0.829 0.010 0.619-0.229-1.283 0.060-3.052-0.112-4.548 0.076l0.238-0.091c-0.772 0.177-1.052-0.223-1.683 0.139l0.090-0.188c-0.356-0.063-0.684 0.264-1.050 0.054l0.033 0.076c-0.095 0-0.132-0.035-0.23-0.038l0.036 0.035c-0.26 0.075-0.418 0.061-0.672 0.008-0.016-0.062 0.12-0.025 0.199-0.042-0.117-0.063-0.317 0.063-0.519 0.059-0.154-0.054 0.007-0.086 0.030-0.116-0.601 0.078-0.868-0.129-1.291 0.149-0.044 0.051 0.148 0.101-0.066 0.121 0.391 0.094 0.709-0.011 1.070-0.083l-0.097-0.002c0.287-0.271 0.213 0.066 0.671-0.045-0.121 0.111-0.32 0.106-0.401 0.164 0.523 0.222 0.758-0.146 1.101 0.128l-0.037 0.010c0.076 0.027 0.22-0.024 0.337-0.045-0.037-0.037-0.157-0.054-0.237-0.082 0.123-0.029 0.187-0.148 0.23-0.197 0.13 0.125 0.18-0.055 0.393 0.009 0.073 0.113-0.183 0.101-0.263 0.159l0.259-0.073c0.237-0.005 0.232 0.127 0.349 0.189 0.202-0.081-0.117-0.061 0.048-0.18 0.252 0.144 1.336 0.123 1.856 0.024-0.179 0.014-0.068 0.123-0.282 0.097 0.075 0.028 0.359-0.027 0.361-0.113 0.357-0.072 0.811-0.009 1.141 0.076l-0.097-0.091c0.286-0.141 0.708 0.123 1.207 0.045l-0.013-0.004c0.161-0.013 0.304-0.224 0.594-0.175-0.083 0.103-0.239 0.092-0.228 0.195zM19.96 24.569l-0.166 0.12c0.177 0.029 0.402-0.125 0.363-0.202-0.12 0.026-0.276-0.032-0.295 0.038 0.017 0.016 0.015 0.062 0.098 0.045zM23.274 24.604c0.066-0.026 0.049-0.070 0.079-0.102-0.705 0.001-1.573 0.035-1.847-0.066-0.239-0.038-0.285 0.141-0.582 0.182l-0.13-0.124c-0.165 0.075-0.652-0.065-0.481 0.134 0.016 0.020 0.14-0.089 0.276-0.054l-0.025 0.070 0.321-0.018-0.102 0.085c0.431 0.128 0.307-0.256 0.836-0.167l-0.005 0.174c0.354 0.014 0.534-0.041 0.845 0.072 0 0 0.005-0.088-0.055-0.054-0.059-0.011-0.136-0.082-0.092-0.133 0.539-0.128-0.088 0.101 0.284 0.181 0.461-0.113 1.337-0.197 1.585-0.054-0.21-0.109 0.11-0.215 0.365-0.201 0.118 0.066-0.084 0.105-0.125 0.154 0.12 0.021 0.214 0.066 0.336 0.042-0.153-0.098-0.050-0.226 0.226-0.284-0.608-0.12-1.096 0.193-1.708 0.161zM23.459 24.461c-0.062 0.004-0.088 0.018-0.106 0.039h0.243l-0.137-0.039zM5.783 15.795c-0.013-0.078-0.071-0.111-0.195-0.097 0.015-0.099 0.174-0.079 0.248-0.135-0.162-0.063 0.002-0.115-0.039-0.211-0.179-0.010-0.258 0.121-0.451 0.091 0.008-0.028 0.006-0.071-0.019-0.103-0.23 0.063-0.623 0.152-0.849 0.068-0.218-0.036-0.378 0.007-0.617 0.055-0.784-0.054-1.605 0.048-2.455-0.043l-0.119 0.191c-0.039-0.096-0.202 0-0.176-0.124 0.046 0.023 0.090 0.005 0.146 0-0.182-0.168-0.482 0.018-0.697-0.047 0.024 0.037 0.061 0.202-0.006 0.232 0.016-0.211-0.258 0.003-0.321-0.242-0.216-0.059-0.008 0.189-0.232 0.153-0.023 0.127 0.217 0.059 0.258 0.157-0.071 0.101-0.207-0.044-0.194 0.089 0.36 0.061 1.034-0.198 1.588-0.269l-0.058 0.115c0.285-0.084 0.746-0.087 0.968 0.105-0.050-0.113 0.421 0.061 0.379-0.194 0.072 0.057 0.093 0.048 0.194 0.071l0.030-0.081c0.145 0.002 0.122 0.124 0.288 0.117-0.108-0.109 0.013-0.143 0.060-0.231 0.189 0.122 0.414 0.229 0.584 0.329-0.015-0.035-0.031-0.076-0.088-0.122 0.116 0.036 0.097-0.067 0.129-0.103 0.11-0.006 0.097 0.136 0.092 0.205 0.202 0.046 0.297-0.227 0.449-0.135l-0.055-0.113c0.213-0.026 0.388 0.097 0.62 0.058 0.111 0.155-0.191 0.134-0.288 0.201 0.049 0.030 0.149 0.039 0.179 0.094 0.098-0.082 0.267-0.189 0.39-0.264-0.117 0.179 0.176 0.17 0.257 0.182zM5.139 15.877c-0.029 0.019-0.055 0.041-0.071 0.058 0.026-0.008 0.046-0.022 0.079-0.013 0.003-0.019-0.003-0.034-0.008-0.045zM5.783 15.795l0.006 0.016c0.022-0.008 0.014-0.016-0.006-0.016zM4.45 15.399l0.028 0.009 0.039 0.007zM4.273 15.909c-0.044-0.036-0.104-0.076-0.175-0.12 0.018 0.052 0.034 0.093 0.175 0.12zM2.856 15.783c-0.044 0.020-0.019 0.055-0.049 0.092 0.092 0.004 0.119-0.032 0.049-0.092zM5.392 15.903l0.174-0.034 0.063-0.030zM8.969 15.314c-0.157-0.134-0.382-0.054-0.575-0.078-0.355 0.070-0.046 0.297-0.381 0.309l0.057-0.28c-0.333 0.020-0.806-0.038-1.092 0.206-0.024-0.036-0.081-0.074 0.007-0.118-0.227 0.014-0.118 0.399-0.416 0.306 0.278-0.173-0.091-0.164-0.015-0.335l0.042-0.021c-0.189 0.016-0.436 0.111-0.562 0.099-0.005 0.072 0.102 0.18-0.061 0.188 0.065 0.015 0.041 0.094 0.032 0.167 0.173-0.082 0.267-0.033 0.372-0.125 0.096 0.092-0.063 0.030 0.030 0.123l0.14-0.087c0.1 0.022-0.107 0.093 0.053 0.115 0.017-0.058 0.148-0.115 0.272-0.104l-0.037 0.033c0.097-0.037 0.23 0.011 0.185-0.145l0.114 0.15-0.023-0.101c0.262 0.040 0.36 0.291 0.697 0.159-0.080-0.031-0.007-0.086 0.036-0.107-0.138-0.072-0.171 0.082-0.307 0.093-0.018-0.103 0.208-0.229 0.045-0.293 0.179 0.122 0.333-0.018 0.412 0.244 0.214 0.017 0.295-0.109 0.513-0.048l-0.010 0.037c0.041-0.169 0.176 0.081 0.337-0.097l-0.113-0.039c0.006-0.072 0.059-0.074 0.137-0.089-0.006 0.028-0.006 0.028 0.018 0.061 0.023-0.123 0.267-0.144 0.296-0.181-0.1-0.022-0.227 0.082-0.345 0.117 0.059-0.075 0.044-0.181 0.143-0.16zM6.769 15.775l0.067-0.061c-0.025 0.010-0.053 0.028-0.067 0.061zM9.937 15.534c0.136 0.030-0.036 0.106 0.092 0.164 0.136-0.088-0.16-0.179-0.026-0.307 0.086 0.075 0.223-0.056 0.274-0.060-0.058 0.075-0.026 0.241 0 0.277 0.052-0.047 0.172 0.033 0.261 0.038-0.218-0.104 0.187-0.060-0.012-0.174 0.014-0.098 0.224-0.175 0.306-0.096-0.008 0.072-0.076 0.056-0.13 0.058-0.048 0.136 0.142 0.072 0.169 0.197 0.212-0.188 0.885-0.176 0.693-0.476-0.071-0.057-0.135 0.017-0.211 0.028 0.216 0.059 0.001 0.158-0.018 0.216-0.093-0.050-0.253 0.044-0.215-0.063l0.148-0.11c-0.474-0.060-1.122-0.037-1.667 0.008l0.236 0.006c-0.026 0.080-0.139 0.087-0.227 0.124l0.118 0.2c-0.071-0.018-0.133 0.015-0.126-0.057-0.086 0.087-0.044 0.135 0.004 0.204-0.179 0.036-0.205-0.043-0.34 0.086 0.292 0.164 0.247-0.134 0.578 0.009l0.094-0.271zM9.297 15.644l0.070-0.1-0.107 0.048zM9.408 15.207c0.003 0.041-0.039 0.058-0.037 0.105 0.137 0.029 0.121-0.032 0.037-0.105zM11.051 15.639l0.176-0.031-0.113-0.040c0.002 0.044-0.039 0.065-0.063 0.072zM12.287 15.122c-0.245 0.018-0.348 0.111-0.624 0.010-0.136 0.131 0.061 0.246 0.002 0.363 0.141 0.028 0.124-0.191 0.263-0.233 0.055 0.111 0.211-0.023 0.345 0.003-0.017-0.047-0.017-0.101 0.015-0.142zM13.127 15.55c0.113 0.003 0.224-0.084 0.312-0.030-0.013 0.069-0.080 0.094-0.144 0.078 0.041 0.16 0.121-0.025 0.243 0.081-0.012-0.018-0.053-0.044-0.018-0.078 0.298 0.034 0.167-0.13 0.554-0.039 0.059-0.047 0.113-0.047 0.105-0.153 0.219 0.136 0.11 0.136 0.375 0.251-0.010-0.060-0.095-0.205-0.095-0.334 0.377 0.186 0.387-0.028 0.623 0.112-0.027 0.008-0.056 0.043-0.122 0.023 0.030 0.185 0.201-0.032 0.334 0.005l-0.011 0.155c0.121-0.024 0.335-0.128 0.488-0.011l-0.034 0.081c0.314-0.122 0.683-0.070 0.953-0.125l0.143 0.1c0.371-0.123-0.366-0.057-0.096-0.294 0.044 0.294 0.191-0.095 0.402 0.020 0.097 0.114-0.217 0.060-0.102 0.193 0.045-0.151 0.111-0.043 0.222-0.086-0.023 0.139 0.232 0.018 0.166 0.176l0.393-0.263c0.061 0.082 0.18 0.070 0.263 0.049-0.215 0 0.059-0.212-0.181-0.276-0.35 0.068-0.928 0.115-1.362 0.040-0.051 0.194-0.281-0.002-0.349 0.158-0.010-0.064-0.043-0.116-0.052-0.176-0.282 0.037 0.066 0.105-0.002 0.176-0.126 0.024-0.224-0.090-0.211-0.162-0.2-0.008-0.023 0.053-0.123 0.161l-0.131-0.217c-0.628 0.066-1.456 0.212-2.17 0.089l0.055 0.135c-0.321-0.076-0.541 0.295-0.825 0.009l-0.096 0.114c0.052-0.063-0.058-0.199 0.027-0.292-0.088 0.046-0.181-0.002-0.274 0.036l0.163 0.063c-0.111 0.115-0.236 0.043-0.275-0.054-0.239 0.138 0.145 0.23 0.197 0.343 0.338-0.247 0.341 0.243 0.667 0.137 0.201-0.078-0.020-0.125-0.010-0.195zM12.708 15.185c-0.020 0.011-0.037 0.023-0.049 0.036 0.017-0.007 0.032-0.019 0.049-0.036zM18.080 15.461c0.024 0.001 0.054 0 0.093-0.009 0.035-0.031-0.017-0.009-0.093 0.009zM12.273 15.263v0.002l0.002-0.002zM12.111 15.592h0.089l-0.015-0.057zM19.030 15.628l0.002-0.068c-0.007 0.020-0.011 0.043-0.002 0.068zM21.609 15.67l-0.056-0.002c0.017 0.011 0.037 0.010 0.056 0.002zM27.795 15.525c0.167-0.041 0.393-0.085 0.517-0.201l-0.014 0.074c0.088-0.036 0.38-0.149 0.191-0.273l-0.041 0.060c-0.214 0.108-0.158-0.117-0.325-0.16-0.198 0.033-0.315 0.295-0.491 0.233-0.081 0.008-0.070-0.063-0.044-0.117-0.181-0.016-0.25 0.183-0.374 0.21-0.050-0.53-0.547 0.148-0.811-0.192-0.168 0.042-0.395-0.007-0.604 0.101 0.113-0.13-0.202-0.011-0.154-0.159-0.061 0.307-0.614-0.14-0.651 0.251-0.292-0.109-0.013 0.027-0.349-0.064 0.003-0.046 0.057-0.046 0.082-0.054-0.133-0.082-0.205 0.169-0.314-0.010-0.265-0.030-0.044 0.1-0.202 0.208-0.279-0.046-0.199-0.097-0.354-0.259-0.022 0.186-0.191 0.096-0.327 0.192 0.032 0.011 0.223 0.046 0.101 0.118-0.323-0.032-0.26 0.123-0.563 0.168-0.151-0.201 0.303-0.006 0.037-0.164 0.193-0.095 0.337-0.085 0.439-0.236-0.256-0.011-0.57 0.018-0.849 0.108-0.157-0.029 0.078-0.097-0.047-0.117-0.275-0.090-0.423 0.21-0.646 0.119l0.047-0.104c-0.135 0.141-0.491-0.030-0.75 0.044 0.033 0.055 0.053 0.094 0.024 0.127 0.001-0.27-0.361 0.138-0.616-0.050 0.018 0.165-0.229 0.261-0.384 0.279-0.056-0.047-0.046-0.115-0.046-0.16 0.26 0.098 0.253-0.183 0.454-0.262-0.169 0.086-0.449-0.003-0.593 0.121l0.055-0.131c-0.234-0.022-0.206 0.298-0.447 0.172l0.024-0.099c-0.493 0.015-1.070-0.158-1.467 0.058-0.033 0.081 0.167 0.265 0.177 0.329 0.232-0.067 0.369-0.208 0.55-0.277l-0.005 0.153c0.042-0.106 0.259-0.164 0.141-0.249 0.144-0.078 0.108 0.135 0.28 0.049-0.018 0.157-0.118 0.176-0.118 0.306l0.144-0.078c-0.045 0.059 0.089 0.053 0.042 0.116 0.272-0.193 0.381 0.075 0.658-0.012l-0.156-0.027c0.002-0.087 0.089-0.081 0.158-0.104 0.077 0.122 0.123 0.106 0.266 0.158 0.121-0.067 0.194-0.225 0.36-0.225-0.033 0.168 0.279 0.091 0.31 0.23 0.037-0.164 0.325-0.056 0.352-0.155 0.086-0.034 0.207-0.016 0.205 0.072-0.011 0.006-0.037 0.024-0.066 0.029l0.091 0.008c-0.012 0.019-0.007 0.032-0.016 0.036 0.078 0.005 0.078-0.118 0.184-0.036-0.002 0.046-0.057 0.046-0.106 0.062 0.215 0.030 0.374-0.253 0.551-0.102 0.034-0.077 0.281-0.085 0.228-0.262 0.066 0.059 0.040 0.202 0.218 0.176 0.104-0.15 0.2 0.055 0.338-0.041-0.184 0.158-0.003 0.046-0.161 0.194 0.123 0.065 0.303-0.139 0.516-0.111 0.023 0.037 0.020 0.079 0.044 0.116 0.078-0.053 0.17-0.176 0.246-0.051l-0.011-0.109c0.145 0.057 0.349 0.025 0.5 0.139l0.183-0.203c0.248 0.214 0.57 0.023 0.762-0.162 0.087 0.011 0.223 0.047 0.221 0.090l-0.097 0.075c0.134 0.009 0.293 0.123 0.367-0.047 0.134-0.049 0.099 0.118 0.198 0.145 0.274-0.238 0.803 0.174 0.884-0.186-0.112 0-0.321-0.078-0.535-0.060 0.056-0.045 0.011-0.115 0.093-0.123 0.212-0.016 0.319 0.121 0.532 0.060l-0.023 0.226c0.365 0.237 0.698-0.309 0.983 0.020zM25.071 15.52l0.157 0.114-0.018-0.097c-0.047 0.016-0.094 0.016-0.139-0.018zM25.21 15.537c0.032-0.008 0.063-0.026 0.087-0.046-0.030-0.004-0.062 0.001-0.092 0.021l0.005 0.026zM28.409 15.487c0.035 0.008 0.104 0.025 0.168 0-0.044-0.026-0.133-0.036-0.168 0zM28.591 15.419l-0.077-0.037-0.014 0.026zM31.362 15.098l0.135-0.097c-0.437 0.189-0.602-0.213-0.951 0.167l0.047-0.194c-0.201-0.054-0.384 0.28-0.592 0.073l0.021 0.082c-0.054 0-0.078-0.034-0.133-0.034l0.024 0.034c-0.148 0.079-0.239 0.068-0.383 0.015-0.012-0.063 0.071-0.026 0.114-0.044-0.068-0.065-0.181 0.069-0.293 0.069-0.086-0.054 0.002-0.091 0.015-0.116-0.337 0.083-0.491-0.118-0.727 0.171-0.023 0.052 0.087 0.095-0.037 0.121 0.222 0.091 0.402-0.025 0.604-0.1h-0.056c0.161-0.285 0.123 0.064 0.38-0.058-0.068 0.113-0.18 0.111-0.224 0.172 0.296 0.218 0.423-0.16 0.621 0.115l-0.021 0.008c0.045 0.025 0.123-0.028 0.19-0.053-0.021-0.033-0.088-0.052-0.132-0.081 0.067-0.028 0.102-0.149 0.126-0.202 0.077 0.122 0.1-0.061 0.221 0.004 0.045 0.114-0.102 0.103-0.144 0.166l0.142-0.079c0.137-0.010 0.135 0.124 0.2 0.186 0.114-0.086-0.065-0.061 0.025-0.184 0.146 0.142 0.758 0.101 1.049-0.008-0.099 0.014-0.033 0.123-0.155 0.102 0.040 0.026 0.199-0.033 0.199-0.121zM16.528 31.468c-0.017 0.036-0.072 0.047-0.056 0.116l-0.058-0.13zM16.525 31.403c-0.013 0.013-0.007 0.036 0.003 0.067 0.012-0.015 0.012-0.038-0.003-0.067zM16.309 31.531l0.015-0.159-0.081 0.060c0.008 0.023 0.023 0.101 0.066 0.099zM16.586 25.495c-0.073 0.017-0.11 0.073-0.097 0.193-0.098-0.016-0.076-0.172-0.134-0.247-0.062 0.16-0.116 0-0.209 0.038-0.011 0.182 0.119 0.262 0.090 0.453-0.025-0.010-0.074-0.004-0.102 0.020 0.059 0.232 0.152 0.625 0.067 0.848-0.039 0.218 0.009 0.378 0.051 0.615-0.047 0.789 0.054 1.609-0.041 2.455l0.194 0.122c-0.097 0.038 0 0.198-0.125 0.175 0.023-0.045 0.005-0.088 0.003-0.148-0.171 0.183 0.013 0.479-0.048 0.702 0.034-0.027 0.197-0.063 0.229 0.003-0.213-0.019 0.007 0.258-0.241 0.32-0.060 0.218 0.188 0.008 0.152 0.233 0.127 0.025 0.063-0.217 0.157-0.256 0.102 0.069-0.042 0.203 0.091 0.192 0.063-0.364-0.202-1.034-0.271-1.59l0.119 0.059c-0.087-0.284-0.090-0.745 0.105-0.97-0.113 0.053 0.059-0.417-0.199-0.376 0.057-0.069 0.051-0.092 0.075-0.192l-0.083-0.027c0.003-0.145 0.127-0.121 0.119-0.291-0.111 0.108-0.141-0.012-0.233-0.060 0.12-0.192 0.229-0.414 0.33-0.585-0.034 0.015-0.076 0.029-0.123 0.088 0.039-0.114-0.068-0.097-0.104-0.127-0.003-0.109 0.138-0.097 0.209-0.090 0.042-0.207-0.227-0.299-0.139-0.452l-0.112 0.057c-0.028-0.214 0.098-0.392 0.058-0.624 0.154-0.108 0.134 0.193 0.202 0.288 0.032-0.045 0.041-0.146 0.092-0.178-0.083-0.1-0.188-0.268-0.264-0.39 0.18 0.114 0.17-0.178 0.181-0.259zM16.669 26.144c0.022 0.025 0.044 0.052 0.059 0.065-0.008-0.024-0.018-0.044-0.012-0.077-0.023-0.003-0.033 0-0.047 0.012zM16.586 25.495l0.020-0.006c-0.013-0.021-0.015-0.015-0.020 0.006zM16.191 26.828l0.010-0.029 0.005-0.037zM16.703 27.006c-0.036 0.046-0.078 0.106-0.121 0.174 0.052-0.019 0.092-0.035 0.121-0.174zM16.578 28.422c0.016 0.045 0.053 0.020 0.091 0.049 0.002-0.090-0.033-0.118-0.091-0.049zM16.694 25.886l-0.035-0.175-0.030-0.066zM16.107 22.309c-0.134 0.156-0.053 0.382-0.078 0.574 0.068 0.355 0.294 0.045 0.313 0.38l-0.282-0.058c0.020 0.334-0.040 0.808 0.206 1.095-0.034 0.022-0.075 0.080-0.117-0.004 0.011 0.224 0.395 0.115 0.303 0.416-0.171-0.281-0.165 0.090-0.335 0.012l-0.022-0.042c0.018 0.186 0.112 0.438 0.1 0.562 0.071 0.006 0.179-0.101 0.189 0.062 0.014-0.067 0.095-0.041 0.168-0.033-0.081-0.175-0.032-0.266-0.124-0.372 0.090-0.096 0.030 0.063 0.121-0.031l-0.088-0.14c0.023-0.101 0.095 0.106 0.114-0.054-0.054-0.018-0.114-0.148-0.102-0.27l0.033 0.034c-0.036-0.094 0.011-0.228-0.145-0.182l0.153-0.114-0.103 0.020c0.040-0.263 0.291-0.36 0.161-0.693-0.032 0.079-0.087 0.004-0.11-0.039-0.073 0.14 0.082 0.173 0.095 0.307-0.106 0.017-0.232-0.206-0.296-0.047 0.128-0.176-0.015-0.331 0.244-0.41 0.019-0.214-0.108-0.294-0.047-0.506l0.039 0.005c-0.175-0.044 0.079-0.179-0.1-0.34l-0.038 0.115c-0.072-0.006-0.073-0.063-0.087-0.136 0.028 0.008 0.028 0.008 0.057-0.018-0.121-0.022-0.141-0.268-0.18-0.298-0.021 0.101 0.082 0.229 0.114 0.348-0.070-0.061-0.177-0.043-0.156-0.145zM16.564 24.508l-0.058-0.067c0.010 0.027 0.028 0.054 0.058 0.067zM16.325 21.341c0.029-0.137 0.109 0.038 0.165-0.091-0.085-0.137-0.18 0.16-0.308 0.022 0.076-0.082-0.055-0.218-0.057-0.273 0.075 0.060 0.241 0.026 0.278 0.003-0.050-0.053 0.031-0.171 0.039-0.261-0.104 0.22-0.065-0.185-0.175 0.013-0.098-0.015-0.174-0.225-0.097-0.306 0.070 0.005 0.055 0.075 0.060 0.13 0.134 0.045 0.074-0.141 0.194-0.174-0.188-0.206-0.175-0.88-0.475-0.687-0.057 0.072 0.015 0.131 0.028 0.211 0.060-0.221 0.159-0.002 0.214 0.017-0.052 0.094 0.045 0.254-0.060 0.217l-0.114-0.15c-0.058 0.474-0.038 1.122 0.008 1.668l0.004-0.236c0.080 0.028 0.088 0.139 0.124 0.225l0.199-0.116c-0.012 0.067 0.017 0.134-0.051 0.128 0.082 0.085 0.132 0.044 0.199-0.005 0.039 0.176-0.041 0.205 0.090 0.341 0.162-0.294-0.134-0.248 0.003-0.585l-0.269-0.091zM16.438 21.983l-0.1-0.074 0.046 0.11zM15.997 21.87c0.046-0.005 0.063 0.039 0.111 0.034 0.028-0.134-0.032-0.12-0.111-0.034zM16.433 20.227l-0.036-0.179-0.035 0.116c0.044-0.004 0.061 0.037 0.071 0.063zM15.915 18.992c0.020 0.243 0.114 0.349 0.013 0.625 0.13 0.135 0.244-0.065 0.36-0.005 0.029-0.136-0.192-0.122-0.233-0.261 0.113-0.055-0.025-0.208 0.004-0.345-0.049 0.017-0.102 0.017-0.144-0.013zM16.345 18.15c0.002-0.112-0.088-0.225-0.035-0.313 0.072 0.014 0.098 0.080 0.078 0.145 0.161-0.040-0.025-0.122 0.084-0.241-0.016 0.011-0.044 0.052-0.081 0.018 0.039-0.299-0.13-0.168-0.039-0.559-0.044-0.054-0.044-0.111-0.149-0.102 0.134-0.22 0.134-0.109 0.253-0.375-0.065 0.009-0.208 0.095-0.339 0.094 0.186-0.374-0.026-0.384 0.114-0.626 0.006 0.031 0.039 0.061 0.021 0.128 0.186-0.034-0.033-0.204 0.006-0.338l0.157 0.014c-0.027-0.123-0.127-0.336-0.013-0.492l0.080 0.038c-0.121-0.316-0.065-0.684-0.125-0.951l0.099-0.146c-0.124-0.369-0.052 0.366-0.294 0.097 0.294-0.042-0.096-0.19 0.020-0.401 0.118-0.099 0.063 0.213 0.194 0.104-0.15-0.048-0.047-0.112-0.086-0.225 0.14 0.023 0.018-0.236 0.179-0.165l-0.263-0.396c0.080-0.063 0.069-0.178 0.047-0.262-0.002 0.213-0.209-0.060-0.274 0.18 0.066 0.346 0.116 0.928 0.041 1.363 0.194 0.046-0.003 0.28 0.157 0.348-0.065 0.010-0.117 0.044-0.178 0.053 0.042 0.282 0.109-0.064 0.178 0.001 0.025 0.123-0.090 0.226-0.163 0.212-0.011 0.201 0.055 0.023 0.16 0.122l-0.214 0.132c0.066 0.627 0.209 1.455 0.086 2.169l0.138-0.054c-0.075 0.323 0.295 0.538 0.011 0.825l0.114 0.096c-0.066-0.051-0.2 0.058-0.293-0.026 0.045 0.087-0.004 0.178 0.035 0.27l0.063-0.16c0.115 0.117 0.044 0.238-0.053 0.274 0.136 0.243 0.229-0.142 0.345-0.197-0.25-0.338 0.24-0.338 0.136-0.664-0.078-0.202-0.126 0.022-0.195 0.009zM15.98 18.569c0.010 0.021 0.022 0.038 0.034 0.052-0.007-0.017-0.019-0.034-0.034-0.052zM16.253 13.197c0-0.024-0.002-0.055-0.008-0.094-0.033-0.032-0.010 0.020 0.008 0.094zM16.058 19.007l0.002-0.003-0.002-0.003zM16.382 19.166l0.006-0.090-0.064 0.016zM16.419 12.248h-0.067c0.021 0.007 0.045 0.011 0.067 0zM16.464 9.67l-0.004 0.054c0.012-0.016 0.011-0.040 0.004-0.054zM16.316 3.483c-0.039-0.168-0.082-0.392-0.195-0.517l0.071 0.013c-0.037-0.090-0.147-0.38-0.271-0.194l0.060 0.047c0.106 0.214-0.116 0.154-0.165 0.321 0.038 0.201 0.297 0.317 0.235 0.495 0.009 0.076-0.061 0.067-0.113 0.043-0.019 0.176 0.183 0.25 0.209 0.371-0.534 0.051 0.147 0.547-0.196 0.813 0.045 0.168-0.001 0.391 0.103 0.605-0.129-0.113-0.010 0.198-0.162 0.154 0.309 0.060-0.138 0.612 0.254 0.648-0.108 0.291 0.026 0.014-0.066 0.346-0.042 0-0.042-0.054-0.051-0.080-0.082 0.134 0.165 0.205-0.013 0.314-0.029 0.265 0.105 0.044 0.209 0.203-0.043 0.28-0.098 0.202-0.259 0.354 0.186 0.026 0.098 0.192 0.194 0.327 0.008-0.034 0.044-0.227 0.115-0.1-0.030 0.325 0.123 0.259 0.169 0.562-0.2 0.154-0.002-0.299-0.163-0.036-0.098-0.192-0.087-0.338-0.236-0.439-0.012 0.258 0.023 0.57 0.108 0.848-0.029 0.158-0.098-0.076-0.116 0.045-0.092 0.275 0.209 0.427 0.118 0.65l-0.106-0.047c0.142 0.137-0.029 0.491 0.047 0.749 0.054-0.033 0.090-0.054 0.124-0.020-0.266-0.003 0.139 0.359-0.050 0.613 0.168-0.022 0.263 0.227 0.281 0.384-0.046 0.053-0.12 0.042-0.16 0.042 0.097-0.257-0.184-0.248-0.262-0.451 0.085 0.169-0.006 0.446 0.12 0.597l-0.133-0.060c-0.019 0.234 0.298 0.205 0.174 0.45l-0.099-0.026c0.016 0.494-0.157 1.071 0.058 1.463 0.082 0.038 0.267-0.161 0.329-0.171-0.068-0.237-0.209-0.374-0.28-0.553l0.153 0.003c-0.103-0.041-0.166-0.257-0.248-0.138-0.077-0.147 0.134-0.11 0.049-0.277 0.156 0.015 0.171 0.115 0.308 0.115l-0.081-0.147c0.061 0.047 0.052-0.086 0.116-0.041-0.191-0.27 0.074-0.379-0.012-0.658l-0.026 0.156c-0.090 0-0.083-0.090-0.106-0.157 0.123-0.077 0.109-0.123 0.161-0.266-0.071-0.123-0.227-0.193-0.227-0.359 0.167 0.035 0.089-0.279 0.231-0.312-0.166-0.036-0.058-0.323-0.155-0.345-0.038-0.091-0.018-0.214 0.071-0.214 0.005 0.015 0.024 0.037 0.030 0.070l0.007-0.093c0.019 0.009 0.032 0.008 0.035 0.017 0.007-0.080-0.117-0.080-0.034-0.183 0.045 0 0.045 0.057 0.059 0.1 0.031-0.21-0.25-0.368-0.101-0.546-0.077-0.034-0.084-0.283-0.261-0.227 0.064-0.068 0.202-0.042 0.179-0.22-0.15-0.101 0.056-0.199-0.041-0.335 0.155 0.181 0.044 0 0.193 0.157 0.062-0.121-0.14-0.303-0.111-0.514 0.034-0.022 0.080-0.022 0.113-0.044-0.051-0.079-0.176-0.172-0.051-0.246l-0.103 0.004c0.056-0.143 0.020-0.345 0.136-0.5l-0.2-0.181c0.213-0.241 0.021-0.57-0.162-0.761 0.011-0.089 0.042-0.222 0.088-0.22l0.075 0.094c0.009-0.13 0.122-0.289-0.046-0.364-0.052-0.135 0.115-0.098 0.141-0.199-0.233-0.273 0.178-0.801-0.184-0.884-0.001 0.11-0.074 0.322-0.057 0.537-0.046-0.058-0.115-0.014-0.124-0.094-0.018-0.212 0.12-0.319 0.057-0.533l0.232 0.025c0.233-0.365-0.314-0.698 0.014-0.982zM16.31 6.207l0.118-0.156-0.101 0.018c0.020 0.046 0.020 0.094-0.017 0.138zM16.327 6.070c-0.006-0.033-0.024-0.062-0.043-0.093-0.002 0.034 0.003 0.070 0.022 0.097l0.021-0.004zM16.28 2.869c0.006-0.033 0.027-0.1 0.002-0.17-0.030 0.046-0.038 0.134-0.002 0.17zM16.209 2.689l-0.037 0.079 0.030 0.011zM15.891-0.082l-0.098-0.135c0.191 0.435-0.207 0.598 0.169 0.951l-0.194-0.049c-0.054 0.201 0.277 0.383 0.075 0.592l0.078-0.021c0 0.055-0.034 0.077-0.034 0.133l0.034-0.020c0.081 0.146 0.070 0.233 0.017 0.378-0.063 0.010-0.026-0.068-0.043-0.111-0.064 0.065 0.070 0.179 0.068 0.29-0.055 0.088-0.088 0-0.118-0.013 0.090 0.337-0.116 0.49 0.174 0.727 0.053 0.024 0.096-0.086 0.122 0.038 0.092-0.224-0.022-0.403-0.102-0.605v0.054c-0.279-0.158 0.066-0.12-0.056-0.381 0.114 0.071 0.113 0.183 0.175 0.227 0.214-0.298-0.165-0.424 0.111-0.621l0.009 0.020c0.029-0.043-0.027-0.122-0.052-0.188-0.035 0.017-0.055 0.085-0.081 0.131-0.026-0.066-0.148-0.103-0.201-0.123 0.123-0.076-0.059-0.104 0-0.225 0.117-0.043 0.104 0.102 0.166 0.149l-0.078-0.149c-0.005-0.134 0.125-0.131 0.19-0.196-0.087-0.117-0.064 0.064-0.187-0.025 0.144-0.144 0.104-0.756-0.008-1.049 0.016 0.098 0.122 0.035 0.106 0.157 0.024-0.045-0.037-0.2-0.125-0.2zM27.281 26.779c0.012 0.038-0.024 0.084 0.038 0.122l-0.133-0.051zM27.232 26.735c0 0.017 0.021 0.029 0.052 0.044-0.009-0.017-0.018-0.030-0.052-0.044zM27.161 26.975l-0.092-0.125-0.019 0.102c0.021 0.007 0.080 0.056 0.111 0.023zM23.232 22.385c-0.041 0.060-0.026 0.128 0.065 0.207-0.082 0.057-0.176-0.069-0.269-0.089 0.064 0.162-0.082 0.080-0.126 0.173 0.116 0.139 0.265 0.108 0.377 0.267-0.025 0.011-0.054 0.044-0.061 0.085 0.2 0.127 0.538 0.352 0.63 0.575 0.121 0.181 0.265 0.266 0.464 0.412 0.499 0.607 1.133 1.137 1.649 1.817l0.218-0.044c-0.041 0.093 0.137 0.144 0.032 0.213-0.015-0.049-0.060-0.070-0.098-0.106 0 0.247 0.338 0.341 0.441 0.538 0.008-0.041 0.107-0.18 0.172-0.153-0.17 0.135 0.179 0.187 0.043 0.4 0.103 0.201 0.143-0.123 0.268 0.067 0.111-0.070-0.101-0.204-0.059-0.297 0.122-0.018 0.108 0.181 0.198 0.081-0.202-0.306-0.854-0.618-1.282-0.972l0.124-0.039c-0.258-0.152-0.573-0.485-0.588-0.78-0.047 0.114-0.243-0.344-0.402-0.143-0.004-0.088-0.026-0.098-0.080-0.189l-0.080 0.034c-0.098-0.105 0.013-0.173-0.111-0.287-0.006 0.153-0.111 0.086-0.211 0.112-0.041-0.221-0.116-0.457-0.16-0.652-0.018 0.035-0.035 0.074-0.030 0.148-0.050-0.112-0.114-0.020-0.158-0.018-0.084-0.080 0.028-0.166 0.084-0.214-0.11-0.18-0.368-0.055-0.408-0.232l-0.044 0.117c-0.164-0.134-0.193-0.349-0.379-0.492 0.037-0.187 0.226 0.049 0.341 0.074-0.012-0.059-0.071-0.138-0.054-0.195-0.128-0.019-0.32-0.065-0.457-0.106 0.212-0.035 0.001-0.246-0.048-0.31zM23.736 22.8c0.037 0.006 0.067 0.008 0.088 0.007-0.022-0.007-0.045-0.017-0.060-0.049-0.015 0.013-0.026 0.027-0.028 0.042zM23.232 22.385l0.013-0.016c-0.022-0.009-0.020-0.002-0.013 0.016zM23.859 23.629l-0.012-0.026-0.025-0.034zM24.354 23.403c0.003 0.064 0.013 0.134 0.031 0.213 0.024-0.050 0.044-0.087-0.031-0.213zM25.23 24.525c0.044 0.019 0.052-0.023 0.101-0.025-0.059-0.072-0.106-0.067-0.101 0.025zM23.581 22.596l-0.144-0.106-0.068-0.025zM20.705 20.392c0.010 0.205 0.226 0.314 0.338 0.472 0.29 0.209 0.243-0.169 0.487 0.063l-0.244 0.149c0.239 0.233 0.525 0.617 0.896 0.656-0.009 0.044 0.003 0.113-0.089 0.078 0.161 0.155 0.371-0.188 0.505 0.094-0.316-0.085-0.059 0.178-0.235 0.24l-0.043-0.018c0.144 0.126 0.38 0.244 0.455 0.343 0.056-0.042 0.062-0.201 0.184-0.083-0.037-0.059 0.042-0.095 0.093-0.139-0.169-0.071-0.202-0.172-0.343-0.186 0.003-0.134 0.066 0.025 0.070-0.106l-0.159-0.040c-0.052-0.092 0.143 0.011 0.046-0.118-0.052 0.023-0.184-0.030-0.258-0.129l0.049 0.004c-0.094-0.046-0.15-0.175-0.234-0.035l0.039-0.188-0.068 0.088c-0.146-0.217-0.030-0.464-0.357-0.616 0.034 0.079-0.059 0.063-0.103 0.046 0.045 0.152 0.176 0.071 0.278 0.157-0.062 0.091-0.309 0.008-0.244 0.17-0.032-0.216-0.237-0.236-0.1-0.468-0.132-0.166-0.284-0.137-0.387-0.338l0.031-0.021c-0.153 0.087-0.061-0.183-0.301-0.178l0.049 0.111c-0.053 0.046-0.095 0.004-0.158-0.044 0.026-0.011 0.026-0.011 0.036-0.055-0.107 0.070-0.291-0.096-0.339-0.091 0.054 0.088 0.216 0.113 0.324 0.178-0.101 0.004-0.165 0.092-0.218 0.004zM22.548 21.681l-0.092-0.010c0.023 0.013 0.055 0.021 0.092 0.010zM20.206 19.534c-0.076-0.119 0.101-0.045 0.052-0.18-0.157-0.043-0.016 0.237-0.206 0.229 0-0.113-0.191-0.125-0.231-0.16 0.096-0.008 0.192-0.148 0.201-0.189-0.070-0.006-0.091-0.149-0.146-0.219 0.073 0.232-0.176-0.090-0.121 0.133-0.083 0.055-0.276-0.047-0.279-0.159 0.055-0.041 0.091 0.013 0.133 0.054 0.125-0.059-0.044-0.151 0.023-0.258-0.28-0.024-0.73-0.523-0.82-0.179 0.008 0.094 0.102 0.087 0.165 0.135-0.107-0.202 0.114-0.111 0.167-0.134 0.029 0.101 0.206 0.154 0.105 0.2l-0.184-0.031c0.28 0.383 0.738 0.844 1.143 1.207l-0.156-0.175c0.080-0.037 0.16 0.043 0.247 0.078l0.069-0.22c0.031 0.063 0.099 0.087 0.046 0.131 0.118 0.002 0.125-0.059 0.143-0.143 0.144 0.104 0.113 0.178 0.296 0.188-0.080-0.323-0.266-0.086-0.393-0.427l-0.254 0.119zM20.72 19.924l-0.122 0.019 0.113 0.046zM20.323 20.143c0.032-0.032 0.074-0.014 0.104-0.049-0.071-0.116-0.106-0.063-0.104 0.049zM19.516 18.646l-0.145-0.103 0.052 0.11c0.028-0.032 0.072-0.015 0.093-0.006zM18.294 18.106c0.18 0.161 0.322 0.172 0.435 0.444 0.189 0.007 0.137-0.212 0.262-0.252-0.071-0.122-0.223 0.043-0.35-0.032 0.046-0.113-0.162-0.134-0.233-0.249-0.021 0.042-0.063 0.080-0.114 0.088zM18.033 17.194c-0.077-0.081-0.22-0.105-0.238-0.204 0.059-0.041 0.121-0.010 0.157 0.053 0.086-0.14-0.103-0.073-0.109-0.235-0.007 0.018 0.004 0.073-0.044 0.071-0.177-0.247-0.21-0.036-0.41-0.379-0.071-0.014-0.108-0.054-0.18 0.025-0.055-0.255 0.021-0.171-0.073-0.444-0.041 0.049-0.084 0.211-0.182 0.298-0.122-0.403-0.284-0.259-0.345-0.534 0.025 0.017 0.071 0.018 0.099 0.076 0.117-0.15-0.16-0.124-0.225-0.247l0.124-0.097c-0.104-0.073-0.323-0.157-0.346-0.349l0.085-0.027c-0.307-0.149-0.517-0.452-0.742-0.609l-0.030-0.173c-0.338-0.185 0.213 0.307-0.144 0.27 0.183-0.23-0.199-0.072-0.26-0.306 0.014-0.15 0.192 0.115 0.209-0.059-0.139 0.071-0.107-0.052-0.213-0.102 0.119-0.078-0.151-0.185 0.016-0.243l-0.463-0.108c0.014-0.101-0.073-0.177-0.143-0.225 0.141 0.158-0.196 0.104-0.080 0.32 0.29 0.208 0.722 0.599 0.963 0.966 0.173-0.098 0.191 0.204 0.351 0.15-0.039 0.049-0.054 0.108-0.091 0.158 0.221 0.173 0.030-0.122 0.13-0.119 0.099 0.071 0.085 0.222 0.026 0.263 0.128 0.151 0.052-0.022 0.201-0.021l-0.067 0.245c0.476 0.411 1.147 0.917 1.549 1.518l0.061-0.13c0.166 0.288 0.584 0.191 0.57 0.596l0.151-0.008c-0.084 0.007-0.106 0.178-0.23 0.18 0.091 0.033 0.121 0.135 0.212 0.174l-0.066-0.161c0.161 0.005 0.195 0.143 0.15 0.238 0.265 0.084 0.071-0.262 0.118-0.38-0.415-0.078-0.060-0.414-0.36-0.579-0.194-0.095-0.072 0.1-0.132 0.138zM18.052 17.752c0.021 0.008 0.042 0.013 0.059 0.013-0.017-0.008-0.038-0.013-0.059-0.013zM14.577 13.646c-0.016-0.018-0.041-0.039-0.070-0.061-0.047-0.003 0.006 0.019 0.070 0.061zM18.408 18.018v0l-0.003-0.004zM18.757 17.912l-0.059-0.072-0.036 0.055zM14.047 12.838l-0.052 0.047c0.023-0.008 0.042-0.023 0.052-0.047zM12.313 10.93l0.038 0.043c-0.001-0.019-0.022-0.034-0.038-0.043zM7.974 6.518c-0.147-0.092-0.331-0.227-0.499-0.238l0.059-0.042c-0.088-0.042-0.368-0.175-0.33 0.045l0.075-0.005c0.223 0.084 0.024 0.19 0.104 0.342 0.159 0.122 0.434 0.029 0.511 0.201 0.057 0.046-0.004 0.090-0.059 0.11 0.109 0.14 0.306 0.054 0.408 0.124-0.355 0.398 0.482 0.303 0.414 0.728 0.149 0.092 0.267 0.284 0.487 0.37-0.173 0.009 0.133 0.155-0.010 0.224 0.266-0.166 0.317 0.541 0.628 0.3 0.119 0.285 0.025-0.011 0.191 0.299-0.036 0.027-0.072-0.013-0.092-0.023 0.030 0.153 0.258 0.033 0.205 0.236 0.16 0.215 0.107-0.041 0.291 0.003 0.158 0.237 0.065 0.212 0.054 0.438 0.152-0.111 0.202 0.071 0.364 0.104-0.015-0.030-0.12-0.192 0.018-0.152 0.201 0.258 0.265 0.106 0.507 0.292-0.041 0.252-0.211-0.215-0.146 0.088-0.2-0.074-0.293-0.187-0.473-0.159 0.169 0.197 0.408 0.404 0.663 0.546 0.085 0.132-0.124 0.008-0.056 0.11 0.125 0.264 0.443 0.168 0.532 0.396l-0.111 0.038c0.193 0.002 0.315 0.379 0.547 0.511 0.016-0.057 0.028-0.102 0.078-0.1-0.196 0.181 0.344 0.168 0.383 0.485 0.109-0.133 0.345-0.017 0.465 0.085 0.006 0.072-0.053 0.111-0.086 0.142-0.105-0.258-0.305-0.055-0.499-0.15 0.178 0.065 0.305 0.329 0.493 0.351l-0.134 0.051c0.146 0.182 0.357-0.057 0.433 0.208l-0.089 0.049c0.345 0.35 0.616 0.889 1.042 1.028 0.084-0.033 0.085-0.304 0.121-0.355-0.211-0.125-0.403-0.126-0.58-0.209l0.114-0.104c-0.104 0.043-0.297-0.075-0.272 0.071-0.158-0.052 0.020-0.172-0.158-0.236 0.125-0.099 0.206-0.038 0.304-0.127l-0.158-0.053c0.076-0.011-0.021-0.102 0.054-0.109-0.327-0.068-0.204-0.327-0.46-0.471l0.088 0.131c-0.063 0.060-0.121-0.011-0.183-0.046 0.037-0.138-0.007-0.158-0.065-0.303-0.135-0.041-0.298 0.018-0.413-0.105 0.147-0.089-0.125-0.267-0.041-0.387-0.147 0.088-0.267-0.194-0.352-0.146-0.089-0.042-0.158-0.143-0.093-0.205 0.015 0.007 0.044 0.014 0.067 0.030l-0.056-0.070c0.019-0.005 0.029-0.018 0.038-0.016-0.051-0.061-0.14 0.025-0.151-0.106 0.031-0.033 0.073 0.010 0.114 0.031-0.126-0.174-0.439-0.099-0.451-0.333-0.083 0.030-0.255-0.144-0.346 0.014 0-0.090 0.12-0.167-0.019-0.28-0.181 0.027-0.1-0.186-0.265-0.219 0.241 0.027 0.035-0.027 0.253-0.017-0.038-0.131-0.309-0.124-0.433-0.301 0.009-0.037 0.046-0.069 0.055-0.107-0.093-0.021-0.244-0.004-0.207-0.147l-0.071 0.082c-0.058-0.142-0.22-0.268-0.243-0.459l-0.271 0.003c-0.009-0.319-0.372-0.426-0.639-0.44-0.053-0.072-0.118-0.195-0.082-0.223l0.115 0.016c-0.083-0.099-0.107-0.294-0.282-0.23-0.128-0.065 0.020-0.154-0.028-0.247-0.361-0.031-0.423-0.701-0.746-0.514 0.078 0.082 0.17 0.285 0.325 0.43-0.071-0.012-0.094 0.068-0.15 0.017-0.16-0.144-0.135-0.314-0.326-0.43l0.185-0.14c-0.078-0.425-0.703-0.293-0.657-0.726zM9.833 8.508l-0.019-0.192-0.061 0.079c0.042 0.023 0.076 0.057 0.080 0.113zM9.752 8.395c-0.029-0.017-0.062-0.027-0.098-0.035 0.025 0.028 0.049 0.049 0.084 0.055l0.014-0.020zM7.525 6.098c-0.017-0.033-0.051-0.093-0.113-0.123 0.013 0.049 0.065 0.121 0.113 0.123zM7.353 6.013l0.025 0.082 0.029-0.009zM5.219 4.211l-0.161-0.031c0.439 0.189 0.258 0.579 0.774 0.578l-0.174 0.095c0.095 0.184 0.466 0.090 0.46 0.382l0.044-0.070c0.038 0.041 0.029 0.081 0.064 0.12l0.012-0.039c0.157 0.053 0.212 0.125 0.269 0.267-0.039 0.050-0.066-0.031-0.107-0.053-0.002 0.091 0.17 0.081 0.25 0.167 0.020 0.098-0.067 0.057-0.096 0.068 0.296 0.188 0.252 0.438 0.626 0.414 0.053-0.021 0.010-0.131 0.112-0.059-0.083-0.225-0.293-0.277-0.487-0.37l0.041 0.040c-0.318 0.078-0.037-0.133-0.306-0.238 0.13-0.027 0.206 0.056 0.282 0.048-0.045-0.367-0.411-0.199-0.344-0.532l0.022 0.009c-0.009-0.051-0.104-0.073-0.169-0.102-0.013 0.041 0.019 0.101 0.033 0.152-0.066-0.029-0.18 0.028-0.235 0.049 0.038-0.143-0.113-0.031-0.153-0.164 0.054-0.11 0.147 0.003 0.225-0.008l-0.158-0.054c-0.098-0.092 0-0.182 0-0.273-0.14-0.021 0 0.092-0.152 0.111 0.007-0.204-0.441-0.623-0.725-0.759 0.082 0.063 0.115-0.058 0.187 0.045-0.012-0.052-0.163-0.124-0.229-0.066-0.194-0.096-0.331-0.318-0.399-0.511l-0.028 0.1zM17.137 5.527c-0.001 0.008-0.012 0.011-0.025 0.011-0.022 0-0.054-0.005-0.088-0.005-0.060 0-0.13 0.018-0.156 0.136-0.081 0.141-0.178 0.306-0.169 0.306h0.001c0 0.011 0.004 0.015 0.007 0.015 0.015 0 0.071-0.162 0.089-0.162 0.001 0 0.004 0.002 0.004 0.008-0.134 0.267-0.071 0.303-0.243 0.562 0.016-0.048 0.012-0.063 0-0.063-0.017 0-0.055 0.035-0.067 0.035-0.007 0-0.008-0.004-0.007-0.015-0.081 0.115 0.024 0.063-0.091 0.225l-0.012-0.028c-0.092 0.169-0.066 0.136-0.146 0.144-0.039-0.005-0.101-0.008-0.169-0.008-0.159 0-0.351 0.011-0.377 0.019-0.004 0.006-0.011 0.010-0.017 0.010-0.081 0-0.313-0.466-0.49-0.659 0-0.046-0.061-0.18-0.144-0.353-0.028-0.037-0.038-0.112-0.082-0.124l-0.154 0.015-0.373 0.034c0.027-0.003 0.050-0.004 0.067-0.004 0.112 0-0.084 0.052-0.146 0.067l-0.188-0.016c-0.116 0.003-0.237 0.043-0.36 0.080l-0.441 0.156c-0.011 0-0.022 0-0.032 0-0.036 0-0.057-0.004-0.079-0.007-0.138 0.221-0.030 0.322-0.048 0.417-0.019 0.073-0.035 0.094-0.050 0.143l0.031 0.028c0 0.185-0.031 0.421-0.082 0.421-0.005 0-0.007-0.001-0.009-0.004 0.002 0.053 0.002 0.102 0.011 0.102 0.004 0 0.011-0.010 0.019-0.038 0-0.001 0-0.004 0.002-0.005-0.002 0.001-0.002 0.004-0.002 0.005-0.013 0.047-0.027 0.119-0.039 0.187-0.014 0.028-0 0.074-0.030 0.095-0.015 0.007-0.283 0.102-0.434 0.186 0.072-0.024 0.108-0.034 0.132-0.034 0.029 0 0.034 0.015 0.048 0.029-0.022 0.074-0.078 0.023-0.191 0.112-0.004-0.004-0.018-0.008-0.031-0.008-0.007 0-0.013 0-0.018 0-0.034 0-0.058-0.002 0.031-0.052-0.073 0.017-0.111 0.028-0.141 0.028-0.056 0-0.077-0.049-0.284-0.209l-0.355-0.271-0.23-0.181-0.137-0.11c-0.023-0.018-0.047-0.041-0.069-0.053l-0.070 0.042c-0.148 0.097-0.1 0.081-0.168 0.141-0.504 0.231-0.646 0.401-1.212 0.802 0.022-0.011 0.039-0.016 0.049-0.016 0.022 0 0.022 0.018 0.002 0.050 0.039 0.072 0.095 0.188 0.134 0.327 0.122 0.241-0.040 0.117-0.003 0.341 0.051 0.095 0.116 0.29 0.134 0.374l-0.008-0.004 0.080 0.17 0.021 0.072c-0.019 0.018-0.041 0.029-0.060 0.042l0.005-0.012c-0.028 0.021-0.174 0.115-0.271 0.218-0.004 0.036-0.076 0.12-0.136 0.189-0.033 0.041-0.068 0.082-0.079 0.121-0.010-0.007 0.001-0.007-0.019-0.025l0.004 0.043-0.18-0.075c0.007 0 0.012 0 0.019 0 0.049 0 0.060-0.013 0.092-0.015-0.054-0.024-0.082-0.031-0.1-0.031-0.033 0-0.021 0.033-0.080 0.033-0.010 0-0.018 0-0.029-0.002-0.2-0.031-0.178-0.064-0.268-0.105 0.086 0.001 0.139 0.050 0.19 0.055 0.003 0 0.007 0 0.010 0 0.095 0-0.121-0.044-0.12-0.069-0.008-0.004-0.012-0.004-0.018-0.004-0.018 0-0.037 0.010-0.068 0.010-0.029 0-0.068-0.007-0.125-0.027l-0.264-0.082c-0.118-0.039-0.212-0.073-0.189-0.089-0.031-0.016-0.057-0.025-0.081-0.025-0.125 0-0.174 0.186-0.232 0.255l0.16-0.183c0.013-0.008 0.028-0.013 0.041-0.013 0.032 0 0.067 0.021 0.091 0.038 0.010 0.005 0.017 0.009 0.028 0.018-0.003 0-0.013-0.009-0.028-0.018s-0.030-0.012-0.042-0.012c-0.111 0-0.177 0.203-0.214 0.203-0.002 0-0.004 0-0.004 0l0.053-0.089c-0.051 0.077-0.2 0.264-0.173 0.264 0.004 0 0.018-0.008 0.043-0.025l-0.163 0.132c-0.017 0.079-0.13 0.244-0.21 0.382-0.024-0.002-0.022-0.055-0.046-0.055-0.020 0-0.059 0.040-0.155 0.184l-0.139 0.322c0.047 0.134 0.11 0.183 0.084 0.183-0.003 0-0.011 0-0.018-0.003l0.148 0.187 0.084 0.087c0.053 0.053 0.099 0.087 0.144 0.117 0.090 0.068 0.169 0.123 0.267 0.278-0.036-0.023-0.056-0.033-0.067-0.033-0.032 0 0.034 0.088 0.091 0.173 0.001 0 0.004 0 0.009 0 0.011 0 0.026 0.003 0.044 0.024-0.002-0.040-0.048-0.002-0.107-0.132 0.002-0.008 0.002-0.009 0.006-0.009 0.024 0 0.112 0.115 0.132 0.13 0 0.024 0.016 0.049 0.011 0.074l-0.060 0.085c-0.031 0.055-0.12 0.227-0.163 0.357-0.077 0.166-0.051 0.223-0.126 0.248l-0.336 0.018c0.044 0.059-0.231 0.047-0.337 0.079 0.007-0.015-0.005-0.020-0.034-0.020s-0.074 0.006-0.122 0.015c-0.088 0.015-0.258 0.044-0.372 0.044-0.012 0-0.024 0-0.034-0.001l0.15 0.047-0.16 0.012c-0.026 0.028-0.025 0.085-0.039 0.126l-0.034 0.245c-0.019 0.151-0.018 0.233-0.082 0.329-0.015 0.044-0.024 0.063-0.029 0.063-0.017 0-0.002-0.156 0.003-0.213-0.132 0.245-0.067 0.636-0.19 0.97 0.001 0.002 0.005 0.002 0.005 0.002 0.012 0 0.022-0.010 0.036-0.010 0.001 0 0.003 0 0.005 0.001 0.011 0.007 0.018 0.015 0.021 0.043l0.003 0.053 0.090 0.035c0.203 0.147 0.474 0.331 0.444 0.331v0c0.133 0.056 0.177 0.056 0.304 0.155-0.004 0.001-0.006 0.001-0.010 0.001-0.025 0-0.078-0.027-0.121-0.042 0.098 0.059 0.227 0.129 0.287 0.155 0.045 0.022 0.142 0.022 0.125 0.097-0.016 0.020-0.027 0.052-0.031 0.084l-0.018 0.233 0.005 0.264c0 0.036-0.001 0.080-0.007 0.108 0.012 0.043-0.054 0.062-0.11 0.090-0.087 0.042-0.157 0.081-0.152 0.12 0.002 0.002 0.002 0.002 0.002 0.003s0-0.001-0.002-0.003c0-0.001-0.005-0.001-0.010-0.001-0.013 0-0.031 0.003-0.042 0.004-0.085 0.072-0.134 0.157-0.252 0.226l0.013-0.065c0-0.011-0.007-0.014-0.018-0.014-0.029 0-0.091 0.033-0.162 0.072-0.076 0.044-0.215 0.125-0.273 0.146 0.015-0.003 0.021-0.007 0.025-0.007 0.033 0-0.261 0.119-0.126 0.19l0.045 0.213c0.060 0.323 0.032 0.057 0.096 0.379 0.013 0.073 0.010 0.099-0.002 0.099-0.019 0-0.050-0.052-0.052-0.087 0.005 0.169 0.046 0.288 0.097 0.454-0.010-0.035-0.014-0.054-0.010-0.054 0.002 0 0.006 0.008 0.018 0.029-0.008 0-0.005 0.023-0.003 0.044 0.020 0.062 0.039 0.133 0.060 0.213v-0.002c-0.002 0 0 0.007-0.002 0.007v0c-0.024-0.085-0.045-0.162-0.059-0.212 0.007 0.053 0.029 0.142 0.054 0.237 0.002 0.004 0.002 0.010 0.003 0.016 0.018 0.076 0.037 0.152 0.042 0.201l-0.048-0.028c-0.023 0.101 0.095 0.116 0.215 0.116 0.032 0 0.059 0 0.088-0.003 0.022 0.003 0.044 0.003 0.064 0.003 0.106 0 0.16-0.007 0.151-0.015 0.215 0.043 0.615 0.087 0.805 0.097 0.010-0.001 0.019-0.003 0.029-0.003 0.078 0 0.073 0.094 0.116 0.153 0.027 0.057 0.050 0.112 0.071 0.155 0.010 0.020 0.025 0.046 0.040 0.081-0.011-0.019-0.023-0.049-0.040-0.081-0.014-0.023-0.024-0.037-0.027-0.037s0.002 0.014 0.019 0.037c0.061 0.135 0.174 0.287 0.147 0.291 0.026 0.044 0.027 0.063 0.029 0.089 0.011 0.028-0.003 0.052-0.055 0.097v0c-0.005 0 0.008 0.017 0.022 0.017 0.001 0 0.001 0 0.001 0 0.008-0.007 0.016-0.013 0.022-0.017-0.006 0.013-0.014 0.014-0.022 0.017-0.079 0.065-0.216 0.246-0.318 0.391-0.117 0.16-0.244 0.343-0.45 0.583l0.055 0.098c0.007 0.011 0.013 0.021 0.013 0.027l-0.013-0.027c-0.020-0.028-0.055-0.067-0.091-0.101 0.004-0.017 0.011-0.031 0.015-0.042l-0.029 0.042c0.271 0.424 0.429 0.644 0.65 0.87-0.034-0.018-0.042 0-0.098-0.061 0.093 0.11 0.24 0.353 0.363 0.447-0.028-0.051-0.032-0.072-0.020-0.072 0.010 0 0.033 0.018 0.058 0.043 0.013 0.018 0.031 0.027 0.051 0.027 0.065 0 0.161-0.069 0.222-0.069 0.002 0 0.006 0 0.008 0l0.004 0.004 0.474-0.161c0.014-0.001 0.026-0.003 0.034-0.003 0.059 0-0.146 0.052-0.090 0.058 0.009 0.006 0.026 0.008 0.047 0.008 0.136 0 0.474-0.115 0.489-0.115 0.002 0 0.002 0.001 0.002 0.001 0.024-0.025 0.046-0.030 0.065-0.030 0.009 0 0.016 0.001 0.020 0.001s0.009-0.001 0.009-0.003c0.117 0.097 0.022 0.080 0.097 0.151 0.145 0.102 0.292 0.19 0.448 0.277 0.003 0.008 0.008 0.011 0.012 0.013-0.002 0-0.002 0-0.002 0-0.016 0 0.026 0.075-0.007 0.075-0.003 0-0.010-0.002-0.017-0.006 0.132 0.090 0.064 0.213 0.059 0.337l-0.008 0.104-0.239 0.818c-0.003-0.007-0.006-0.009-0.010-0.009-0.016 0-0.048 0.052-0.065 0.052-0.007 0-0.009-0.010-0.009-0.039l-0.023 0.1 0.104 0.076 0.24 0.183 0.444 0.328c-0.033-0.037-0.036-0.052-0.021-0.052 0.053 0 0.327 0.18 0.394 0.18 0.009 0 0.012-0.002 0.014-0.003 0.032 0.018 0.060 0.038 0.091 0.055l0.085-0.067c0.014-0.007 0.028-0.011 0.036-0.011h0.003c0.012 0.003 0.015 0.015 0.029 0.015 0.010 0 0.025-0.007 0.052-0.022 0.288-0.264 0.599-0.491 0.827-0.685 0 0 0.004 0.009-0.006 0.026 0.005-0.002 0.011-0.002 0.013-0.002 0.111 0 0.287 0.113 0.479 0.175l0.284 0.096c0.041 0.015 0.093 0.022 0.13 0.040l0.024 0.094 0.005 0.020c-0.003 0-0.005 0-0.005 0-0.002 0-0.006 0-0.008 0-0.007 0-0.015-0.004-0.029-0.047 0.006 0.169 0.031 0.169 0.053 0.195l0.024 0.203-0.026-0.052c0.057 0.236 0.026 0.466 0.101 0.731l0.001 0.015c-0.001 0.003-0.003 0.003-0.004 0.003-0.013 0-0.025-0.051-0.038-0.088l0.030 0.208c0.009 0.066 0.121 0.042 0.176 0.072 0.082 0.018 0.15 0.021 0.224 0.032 0.047 0.009 0.095 0.023 0.144 0.034-0.004 0.011-0.019 0.019-0.060 0.019-0.014 0-0.029-0.002-0.047-0.003 0.104 0.034 0.17 0.038 0.228 0.038 0.029 0 0.055 0 0.085 0 0.051 0 0.107 0.005 0.187 0.028 0.060 0.013 0.16 0.052 0.152 0.056 0.015-0.002 0.034-0.002 0.054-0.002 0.063 0 0.149 0.006 0.234 0.018 0.004 0 0.007-0.007 0.011-0.007 0.013 0.002 0.026 0.007 0.038 0.009l0.046-0.085c0.005-0.009 0.012-0.018 0.016-0.027l0.078-0.141c0.033-0.031 0.078-0.088 0.148-0.182l0.229-0.417c0.078-0.097 0.096-0.271 0.214-0.271 0.017 0 0.038 0.003 0.062 0.011 0.096 0.006 0.216 0.013 0.335 0.013 0.046 0 0.094-0.002 0.138-0.004l0.226-0.010 0.109-0.007 0.054 0.092 0.459 0.818 0.124 0.217c0.008 0 0.017 0 0.023 0 0.067 0 0.147-0.020 0.218-0.033 0.127-0.019 0.248-0.047 0.369-0.077 0.038-0.007 0.076-0.011 0.111-0.015 0.175 0.026-0.29 0.092-0.154 0.11-0.018-0.053 0.203-0.049 0.584-0.16l0.021 0.006c0.147-0.072 0.361 0.005 0.317-0.256l-0.013 0.003c-0.015-0.219 0.119-0.414 0.055-0.525l0.058-0.138c-0.040-0.193 0.040-0.279 0.025-0.464-0.002-0.008-0.007-0.016-0.002-0.018 0.002 0.007 0.002 0.011 0.002 0.018 0.002 0.004 0.002 0.004 0.003 0.008 0.202-0.075 0.532-0.287 0.642-0.295 0.058-0.060 0.114-0.081 0.169-0.081 0.111 0 0.213 0.091 0.281 0.126l0.056 0.046c-0.009 0.006-0.018 0.010-0.034 0.010-0.008 0-0.017-0.003-0.023-0.004 0.21 0.134 0.439 0.387 0.677 0.492l0.118 0.093c0.028-0.016 0.054-0.035 0.081-0.049 0.122-0.001 0.245-0.056 0.37-0.207 0.185-0.121 0.36-0.254 0.527-0.387 0.067-0.051 0.137-0.098 0.205-0.149l-0.37-1.26c0.022-0.029 0.046-0.056 0.070-0.084 0.217-0.198 0.43-0.401 0.625-0.625l1.268 0.371c0.296-0.374 0.561-0.767 0.793-1.182l-0.029-0.037-0.296-0.391-0.313-0.397-0.147-0.182c-0.047-0.060 0.036-0.137 0.050-0.205 0.058-0.14 0.121-0.282 0.158-0.417l0.009-0.027c0.039-0.097 0.086-0.189 0.12-0.287l0.256-0.028c0.004 0.008 0.011 0.015 0.030 0.015 0.008 0 0.018-0.002 0.026-0.004 0.151-0.029 0.313-0.048 0.472-0.068l0.527-0.058c0.083-0.294 0.148-0.6 0.202-0.907 0.018-0.097 0.035-0.188 0.044-0.276 0.009-0.072 0.024-0.141 0.032-0.216l-1.16-0.636c0.009-0.164 0.023-0.324 0.023-0.491 0-0.169-0.014-0.33-0.023-0.495l0.392-0.215-0.052 0.042c0.061-0.042 0.137-0.073 0.169-0.073 0.017 0 0.020 0.006 0.013 0.020l0.184-0.124 0.009 0.039c0.149-0.091 0.293-0.164 0.468-0.254 0.059-0.015 0.069-0.050 0.052-0.1l-0.020-0.139c-0.013-0.093-0.028-0.198-0.054-0.284l-0.016 0.149c-0.037-0.223-0.132-0.428-0.132-0.637 0.013 0.035 0.024 0.046 0.030 0.046 0.011 0 0.016-0.027 0.029-0.034-0.018-0.049-0.043-0.097-0.051-0.164l0.070 0.067c-0.048-0.054-0.089-0.199-0.128-0.346 0.007-0.111-0.104-0.097-0.176-0.109-0.069-0.011-0.13-0.018-0.162-0.018l0.044-0.010c-0.084-0.015-0.122-0.020-0.139-0.020-0.046 0 0.090 0.046 0.008 0.046-0.011 0-0.025-0.002-0.048-0.003-0.188-0.031-0.063-0.080-0.235-0.127l-0.56-0.040c-0.095-0.062-0.141-0.331-0.209-0.511l-0.091-0.175c-0.018-0.045-0.075-0.094-0.023-0.136l0.21-0.324c0.054-0.071 0.080-0.088 0.090-0.088s0.013 0.014 0.019 0.014c0.008 0 0.025-0.017 0.078-0.101 0 0.022 0.012 0.027 0.030 0.027 0.013 0 0.032-0.003 0.047-0.006-0.003-0.017 0.054-0.085 0.103-0.153 0.054-0.070 0.125-0.165 0.108-0.165-0.007 0-0.026 0.014-0.066 0.049l0.125-0.153c0.050-0.053 0.103-0.101 0.041-0.16l-0.196-0.343c-0.107-0.175-0.225-0.349-0.348-0.507-0.005-0.005-0.007-0.008-0.011-0.013 0.004 0.004 0.006 0.008 0.011 0.013 0.038 0.047 0.069 0.071 0.085 0.071 0.017 0 0.018-0.025-0.004-0.079-0.061-0.055-0.182-0.185-0.308-0.335l-0.096-0.113-0.161 0.048-0.299 0.085c0.015 0.040 0.124 0.011 0.1 0.061-0.046 0.022-0.121 0.064-0.201 0.084-0.040-0.019-0.057-0.056-0.146-0.056-0.048 0-0.115 0.011-0.218 0.040 0.059-0.093 0.507-0.141 0.353-0.168 0.027-0.022 0.084-0.051 0.151-0.079l0.375-0.124c0.022-0.004 0.055-0.023 0.080-0.023 0.008 0 0.012 0.001 0.017 0.004l0.059 0.080 0.106 0.147c0.066 0.091 0.113 0.165 0.133 0.207 0.046 0.041 0.066 0.057 0.074 0.057s-0.016-0.034-0.044-0.077c-0.073-0.099-0.175-0.235-0.138-0.235h0.001l-0.166-0.206c-0.012-0.007-0.023-0.010-0.040-0.010-0.060 0-0.141 0.055-0.208 0.070l-0.501 0.167c0.004 0.033 0.128 0-0.033 0.074-0.158 0.082-0.273 0.101-0.353 0.101-0.070 0-0.11-0.014-0.122-0.014v0c-0.004-0.007 0.085-0.035 0.126-0.054-0.135 0.027-0.137 0.035-0.16 0.049-0.009 0.011-0.020 0.016-0.029 0.016-0.018 0-0.035-0.011-0.052-0.034 0.009-0.018 0.016-0.023 0.027-0.023s0.022 0.008 0.032 0.020c0.040-0.010 0.030-0.002 0.098-0.049-0.007 0-0.011 0-0.017 0-0.061 0-0.037-0.027-0.053-0.042-0.012 0.005-0.015 0.009-0.026 0.027-0.006 0.002-0.009 0.008-0.015 0.008h-0.002c0 0 0 0-0.002 0 0 0-0.015-0.013-0.083-0.091l0.052 0.014c-0.062-0.055-0.119-0.11-0.184-0.162-0.022 0.021-0.018 0.083 0.131 0.236-0.138-0.033-0.171-0.168-0.361-0.32-0.004-0.001-0.010-0.001-0.012-0.001-0.044 0 0.061 0.044 0.061 0.101-0.002 0.004-0.008 0.005-0.013 0.005-0.042 0-0.154-0.088-0.185-0.143 0.046-0.161 0.067-0.067 0.119-0.129-0.005 0.049-0.018 0.107-0.043 0.108 0.022 0.018 0.039 0.025 0.053 0.025 0.033 0 0.040-0.050 0.070-0.050 0.004 0 0.011 0.003 0.019 0.008 0.031-0.045-0.032 0.003-0.015-0.117-0.008 0.012-0.011 0.016-0.015 0.016-0.013 0-0.018-0.034-0.033-0.034-0.004 0-0.008 0.004-0.014 0.013 0.004-0.451 0.162-0.245 0.261-0.646-0.006 0.001-0.011 0.003-0.014 0.003-0.016 0-0.023-0.023-0.026-0.066l0.031-0.248c0.009-0.096 0.009-0.163-0.013-0.163-0.016 0-0.039 0.035-0.082 0.116 0-0.027 0.021-0.062 0.010-0.088l-0.095-0.057c-0.058-0.040-0.113-0.076-0.16-0.115 0.017 0.003 0.028 0.007 0.033 0.007 0.048 0-0.076-0.1-0.041-0.1 0.011 0 0.038 0.012 0.089 0.037l-0.157-0.116c0.076 0.022 0.191 0.087 0.298 0.14-0.213-0.209-0.395-0.375-0.463-0.454-0.050-0.026-0.072-0.034-0.084-0.034-0.020 0 0.006 0.031-0.010 0.031-0.010 0-0.038-0.012-0.103-0.048 0.009 0.003 0.018 0.004 0.022 0.004 0.045 0-0.064-0.092-0.153-0.148 0.071 0.057 0.085 0.082 0.055 0.082-0.037 0-0.152-0.047-0.281-0.112-0.099-0.108-0.192-0.141-0.27-0.141-0.123 0-0.208 0.079-0.221 0.079-0.004 0-0.003-0.002 0.001-0.011 0.071-0.044 0.14-0.177 0.217-0.194-0.049 0.001-0.068 0.044-0.090 0.044-0.002 0-0.002-0.001-0.003-0.002-0.029 0.015-0.059 0.026-0.179 0.131l-0.113 0.161c-0.025 0.044-0.036 0.082-0.048 0.116-0.102 0.1-0.206 0.131-0.241 0.165l0.157-0.164c-0.087 0.077-0.122 0.090-0.145 0.090-0.014 0-0.022-0.004-0.033-0.004-0.022 0-0.059 0.013-0.149 0.097l-0.034 0.080c-0.025 0.016-0.044 0.025-0.057 0.025-0.006 0-0.010-0.004-0.008-0.012-0.016 0.022-0.045 0.050-0.076 0.080-0.022 0.020-0.021 0.022-0.026 0.035l-0.013-0.024c-0.003 0.018-0.013 0.036-0.032 0.039 0 0.002-0.004 0.002-0.005 0.002-0.014 0-0.049-0.019-0.116-0.074 0.11 0.122 0.099 0.051 0.155 0.099 0.025 0.030 0.010 0.040-0.018 0.040-0.025 0-0.060-0.007-0.072-0.017 0.046-0.057-0.303-0.145-0.454-0.199-0.032-0.037-0.038-0.052-0.044-0.067-0.018 0.009-0.038 0.018-0.050 0.023 0.040-0.044 0.032-0.055 0.017-0.083-0.017-0.049-0.054-0.181-0.048-0.26 0.016 0.036 0.032 0.053 0.043 0.053 0.018 0 0.029-0.037 0.029-0.107-0.008 0.029-0.018 0.041-0.025 0.041-0.042 0-0.089-0.248-0.122-0.248-0.002 0-0.005 0-0.006 0.003-0.003-0.095 0.004-0.127 0.017-0.127 0.025 0 0.069 0.111 0.098 0.111 0.005 0 0.011-0.007 0.015-0.018-0.034-0.072-0.034-0.161-0.037-0.242-0.007-0.129-0.020-0.28-0.060-0.347 0.006 0.122 0.004 0.165-0.003 0.165-0.015 0-0.054-0.224-0.080-0.25-0.185-0.055-0.176-0.059-0.141-0.059 0.006 0 0.017 0 0.026 0 0.032 0 0.054-0.005-0.063-0.048-0.084-0.017-0.174-0.028-0.228-0.028-0.074 0-0.087 0.020 0.052 0.067-0.245-0.082-0.381-0.042-0.576-0.124-0.016-0.011-0.006-0.016 0.012-0.016 0.056 0 0.201 0.032 0.241 0.032 0.014 0 0.016-0.004-0.006-0.016-0.094-0.022-0.154-0.028-0.198-0.028-0.112 0-0.112 0.050-0.25 0.050-0.037 0-0.083-0.003-0.144-0.013 0.174 0.054-0.013 0.093-0.181 0.1-0.421-0.082 0.173-0.004 0.007-0.082l-0.182-0.014c-0.063-0.007-0.058 0.008-0.054-0.055 0.022-0.026 0.097-0.020 0.172-0.027 0.152-0.007 0.338-0.007 0.181-0.060l-0.251-0.011c0.053-0.017 0.134-0.046 0.016-0.082v0zM16.082 20.151c-2.724 0-4.938-2.215-4.938-4.936 0-2.724 2.214-4.94 4.938-4.94s4.939 2.216 4.939 4.94c0 2.721-2.216 4.936-4.939 4.936v0zM24.931 12.629l-0.072-0.008c0.007-0.002 0.012-0.003 0.016-0.004 0.026 0.002 0.036 0.008 0.055 0.012v0zM25.248 14.066c-0.027 0.056-0.325 0.229-0.4 0.236-0.003 0-0.005 0-0.005 0-0.010 0-0.004-0.007-0.008-0.011l0.218-0.12c0.002 0.006-0.003 0.014 0.005 0.018 0.048-0.038 0.075-0.056 0.105-0.078l0.084-0.045zM6.919 17.847c-0.020 0-0.040-0.003-0.064-0.008 0.013 0 0.025 0.002 0.035 0.004 0.014 0.002 0.017 0.004 0.029 0.005v0zM19.641 7.285c-0.008 0.009-0.013 0.018-0.014 0.023 0.006-0.009 0.011-0.015 0.014-0.023v0zM21.812 8.712c-0.016 0.050-0.026 0.085-0.028 0.114 0.006-0.021 0.017-0.055 0.028-0.114v0zM8.339 9.393l-0.004 0.004c0.003-0.001 0.004-0.003 0.004-0.004v0zM25.228 13.012c0.006 0.008 0.011 0.015 0.018 0.018l-0.018-0.018zM24.479 14.5c-0.021 0.015-0.044 0.031-0.060 0.048l0.060-0.048zM6.572 16.104c-0.007 0.001-0.016 0.004-0.025 0.007v0c0.005-0.002 0.014-0.003 0.025-0.007v0zM10.346 21.201c0.018 0.011 0.029 0.016 0.039 0.021-0.010-0.005-0.022-0.015-0.039-0.021v0zM14.507 24.48c0 0-0.004 0-0.008 0 0.002 0 0.003 0 0.003 0 0.004 0 0.004 0 0.004 0v0z"></path>
</svg>
