<?xml version="1.0" encoding="utf-8"?>
<!-- Generator: Adobe Illustrator 16.0.0, SVG Export Plug-In . SVG Version: 6.00 Build 0)  -->
<!DOCTYPE svg PUBLIC "-//W3C//DTD SVG 1.1//EN" "http://www.w3.org/Graphics/SVG/1.1/DTD/svg11.dtd">
<svg version="1.1" id="Layer_1" xmlns="http://www.w3.org/2000/svg" xmlns:xlink="http://www.w3.org/1999/xlink" x="0px" y="0px"
	 width="253.112px" height="254.885px" viewBox="24.015 21.5 253.112 254.885" enable-background="new 24.015 21.5 253.112 254.885"
	 xml:space="preserve">
<path fill="#212221" d="M167.012,22.749c-0.012,0.113-0.16,0.148-0.348,0.148c-0.283,0-0.708-0.075-1.178-0.075
	c-0.807,0-1.731,0.246-2.078,1.824c-1.078,1.885-2.37,4.077-2.26,4.077h0.015c0,0.146,0.055,0.206,0.071,0.206
	c0.222,0,0.967-2.171,1.207-2.171c0.015,0,0.056,0.027,0.056,0.106c-1.787,3.578-0.947,4.049-3.243,7.515
	c0.219-0.654,0.145-0.842,0-0.842c-0.234,0-0.729,0.46-0.895,0.46c-0.092,0-0.105-0.041-0.092-0.2
	c-1.096,1.545,0.31,0.852-1.222,3.01l-0.167-0.373c-1.218,2.257-0.87,1.817-1.941,1.918c-0.533-0.073-1.354-0.101-2.261-0.101
	c-2.118,0-4.689,0.148-5.048,0.261c-0.054,0.08-0.146,0.133-0.218,0.133c-1.075,0-4.177-6.222-6.544-8.812
	c0-0.62-0.82-2.403-1.929-4.714c-0.387-0.494-0.513-1.494-1.092-1.661l-2.058,0.2l-4.977,0.453c0.358-0.033,0.674-0.053,0.891-0.053
	c1.497,0-1.129,0.693-1.949,0.906l-2.508-0.213c-1.554,0.041-3.173,0.572-4.816,1.065l-5.883,2.084c-0.148,0-0.295,0-0.418,0
	c-0.473,0-0.768-0.053-1.061-0.099c-1.86,2.957-0.398,4.309-0.653,5.567c-0.241,0.973-0.458,1.26-0.659,1.905l0.418,0.375
	c-0.018,2.469-0.418,5.622-1.109,5.622c-0.055,0-0.075-0.021-0.109-0.047c0.02,0.699,0.034,1.358,0.146,1.358
	c0.055,0,0.149-0.14,0.255-0.511c0-0.008,0-0.042,0.018-0.062c-0.018,0.02-0.018,0.054-0.018,0.062
	c-0.181,0.63-0.367,1.598-0.524,2.495c-0.187,0.374,0,0.993-0.407,1.267c-0.181,0.093-3.772,1.364-5.791,2.491
	c0.966-0.321,1.454-0.46,1.766-0.46c0.382,0,0.454,0.199,0.64,0.393c-0.29,0.984-1.038,0.313-2.548,1.492
	c-0.063-0.053-0.261-0.101-0.419-0.101c-0.094,0-0.169,0-0.244,0c-0.453,0-0.777-0.025,0.401-0.692
	c-0.966,0.232-1.473,0.373-1.872,0.373c-0.754,0-1.026-0.652-3.79-2.784l-4.742-3.624l-3.079-2.424l-1.838-1.479
	c-0.312-0.234-0.619-0.546-0.914-0.713l-0.929,0.561c-1.986,1.292-1.347,1.07-2.238,1.883c-6.729,3.077-8.64,5.355-16.2,10.715
	c0.31-0.145,0.527-0.219,0.656-0.219c0.29,0,0.29,0.233,0.017,0.666c0.53,0.953,1.279,2.504,1.806,4.363
	c1.617,3.216-0.527,1.565-0.032,4.555c0.686,1.271,1.542,3.871,1.795,4.99l-0.103-0.053l1.057,2.277l0.273,0.959
	c-0.241,0.234-0.534,0.386-0.806,0.559l0.075-0.154c-0.382,0.274-2.333,1.539-3.626,2.917c-0.052,0.479-1.018,1.604-1.824,2.524
	c-0.433,0.546-0.914,1.1-1.038,1.612c-0.149-0.1,0.018-0.1-0.252-0.325l0.037,0.572l-2.391-0.993c0.095,0,0.166,0,0.252,0
	c0.662,0,0.805-0.187,1.224-0.199c-0.728-0.319-1.089-0.42-1.331-0.42c-0.441,0-0.274,0.433-1.072,0.433
	c-0.132,0-0.241,0-0.384-0.013c-2.677-0.413-2.385-0.858-3.592-1.405c1.167,0.021,1.857,0.665,2.549,0.738c0.043,0,0.095,0,0.129,0
	c1.259,0-1.62-0.592-1.6-0.919c-0.111-0.061-0.163-0.061-0.238-0.061c-0.235,0-0.493,0.134-0.914,0.134
	c-0.379,0-0.906-0.092-1.66-0.365l-3.529-1.094c-1.582-0.519-2.824-0.979-2.537-1.184c-0.399-0.221-0.746-0.327-1.073-0.327
	c-1.677,0-2.331,2.484-3.116,3.404l2.153-2.438c0.167-0.115,0.367-0.175,0.544-0.175c0.418,0,0.895,0.281,1.218,0.5
	c0.126,0.06,0.218,0.121,0.367,0.233c-0.034,0-0.167-0.126-0.367-0.233c-0.2-0.112-0.401-0.152-0.559-0.152
	c-1.479,0-2.371,2.703-2.864,2.703c-0.031,0-0.054,0-0.054,0l0.714-1.185c-0.691,1.032-2.686,3.536-2.319,3.536
	c0.055,0,0.241-0.112,0.568-0.338l-2.173,1.757c-0.232,1.06-1.743,3.264-2.803,5.108c-0.327-0.026-0.307-0.732-0.62-0.732
	c-0.274,0-0.797,0.533-2.075,2.457l-1.86,4.304c0.639,1.785,1.479,2.437,1.132,2.437c-0.052,0-0.146,0-0.238-0.033l1.969,2.491
	l1.126,1.171c0.714,0.707,1.331,1.167,1.93,1.565c1.207,0.915,2.259,1.638,3.571,3.718c-0.487-0.314-0.748-0.442-0.894-0.442
	c-0.418,0,0.461,1.187,1.204,2.307c0.023,0,0.058,0,0.129,0c0.129,0,0.327,0.046,0.588,0.318c-0.02-0.538-0.659-0.026-1.427-1.757
	c0.02-0.101,0.02-0.126,0.074-0.126c0.327,0,1.494,1.538,1.771,1.738c0,0.32,0.212,0.658,0.141,0.986l-0.82,1.138
	c-0.398,0.738-1.6,3.03-2.164,4.762c-1.041,2.224-0.674,2.984-1.677,3.316l-4.503,0.241c0.587,0.778-3.076,0.638-4.481,1.05
	c0.092-0.199-0.068-0.272-0.453-0.272c-0.381,0-0.986,0.086-1.64,0.207c-1.167,0.199-3.442,0.58-4.957,0.58
	c-0.166,0-0.333,0-0.458-0.021l2.006,0.641l-2.147,0.167c-0.347,0.373-0.333,1.125-0.53,1.671l-0.441,3.271
	c-0.272,2.018-0.255,3.11-1.093,4.402c-0.2,0.586-0.329,0.839-0.401,0.839c-0.218,0-0.021-2.078,0.04-2.845
	c-1.751,3.27-0.892,8.5-2.537,12.956c0.02,0.019,0.075,0.019,0.075,0.019c0.166,0,0.292-0.126,0.47-0.126c0,0,0.042,0,0.063,0.021
	c0.157,0.087,0.252,0.199,0.284,0.573l0.04,0.698l1.198,0.474c2.721,1.972,6.341,4.43,5.943,4.43l0,0
	c1.771,0.746,2.371,0.746,4.062,2.064c-0.052,0.015-0.072,0.015-0.144,0.015c-0.329,0-1.035-0.361-1.62-0.562
	c1.31,0.794,3.044,1.726,3.844,2.072c0.596,0.295,1.895,0.295,1.677,1.293c-0.221,0.264-0.367,0.694-0.421,1.133l-0.238,3.109
	l0.072,3.537c0,0.471-0.014,1.064-0.106,1.432c0.169,0.578-0.711,0.826-1.459,1.213c-1.164,0.566-2.096,1.072-2.039,1.604
	c0.034,0.013,0.034,0.013,0.034,0.035c0,0,0-0.022-0.034-0.035c0-0.022-0.057-0.022-0.135-0.022c-0.157,0-0.396,0.035-0.556,0.059
	c-1.135,0.958-1.786,2.1-3.368,3.016l0.178-0.865c0-0.146-0.092-0.187-0.241-0.187c-0.381,0-1.218,0.438-2.167,0.968
	c-1.015,0.584-2.875,1.676-3.641,1.947c0.201-0.031,0.272-0.08,0.327-0.08c0.438,0-3.478,1.594-1.677,2.546l0.604,2.851
	c0.8,4.312,0.419,0.769,1.273,5.057c0.178,0.98,0.146,1.324-0.02,1.324c-0.252,0-0.674-0.686-0.691-1.164
	c0.057,2.265,0.604,3.855,1.295,6.064c-0.132-0.47-0.186-0.725-0.132-0.725c0.017,0,0.075,0.105,0.241,0.393
	c-0.109,0-0.075,0.303-0.057,0.594c0.275,0.82,0.527,1.771,0.8,2.836v-0.012c-0.017,0,0,0.086-0.017,0.086l0,0
	c-0.307-1.141-0.602-2.155-0.783-2.823c0.095,0.714,0.401,1.897,0.728,3.17c0.02,0.062,0.02,0.127,0.041,0.222
	c0.232,1.003,0.493,2.024,0.564,2.678l-0.636-0.361c-0.315,1.348,1.27,1.546,2.875,1.546c0.418,0,0.786,0,1.167-0.032
	c0.292,0.032,0.582,0.032,0.857,0.032c1.422,0,2.133-0.095,2.021-0.192c2.881,0.567,8.216,1.158,10.747,1.305
	c0.126-0.006,0.261-0.03,0.387-0.03c1.041,0,0.98,1.249,1.545,2.034c0.344,0.769,0.659,1.508,0.952,2.08
	c0.126,0.271,0.327,0.621,0.527,1.091c-0.146-0.253-0.313-0.658-0.527-1.091c-0.184-0.301-0.333-0.491-0.364-0.491
	c-0.043,0,0.017,0.19,0.252,0.491c0.817,1.805,2.319,3.843,1.972,3.889c0.347,0.594,0.358,0.85,0.379,1.191
	c0.146,0.367-0.032,0.694-0.726,1.293l0,0c-0.075,0,0.106,0.223,0.284,0.223c0.023,0,0.023,0,0.023,0
	c0.111-0.096,0.22-0.167,0.292-0.223c-0.072,0.166-0.181,0.192-0.292,0.223c-1.041,0.87-2.898,3.273-4.243,5.227
	c-1.554,2.146-3.265,4.594-6.017,7.795l0.749,1.297c0.091,0.146,0.166,0.287,0.181,0.364l-0.181-0.364
	c-0.275-0.357-0.749-0.899-1.218-1.344c0.051-0.229,0.146-0.419,0.198-0.568l-0.384,0.568c3.629,5.668,5.725,8.598,8.689,11.621
	c-0.453-0.234-0.559,0-1.311-0.82c1.239,1.465,3.211,4.723,4.848,5.976c-0.367-0.671-0.438-0.963-0.252-0.963
	c0.126,0,0.433,0.233,0.768,0.579c0.178,0.238,0.419,0.357,0.671,0.357c0.872,0,2.165-0.921,2.97-0.921c0.031,0,0.074,0,0.106,0
	l0.054,0.052l6.327-2.145c0.181-0.031,0.347-0.046,0.454-0.046c0.799,0-1.953,0.692-1.199,0.769
	c0.126,0.077,0.344,0.106,0.634,0.106c1.823,0,6.327-1.54,6.524-1.54c0.034,0,0.034,0.02,0.034,0.02
	c0.313-0.334,0.62-0.406,0.86-0.406c0.126,0,0.217,0.021,0.272,0.021c0.054,0,0.106-0.021,0.106-0.047
	c1.568,1.305,0.292,1.078,1.293,2.023c1.952,1.365,3.924,2.545,5.994,3.711c0.04,0.101,0.111,0.148,0.166,0.183
	c-0.02,0-0.02,0-0.02,0c-0.221,0,0.347,0.989-0.086,0.989c-0.04,0-0.135-0.025-0.241-0.077c1.763,1.21,0.86,2.851,0.8,4.495
	l-0.106,1.398l-3.19,10.928c-0.032-0.092-0.089-0.121-0.146-0.121c-0.215,0-0.634,0.709-0.852,0.709
	c-0.095,0-0.129-0.141-0.129-0.52l-0.292,1.324l1.387,1.025l3.203,2.438l5.939,4.381c-0.438-0.492-0.493-0.691-0.292-0.691
	c0.711,0,4.375,2.406,5.269,2.406c0.126,0,0.166-0.029,0.178-0.047c0.441,0.237,0.809,0.512,1.227,0.739l1.144-0.894
	c0.181-0.102,0.367-0.152,0.476-0.152h0.034c0.164,0.031,0.204,0.197,0.384,0.197c0.126,0,0.327-0.092,0.691-0.293
	c3.844-3.522,8-6.56,11.056-9.15c0,0,0.063,0.116-0.085,0.348c0.072-0.02,0.149-0.02,0.18-0.02c1.491,0,3.844,1.496,6.393,2.33
	l3.813,1.288c0.542,0.196,1.238,0.29,1.729,0.524l0.327,1.258l0.054,0.271c-0.034,0-0.054,0-0.054,0c-0.032,0-0.075,0-0.106,0
	c-0.092,0-0.198-0.052-0.384-0.625c0.072,2.257,0.416,2.257,0.711,2.604l0.304,2.713l-0.338-0.7
	c0.762,3.149,0.338,6.221,1.345,9.778l0.023,0.197c-0.023,0.049-0.043,0.049-0.055,0.049c-0.187,0-0.333-0.693-0.513-1.187
	l0.401,2.782c0.123,0.893,1.625,0.566,2.348,0.967c1.095,0.24,2.007,0.293,2.993,0.434c0.634,0.111,1.253,0.301,1.933,0.446
	c-0.06,0.146-0.261,0.252-0.809,0.252c-0.178,0-0.378-0.021-0.639-0.03c1.388,0.452,2.279,0.504,3.064,0.504
	c0.384,0,0.734,0,1.133,0c0.691,0,1.439,0.065,2.511,0.367c0.808,0.172,2.133,0.692,2.024,0.744c0.201-0.02,0.453-0.02,0.714-0.02
	c0.854,0,1.998,0.086,3.13,0.246c0.052,0,0.095-0.09,0.146-0.09c0.181,0.029,0.347,0.09,0.513,0.115l0.619-1.123
	c0.066-0.127,0.161-0.24,0.212-0.367l1.041-1.879c0.438-0.42,1.041-1.187,1.969-2.438l3.059-5.572
	c1.038-1.307,1.281-3.629,2.864-3.629c0.232,0,0.513,0.04,0.82,0.151c1.278,0.086,2.898,0.172,4.46,0.172
	c0.619,0,1.259-0.014,1.857-0.055l3.026-0.133l1.456-0.097l0.714,1.224l6.142,10.924l1.656,2.908c0.108,0,0.221,0,0.311,0
	c0.891,0,1.949-0.271,2.914-0.443c1.691-0.262,3.316-0.641,4.923-1.035c0.508-0.077,1.019-0.143,1.472-0.197
	c2.354,0.342-3.861,1.232-2.059,1.459c-0.233-0.705,2.72-0.648,7.802-2.145l0.29,0.086c1.967-0.957,4.811,0.074,4.227-3.417
	l-0.18,0.028c-0.221-2.916,1.586-5.527,0.727-7.017l0.766-1.84c-0.524-2.587,0.547-3.728,0.348-6.204
	c-0.016-0.111-0.087-0.219-0.016-0.241c0.016,0.095,0.016,0.162,0.016,0.241c0.02,0.055,0.02,0.061,0.039,0.109
	c2.697-1,7.105-3.824,8.577-3.939c0.769-0.796,1.533-1.078,2.259-1.078c1.479,0,2.844,1.205,3.735,1.688l0.766,0.604
	c-0.123,0.088-0.253,0.14-0.448,0.14c-0.094,0-0.223-0.039-0.316-0.052c2.824,1.783,5.869,5.16,9.059,6.57l1.565,1.239
	c0.366-0.219,0.714-0.471,1.077-0.651c1.641-0.021,3.279-0.745,4.957-2.771c2.479-1.611,4.812-3.39,7.05-5.172
	c0.889-0.693,1.823-1.313,2.737-2.007l-4.945-16.825c0.296-0.394,0.619-0.76,0.936-1.127c2.896-2.638,5.738-5.354,8.344-8.345
	l16.945,4.962c3.953-4.992,7.484-10.242,10.602-15.798l-0.379-0.49l-3.955-5.231l-4.178-5.301l-1.985-2.444
	c-0.619-0.8,0.495-1.817,0.682-2.731c0.78-1.875,1.617-3.762,2.11-5.572l0.126-0.367c0.516-1.293,1.146-2.518,1.604-3.824
	l3.426-0.385c0.052,0.105,0.145,0.201,0.398,0.201c0.111,0,0.241-0.028,0.348-0.055c2.023-0.394,4.188-0.641,6.307-0.915
	l7.043-0.769c1.115-3.934,1.973-8.026,2.701-12.133c0.238-1.289,0.474-2.51,0.584-3.674c0.127-0.967,0.328-1.887,0.437-2.879
	l-15.506-8.49c0.11-2.198,0.293-4.338,0.293-6.563c0-2.255-0.183-4.399-0.293-6.606l5.233-2.877l-0.692,0.553
	c0.819-0.553,1.819-0.972,2.256-0.972c0.222,0,0.255,0.079,0.163,0.267l2.463-1.66l0.129,0.526c1.981-1.211,3.916-2.185,6.244-3.396
	c0.788-0.201,0.914-0.672,0.696-1.339l-0.275-1.857c-0.178-1.24-0.378-2.645-0.725-3.804l-0.222,1.998
	c-0.494-2.977-1.752-5.72-1.752-8.518c0.166,0.473,0.313,0.613,0.398,0.613c0.148,0,0.207-0.367,0.387-0.459
	c-0.238-0.653-0.584-1.293-0.689-2.186l0.929,0.893c-0.625-0.72-1.185-2.658-1.696-4.628c0.098-1.472-1.386-1.299-2.353-1.459
	c-0.925-0.141-1.742-0.234-2.163-0.234l0.579-0.126c-1.113-0.199-1.617-0.274-1.858-0.274c-0.599,0,1.207,0.621,0.112,0.621
	c-0.146,0-0.332-0.027-0.638-0.045c-2.53-0.42-0.862-1.067-3.139-1.699l-7.484-0.534c-1.258-0.833-1.881-4.43-2.793-6.833
	l-1.217-2.331c-0.254-0.606-1.002-1.258-0.308-1.825l2.804-4.337c0.729-0.944,1.061-1.171,1.197-1.171
	c0.135,0,0.169,0.181,0.264,0.181c0.104,0,0.324-0.227,1.039-1.346c0,0.3,0.156,0.353,0.4,0.353c0.178,0,0.419-0.04,0.619-0.081
	c-0.043-0.232,0.723-1.14,1.382-2.051c0.708-0.938,1.672-2.204,1.44-2.204c-0.095,0-0.347,0.186-0.873,0.653l1.672-2.052
	c0.658-0.698,1.384-1.346,0.547-2.131l-2.626-4.583c-1.438-2.331-3.005-4.661-4.644-6.774c-0.072-0.072-0.093-0.112-0.145-0.186
	c0.052,0.06,0.07,0.114,0.145,0.186c0.51,0.626,0.928,0.946,1.146,0.946c0.221,0,0.241-0.34-0.052-1.058
	c-0.819-0.727-2.442-2.465-4.116-4.483l-1.278-1.512l-2.165,0.646l-3.989,1.132c0.215,0.539,1.656,0.146,1.348,0.813
	c-0.619,0.294-1.62,0.853-2.682,1.119c-0.545-0.253-0.762-0.746-1.949-0.746c-0.639,0-1.533,0.146-2.918,0.54
	c0.785-1.24,6.779-1.892,4.701-2.245c0.366-0.293,1.133-0.673,2.026-1.059l5.009-1.659c0.293-0.04,0.73-0.307,1.057-0.307
	c0.106,0,0.162,0.02,0.234,0.053l0.784,1.079l1.419,1.964c0.881,1.212,1.514,2.206,1.771,2.772c0.623,0.546,0.895,0.765,1,0.765
	c0.115,0-0.217-0.46-0.6-1.032c-0.966-1.319-2.33-3.143-1.837-3.143h0.011l-2.219-2.75c-0.166-0.087-0.31-0.126-0.533-0.126
	c-0.797,0-1.889,0.725-2.781,0.932l-6.688,2.23c0.053,0.445,1.711,0-0.438,0.993c-2.11,1.092-3.664,1.346-4.717,1.346
	c-0.935,0-1.479-0.193-1.625-0.193l0,0c-0.052-0.087,1.145-0.46,1.678-0.719c-1.805,0.36-1.823,0.48-2.131,0.659
	c-0.113,0.146-0.26,0.221-0.391,0.221c-0.252,0-0.47-0.148-0.689-0.46c0.113-0.233,0.221-0.307,0.367-0.307
	c0.129,0,0.293,0.106,0.42,0.274c0.547-0.127,0.399-0.027,1.312-0.661c-0.092,0-0.146,0-0.222,0c-0.819,0-0.489-0.352-0.711-0.559
	c-0.16,0.073-0.199,0.113-0.346,0.353c-0.072,0.027-0.131,0.1-0.216,0.1h-0.019c0,0,0,0-0.041,0c0,0-0.18-0.173-1.094-1.22
	l0.696,0.181c-0.84-0.725-1.6-1.479-2.46-2.164c-0.292,0.273-0.236,1.105,1.756,3.15c-1.85-0.44-2.303-2.245-4.832-4.277
	c-0.063-0.005-0.135-0.005-0.166-0.005c-0.602,0,0.82,0.579,0.82,1.346c-0.034,0.06-0.105,0.072-0.17,0.072
	c-0.559,0-2.055-1.164-2.477-1.911c0.619-2.151,0.892-0.892,1.584-1.718c-0.072,0.646-0.23,1.426-0.578,1.446
	c0.296,0.245,0.506,0.339,0.715,0.339c0.43,0,0.523-0.667,0.926-0.667c0.053,0,0.146,0.033,0.236,0.101
	c0.42-0.601-0.42,0.033-0.186-1.558c-0.105,0.165-0.146,0.205-0.222,0.205c-0.16,0-0.231-0.446-0.433-0.446
	c-0.053,0-0.114,0.061-0.188,0.174c0.063-6.027,2.173-3.271,3.482-8.626c-0.071,0.021-0.146,0.033-0.18,0.033
	c-0.219,0-0.311-0.307-0.346-0.872l0.402-3.317c0.123-1.273,0.123-2.177-0.17-2.177c-0.217,0-0.526,0.464-1.092,1.551
	c0-0.367,0.274-0.833,0.125-1.18l-1.258-0.76c-0.779-0.532-1.514-1.025-2.133-1.531c0.221,0.047,0.35,0.087,0.439,0.087
	c0.642,0-1.017-1.326-0.543-1.326c0.146,0,0.49,0.159,1.185,0.492l-2.101-1.552c1.008,0.301,2.554,1.167,3.978,1.879
	c-2.844-2.796-5.286-5.008-6.181-6.062c-0.674-0.353-0.963-0.452-1.127-0.452c-0.271,0,0.086,0.406-0.133,0.406
	c-0.14,0-0.506-0.153-1.377-0.632c0.125,0.033,0.252,0.051,0.307,0.051c0.599,0-0.857-1.217-2.039-1.977
	c0.947,0.766,1.127,1.105,0.729,1.105c-0.496,0-2.039-0.633-3.753-1.498c-1.331-1.439-2.567-1.879-3.61-1.879
	c-1.654,0-2.787,1.052-2.947,1.052c-0.063,0-0.041-0.026,0-0.145c0.945-0.594,1.871-2.358,2.908-2.599
	c-0.653,0.02-0.905,0.593-1.2,0.593c-0.019,0-0.019-0.007-0.037-0.027c-0.378,0.201-0.78,0.347-2.384,1.745l-1.512,2.153
	c-0.328,0.586-0.475,1.091-0.642,1.551c-1.367,1.338-2.752,1.757-3.226,2.205l2.1-2.185c-1.152,1.025-1.626,1.198-1.934,1.198
	c-0.186,0-0.291-0.051-0.438-0.051c-0.295,0-0.785,0.179-2.004,1.291l-0.453,1.067c-0.335,0.219-0.587,0.338-0.768,0.338
	c-0.072,0-0.125-0.053-0.092-0.153c-0.222,0.287-0.601,0.661-1.019,1.065c-0.295,0.261-0.274,0.288-0.367,0.46l-0.159-0.32
	c-0.041,0.247-0.166,0.48-0.438,0.534c0,0.02-0.043,0.02-0.056,0.02c-0.188,0-0.658-0.259-1.551-0.986
	c1.477,1.63,1.311,0.679,2.075,1.326c0.33,0.405,0.129,0.531-0.252,0.531c-0.333,0-0.806-0.093-0.967-0.227
	c0.619-0.758-4.048-1.943-6.056-2.65c-0.433-0.493-0.523-0.69-0.575-0.906c-0.242,0.12-0.517,0.248-0.677,0.301
	c0.549-0.579,0.435-0.727,0.235-1.101c-0.235-0.645-0.726-2.417-0.653-3.47c0.221,0.475,0.418,0.707,0.578,0.707
	c0.241,0,0.389-0.492,0.389-1.419c-0.114,0.381-0.238,0.547-0.328,0.547c-0.563,0-1.184-3.317-1.645-3.317
	c-0.016,0-0.053,0-0.072,0.041c-0.033-1.267,0.058-1.699,0.222-1.699c0.323,0,0.911,1.478,1.31,1.478
	c0.053,0,0.146-0.093,0.201-0.239c-0.453-0.966-0.453-2.153-0.494-3.231c-0.084-1.724-0.271-3.75-0.818-4.643
	c0.072,1.627,0.061,2.206-0.031,2.206c-0.201,0-0.732-2.984-1.059-3.344c-2.479-0.734-2.367-0.792-1.896-0.792
	c0.09,0,0.231,0,0.349,0c0.433,0,0.729-0.067-0.842-0.632c-1.132-0.226-2.314-0.374-3.041-0.374c-1.001,0-1.167,0.26,0.69,0.9
	c-3.276-1.094-5.103-0.566-7.706-1.66c-0.221-0.146-0.073-0.22,0.16-0.22c0.752,0,2.685,0.44,3.211,0.44
	c0.197,0,0.219-0.047-0.073-0.22c-1.256-0.293-2.056-0.372-2.663-0.372c-1.494,0-1.494,0.665-3.332,0.665
	c-0.492,0-1.111-0.046-1.912-0.172c2.331,0.718-0.186,1.244-2.422,1.337c-5.636-1.092,2.311-0.047,0.086-1.092l-2.439-0.194
	c-0.836-0.099-0.762,0.101-0.711-0.738c0.293-0.347,1.289-0.274,2.297-0.36c2.023-0.095,4.516-0.095,2.404-0.807l-3.348-0.146
	C167.504,23.627,168.598,23.221,167.012,22.749L167.012,22.749z M152.91,218.145c-36.404,0-65.988-29.593-65.988-65.944
	c0-36.398,29.584-66.017,65.988-66.017c36.388,0,66,29.619,66,66.017C218.91,188.552,189.298,218.145,152.91,218.145L152.91,218.145
	z M271.146,117.639l-0.955-0.106c0.096-0.027,0.148-0.033,0.222-0.055C270.76,117.505,270.886,117.586,271.146,117.639
	L271.146,117.639z M275.366,136.848c-0.345,0.746-4.335,3.056-5.332,3.149c-0.04,0-0.074,0-0.074,0c-0.127,0-0.04-0.093-0.092-0.146
	l2.915-1.605c0.035,0.073-0.036,0.187,0.072,0.241c0.642-0.514,1-0.748,1.401-1.041L275.366,136.848L275.366,136.848z
	 M30.474,187.371c-0.261,0-0.533-0.041-0.84-0.112c0.161,0,0.327,0.021,0.454,0.05C30.276,187.33,30.328,187.354,30.474,187.371
	L30.474,187.371z M200.466,46.232c-0.104,0.133-0.181,0.241-0.181,0.314C200.361,46.428,200.436,46.345,200.466,46.232
	L200.466,46.232z M229.471,65.302c-0.217,0.665-0.344,1.14-0.379,1.532C229.18,66.554,229.313,66.094,229.471,65.302L229.471,65.302
	z M49.455,74.406l-0.072,0.053C49.42,74.452,49.455,74.419,49.455,74.406L49.455,74.406z M275.114,122.76
	c0.075,0.114,0.146,0.2,0.235,0.248L275.114,122.76L275.114,122.76z M265.093,142.642c-0.286,0.2-0.582,0.405-0.801,0.632
	L265.093,142.642L265.093,142.642z M25.844,164.075c-0.092,0.018-0.218,0.065-0.327,0.098l0,0
	C25.583,164.156,25.698,164.143,25.844,164.075L25.844,164.075z M76.275,232.177c0.241,0.142,0.381,0.212,0.516,0.287
	C76.656,232.389,76.496,232.264,76.275,232.177L76.275,232.177z M131.866,275.996c0,0-0.075,0-0.106,0c0.032,0,0.032,0,0.032,0
	C131.852,275.996,131.866,275.996,131.866,275.996L131.866,275.996z"/>
</svg>
