<?xml version="1.0" encoding="utf-8"?>
<!-- Generator: Adobe Illustrator 19.0.0, SVG Export Plug-In . SVG Version: 6.00 Build 0)  -->
<svg version="1.1" id="Layer_1" xmlns="http://www.w3.org/2000/svg" xmlns:xlink="http://www.w3.org/1999/xlink" x="0px" y="0px"
	 viewBox="0 0 64 64" style="enable-background:new 0 0 64 64;" xml:space="preserve">
<style type="text/css">
	.st0{fill:#231F20;}
</style>
<g id="Layer_9">
	<g id="XMLID_38_">
		<path id="XMLID_84_" class="st0" d="M11.9,36.3c9.5,1.9,9.5,2.9,19.4,2.9c10.5,0,10.5-0.9,21.4-2.9c0,0,0,17.4-21.4,17.4
			C11.9,53.8,11.9,36.3,11.9,36.3z"/>
	</g>
	<g id="XMLID_24_">
		<path id="XMLID_112_" class="st0" d="M31.3,8C31,17.4,1.8,19.8,1.8,16.3c0,0,0,13.9,10.2,16.5c12,3.1,12,3.1,19.3,3.1
			c8,0,8,0,21.4-3.1c10.1-2.4,10.2-16.5,10.2-16.5C62.9,19.7,31.6,17.4,31.3,8z M35.4,27.3c0,0,0,3.5-4.1,3.5s-4.1-3.5-4.1-3.5v-6.8
			c0-0.8,0.6-1.5,1.3-1.5h5.6c0.7,0,1.3,0.7,1.3,1.5C35.4,20.5,35.4,27.3,35.4,27.3z"/>
		<path id="XMLID_106_" class="st0" d="M31.3,8C31,17.4,1.8,19.8,1.8,16.3c0,0,0,13.9,10.2,16.5c12,3.1,12,3.1,19.3,3.1
			c8,0,8,0,21.4-3.1c10.1-2.4,10.2-16.5,10.2-16.5C62.9,19.7,31.6,17.4,31.3,8z M35.4,27.3c0,0,0,3.5-4.1,3.5s-4.1-3.5-4.1-3.5v-6.8
			c0-0.8,0.6-1.5,1.3-1.5h5.6c0.7,0,1.3,0.7,1.3,1.5C35.4,20.5,35.4,27.3,35.4,27.3z"/>
		<path id="XMLID_103_" class="st0" d="M31.3,8C31,17.4,1.8,19.8,1.8,16.3c0,0,0,13.9,10.2,16.5c12,3.1,12,3.1,19.3,3.1
			c8,0,8,0,21.4-3.1c10.1-2.4,10.2-16.5,10.2-16.5C62.9,19.7,31.6,17.4,31.3,8z M35.4,27.3c0,0,0,3.5-4.1,3.5s-4.1-3.5-4.1-3.5v-6.8
			c0-0.8,0.6-1.5,1.3-1.5h5.6c0.7,0,1.3,0.7,1.3,1.5C35.4,20.5,35.4,27.3,35.4,27.3z"/>
	</g>
</g>
</svg>
