<!-- Generated by IcoMoon.io -->
<svg version="1.1" xmlns="http://www.w3.org/2000/svg" width="32" height="32" viewBox="0 0 32 32">
<title>policeman-object</title>
<path d="M5.95 18.15c4.75 0.95 4.75 1.45 9.7 1.45 5.25 0 5.25-0.45 10.7-1.45 0 0 0 8.7-10.7 8.7-9.7 0.050-9.7-8.7-9.7-8.7z"></path>
<path d="M15.65 4c-0.15 4.7-14.75 5.9-14.75 4.15 0 0 0 6.95 5.1 8.25 6 1.55 6 1.55 9.65 1.55 4 0 4 0 10.7-1.55 5.050-1.2 5.1-8.25 5.1-8.25 0 1.7-15.65 0.55-15.8-4.15zM17.7 13.65c0 0 0 1.75-2.050 1.75s-2.050-1.75-2.050-1.75v-3.4c0-0.4 0.3-0.75 0.65-0.75h2.8c0.35 0 0.65 0.35 0.65 0.75 0 0 0 3.4 0 3.4z"></path>
</svg>
