<?xml version="1.0" encoding="utf-8"?>
<!-- Generator: Adobe Illustrator 16.0.0, SVG Export Plug-In . SVG Version: 6.00 Build 0)  -->
<!DOCTYPE svg PUBLIC "-//W3C//DTD SVG 1.1//EN" "http://www.w3.org/Graphics/SVG/1.1/DTD/svg11.dtd">
<svg version="1.1" id="Layer_1" xmlns="http://www.w3.org/2000/svg" xmlns:xlink="http://www.w3.org/1999/xlink" x="0px" y="0px"
	 width="122.37px" height="250.043px" viewBox="91.447 23.933 122.37 250.043"
	 enable-background="new 91.447 23.933 122.37 250.043" xml:space="preserve">
<path fill="#212221" d="M182.281,75.406l20.104-40.159c1.451-2.191,1.451-5.138,0-7.329c-1.589-2.383-4.947-3.985-7.088-3.985
	h-85.366c-2.527,0-6.246,1.808-6.741,3.279c-0.832,2.51-0.852,4.966-0.056,7.494L123.12,74.67L91.537,211.523
	c-0.221,1.104-0.035,2.496,0.558,3.944c0.259,0.666,0.528,1.187,0.84,1.64c0.401,0.607,0.911,1.18,1.589,1.799l52.758,52.756
	c1.713,1.707,3.105,2.314,5.331,2.314c2.232,0,3.627-0.604,5.338-2.314l52.051-51.906c2.766-1.609,4.311-5.107,3.671-8.32
	L182.281,75.406z M122.112,39.229h61L169.43,66.614h-33.619L122.112,39.229z M152.613,255.659l-44.806-44.804l29.594-128.944h30.434
	l29.588,128.944L152.613,255.659z"/>
</svg>
