<!-- Generated by IcoMoon.io -->
<svg version="1.1" xmlns="http://www.w3.org/2000/svg" width="37" height="32" viewBox="0 0 37 32">
<title>role-hat</title>
<path d="M37.441 14.427c-0.356-4.209-4.177-4.672-4.177-4.672s-1.080-4.987-1.491-6.224c-0.577-1.733-2.517-3.851-6.229-2.998-4.448 1.022-5.732-1.423-9.21-0.949-3.76 0.512-4.98 3.281-5.859 6.050-0.489 1.54-2.162 6.278-2.6 6.717 0 0-7.999 3.275-7.871 9.411s8.676 9.817 16.629 9.73c7.953-0.087 21.719-6.279 20.808-17.065zM33.646 15.969c-0.176 2.016-6.234 8.049-13.577 8.656-14.348 1.186-13.774-5.084-13.715-7.158 0.063-2.215 0.877-2.462 0.877-2.462-0.438 4.111 5.171 6.846 14.284 5.795s12.099-7.538 12.099-7.538 0.207 0.691 0.031 2.708z"></path>
</svg>
