<!-- Generated by IcoMoon.io -->
<svg version="1.1" xmlns="http://www.w3.org/2000/svg" width="35" height="32" viewBox="0 0 35 32">
<title>role-top-hat</title>
<path d="M34.591 23.123c-0.18-0.081-0.389-0.137-0.543-0.135-1.691 0.027-3.38 0.128-5.070 0.202-0.011 0-0.022 0.001-0.032 0.001-0.941 0.311-1.89 0.603-2.849 0.873-1.047 0.294-2.105 0.563-3.172 0.806-3.645 0.83-7.406 1.357-11.252 1.556-1.151 0.060-2.309 0.094-3.474 0.094-0.596 0-1.176-0.099-1.768-0.115-0.209 0.089-1.232 0.492-1.525 0.566-1.242 0.358-2.486 0.713-3.719 1.1-0.143 0.045-0.288 0.088-0.431 0.134-0.305 0.099-0.756 0.513-0.723 0.712 0.024 0.141 0.29 0.422 0.855 0.74 0.19 0.107 0.416 0.218 0.677 0.33 0.679 0.291 1.6 0.584 2.815 0.812 0.271 0.051 0.542 0.090 0.813 0.135 0.819 0.184 1.641 0.332 2.469 0.405 8.368 0.736 16.465-0.601 23.789-4.729 2.718-1.532 3.56-2.867 3.509-3.181-0.017-0.102-0.176-0.218-0.37-0.305zM25.64 21.634c0.020 0.147 0.042 0.293 0.064 0.441 0.003-0.001 0.006-0.001 0.009-0.002-0.026-0.146-0.048-0.292-0.073-0.438zM21.761 14.908c-0.025-0.463-0.043-0.925-0.060-1.388 0.017 0.477 0.037 0.943 0.060 1.388zM26.715-0.132c-6.998-0.908-13.904-0.076-20.685 1.802-1.272 0.352-2.499 0.872-3.744 1.32-0.629 0.226-0.71 0.564-0.415 1.2 2.936 6.344 4.66 12.967 4.835 19.942 0.834 0.032 1.671 0.053 2.514 0.053 4.605 0 9.096-0.482 13.43-1.392-0.361-2.625-0.748-5.249-0.889-7.886-0.023-0.446-0.043-0.911-0.060-1.388-0.006-0.17-0.012-0.343-0.017-0.516-0.010-0.327-0.019-0.66-0.027-0.997-0.003-0.126-0.006-0.252-0.009-0.379-0.057-2.812-0.041-5.904-0.031-8.641 0.002-0.526 0.004-1.039 0.005-1.534 0.126 0.001 0.253 0.008 0.38 0.009 1.186 0.015 2.373 0.065 3.566 0.165-0.074 0.453-0.141 0.906-0.204 1.359-0.002 0.013-0.003 0.026-0.005 0.038 0 0 0 0 0 0.001-0.108 0.786-0.201 1.572-0.28 2.358-0.034 0.341-0.054 0.682-0.083 1.024-0.037 0.442-0.078 0.884-0.105 1.326-0.027 0.435-0.038 0.87-0.055 1.305-0.013 0.346-0.034 0.693-0.042 1.039-0.011 0.487-0.006 0.975-0.006 1.462 0.001 0.292-0.005 0.584-0.001 0.876 0.009 0.521 0.032 1.042 0.054 1.564 0.011 0.257 0.016 0.514 0.030 0.771 0.030 0.54 0.074 1.080 0.118 1.62 0.019 0.238 0.033 0.476 0.056 0.714 0.050 0.547 0.116 1.093 0.183 1.639 0.028 0.232 0.051 0.465 0.081 0.697 0.072 0.543 0.158 1.085 0.244 1.628 0.031 0.195 0.055 0.39 0.088 0.586-0.005-0.035-0.008-0.070-0.013-0.105 0.030 0.181 0.053 0.362 0.085 0.543 0.738-0.193 1.47-0.401 2.198-0.619-1.371-6.749-1.113-13.434 0.501-20.188 0.078-0.329 0.518-1.111-1.697-1.398z"></path>
</svg>
