<?xml version="1.0" encoding="utf-8"?>
<!-- Generator: Adobe Illustrator 19.0.0, SVG Export Plug-In . SVG Version: 6.00 Build 0)  -->
<svg version="1.1" id="Layer_24" xmlns="http://www.w3.org/2000/svg" xmlns:xlink="http://www.w3.org/1999/xlink" x="0px" y="0px"
	 viewBox="0 0 64 64" style="enable-background:new 0 0 64 64;" xml:space="preserve">
<path id="XMLID_105_" d="M52.4,38.4c0.5,1.4,0.6,3,0.6,4.6v0.6c3,1.1,4.8,2.5,4.8,4c0,3.9-11.5,7-25.9,7s-25.8-3.1-25.8-7
	c0-1.5,1.8-2.9,4.8-4V43c0-1.6,0.2-3.1,0.7-4.6c-7,2.2-11.5,5.5-11.5,9.2c0,6.6,14.3,12,31.9,12s31.8-5.4,31.8-12
	C63.9,43.9,59.4,40.6,52.4,38.4z"/>
<path id="XMLID_99_" d="M32,30.1c6,0,10.9-4.9,10.9-10.9S38,8.3,32,8.3s-10.9,4.9-10.9,10.9S26,30.1,32,30.1z M39.6,30.8h-1.4
	c-1.9,0.9-4,1.4-6.2,1.4s-4.3-0.5-6.2-1.4h-1.4c-6.3,0-11.4,5.1-11.4,11.4v3.5c0,2.3,1.8,4.1,4.1,4.1h30c2.3,0,4.1-1.8,4.1-4.1v-3.5
	C51.1,36,45.9,30.8,39.6,30.8z"/>
</svg>
