<!-- Generated by IcoMoon.io -->
<svg version="1.1" xmlns="http://www.w3.org/2000/svg" width="16" height="32" viewBox="0 0 16 32">
<title>role-tie</title>
<path d="M11.636 6.093l2.575-5.144c0.186-0.281 0.186-0.658 0-0.939-0.204-0.305-0.634-0.51-0.908-0.51h-10.936c-0.324 0-0.8 0.232-0.864 0.42-0.107 0.322-0.109 0.636-0.007 0.96l2.56 5.12-4.046 17.531c-0.028 0.141-0.004 0.32 0.071 0.505 0.033 0.085 0.068 0.152 0.108 0.21 0.051 0.078 0.117 0.151 0.204 0.23l6.758 6.758c0.219 0.219 0.398 0.296 0.683 0.296s0.465-0.077 0.684-0.296l6.668-6.649c0.354-0.206 0.552-0.654 0.47-1.066l-4.021-17.426zM3.928 1.459h7.814l-1.753 3.508h-4.307l-1.755-3.508zM7.836 29.184l-5.74-5.74 3.791-16.518h3.899l3.79 16.518-5.74 5.74z"></path>
</svg>
