<!-- Generated by IcoMoon.io -->
<svg version="1.1" xmlns="http://www.w3.org/2000/svg" width="32" height="32" viewBox="0 0 32 32">
<title>unemployee-object</title>
<path d="M17 0.050c0.2 0.15 0.4 0.1 0.6 0.1 4.35 0.7 7.9 3.85 9 8.050 0.25 0.9 0.35 1.8 0.35 2.7 0 1.9 0 3.8 0 5.7-0.050 4.9-3.4 9.25-8.15 10.5-5.65 1.5-11.45-1.7-13.25-7.3-0.35-1.050-0.5-2.1-0.5-3.15 0-1.95 0-3.9 0-5.8 0.050-4.9 3.4-9.2 8.15-10.45 0.55-0.15 1.1-0.25 1.65-0.3 0.050 0 0.1 0 0.15-0.050 0.65 0 1.35 0 2 0zM6.2 13.75c0 0.15 0 0.3 0 0.45 0 1.1-0.050 2.2 0.050 3.3 0.15 1.8 0.8 3.4 1.9 4.85 1.6 2.1 3.75 3.45 6.4 3.85 1.25 0.2 2.5 0.15 3.7-0.15 1.6-0.4 3.050-1.1 4.25-2.25 2.15-1.95 3.3-4.4 3.3-7.35 0-1.9 0-3.8 0-5.7 0-0.7-0.050-1.4-0.25-2.1-0.5-2-1.55-3.7-3.1-5.1-1.25-1.1-2.7-1.85-4.3-2.2-2.15-0.35-4.25-0.2-6.25 0.75-1.7 0.8-3.1 2-4.15 3.6-1.050 1.65-1.6 3.45-1.6 5.45 0.050 0.85 0.050 1.75 0.050 2.6z"></path>
<path d="M2 26.65c1.55-0.55 3.1-0.95 4.7-1.25 0.1 0 0.2-0.050 0.25-0.050 0.2-0.050 0.2-0.050 0.15 0.2s-0.15 0.5-0.2 0.7c-0.050 0.2-0.15 0.3-0.35 0.3-1.050 0.2-2.15 0.5-3.15 0.8-0.2 0.050-0.25 0.15-0.25 0.35 0 1 0 1.95 0 2.95 0 0.25 0 0.25 0.25 0.25 0.050 0 0.1 0 0.15 0 8.35 0 16.7 0 25.050 0 0.4 0 0.4 0 0.4-0.4 0-0.9 0-1.8 0-2.7 0-0.3 0-0.3-0.25-0.35-1.15-0.35-2.25-0.65-3.45-0.85-0.15-0.050-0.25-0.050-0.25-0.25-0.050-0.25-0.15-0.55-0.2-0.8-0.050-0.2-0.050-0.2 0.15-0.15 0.6 0.1 1.15 0.25 1.75 0.35 1.050 0.25 2.15 0.55 3.2 0.9 0.050 0 0.15 0.050 0.25 0.050 0 1.75 0 3.5 0 5.25 0 0.15-0.050 0.15-0.15 0.15-1.25 0-2.55 0-3.8 0-7.95 0-15.9 0-23.85 0-0.050 0-0.1 0-0.15 0-0.25 0-0.25-0.050-0.25-0.2 0-1.75 0-3.5 0-5.25z"></path>
</svg>
